<svg xmlns="http://www.w3.org/2000/svg" xmlns:xlink="http://www.w3.org/1999/xlink" width="316.89" height="472.49" viewBox="0 0 316.89 472.49"><defs><style>.cls-1{fill:url(#未命名漸層_191);}.cls-10,.cls-13,.cls-2,.cls-3,.cls-4,.cls-5,.cls-8,.cls-9{fill:none;stroke-width:2px;}.cls-10,.cls-13,.cls-14,.cls-15,.cls-16,.cls-17,.cls-18,.cls-19,.cls-2,.cls-20,.cls-21,.cls-22,.cls-23,.cls-24,.cls-25,.cls-26,.cls-27,.cls-28,.cls-29,.cls-3,.cls-4,.cls-5,.cls-8,.cls-9{stroke-miterlimit:10;}.cls-2{stroke:url(#未命名漸層_42);}.cls-3{stroke:url(#未命名漸層_42-2);}.cls-4{stroke:url(#未命名漸層_42-3);}.cls-5{stroke:url(#未命名漸層_42-4);}.cls-6{fill:url(#未命名漸層_42-5);}.cls-7{fill:url(#未命名漸層_42-6);}.cls-8{stroke:url(#未命名漸層_42-7);}.cls-9{stroke:url(#未命名漸層_42-8);}.cls-10{stroke:url(#未命名漸層_42-9);}.cls-11{fill:url(#未命名漸層_42-10);}.cls-12{fill:url(#未命名漸層_42-11);}.cls-13{stroke:url(#未命名漸層_42-12);}.cls-14{fill:url(#未命名漸層_47);stroke:url(#未命名漸層_44);}.cls-15{fill:url(#未命名漸層_47-2);stroke:url(#未命名漸層_44-2);}.cls-16{fill:url(#未命名漸層_47-3);stroke:url(#未命名漸層_44-3);}.cls-17{fill:url(#未命名漸層_47-4);stroke:url(#未命名漸層_44-4);}.cls-18{fill:url(#未命名漸層_47-5);stroke:url(#未命名漸層_44-5);}.cls-19{fill:url(#未命名漸層_47-6);stroke:url(#未命名漸層_44-6);}.cls-20{fill:url(#未命名漸層_47-7);stroke:url(#未命名漸層_44-7);}.cls-21{fill:url(#未命名漸層_47-8);stroke:url(#未命名漸層_44-8);}.cls-22{fill:url(#未命名漸層_47-9);stroke:url(#未命名漸層_44-9);}.cls-23{fill:url(#未命名漸層_47-10);stroke:url(#未命名漸層_44-10);}.cls-24{fill:url(#未命名漸層_47-11);stroke:url(#未命名漸層_44-11);}.cls-25{fill:url(#未命名漸層_47-12);stroke:url(#未命名漸層_44-12);}.cls-26{fill:url(#未命名漸層_47-13);stroke:url(#未命名漸層_44-13);}.cls-27{fill:url(#未命名漸層_47-14);stroke:url(#未命名漸層_44-14);}.cls-28{fill:url(#未命名漸層_47-15);stroke:url(#未命名漸層_44-15);}.cls-29{fill:url(#未命名漸層_47-16);stroke:url(#未命名漸層_44-16);}</style><linearGradient id="未命名漸層_191" x1="29.8" y1="4.68" x2="290.74" y2="474.37" gradientUnits="userSpaceOnUse"><stop offset="0" stop-color="#2e3453"/><stop offset="0.16" stop-color="#313f76"/><stop offset="0.29" stop-color="#32468d"/><stop offset="0.38" stop-color="#334996"/><stop offset="0.52" stop-color="#324384"/><stop offset="0.83" stop-color="#2f3860"/><stop offset="1" stop-color="#2e3453"/></linearGradient><linearGradient id="未命名漸層_42" x1="27.61" y1="253.01" x2="259.6" y2="253.01" gradientUnits="userSpaceOnUse"><stop offset="0" stop-color="#e8c5df"/><stop offset="0.96" stop-color="#a2ddd9"/></linearGradient><linearGradient id="未命名漸層_42-2" x1="55.2" y1="221.62" x2="287.27" y2="221.62" xlink:href="#未命名漸層_42"/><linearGradient id="未命名漸層_42-3" x1="37.14" y1="33.89" x2="56.2" y2="33.89" xlink:href="#未命名漸層_42"/><linearGradient id="未命名漸層_42-4" x1="19.09" y1="55.57" x2="38.14" y2="55.57" xlink:href="#未命名漸層_42"/><linearGradient id="未命名漸層_42-5" x1="68.74" y1="33.78" x2="92.58" y2="33.78" xlink:href="#未命名漸層_42"/><linearGradient id="未命名漸層_42-6" x1="23.16" y1="87.18" x2="34.09" y2="87.18" xlink:href="#未命名漸層_42"/><linearGradient id="未命名漸層_42-7" x1="18.67" y1="41.93" x2="49.82" y2="41.93" xlink:href="#未命名漸層_42"/><linearGradient id="未命名漸層_42-8" x1="258.64" y1="440.57" x2="277.69" y2="440.57" xlink:href="#未命名漸層_42"/><linearGradient id="未命名漸層_42-9" x1="276.7" y1="418.89" x2="295.75" y2="418.89" xlink:href="#未命名漸層_42"/><linearGradient id="未命名漸層_42-10" x1="222.26" y1="440.68" x2="246.1" y2="440.68" xlink:href="#未命名漸層_42"/><linearGradient id="未命名漸層_42-11" x1="280.74" y1="387.27" x2="291.67" y2="387.27" xlink:href="#未命名漸層_42"/><linearGradient id="未命名漸層_42-12" x1="265.01" y1="432.53" x2="296.16" y2="432.53" xlink:href="#未命名漸層_42"/><linearGradient id="未命名漸層_47" x1="143.09" y1="184.5" x2="185.92" y2="184.5" gradientUnits="userSpaceOnUse"><stop offset="0" stop-color="#2e3453"/><stop offset="1" stop-color="#83a2ce"/></linearGradient><linearGradient id="未命名漸層_44" x1="142.59" y1="184.59" x2="186.42" y2="184.59" gradientUnits="userSpaceOnUse"><stop offset="0" stop-color="#fff"/><stop offset="1" stop-color="#83a2ce"/></linearGradient><linearGradient id="未命名漸層_47-2" x1="104.58" y1="293.87" x2="224.44" y2="293.87" xlink:href="#未命名漸層_47"/><linearGradient id="未命名漸層_44-2" x1="104.08" y1="293.78" x2="224.94" y2="293.78" xlink:href="#未命名漸層_44"/><linearGradient id="未命名漸層_47-3" x1="215.75" y1="321.6" x2="228.49" y2="321.6" xlink:href="#未命名漸層_47"/><linearGradient id="未命名漸層_44-3" x1="215.25" y1="321.6" x2="228.99" y2="321.6" xlink:href="#未命名漸層_44"/><linearGradient id="未命名漸層_47-4" x1="80.65" y1="317.53" x2="118.22" y2="317.53" xlink:href="#未命名漸層_47"/><linearGradient id="未命名漸層_44-4" x1="79.84" y1="317.49" x2="118.93" y2="317.49" xlink:href="#未命名漸層_44"/><linearGradient id="未命名漸層_47-5" x1="114.37" y1="366.76" x2="199.24" y2="366.76" gradientTransform="translate(-206.1 201.24) rotate(-42.33)" xlink:href="#未命名漸層_47"/><linearGradient id="未命名漸層_44-5" x1="113.66" y1="366.76" x2="199.95" y2="366.76" gradientTransform="translate(-206.1 201.24) rotate(-42.33)" xlink:href="#未命名漸層_44"/><linearGradient id="未命名漸層_47-6" x1="150.88" y1="175.1" x2="178.13" y2="175.1" xlink:href="#未命名漸層_47"/><linearGradient id="未命名漸層_44-6" x1="150.24" y1="175.05" x2="178.78" y2="175.05" xlink:href="#未命名漸層_44"/><linearGradient id="未命名漸層_47-7" x1="163.86" y1="186.88" x2="165.15" y2="186.88" xlink:href="#未命名漸層_47"/><linearGradient id="未命名漸層_44-7" x1="163.36" y1="186.88" x2="165.65" y2="186.88" xlink:href="#未命名漸層_44"/><linearGradient id="未命名漸層_47-8" x1="162.89" y1="197.56" x2="166.12" y2="197.56" xlink:href="#未命名漸層_47"/><linearGradient id="未命名漸層_44-8" x1="162.39" y1="197.56" x2="166.62" y2="197.56" xlink:href="#未命名漸層_44"/><linearGradient id="未命名漸層_47-9" x1="143.88" y1="293.93" x2="186.72" y2="293.93" xlink:href="#未命名漸層_47"/><linearGradient id="未命名漸層_44-9" x1="143.38" y1="293.84" x2="187.22" y2="293.84" xlink:href="#未命名漸層_44"/><linearGradient id="未命名漸層_47-10" x1="105.37" y1="184.56" x2="225.23" y2="184.56" xlink:href="#未命名漸層_47"/><linearGradient id="未命名漸層_44-10" x1="104.87" y1="184.65" x2="225.73" y2="184.65" xlink:href="#未命名漸層_44"/><linearGradient id="未命名漸層_47-11" x1="101.32" y1="156.83" x2="114.06" y2="156.83" xlink:href="#未命名漸層_47"/><linearGradient id="未命名漸層_44-11" x1="100.82" y1="156.83" x2="114.56" y2="156.83" xlink:href="#未命名漸層_44"/><linearGradient id="未命名漸層_47-12" x1="211.58" y1="160.9" x2="249.16" y2="160.9" xlink:href="#未命名漸層_47"/><linearGradient id="未命名漸層_44-12" x1="210.88" y1="160.94" x2="249.97" y2="160.94" xlink:href="#未命名漸層_44"/><linearGradient id="未命名漸層_47-13" x1="130.57" y1="111.67" x2="215.44" y2="111.67" gradientTransform="translate(376.1 77.72) rotate(137.67)" xlink:href="#未命名漸層_47"/><linearGradient id="未命名漸層_44-13" x1="129.86" y1="111.67" x2="216.15" y2="111.67" gradientTransform="translate(376.1 77.72) rotate(137.67)" xlink:href="#未命名漸層_44"/><linearGradient id="未命名漸層_47-14" x1="151.68" y1="303.33" x2="178.92" y2="303.33" xlink:href="#未命名漸層_47"/><linearGradient id="未命名漸層_44-14" x1="151.03" y1="303.38" x2="179.57" y2="303.38" xlink:href="#未命名漸層_44"/><linearGradient id="未命名漸層_47-15" x1="164.65" y1="291.55" x2="165.95" y2="291.55" xlink:href="#未命名漸層_47"/><linearGradient id="未命名漸層_44-15" x1="164.15" y1="291.55" x2="166.45" y2="291.55" xlink:href="#未命名漸層_44"/><linearGradient id="未命名漸層_47-16" x1="163.69" y1="280.87" x2="166.91" y2="280.87" xlink:href="#未命名漸層_47"/><linearGradient id="未命名漸層_44-16" x1="163.19" y1="280.87" x2="167.41" y2="280.87" xlink:href="#未命名漸層_44"/></defs><g id="圖層_2" data-name="圖層 2"><g id="圖層_1-2" data-name="圖層 1"><rect class="cls-1" width="316.89" height="472.49" rx="25.28"/><path class="cls-2" d="M259.6,440.93H45.5A16.89,16.89,0,0,1,28.61,424v-360"/><path class="cls-3" d="M55.2,33.89H269.39a16.88,16.88,0,0,1,16.88,16.88V410.36"/><circle class="cls-4" cx="46.67" cy="33.89" r="8.53"/><circle class="cls-5" cx="28.61" cy="55.57" r="8.53"/><path class="cls-6" d="M81.44,39.24c-3,0-12.7-5.46-12.7-5.46s9.68-5.47,12.7-5.47,11.14,5.47,11.14,5.47S84.46,39.24,81.44,39.24Z"/><path class="cls-7" d="M23.16,88c0-3,5.47-12.71,5.47-12.71S34.09,85,34.09,88,28.63,99.1,28.63,99.1,23.16,91,23.16,88Z"/><circle class="cls-8" cx="34.25" cy="41.93" r="14.57"/><circle class="cls-9" cx="268.16" cy="440.57" r="8.53"/><circle class="cls-10" cx="286.22" cy="418.89" r="8.53"/><path class="cls-11" d="M233.39,435.22c3,0,12.71,5.46,12.71,5.46s-9.69,5.47-12.71,5.47-11.13-5.47-11.13-5.47S230.37,435.22,233.39,435.22Z"/><path class="cls-12" d="M291.67,386.49c0,3-5.46,12.7-5.46,12.7s-5.47-9.68-5.47-12.7,5.47-11.13,5.47-11.13S291.67,383.47,291.67,386.49Z"/><circle class="cls-13" cx="280.58" cy="432.53" r="14.57"/><path class="cls-14" d="M164.52,213.69l-.45-.42a77.6,77.6,0,0,1-9.72-11c-.2-.27-.39-.54-.57-.83a78.78,78.78,0,0,1-9-16.29l-.1-.1v-.13c-.09-.21-.17-.43-.25-.64l-.15-.39a21.41,21.41,0,1,1,40.38,0l-.13.34c-.1.26-.19.48-.28.69v.14l-.09.1a79.17,79.17,0,0,1-8.87,16.16c-.2.31-.43.64-.67,1a78.62,78.62,0,0,1-9.7,11Zm-18.51-29a77.66,77.66,0,0,0,8.85,16.06c.18.29.35.53.53.78a76,76,0,0,0,9.12,10.4,77,77,0,0,0,9.11-10.39q.33-.47.63-.93A77,77,0,0,0,183,184.67l.05-.12h0l0-.12c.08-.2.16-.4.23-.6l.15-.38a20.12,20.12,0,1,0-37.95,0l.13.3c.09.26.17.47.25.67Z"/><path class="cls-15" d="M164.5,375.8a60,60,0,0,1-55.79-81.86l.06-.13a224.6,224.6,0,0,1,27.51-50l.14-.2a226.87,226.87,0,0,1,27.65-31.29l.44-.42.45.42a227.26,227.26,0,0,1,55.29,81.45l.06.13a59.85,59.85,0,0,1,4.13,21.93h-1.3a58.51,58.51,0,0,0-4-21.33l-.07-.16a225.86,225.86,0,0,0-54.57-80.66,225.13,225.13,0,0,0-27,30.63,2.47,2.47,0,0,1-.21.29,223.63,223.63,0,0,0-27.36,49.72l-.06.14a58.68,58.68,0,0,0,54.62,80Z"/><path class="cls-16" d="M222.12,328a6.37,6.37,0,1,1,6.37-6.37A6.38,6.38,0,0,1,222.12,328Zm0-11.45a5.08,5.08,0,1,0,5.08,5.08A5.09,5.09,0,0,0,222.12,316.52Z"/><polygon class="cls-17" points="114.37 331.97 80.65 314.66 91.18 303.1 118.22 327.74 114.37 331.97"/><rect class="cls-18" x="102.01" y="363.89" width="109.6" height="5.72" transform="translate(287.88 -9.96) rotate(42.33)"/><polygon class="cls-19" points="164.51 178.89 150.88 173.73 151.8 171.31 164.51 176.13 177.22 171.31 178.13 173.73 164.51 178.89"/><rect class="cls-20" x="163.86" y="181.26" width="1.29" height="11.25"/><rect class="cls-21" x="162.89" y="196.92" width="3.23" height="1.29"/><path class="cls-22" d="M165.29,323.12a21.43,21.43,0,0,1-21.41-21.41,21.66,21.66,0,0,1,1.23-7.17l.13-.34.27-.69v-.14l.1-.1a78.36,78.36,0,0,1,8.87-16.15c.2-.31.43-.65.67-1a78,78,0,0,1,9.7-11l.44-.42.45.42a77.53,77.53,0,0,1,9.71,11c.2.27.4.54.58.83a79.25,79.25,0,0,1,9,16.29l.1.1v.13c.08.21.16.43.25.64l.15.39a21.76,21.76,0,0,1,1.23,7.18A21.44,21.44,0,0,1,165.29,323.12ZM146.71,294l-.24.6-.15.38a20.12,20.12,0,1,0,38,0l-.12-.3-.26-.67-.1-.24A77.15,77.15,0,0,0,175,277.7c-.18-.29-.35-.53-.54-.78a76.52,76.52,0,0,0-9.11-10.4,77,77,0,0,0-9.11,10.39c-.23.31-.44.62-.64.93a77.41,77.41,0,0,0-8.74,15.92l-.05.11h0Z"/><path class="cls-23" d="M165.29,266.49l-.44-.42a227.22,227.22,0,0,1-55.29-81.44l-.06-.14a59.85,59.85,0,0,1-4.13-21.93h1.29a58.67,58.67,0,0,0,4,21.32h0l.07.16a225.92,225.92,0,0,0,54.56,80.66,225.21,225.21,0,0,0,27-30.63,1.67,1.67,0,0,1,.21-.29,223.81,223.81,0,0,0,27.36-49.72l.06-.15a58.67,58.67,0,0,0-54.62-80v-1.3a60,60,0,0,1,55.79,81.86l-.06.14a225.34,225.34,0,0,1-27.51,50l-.14.2a226.87,226.87,0,0,1-27.65,31.29Z"/><path class="cls-24" d="M107.69,163.2a6.37,6.37,0,1,1,6.37-6.37A6.37,6.37,0,0,1,107.69,163.2Zm0-11.44a5.08,5.08,0,1,0,5.07,5.07A5.08,5.08,0,0,0,107.69,151.76Z"/><polygon class="cls-25" points="215.44 146.46 249.16 163.77 238.63 175.33 211.59 150.69 215.44 146.46"/><rect class="cls-26" x="118.2" y="108.81" width="109.6" height="5.72" transform="translate(225.68 310.74) rotate(-137.67)"/><polygon class="cls-27" points="178.01 307.12 165.3 302.3 152.59 307.12 151.68 304.7 165.3 299.54 178.92 304.7 178.01 307.12"/><rect class="cls-28" x="164.65" y="285.92" width="1.29" height="11.25"/><rect class="cls-29" x="163.69" y="280.22" width="3.23" height="1.29"/></g></g></svg>