<svg xmlns="http://www.w3.org/2000/svg" xmlns:xlink="http://www.w3.org/1999/xlink" width="316.89" height="472.49" viewBox="0 0 316.89 472.49"><defs><style>.cls-1{fill:url(#未命名漸層_191);}.cls-10,.cls-13,.cls-2,.cls-3,.cls-4,.cls-5,.cls-8,.cls-9{fill:none;stroke-width:2px;}.cls-10,.cls-13,.cls-14,.cls-15,.cls-16,.cls-17,.cls-18,.cls-19,.cls-2,.cls-20,.cls-21,.cls-22,.cls-23,.cls-24,.cls-25,.cls-26,.cls-27,.cls-28,.cls-3,.cls-4,.cls-5,.cls-8,.cls-9{stroke-miterlimit:10;}.cls-2{stroke:url(#未命名漸層_42);}.cls-3{stroke:url(#未命名漸層_42-2);}.cls-4{stroke:url(#未命名漸層_42-3);}.cls-5{stroke:url(#未命名漸層_42-4);}.cls-6{fill:url(#未命名漸層_42-5);}.cls-7{fill:url(#未命名漸層_42-6);}.cls-8{stroke:url(#未命名漸層_42-7);}.cls-9{stroke:url(#未命名漸層_42-8);}.cls-10{stroke:url(#未命名漸層_42-9);}.cls-11{fill:url(#未命名漸層_42-10);}.cls-12{fill:url(#未命名漸層_42-11);}.cls-13{stroke:url(#未命名漸層_42-12);}.cls-14{fill:url(#未命名漸層_47);stroke:url(#未命名漸層_44);}.cls-15{fill:url(#未命名漸層_47-2);stroke:url(#未命名漸層_44-2);}.cls-16{fill:url(#未命名漸層_47-3);stroke:url(#未命名漸層_44-3);}.cls-17{fill:url(#未命名漸層_47-4);stroke:url(#未命名漸層_44-4);}.cls-18{fill:url(#未命名漸層_47-5);stroke:url(#未命名漸層_44-5);}.cls-19{fill:url(#未命名漸層_47-6);stroke:url(#未命名漸層_44-6);}.cls-20{fill:url(#未命名漸層_47-7);stroke:url(#未命名漸層_44-7);}.cls-21{fill:url(#未命名漸層_47-8);stroke:url(#未命名漸層_44-8);}.cls-22{fill:url(#未命名漸層_47-9);stroke:url(#未命名漸層_44-9);}.cls-23{fill:url(#未命名漸層_47-10);stroke:url(#未命名漸層_44-10);}.cls-24{fill:url(#未命名漸層_47-11);stroke:url(#未命名漸層_44-11);}.cls-25{fill:url(#未命名漸層_47-12);stroke:url(#未命名漸層_44-12);}.cls-26{fill:url(#未命名漸層_47-13);stroke:url(#未命名漸層_44-13);}.cls-27{fill:url(#未命名漸層_47-14);stroke:url(#未命名漸層_44-14);}.cls-28{fill:url(#未命名漸層_47-15);stroke:url(#未命名漸層_44-15);}</style><linearGradient id="未命名漸層_191" x1="29.8" y1="4.68" x2="290.74" y2="474.37" gradientUnits="userSpaceOnUse"><stop offset="0" stop-color="#2e3453"/><stop offset="0.16" stop-color="#313f76"/><stop offset="0.29" stop-color="#32468d"/><stop offset="0.38" stop-color="#334996"/><stop offset="0.52" stop-color="#324384"/><stop offset="0.83" stop-color="#2f3860"/><stop offset="1" stop-color="#2e3453"/></linearGradient><linearGradient id="未命名漸層_42" x1="29.28" y1="253.58" x2="261.27" y2="253.58" gradientUnits="userSpaceOnUse"><stop offset="0" stop-color="#e8c5df"/><stop offset="0.96" stop-color="#a2ddd9"/></linearGradient><linearGradient id="未命名漸層_42-2" x1="56.86" y1="222.2" x2="288.94" y2="222.2" xlink:href="#未命名漸層_42"/><linearGradient id="未命名漸層_42-3" x1="38.81" y1="34.46" x2="57.86" y2="34.46" xlink:href="#未命名漸層_42"/><linearGradient id="未命名漸層_42-4" x1="20.75" y1="56.14" x2="39.8" y2="56.14" xlink:href="#未命名漸層_42"/><linearGradient id="未命名漸層_42-5" x1="70.4" y1="34.35" x2="94.24" y2="34.35" xlink:href="#未命名漸層_42"/><linearGradient id="未命名漸層_42-6" x1="24.83" y1="87.76" x2="35.76" y2="87.76" xlink:href="#未命名漸層_42"/><linearGradient id="未命名漸層_42-7" x1="20.34" y1="42.5" x2="51.49" y2="42.5" xlink:href="#未命名漸層_42"/><linearGradient id="未命名漸層_42-8" x1="260.3" y1="441.14" x2="279.35" y2="441.14" xlink:href="#未命名漸層_42"/><linearGradient id="未命名漸層_42-9" x1="278.36" y1="419.46" x2="297.41" y2="419.46" xlink:href="#未命名漸層_42"/><linearGradient id="未命名漸層_42-10" x1="223.92" y1="441.26" x2="247.76" y2="441.26" xlink:href="#未命名漸層_42"/><linearGradient id="未命名漸層_42-11" x1="282.4" y1="387.85" x2="293.33" y2="387.85" xlink:href="#未命名漸層_42"/><linearGradient id="未命名漸層_42-12" x1="266.67" y1="433.1" x2="297.82" y2="433.1" xlink:href="#未命名漸層_42"/><linearGradient id="未命名漸層_47" x1="134.32" y1="111.28" x2="182.87" y2="111.28" gradientUnits="userSpaceOnUse"><stop offset="0" stop-color="#2e3453"/><stop offset="1" stop-color="#83a2ce"/></linearGradient><linearGradient id="未命名漸層_44" x1="133.82" y1="111.38" x2="183.37" y2="111.38" gradientUnits="userSpaceOnUse"><stop offset="0" stop-color="#fff"/><stop offset="1" stop-color="#83a2ce"/></linearGradient><linearGradient id="未命名漸層_47-2" x1="90.66" y1="235.26" x2="226.53" y2="235.26" xlink:href="#未命名漸層_47"/><linearGradient id="未命名漸層_44-2" x1="90.16" y1="235.17" x2="227.03" y2="235.17" xlink:href="#未命名漸層_44"/><linearGradient id="未命名漸層_47-3" x1="134.32" y1="359.51" x2="182.87" y2="359.51" xlink:href="#未命名漸層_47"/><linearGradient id="未命名漸層_44-3" x1="133.82" y1="359.42" x2="183.37" y2="359.42" xlink:href="#未命名漸層_44"/><linearGradient id="未命名漸層_47-4" x1="90.66" y1="235.53" x2="226.53" y2="235.53" xlink:href="#未命名漸層_47"/><linearGradient id="未命名漸層_44-4" x1="90.16" y1="235.63" x2="227.03" y2="235.63" xlink:href="#未命名漸層_44"/><linearGradient id="未命名漸層_47-5" x1="133.12" y1="230.32" x2="184.07" y2="230.32" xlink:href="#未命名漸層_47"/><linearGradient id="未命名漸層_44-5" x1="132.62" y1="230.32" x2="184.57" y2="230.32" xlink:href="#未命名漸層_44"/><linearGradient id="未命名漸層_47-6" x1="118.39" y1="250.43" x2="158.59" y2="250.43" xlink:href="#未命名漸層_47"/><linearGradient id="未命名漸層_44-6" x1="117.89" y1="250.43" x2="159.09" y2="250.43" xlink:href="#未命名漸層_44"/><linearGradient id="未命名漸層_47-7" x1="158.59" y1="210.22" x2="198.8" y2="210.22" xlink:href="#未命名漸層_47"/><linearGradient id="未命名漸層_44-7" x1="158.09" y1="210.22" x2="199.3" y2="210.22" xlink:href="#未命名漸層_44"/><linearGradient id="未命名漸層_47-8" x1="150.75" y1="190.85" x2="166.44" y2="190.85" xlink:href="#未命名漸層_47"/><linearGradient id="未命名漸層_44-8" x1="150.25" y1="190.85" x2="166.94" y2="190.85" xlink:href="#未命名漸層_44"/><linearGradient id="未命名漸層_47-9" x1="150.75" y1="269.79" x2="166.44" y2="269.79" xlink:href="#未命名漸層_47"/><linearGradient id="未命名漸層_44-9" x1="150.25" y1="269.79" x2="166.94" y2="269.79" xlink:href="#未命名漸層_44"/><linearGradient id="未命名漸層_47-10" x1="146.22" y1="101.33" x2="170.67" y2="101.33" xlink:href="#未命名漸層_47"/><linearGradient id="未命名漸層_44-10" x1="145.72" y1="101.33" x2="171.17" y2="101.33" xlink:href="#未命名漸層_44"/><linearGradient id="未命名漸層_47-11" x1="157.71" y1="108.98" x2="159.18" y2="108.98" xlink:href="#未命名漸層_47"/><linearGradient id="未命名漸層_44-11" x1="157.21" y1="108.98" x2="159.68" y2="108.98" xlink:href="#未命名漸層_44"/><linearGradient id="未命名漸層_47-12" x1="155.82" y1="124.49" x2="161.08" y2="124.49" xlink:href="#未命名漸層_47"/><linearGradient id="未命名漸層_44-12" x1="155.32" y1="124.49" x2="161.58" y2="124.49" xlink:href="#未命名漸層_44"/><linearGradient id="未命名漸層_47-13" x1="146.37" y1="369.46" x2="170.82" y2="369.46" xlink:href="#未命名漸層_47"/><linearGradient id="未命名漸層_44-13" x1="145.87" y1="369.46" x2="171.32" y2="369.46" xlink:href="#未命名漸層_44"/><linearGradient id="未命名漸層_47-14" x1="157.86" y1="361.81" x2="159.33" y2="361.81" xlink:href="#未命名漸層_47"/><linearGradient id="未命名漸層_44-14" x1="157.36" y1="361.81" x2="159.83" y2="361.81" xlink:href="#未命名漸層_44"/><linearGradient id="未命名漸層_47-15" x1="155.96" y1="346.3" x2="161.23" y2="346.3" xlink:href="#未命名漸層_47"/><linearGradient id="未命名漸層_44-15" x1="155.46" y1="346.3" x2="161.73" y2="346.3" xlink:href="#未命名漸層_44"/></defs><g id="圖層_2" data-name="圖層 2"><g id="圖層_1-2" data-name="圖層 1"><rect class="cls-1" width="316.89" height="472.49" rx="25.28"/><path class="cls-2" d="M261.27,441.5H47.16a16.88,16.88,0,0,1-16.88-16.88V64.67"/><path class="cls-3" d="M56.86,34.46H271.05a16.89,16.89,0,0,1,16.89,16.88v359.6"/><circle class="cls-4" cx="48.33" cy="34.46" r="8.53"/><circle class="cls-5" cx="30.28" cy="56.14" r="8.53"/><path class="cls-6" d="M83.11,39.81c-3,0-12.71-5.46-12.71-5.46s9.69-5.46,12.71-5.46,11.13,5.46,11.13,5.46S86.12,39.81,83.11,39.81Z"/><path class="cls-7" d="M24.83,88.54c0-3,5.46-12.7,5.46-12.7s5.47,9.68,5.47,12.7-5.47,11.14-5.47,11.14S24.83,91.56,24.83,88.54Z"/><circle class="cls-8" cx="35.91" cy="42.5" r="14.57"/><circle class="cls-9" cx="269.83" cy="441.14" r="8.53"/><circle class="cls-10" cx="287.89" cy="419.46" r="8.53"/><path class="cls-11" d="M235.06,435.79c3,0,12.7,5.47,12.7,5.47s-9.69,5.46-12.7,5.46-11.14-5.46-11.14-5.46S232,435.79,235.06,435.79Z"/><path class="cls-12" d="M293.33,387.06c0,3-5.46,12.71-5.46,12.71s-5.47-9.69-5.47-12.71,5.47-11.13,5.47-11.13S293.33,384.05,293.33,387.06Z"/><circle class="cls-13" cx="282.25" cy="433.1" r="14.57"/><path class="cls-14" d="M158.6,144.37l-.5-.47a87.8,87.8,0,0,1-11-12.47c-.22-.3-.44-.61-.64-.94a88.63,88.63,0,0,1-10.12-18.34l-.15-.08v-.3c-.1-.25-.2-.51-.29-.76l-.16-.41a24.28,24.28,0,1,1,47.16-8.14,24.6,24.6,0,0,1-1.39,8.14l-.15.37c-.14.38-.25.66-.36.93a89.16,89.16,0,0,1-10.11,18.44c-.23.36-.49.74-.76,1.1a89.15,89.15,0,0,1-11,12.46Zm-21-32.9a87.65,87.65,0,0,0,10,18.21c.2.33.4.61.6.88a86.79,86.79,0,0,0,10.34,11.8,88.31,88.31,0,0,0,10.32-11.79q.39-.52.72-1a87.16,87.16,0,0,0,10-18.17c.12-.28.22-.54.31-.8l.18-.46a22.81,22.81,0,1,0-43,0l.13.35.25.64h0Z"/><path class="cls-15" d="M158.59,328.13a68,68,0,0,1-63.25-92.79l.06-.14a254.86,254.86,0,0,1,31.2-56.64c.07-.1.12-.16.16-.23a256.86,256.86,0,0,1,31.34-35.47l.5-.47.5.47a257.8,257.8,0,0,1,62.68,92.32l.07.16a68,68,0,0,1-63.26,92.79ZM96.67,236a66.48,66.48,0,1,0,123.87.06h0l-.08-.19A256,256,0,0,0,158.6,144.4,256.43,256.43,0,0,0,128,179.13a2.85,2.85,0,0,1-.24.33,253.24,253.24,0,0,0-31,56.36Z"/><path class="cls-16" d="M158.59,392.6a24.3,24.3,0,0,1-22.88-32.4l.15-.38c.1-.28.2-.54.3-.79v-.3l.16-.08a89.12,89.12,0,0,1,10-18.2c.23-.35.49-.73.76-1.1a89.07,89.07,0,0,1,11-12.45l.5-.48.5.47a88.35,88.35,0,0,1,11,12.47c.22.3.44.61.64.94A88.85,88.85,0,0,1,181,358.9c.11.26.22.54.33.82l.18.48a24.3,24.3,0,0,1-22.89,32.4Zm-21.12-32.89c-.08.2-.16.4-.23.6l-.16.39a23.08,23.08,0,0,0-1.3,7.63,22.82,22.82,0,1,0,44.32-7.63l-.14-.35c-.13-.37-.23-.63-.34-.88a88,88,0,0,0-10.09-18.36c-.2-.33-.4-.6-.6-.88a86.71,86.71,0,0,0-10.34-11.79,88.23,88.23,0,0,0-10.32,11.78q-.39.52-.72,1a88,88,0,0,0-9.92,18.05l0,.13h0Z"/><path class="cls-17" d="M158.59,328.41l-.5-.48A257.41,257.41,0,0,1,95.41,235.6l-.07-.15a67.94,67.94,0,1,1,126.51,0l-.08.17a254.87,254.87,0,0,1-31.18,56.62c-.08.1-.12.16-.16.22a256.86,256.86,0,0,1-31.34,35.47ZM96.65,234.77l.08.19a256,256,0,0,0,61.86,91.43,256.27,256.27,0,0,0,30.61-34.72,3.92,3.92,0,0,1,.24-.34,253.18,253.18,0,0,0,31-56.35l.08-.18a66.48,66.48,0,1,0-123.88,0Z"/><circle class="cls-18" cx="158.59" cy="230.32" r="25.48"/><path class="cls-19" d="M158.59,270.53a40.26,40.26,0,0,1-40.2-40.21h1.47a38.78,38.78,0,0,0,38.73,38.74Z"/><path class="cls-20" d="M198.8,230.32h-1.47a38.78,38.78,0,0,0-38.74-38.73v-1.47A40.26,40.26,0,0,1,198.8,230.32Z"/><path class="cls-21" d="M158.59,198.7a7.85,7.85,0,1,1,7.85-7.85A7.85,7.85,0,0,1,158.59,198.7Zm0-14.22a6.38,6.38,0,1,0,6.38,6.37A6.38,6.38,0,0,0,158.59,184.48Z"/><path class="cls-22" d="M158.59,277.64a7.85,7.85,0,1,1,7.85-7.85A7.85,7.85,0,0,1,158.59,277.64Zm0-14.22a6.38,6.38,0,1,0,6.38,6.37A6.38,6.38,0,0,0,158.59,263.42Z"/><rect class="cls-23" x="146.22" y="100.6" width="24.45" height="1.47"/><rect class="cls-24" x="157.71" y="101.33" width="1.47" height="15.3"/><rect class="cls-25" x="155.82" y="123.76" width="5.26" height="1.47"/><rect class="cls-26" x="146.37" y="368.73" width="24.45" height="1.47"/><rect class="cls-27" x="157.86" y="354.17" width="1.47" height="15.3"/><rect class="cls-28" x="155.96" y="345.57" width="5.26" height="1.47"/></g></g></svg>