<svg xmlns="http://www.w3.org/2000/svg" xmlns:xlink="http://www.w3.org/1999/xlink" width="316.89" height="472.49" viewBox="0 0 316.89 472.49"><defs><style>.cls-1{fill:url(#未命名漸層_191);}.cls-10,.cls-13,.cls-2,.cls-3,.cls-4,.cls-5,.cls-8,.cls-9{fill:none;stroke-width:2px;}.cls-10,.cls-13,.cls-14,.cls-15,.cls-16,.cls-18,.cls-19,.cls-2,.cls-20,.cls-21,.cls-22,.cls-23,.cls-25,.cls-29,.cls-3,.cls-30,.cls-31,.cls-32,.cls-33,.cls-34,.cls-35,.cls-36,.cls-37,.cls-4,.cls-5,.cls-8,.cls-9{stroke-miterlimit:10;}.cls-2{stroke:url(#未命名漸層_42);}.cls-3{stroke:url(#未命名漸層_42-2);}.cls-4{stroke:url(#未命名漸層_42-3);}.cls-5{stroke:url(#未命名漸層_42-4);}.cls-6{fill:url(#未命名漸層_42-5);}.cls-7{fill:url(#未命名漸層_42-6);}.cls-8{stroke:url(#未命名漸層_42-7);}.cls-9{stroke:url(#未命名漸層_42-8);}.cls-10{stroke:url(#未命名漸層_42-9);}.cls-11{fill:url(#未命名漸層_42-10);}.cls-12{fill:url(#未命名漸層_42-11);}.cls-13{stroke:url(#未命名漸層_42-12);}.cls-14{fill:url(#未命名漸層_47);stroke:url(#未命名漸層_44);}.cls-15{fill:url(#未命名漸層_47-2);stroke:url(#未命名漸層_44-2);}.cls-16{fill:url(#未命名漸層_47-3);stroke:url(#未命名漸層_44-3);}.cls-17{fill:url(#未命名漸層_47-4);}.cls-18{fill:url(#未命名漸層_47-5);stroke:url(#未命名漸層_44-4);}.cls-19{fill:url(#未命名漸層_47-6);stroke:url(#未命名漸層_44-5);}.cls-20{fill:url(#未命名漸層_47-7);stroke:url(#未命名漸層_44-6);}.cls-21{fill:url(#未命名漸層_47-8);stroke:url(#未命名漸層_44-7);}.cls-22{fill:url(#未命名漸層_47-9);stroke:url(#未命名漸層_44-8);}.cls-23{fill:url(#未命名漸層_47-10);stroke:url(#未命名漸層_44-9);}.cls-24{fill:url(#未命名漸層_47-11);}.cls-25{fill:url(#未命名漸層_47-12);stroke:url(#未命名漸層_44-10);}.cls-26{fill:url(#未命名漸層_42-13);}.cls-27{fill:url(#未命名漸層_42-14);}.cls-28{fill:url(#未命名漸層_42-15);}.cls-29{fill:url(#未命名漸層_47-13);stroke:url(#未命名漸層_44-11);}.cls-30{fill:url(#未命名漸層_47-14);stroke:url(#未命名漸層_44-12);}.cls-31{fill:url(#未命名漸層_47-15);stroke:url(#未命名漸層_44-13);}.cls-32{fill:url(#未命名漸層_47-16);stroke:url(#未命名漸層_44-14);}.cls-33{fill:url(#未命名漸層_47-17);stroke:url(#未命名漸層_44-15);}.cls-34{fill:url(#未命名漸層_47-18);stroke:url(#未命名漸層_44-16);}.cls-35{fill:url(#未命名漸層_47-19);stroke:url(#未命名漸層_44-17);}.cls-36{fill:url(#未命名漸層_47-20);stroke:url(#未命名漸層_44-18);}.cls-37{fill:url(#未命名漸層_47-21);stroke:url(#未命名漸層_44-19);}</style><linearGradient id="未命名漸層_191" x1="29.8" y1="4.68" x2="290.74" y2="474.37" gradientUnits="userSpaceOnUse"><stop offset="0" stop-color="#2e3453"/><stop offset="0.16" stop-color="#313f76"/><stop offset="0.29" stop-color="#32468d"/><stop offset="0.38" stop-color="#334996"/><stop offset="0.52" stop-color="#324384"/><stop offset="0.83" stop-color="#2f3860"/><stop offset="1" stop-color="#2e3453"/></linearGradient><linearGradient id="未命名漸層_42" x1="28.07" y1="252.63" x2="260.06" y2="252.63" gradientUnits="userSpaceOnUse"><stop offset="0" stop-color="#e8c5df"/><stop offset="0.96" stop-color="#a2ddd9"/></linearGradient><linearGradient id="未命名漸層_42-2" x1="55.66" y1="221.25" x2="287.73" y2="221.25" xlink:href="#未命名漸層_42"/><linearGradient id="未命名漸層_42-3" x1="37.61" y1="33.51" x2="56.66" y2="33.51" xlink:href="#未命名漸層_42"/><linearGradient id="未命名漸層_42-4" x1="19.55" y1="55.19" x2="38.6" y2="55.19" xlink:href="#未命名漸層_42"/><linearGradient id="未命名漸層_42-5" x1="69.2" y1="33.4" x2="93.04" y2="33.4" xlink:href="#未命名漸層_42"/><linearGradient id="未命名漸層_42-6" x1="23.63" y1="86.8" x2="34.55" y2="86.8" xlink:href="#未命名漸層_42"/><linearGradient id="未命名漸層_42-7" x1="19.14" y1="41.55" x2="50.29" y2="41.55" xlink:href="#未命名漸層_42"/><linearGradient id="未命名漸層_42-8" x1="259.1" y1="440.19" x2="278.15" y2="440.19" xlink:href="#未命名漸層_42"/><linearGradient id="未命名漸層_42-9" x1="277.16" y1="418.51" x2="296.21" y2="418.51" xlink:href="#未命名漸層_42"/><linearGradient id="未命名漸層_42-10" x1="222.72" y1="440.3" x2="246.56" y2="440.3" xlink:href="#未命名漸層_42"/><linearGradient id="未命名漸層_42-11" x1="281.2" y1="386.9" x2="292.13" y2="386.9" xlink:href="#未命名漸層_42"/><linearGradient id="未命名漸層_42-12" x1="265.47" y1="432.15" x2="296.62" y2="432.15" xlink:href="#未命名漸層_42"/><linearGradient id="未命名漸層_47" x1="90.07" y1="296" x2="225.94" y2="296" gradientUnits="userSpaceOnUse"><stop offset="0" stop-color="#2e3453"/><stop offset="1" stop-color="#83a2ce"/></linearGradient><linearGradient id="未命名漸層_44" x1="89.57" y1="295.91" x2="226.44" y2="295.91" gradientUnits="userSpaceOnUse"><stop offset="0" stop-color="#fff"/><stop offset="1" stop-color="#83a2ce"/></linearGradient><linearGradient id="未命名漸層_47-2" x1="151.35" y1="185.96" x2="158.71" y2="185.96" gradientTransform="translate(298.3 -9.21) rotate(76.1)" xlink:href="#未命名漸層_47"/><linearGradient id="未命名漸層_44-2" x1="150.75" y1="185.96" x2="159.32" y2="185.96" gradientTransform="translate(298.3 -9.21) rotate(76.1)" xlink:href="#未命名漸層_44"/><linearGradient id="未命名漸層_47-3" x1="157.71" y1="185.96" x2="164.96" y2="185.96" gradientTransform="translate(49.42 -33.32) rotate(13.91)" xlink:href="#未命名漸層_47"/><linearGradient id="未命名漸層_44-3" x1="157.11" y1="185.96" x2="165.57" y2="185.96" gradientTransform="translate(49.42 -33.32) rotate(13.91)" xlink:href="#未命名漸層_44"/><linearGradient id="未命名漸層_47-4" x1="153.59" y1="199.18" x2="162.42" y2="199.18" xlink:href="#未命名漸層_47"/><linearGradient id="未命名漸層_47-5" x1="216.76" y1="325.11" x2="234.38" y2="325.11" xlink:href="#未命名漸層_47"/><linearGradient id="未命名漸層_44-4" x1="216.26" y1="325.11" x2="235.38" y2="325.11" xlink:href="#未命名漸層_44"/><linearGradient id="未命名漸層_47-6" x1="90.95" y1="169.55" x2="226.83" y2="169.55" xlink:href="#未命名漸層_47"/><linearGradient id="未命名漸層_44-5" x1="90.45" y1="169.65" x2="227.33" y2="169.65" xlink:href="#未命名漸層_44"/><linearGradient id="未命名漸層_47-7" x1="158.18" y1="279.6" x2="165.54" y2="279.6" gradientTransform="translate(394.38 55.31) rotate(76.1)" xlink:href="#未命名漸層_47"/><linearGradient id="未命名漸層_44-6" x1="157.57" y1="279.6" x2="166.14" y2="279.6" gradientTransform="translate(394.38 55.31) rotate(76.1)" xlink:href="#未命名漸層_44"/><linearGradient id="未命名漸層_47-8" x1="166.73" y1="318.26" x2="182.87" y2="318.26" xlink:href="#未命名漸層_47"/><linearGradient id="未命名漸層_44-7" x1="166.02" y1="318.32" x2="183.49" y2="318.32" xlink:href="#未命名漸層_44"/><linearGradient id="未命名漸層_47-9" x1="135.13" y1="318.26" x2="151.27" y2="318.26" xlink:href="#未命名漸層_47"/><linearGradient id="未命名漸層_44-8" x1="134.51" y1="318.32" x2="151.98" y2="318.32" xlink:href="#未命名漸層_44"/><linearGradient id="未命名漸層_47-10" x1="151.93" y1="279.6" x2="159.18" y2="279.6" gradientTransform="translate(71.76 -29.19) rotate(13.91)" xlink:href="#未命名漸層_47"/><linearGradient id="未命名漸層_44-9" x1="151.33" y1="279.6" x2="159.79" y2="279.6" gradientTransform="translate(71.76 -29.19) rotate(13.91)" xlink:href="#未命名漸層_44"/><linearGradient id="未命名漸層_47-11" x1="154.47" y1="266.37" x2="163.31" y2="266.37" xlink:href="#未命名漸層_47"/><linearGradient id="未命名漸層_47-12" x1="82.51" y1="140.45" x2="100.13" y2="140.45" xlink:href="#未命名漸層_47"/><linearGradient id="未命名漸層_44-10" x1="81.51" y1="140.45" x2="100.63" y2="140.45" xlink:href="#未命名漸層_44"/><linearGradient id="未命名漸層_42-13" x1="137.53" y1="68.38" x2="154.33" y2="68.38" xlink:href="#未命名漸層_42"/><linearGradient id="未命名漸層_42-14" x1="137.53" y1="77.41" x2="154.33" y2="77.41" xlink:href="#未命名漸層_42"/><linearGradient id="未命名漸層_42-15" x1="137.53" y1="86.45" x2="154.33" y2="86.45" xlink:href="#未命名漸層_42"/><linearGradient id="未命名漸層_47-13" x1="165.28" y1="379.1" x2="182.07" y2="379.1" xlink:href="#未命名漸層_47"/><linearGradient id="未命名漸層_44-11" x1="164.26" y1="379.1" x2="182.97" y2="379.1" xlink:href="#未命名漸層_44"/><linearGradient id="未命名漸層_47-14" x1="165.28" y1="388.14" x2="182.07" y2="388.14" xlink:href="#未命名漸層_47"/><linearGradient id="未命名漸層_44-12" x1="164.26" y1="388.14" x2="182.97" y2="388.14" xlink:href="#未命名漸層_44"/><linearGradient id="未命名漸層_47-15" x1="165.28" y1="397.18" x2="182.07" y2="397.18" xlink:href="#未命名漸層_47"/><linearGradient id="未命名漸層_44-13" x1="164.26" y1="397.18" x2="182.97" y2="397.18" xlink:href="#未命名漸層_44"/><linearGradient id="未命名漸層_47-16" x1="134.03" y1="147.29" x2="150.17" y2="147.29" xlink:href="#未命名漸層_47"/><linearGradient id="未命名漸層_44-14" x1="133.41" y1="147.24" x2="150.88" y2="147.24" xlink:href="#未命名漸層_44"/><linearGradient id="未命名漸層_47-17" x1="165.63" y1="147.29" x2="181.77" y2="147.29" xlink:href="#未命名漸層_47"/><linearGradient id="未命名漸層_44-15" x1="164.92" y1="147.24" x2="182.39" y2="147.24" xlink:href="#未命名漸層_44"/><linearGradient id="未命名漸層_47-18" x1="135.08" y1="170.61" x2="180.93" y2="170.61" xlink:href="#未命名漸層_47"/><linearGradient id="未命名漸層_44-16" x1="134.46" y1="170.56" x2="181.55" y2="170.56" xlink:href="#未命名漸層_44"/><linearGradient id="未命名漸層_47-19" x1="133.72" y1="172.02" x2="182.28" y2="172.02" xlink:href="#未命名漸層_47"/><linearGradient id="未命名漸層_44-17" x1="133.22" y1="172.12" x2="182.78" y2="172.12" xlink:href="#未命名漸層_44"/><linearGradient id="未命名漸層_47-20" x1="135.96" y1="294.95" x2="181.82" y2="294.95" xlink:href="#未命名漸層_47"/><linearGradient id="未命名漸層_44-18" x1="135.34" y1="295" x2="182.44" y2="295" xlink:href="#未命名漸層_44"/><linearGradient id="未命名漸層_47-21" x1="134.61" y1="293.53" x2="183.17" y2="293.53" xlink:href="#未命名漸層_47"/><linearGradient id="未命名漸層_44-19" x1="134.11" y1="293.44" x2="183.67" y2="293.44" xlink:href="#未命名漸層_44"/></defs><g id="圖層_2" data-name="圖層 2"><g id="圖層_1-2" data-name="圖層 1"><rect class="cls-1" width="316.89" height="472.49" rx="25.28"/><path class="cls-2" d="M260.06,440.55H46a16.89,16.89,0,0,1-16.89-16.88v-360"/><path class="cls-3" d="M55.66,33.51H269.85a16.88,16.88,0,0,1,16.88,16.88V410"/><circle class="cls-4" cx="47.13" cy="33.51" r="8.53"/><circle class="cls-5" cx="29.07" cy="55.19" r="8.53"/><path class="cls-6" d="M81.9,38.86c-3,0-12.7-5.46-12.7-5.46s9.69-5.47,12.7-5.47S93,33.4,93,33.4,84.92,38.86,81.9,38.86Z"/><path class="cls-7" d="M23.63,87.59c0-3,5.46-12.71,5.46-12.71s5.46,9.69,5.46,12.71-5.46,11.13-5.46,11.13S23.63,90.61,23.63,87.59Z"/><circle class="cls-8" cx="34.71" cy="41.55" r="14.57"/><circle class="cls-9" cx="268.63" cy="440.19" r="8.53"/><circle class="cls-10" cx="286.68" cy="418.51" r="8.53"/><path class="cls-11" d="M233.85,434.84c3,0,12.71,5.46,12.71,5.46s-9.69,5.47-12.71,5.47-11.13-5.47-11.13-5.47S230.84,434.84,233.85,434.84Z"/><path class="cls-12" d="M292.13,386.11c0,3-5.46,12.71-5.46,12.71s-5.47-9.69-5.47-12.71S286.67,375,286.67,375,292.13,383.09,292.13,386.11Z"/><circle class="cls-13" cx="281.05" cy="432.15" r="14.57"/><path class="cls-14" d="M158,388.87a68,68,0,0,1-63.25-92.79l.07-.16A254.87,254.87,0,0,1,126,239.3l.17-.23a256.71,256.71,0,0,1,31.34-35.47l.5-.47.5.47a257.54,257.54,0,0,1,62.68,92.34l.07.14a68,68,0,0,1,4.68,24.86h-1.47a66.28,66.28,0,0,0-4.53-24.19h0l-.07-.17A256.27,256.27,0,0,0,158,205.14a256.42,256.42,0,0,0-30.62,34.73,1.83,1.83,0,0,1-.23.33,253.24,253.24,0,0,0-31,56.36l-.08.17A66.53,66.53,0,0,0,158,387.41Z"/><rect class="cls-15" x="142.66" y="185.22" width="24.75" height="1.47" transform="translate(-62.72 291.78) rotate(-76.1)"/><rect class="cls-16" x="160.6" y="173.84" width="1.47" height="24.23" transform="translate(-39.96 44.23) rotate(-13.91)"/><polygon class="cls-17" points="157.94 201.11 155.76 199.18 153.59 197.25 158 197.32 162.42 197.39 160.18 199.25 157.94 201.11"/><path class="cls-18" d="M216.76,335.28V314.94l17.62,10.17Zm1.47-17.8v15.26l13.22-7.63Z"/><path class="cls-19" d="M158.88,262.43l-.5-.48A257.67,257.67,0,0,1,95.7,169.62l-.06-.15A67.75,67.75,0,0,1,91,144.61h1.47A66.19,66.19,0,0,0,97,168.79L97,169a256.08,256.08,0,0,0,61.85,91.43,255.65,255.65,0,0,0,30.62-34.72,1.55,1.55,0,0,1,.24-.34,253.58,253.58,0,0,0,31-56.35l.07-.18A66.52,66.52,0,0,0,158.9,78.15V76.68a68,68,0,0,1,63.24,92.79l-.07.17a255.28,255.28,0,0,1-31.18,56.62,1.42,1.42,0,0,0-.16.22A256.86,256.86,0,0,1,159.39,262Z"/><rect class="cls-20" x="149.48" y="278.87" width="24.75" height="1.47" transform="translate(-148.44 369.55) rotate(-76.1)"/><path class="cls-21" d="M179.91,332.67l-13.18-15.91,16.14-12.9ZM168.81,317l10,12.06,2.24-21.85Z"/><path class="cls-22" d="M138.08,332.67l-3-28.81,16.14,12.9Zm-1.14-25.48L139.18,329l10-12.06Z"/><rect class="cls-23" x="154.82" y="267.48" width="1.47" height="24.23" transform="translate(-62.64 45.58) rotate(-13.91)"/><polygon class="cls-24" points="158.95 264.45 161.13 266.38 163.31 268.3 158.89 268.24 154.47 268.17 156.71 266.31 158.95 264.45"/><path class="cls-25" d="M100.13,150.62,82.51,140.45l17.62-10.18ZM85.44,140.45l13.22,7.63V132.81Z"/><path class="cls-26" d="M146.48,72.32c-1.87,0-6.84-2.75-7.81-3.3l-1.14-.64,1.14-.64c1-.55,5.94-3.3,7.81-3.3s6.12,2.77,6.94,3.33l.91.61-.91.61C152.6,69.54,148.38,72.32,146.48,72.32Zm-5.93-3.94c2.15,1.14,5,2.47,5.93,2.47s3.39-1.34,5.19-2.47c-1.8-1.14-4.24-2.48-5.19-2.48S142.7,67.24,140.55,68.38Z"/><path class="cls-27" d="M146.48,81.35c-1.87,0-6.84-2.74-7.81-3.3l-1.14-.64,1.14-.63c1-.56,5.94-3.3,7.81-3.3s6.12,2.77,6.94,3.33l.91.6-.91.61C152.6,78.58,148.38,81.35,146.48,81.35Zm-5.93-3.94c2.15,1.14,5,2.48,5.93,2.48s3.39-1.34,5.19-2.48c-1.8-1.13-4.24-2.47-5.19-2.47S142.7,76.27,140.55,77.41Z"/><path class="cls-28" d="M146.48,90.39c-1.87,0-6.84-2.75-7.81-3.3l-1.14-.64,1.14-.64c1-.55,5.94-3.3,7.81-3.3s6.12,2.78,6.94,3.34l.91.6-.91.61C152.6,87.62,148.38,90.39,146.48,90.39Zm-5.93-3.94c2.15,1.14,5,2.48,5.93,2.48s3.39-1.34,5.19-2.48c-1.8-1.13-4.24-2.47-5.19-2.47S142.7,85.31,140.55,86.45Z"/><path class="cls-29" d="M174.22,383c-1.86,0-6.83-2.75-7.81-3.3l-1.13-.64,1.13-.64c1-.55,6-3.3,7.81-3.3s6.12,2.78,6.95,3.33l.9.61-.9.61C180.34,380.27,176.12,383,174.22,383Zm-5.92-3.94c2.15,1.14,5,2.48,5.92,2.48s3.39-1.34,5.19-2.48c-1.8-1.13-4.24-2.47-5.19-2.47S170.45,378,168.3,379.1Z"/><path class="cls-30" d="M174.22,392.08c-1.86,0-6.83-2.75-7.81-3.3l-1.13-.64,1.13-.64c1-.55,6-3.3,7.81-3.3s6.12,2.78,6.95,3.33l.9.61-.9.61C180.34,389.3,176.12,392.08,174.22,392.08Zm-5.92-3.94c2.15,1.14,5,2.47,5.92,2.47s3.39-1.34,5.19-2.47c-1.8-1.13-4.24-2.47-5.19-2.47S170.45,387,168.3,388.14Z"/><path class="cls-31" d="M174.22,401.12c-1.86,0-6.83-2.75-7.81-3.3l-1.13-.64,1.13-.64c1-.55,6-3.3,7.81-3.3s6.12,2.77,6.95,3.33l.9.61-.9.61C180.34,398.34,176.12,401.12,174.22,401.12Zm-5.92-3.94c2.15,1.14,5,2.47,5.92,2.47s3.39-1.34,5.19-2.47c-1.8-1.14-4.24-2.48-5.19-2.48S170.45,396,168.3,397.18Z"/><path class="cls-32" d="M134,161.7,137,132.89l13.19,15.9Zm4.05-25.19-2.24,21.86,12.25-9.79Z"/><path class="cls-33" d="M181.77,161.7l-16.14-12.91,13.18-15.9Zm-14.06-13.12L180,158.37l-2.24-21.86Z"/><polygon class="cls-34" points="158 174.71 135.08 167.92 135.5 166.51 158 173.18 180.51 166.51 180.93 167.92 158 174.71"/><path class="cls-35" d="M158,205.11l-.5-.47a87.18,87.18,0,0,1-11-12.47,10.35,10.35,0,0,1-.64-.94,88.6,88.6,0,0,1-10.22-18.6c-.11-.25-.22-.53-.32-.8l-.19-.49a24.28,24.28,0,1,1,45.77,0l-.15.37c-.11.29-.21.55-.31.79v.16l-.11.11a88.89,88.89,0,0,1-10,18.31c-.23.36-.49.74-.76,1.1a89.15,89.15,0,0,1-11,12.46Zm-21.52-34.27.14.35c.15.37.24.63.35.88a87.7,87.7,0,0,0,10.09,18.35c.2.33.4.61.6.88A86.11,86.11,0,0,0,158,203.1a88.31,88.31,0,0,0,10.32-11.79c.26-.34.5-.7.72-1.05a87.46,87.46,0,0,0,9.92-18l.11-.27.27-.7.17-.41a22.81,22.81,0,1,0-43,0Z"/><polygon class="cls-36" points="181.4 299.05 158.89 292.38 136.38 299.05 135.97 297.64 158.89 290.85 181.81 297.64 181.4 299.05"/><path class="cls-37" d="M158.88,326.62a24.3,24.3,0,0,1-24.27-24.27,24.55,24.55,0,0,1,1.39-8.13l.15-.38.31-.79v-.15l.11-.12a89,89,0,0,1,10.06-18.31c.22-.35.48-.73.75-1.1a89.07,89.07,0,0,1,11-12.45l.5-.48.5.47a87.73,87.73,0,0,1,11,12.47c.23.3.44.61.65.94a89.3,89.3,0,0,1,10.22,18.6c.11.26.21.53.32.81l.19.49a24.3,24.3,0,0,1-22.9,32.4Zm-21.06-33c-.1.23-.19.47-.28.71l-.16.4a23.08,23.08,0,0,0-1.3,7.63,22.81,22.81,0,1,0,45.62,0,23.08,23.08,0,0,0-1.3-7.63l-.14-.36c-.14-.37-.24-.62-.35-.87a87.53,87.53,0,0,0-10.08-18.36c-.21-.33-.4-.6-.61-.88a86.64,86.64,0,0,0-10.33-11.79,87,87,0,0,0-10.33,11.78q-.37.52-.72,1.05a87.47,87.47,0,0,0-9.91,18Z"/></g></g></svg>