<svg xmlns="http://www.w3.org/2000/svg" xmlns:xlink="http://www.w3.org/1999/xlink" width="316.89" height="472.49" viewBox="0 0 316.89 472.49"><defs><style>.cls-1{fill:url(#未命名漸層_191);}.cls-10,.cls-13,.cls-2,.cls-3,.cls-4,.cls-5,.cls-8,.cls-9{fill:none;stroke-width:2px;}.cls-10,.cls-13,.cls-14,.cls-15,.cls-16,.cls-18,.cls-19,.cls-2,.cls-20,.cls-21,.cls-22,.cls-23,.cls-24,.cls-25,.cls-26,.cls-27,.cls-28,.cls-3,.cls-30,.cls-31,.cls-32,.cls-33,.cls-34,.cls-35,.cls-36,.cls-37,.cls-38,.cls-39,.cls-4,.cls-40,.cls-41,.cls-42,.cls-43,.cls-44,.cls-45,.cls-5,.cls-8,.cls-9{stroke-miterlimit:10;}.cls-2{stroke:url(#未命名漸層_42);}.cls-3{stroke:url(#未命名漸層_42-2);}.cls-4{stroke:url(#未命名漸層_42-3);}.cls-5{stroke:url(#未命名漸層_42-4);}.cls-6{fill:url(#未命名漸層_42-5);}.cls-7{fill:url(#未命名漸層_42-6);}.cls-8{stroke:url(#未命名漸層_42-7);}.cls-9{stroke:url(#未命名漸層_42-8);}.cls-10{stroke:url(#未命名漸層_42-9);}.cls-11{fill:url(#未命名漸層_42-10);}.cls-12{fill:url(#未命名漸層_42-11);}.cls-13{stroke:url(#未命名漸層_42-12);}.cls-14{fill:url(#未命名漸層_44);stroke:url(#未命名漸層_44-2);}.cls-15{fill:url(#未命名漸層_47);stroke:url(#未命名漸層_44-3);}.cls-16{fill:url(#未命名漸層_47-2);stroke:url(#未命名漸層_44-4);}.cls-17{fill:url(#未命名漸層_47-3);}.cls-18{fill:url(#未命名漸層_44-5);stroke:url(#未命名漸層_44-6);}.cls-19{fill:url(#未命名漸層_44-7);stroke:url(#未命名漸層_44-8);}.cls-20{fill:url(#未命名漸層_44-9);stroke:url(#未命名漸層_44-10);}.cls-21{fill:url(#未命名漸層_44-11);stroke:url(#未命名漸層_44-12);}.cls-22{fill:url(#未命名漸層_44-13);stroke:url(#未命名漸層_44-14);}.cls-23{fill:url(#未命名漸層_44-15);stroke:url(#未命名漸層_44-16);}.cls-24{fill:url(#未命名漸層_44-17);stroke:url(#未命名漸層_44-18);}.cls-25{fill:url(#未命名漸層_44-19);stroke:url(#未命名漸層_44-20);}.cls-26{fill:url(#未命名漸層_44-21);stroke:url(#未命名漸層_44-22);}.cls-27{fill:url(#未命名漸層_47-4);stroke:url(#未命名漸層_44-23);}.cls-28{fill:url(#未命名漸層_47-5);stroke:url(#未命名漸層_44-24);}.cls-29{fill:url(#未命名漸層_47-6);}.cls-30{fill:url(#未命名漸層_44-25);stroke:url(#未命名漸層_44-26);}.cls-31{fill:url(#未命名漸層_44-27);stroke:url(#未命名漸層_44-28);}.cls-32{fill:url(#未命名漸層_44-29);stroke:url(#未命名漸層_44-30);}.cls-33{fill:url(#未命名漸層_44-31);stroke:url(#未命名漸層_44-32);}.cls-34{fill:url(#未命名漸層_44-33);stroke:url(#未命名漸層_44-34);}.cls-35{fill:url(#未命名漸層_44-35);stroke:url(#未命名漸層_44-36);}.cls-36{fill:url(#未命名漸層_44-37);stroke:url(#未命名漸層_44-38);}.cls-37{fill:url(#未命名漸層_44-39);stroke:url(#未命名漸層_44-40);}.cls-38{fill:url(#未命名漸層_47-7);stroke:url(#未命名漸層_44-41);}.cls-39{fill:url(#未命名漸層_44-42);stroke:url(#未命名漸層_44-43);}.cls-40{fill:url(#未命名漸層_44-44);stroke:url(#未命名漸層_44-45);}.cls-41{fill:url(#未命名漸層_47-8);stroke:url(#未命名漸層_44-46);}.cls-42{fill:url(#未命名漸層_44-47);stroke:url(#未命名漸層_44-48);}.cls-43{fill:url(#未命名漸層_44-49);stroke:url(#未命名漸層_44-50);}.cls-44{fill:url(#未命名漸層_44-51);stroke:url(#未命名漸層_44-52);}.cls-45{fill:url(#未命名漸層_44-53);stroke:url(#未命名漸層_44-54);}</style><linearGradient id="未命名漸層_191" x1="29.8" y1="4.68" x2="290.74" y2="474.37" gradientUnits="userSpaceOnUse"><stop offset="0" stop-color="#2e3453"/><stop offset="0.16" stop-color="#313f76"/><stop offset="0.29" stop-color="#32468d"/><stop offset="0.38" stop-color="#334996"/><stop offset="0.52" stop-color="#324384"/><stop offset="0.83" stop-color="#2f3860"/><stop offset="1" stop-color="#2e3453"/></linearGradient><linearGradient id="未命名漸層_42" x1="28.57" y1="252.12" x2="260.56" y2="252.12" gradientUnits="userSpaceOnUse"><stop offset="0" stop-color="#e8c5df"/><stop offset="0.96" stop-color="#a2ddd9"/></linearGradient><linearGradient id="未命名漸層_42-2" x1="56.15" y1="220.74" x2="288.23" y2="220.74" xlink:href="#未命名漸層_42"/><linearGradient id="未命名漸層_42-3" x1="38.1" y1="33" x2="57.15" y2="33" xlink:href="#未命名漸層_42"/><linearGradient id="未命名漸層_42-4" x1="20.04" y1="54.68" x2="39.09" y2="54.68" xlink:href="#未命名漸層_42"/><linearGradient id="未命名漸層_42-5" x1="69.69" y1="32.89" x2="93.53" y2="32.89" xlink:href="#未命名漸層_42"/><linearGradient id="未命名漸層_42-6" x1="24.12" y1="86.29" x2="35.05" y2="86.29" xlink:href="#未命名漸層_42"/><linearGradient id="未命名漸層_42-7" x1="19.63" y1="41.04" x2="50.78" y2="41.04" xlink:href="#未命名漸層_42"/><linearGradient id="未命名漸層_42-8" x1="259.59" y1="439.68" x2="278.64" y2="439.68" xlink:href="#未命名漸層_42"/><linearGradient id="未命名漸層_42-9" x1="277.65" y1="418" x2="296.7" y2="418" xlink:href="#未命名漸層_42"/><linearGradient id="未命名漸層_42-10" x1="223.21" y1="439.79" x2="247.05" y2="439.79" xlink:href="#未命名漸層_42"/><linearGradient id="未命名漸層_42-11" x1="281.69" y1="386.39" x2="292.62" y2="386.39" xlink:href="#未命名漸層_42"/><linearGradient id="未命名漸層_42-12" x1="265.96" y1="431.64" x2="297.11" y2="431.64" xlink:href="#未命名漸層_42"/><linearGradient id="未命名漸層_44" x1="150.95" y1="182.21" x2="163.53" y2="182.21" gradientUnits="userSpaceOnUse"><stop offset="0" stop-color="#fff"/><stop offset="1" stop-color="#83a2ce"/></linearGradient><linearGradient id="未命名漸層_44-2" x1="150.39" y1="181.64" x2="164.08" y2="181.64" xlink:href="#未命名漸層_44"/><linearGradient id="未命名漸層_47" x1="89.17" y1="288.65" x2="225.04" y2="288.65" gradientUnits="userSpaceOnUse"><stop offset="0" stop-color="#2e3453"/><stop offset="1" stop-color="#83a2ce"/></linearGradient><linearGradient id="未命名漸層_44-3" x1="88.67" y1="288.55" x2="225.54" y2="288.55" xlink:href="#未命名漸層_44"/><linearGradient id="未命名漸層_47-2" x1="134.18" y1="163.25" x2="180.03" y2="163.25" xlink:href="#未命名漸層_47"/><linearGradient id="未命名漸層_44-4" x1="133.56" y1="163.2" x2="180.65" y2="163.2" xlink:href="#未命名漸層_44"/><linearGradient id="未命名漸層_47-3" x1="152.69" y1="189.9" x2="161.52" y2="189.9" xlink:href="#未命名漸層_47"/><linearGradient id="未命名漸層_44-5" x1="216.6" y1="317.75" x2="232.02" y2="317.75" xlink:href="#未命名漸層_44"/><linearGradient id="未命名漸層_44-6" x1="216.1" y1="317.75" x2="233.02" y2="317.75" xlink:href="#未命名漸層_44"/><linearGradient id="未命名漸層_44-7" x1="215.86" y1="317.75" x2="233.48" y2="317.75" xlink:href="#未命名漸層_44"/><linearGradient id="未命名漸層_44-8" x1="215.36" y1="317.75" x2="234.48" y2="317.75" xlink:href="#未命名漸層_44"/><linearGradient id="未命名漸層_44-9" x1="165.87" y1="371.75" x2="179.86" y2="371.75" xlink:href="#未命名漸層_44"/><linearGradient id="未命名漸層_44-10" x1="164.85" y1="371.75" x2="180.75" y2="371.75" xlink:href="#未命名漸層_44"/><linearGradient id="未命名漸層_44-11" x1="164.38" y1="371.75" x2="181.17" y2="371.75" xlink:href="#未命名漸層_44"/><linearGradient id="未命名漸層_44-12" x1="163.36" y1="371.75" x2="182.07" y2="371.75" xlink:href="#未命名漸層_44"/><linearGradient id="未命名漸層_44-13" x1="165.87" y1="380.78" x2="179.86" y2="380.78" xlink:href="#未命名漸層_44"/><linearGradient id="未命名漸層_44-14" x1="164.85" y1="380.78" x2="180.75" y2="380.78" xlink:href="#未命名漸層_44"/><linearGradient id="未命名漸層_44-15" x1="164.38" y1="380.78" x2="181.17" y2="380.78" xlink:href="#未命名漸層_44"/><linearGradient id="未命名漸層_44-16" x1="163.36" y1="380.78" x2="182.07" y2="380.78" xlink:href="#未命名漸層_44"/><linearGradient id="未命名漸層_44-17" x1="165.87" y1="389.82" x2="179.86" y2="389.82" xlink:href="#未命名漸層_44"/><linearGradient id="未命名漸層_44-18" x1="164.85" y1="389.82" x2="180.75" y2="389.82" xlink:href="#未命名漸層_44"/><linearGradient id="未命名漸層_44-19" x1="164.38" y1="389.82" x2="181.17" y2="389.82" xlink:href="#未命名漸層_44"/><linearGradient id="未命名漸層_44-20" x1="163.36" y1="389.82" x2="182.07" y2="389.82" xlink:href="#未命名漸層_44"/><linearGradient id="未命名漸層_44-21" x1="151.57" y1="274.75" x2="164.14" y2="274.75" xlink:href="#未命名漸層_44"/><linearGradient id="未命名漸層_44-22" x1="151.01" y1="275.32" x2="164.71" y2="275.32" xlink:href="#未命名漸層_44"/><linearGradient id="未命名漸層_47-4" x1="90.05" y1="168.32" x2="225.93" y2="168.32" xlink:href="#未命名漸層_47"/><linearGradient id="未命名漸層_44-23" x1="89.55" y1="168.41" x2="226.43" y2="168.41" xlink:href="#未命名漸層_44"/><linearGradient id="未命名漸層_47-5" x1="135.07" y1="293.71" x2="180.92" y2="293.71" xlink:href="#未命名漸層_47"/><linearGradient id="未命名漸層_44-24" x1="134.44" y1="293.76" x2="181.54" y2="293.76" xlink:href="#未命名漸層_44"/><linearGradient id="未命名漸層_47-6" x1="153.47" y1="266.11" x2="162.3" y2="266.11" xlink:href="#未命名漸層_47"/><linearGradient id="未命名漸層_44-25" x1="83.08" y1="139.21" x2="98.5" y2="139.21" xlink:href="#未命名漸層_44"/><linearGradient id="未命名漸層_44-26" x1="82.08" y1="139.21" x2="99" y2="139.21" xlink:href="#未命名漸層_44"/><linearGradient id="未命名漸層_44-27" x1="81.61" y1="139.21" x2="99.23" y2="139.21" xlink:href="#未命名漸層_44"/><linearGradient id="未命名漸層_44-28" x1="80.61" y1="139.21" x2="99.73" y2="139.21" xlink:href="#未命名漸層_44"/><linearGradient id="未命名漸層_44-29" x1="135.24" y1="85.22" x2="149.22" y2="85.22" xlink:href="#未命名漸層_44"/><linearGradient id="未命名漸層_44-30" x1="134.34" y1="85.22" x2="150.24" y2="85.22" xlink:href="#未命名漸層_44"/><linearGradient id="未命名漸層_44-31" x1="133.92" y1="85.22" x2="150.72" y2="85.22" xlink:href="#未命名漸層_44"/><linearGradient id="未命名漸層_44-32" x1="133.03" y1="85.22" x2="151.73" y2="85.22" xlink:href="#未命名漸層_44"/><linearGradient id="未命名漸層_44-33" x1="135.24" y1="76.18" x2="149.22" y2="76.18" xlink:href="#未命名漸層_44"/><linearGradient id="未命名漸層_44-34" x1="134.34" y1="76.18" x2="150.24" y2="76.18" xlink:href="#未命名漸層_44"/><linearGradient id="未命名漸層_44-35" x1="133.92" y1="76.18" x2="150.72" y2="76.18" xlink:href="#未命名漸層_44"/><linearGradient id="未命名漸層_44-36" x1="133.03" y1="76.18" x2="151.73" y2="76.18" xlink:href="#未命名漸層_44"/><linearGradient id="未命名漸層_44-37" x1="135.24" y1="67.14" x2="149.22" y2="67.14" xlink:href="#未命名漸層_44"/><linearGradient id="未命名漸層_44-38" x1="134.34" y1="67.14" x2="150.24" y2="67.14" xlink:href="#未命名漸層_44"/><linearGradient id="未命名漸層_44-39" x1="133.92" y1="67.14" x2="150.72" y2="67.14" xlink:href="#未命名漸層_44"/><linearGradient id="未命名漸層_44-40" x1="133.03" y1="67.14" x2="151.73" y2="67.14" xlink:href="#未命名漸層_44"/><linearGradient id="未命名漸層_47-7" x1="132.82" y1="164.67" x2="181.38" y2="164.67" xlink:href="#未命名漸層_47"/><linearGradient id="未命名漸層_44-41" x1="132.32" y1="164.76" x2="181.88" y2="164.76" xlink:href="#未命名漸層_44"/><linearGradient id="未命名漸層_44-42" x1="134.03" y1="140.01" x2="148.23" y2="140.01" xlink:href="#未命名漸層_44"/><linearGradient id="未命名漸層_44-43" x1="133.42" y1="139.96" x2="148.94" y2="139.96" xlink:href="#未命名漸層_44"/><linearGradient id="未命名漸層_44-44" x1="165.77" y1="140.01" x2="179.96" y2="140.01" xlink:href="#未命名漸層_44"/><linearGradient id="未命名漸層_44-45" x1="165.06" y1="139.96" x2="180.58" y2="139.96" xlink:href="#未命名漸層_44"/><linearGradient id="未命名漸層_47-8" x1="133.71" y1="292.3" x2="182.27" y2="292.3" xlink:href="#未命名漸層_47"/><linearGradient id="未命名漸層_44-46" x1="133.21" y1="292.21" x2="182.77" y2="292.21" xlink:href="#未命名漸層_44"/><linearGradient id="未命名漸層_44-47" x1="166.87" y1="316.96" x2="181.06" y2="316.96" xlink:href="#未命名漸層_44"/><linearGradient id="未命名漸層_44-48" x1="166.16" y1="317.01" x2="181.68" y2="317.01" xlink:href="#未命名漸層_44"/><linearGradient id="未命名漸層_44-49" x1="135.13" y1="316.96" x2="149.33" y2="316.96" xlink:href="#未命名漸層_44"/><linearGradient id="未命名漸層_44-50" x1="134.51" y1="317.01" x2="150.03" y2="317.01" xlink:href="#未命名漸層_44"/><linearGradient id="未命名漸層_44-51" x1="148.35" y1="118.89" x2="165.86" y2="118.89" xlink:href="#未命名漸層_44"/><linearGradient id="未命名漸層_44-52" x1="147.71" y1="118.04" x2="166.49" y2="118.04" xlink:href="#未命名漸層_44"/><linearGradient id="未命名漸層_44-53" x1="148.35" y1="305.13" x2="165.86" y2="305.13" gradientTransform="translate(314.2 644.09) rotate(180)" xlink:href="#未命名漸層_44"/><linearGradient id="未命名漸層_44-54" x1="147.71" y1="304.28" x2="166.49" y2="304.28" gradientTransform="translate(314.2 644.09) rotate(180)" xlink:href="#未命名漸層_44"/></defs><g id="圖層_2" data-name="圖層 2"><g id="圖層_1-2" data-name="圖層 1"><rect class="cls-1" width="316.89" height="472.49" rx="25.28"/><path class="cls-2" d="M260.56,440H46.45a16.88,16.88,0,0,1-16.88-16.88V63.2"/><path class="cls-3" d="M56.15,33H270.34a16.89,16.89,0,0,1,16.89,16.88v359.6"/><circle class="cls-4" cx="47.62" cy="33" r="8.53"/><circle class="cls-5" cx="29.57" cy="54.68" r="8.53"/><path class="cls-6" d="M82.39,38.35c-3,0-12.7-5.46-12.7-5.46s9.69-5.47,12.7-5.47,11.14,5.47,11.14,5.47S85.41,38.35,82.39,38.35Z"/><path class="cls-7" d="M24.12,87.08c0-3,5.46-12.71,5.46-12.71s5.47,9.69,5.47,12.71-5.47,11.13-5.47,11.13S24.12,90.1,24.12,87.08Z"/><circle class="cls-8" cx="35.2" cy="41.04" r="14.57"/><circle class="cls-9" cx="269.12" cy="439.68" r="8.53"/><circle class="cls-10" cx="287.17" cy="418" r="8.53"/><path class="cls-11" d="M234.34,434.33c3,0,12.71,5.46,12.71,5.46s-9.69,5.47-12.71,5.47-11.13-5.47-11.13-5.47S231.33,434.33,234.34,434.33Z"/><path class="cls-12" d="M292.62,385.6c0,3-5.46,12.71-5.46,12.71s-5.47-9.69-5.47-12.71,5.47-11.13,5.47-11.13S292.62,382.58,292.62,385.6Z"/><circle class="cls-13" cx="281.54" cy="431.64" r="14.57"/><polygon class="cls-14" points="157.48 167.68 150.95 190.62 157.11 196.75 163.53 189.9 157.48 167.68"/><path class="cls-15" d="M157.1,381.52a68,68,0,0,1-63.25-92.79l.06-.15a255.23,255.23,0,0,1,31.19-56.64,1.33,1.33,0,0,0,.17-.23,257.36,257.36,0,0,1,31.34-35.46l.5-.48.5.48a257.48,257.48,0,0,1,62.67,92.32l.08.16A67.91,67.91,0,0,1,225,313.59h-1.47a66.39,66.39,0,0,0-4.52-24.18h0l-.08-.18a256.15,256.15,0,0,0-61.86-91.44,255.82,255.82,0,0,0-30.62,34.72,1.83,1.83,0,0,1-.23.33,253.91,253.91,0,0,0-31,56.36l-.06.15a66.52,66.52,0,0,0,61.92,90.7Z"/><polygon class="cls-16" points="157.1 167.35 134.18 160.56 134.59 159.15 157.1 165.82 179.61 159.15 180.03 160.56 157.1 167.35"/><polygon class="cls-17" points="157.04 191.82 154.87 189.9 152.69 187.97 157.1 188.04 161.52 188.1 159.28 189.96 157.04 191.82"/><polygon class="cls-18" points="232.02 317.75 224.31 322.21 216.6 326.66 216.6 317.75 216.6 308.85 224.31 313.3 232.02 317.75"/><path class="cls-19" d="M215.86,327.93V307.58l17.62,10.17Zm1.47-17.81v15.27l13.22-7.64Z"/><path class="cls-20" d="M173.32,375c-1.77,0-7.45-3.2-7.45-3.2s5.68-3.21,7.45-3.21,6.54,3.21,6.54,3.21S175.1,375,173.32,375Z"/><path class="cls-21" d="M173.33,375.69c-1.87,0-6.84-2.75-7.82-3.31l-1.13-.63,1.13-.64c1-.55,6-3.3,7.82-3.3s6.11,2.77,6.94,3.33l.9.61-.9.6C179.44,372.91,175.22,375.69,173.33,375.69Zm-5.93-3.94c2.14,1.14,5,2.47,5.93,2.47s3.38-1.34,5.18-2.47c-1.8-1.14-4.24-2.48-5.18-2.48S169.54,370.61,167.4,371.75Z"/><path class="cls-22" d="M173.32,384c-1.77,0-7.45-3.21-7.45-3.21s5.68-3.2,7.45-3.2,6.54,3.2,6.54,3.2S175.1,384,173.32,384Z"/><path class="cls-23" d="M173.33,384.72c-1.87,0-6.84-2.75-7.82-3.3l-1.13-.64,1.13-.63c1-.56,6-3.31,7.82-3.31s6.11,2.78,6.94,3.34l.9.6-.9.61C179.44,382,175.22,384.72,173.33,384.72Zm-5.93-3.94c2.14,1.14,5,2.48,5.93,2.48s3.38-1.34,5.18-2.48c-1.8-1.13-4.24-2.47-5.18-2.47S169.54,379.64,167.4,380.78Z"/><path class="cls-24" d="M173.32,393c-1.77,0-7.45-3.21-7.45-3.21s5.68-3.2,7.45-3.2,6.54,3.2,6.54,3.2S175.1,393,173.32,393Z"/><path class="cls-25" d="M173.33,393.76c-1.87,0-6.84-2.75-7.82-3.3l-1.13-.64,1.13-.64c1-.55,6-3.3,7.82-3.3s6.11,2.78,6.94,3.33l.9.61-.9.61C179.44,391,175.22,393.76,173.33,393.76Zm-5.93-3.94c2.14,1.14,5,2.48,5.93,2.48s3.38-1.34,5.18-2.48c-1.8-1.13-4.24-2.47-5.18-2.47S169.54,388.68,167.4,389.82Z"/><polygon class="cls-26" points="157.62 289.29 164.14 266.35 157.98 260.21 151.57 267.07 157.62 289.29"/><path class="cls-27" d="M158,261.19l-.5-.47A257.56,257.56,0,0,1,94.81,168.4l-.07-.16a67.79,67.79,0,0,1-4.69-24.86h1.47a66.18,66.18,0,0,0,4.53,24.17h0l.07.19A256.27,256.27,0,0,0,158,259.18a256.5,256.5,0,0,0,30.62-34.73,2.57,2.57,0,0,1,.23-.33,253.46,253.46,0,0,0,31-56.36l.06-.15A66.52,66.52,0,0,0,158,76.91V75.45a68,68,0,0,1,63.24,92.79l-.06.14A255.3,255.3,0,0,1,190,225a1.06,1.06,0,0,0-.16.22,258.18,258.18,0,0,1-31.34,35.47Z"/><polygon class="cls-28" points="135.48 297.81 135.06 296.41 157.99 289.61 180.92 296.41 180.5 297.81 157.99 291.14 135.48 297.81"/><polygon class="cls-29" points="157.94 264.18 160.12 266.11 162.3 268.04 157.88 267.97 153.47 267.9 155.7 266.04 157.94 264.18"/><polygon class="cls-30" points="83.08 139.21 90.79 134.76 98.5 130.31 98.5 139.21 98.5 148.12 90.79 143.66 83.08 139.21"/><path class="cls-31" d="M99.23,149.39,81.61,139.21,99.23,129ZM84.54,139.21l13.23,7.64V131.58Z"/><path class="cls-32" d="M141.77,82c1.77,0,7.45,3.21,7.45,3.21s-5.68,3.21-7.45,3.21-6.53-3.21-6.53-3.21S140,82,141.77,82Z"/><path class="cls-33" d="M141.77,89.16c-1.9,0-6.12-2.78-6.94-3.33l-.91-.61.91-.61c.82-.55,5-3.33,6.94-3.33s6.84,2.75,7.81,3.3l1.14.64-1.14.64C148.61,86.41,143.64,89.16,141.77,89.16Zm-5.19-3.94c1.81,1.13,4.24,2.47,5.19,2.47s3.78-1.33,5.93-2.47c-2.15-1.14-5-2.47-5.93-2.47S138.39,84.09,136.58,85.22Z"/><path class="cls-34" d="M141.77,73c1.77,0,7.45,3.21,7.45,3.21s-5.68,3.21-7.45,3.21-6.53-3.21-6.53-3.21S140,73,141.77,73Z"/><path class="cls-35" d="M141.77,80.12c-1.9,0-6.12-2.77-6.94-3.33l-.91-.61.91-.61c.82-.55,5-3.33,6.94-3.33s6.84,2.75,7.81,3.3l1.14.64-1.14.64C148.61,77.37,143.64,80.12,141.77,80.12Zm-5.19-3.94c1.81,1.14,4.24,2.47,5.19,2.47s3.78-1.33,5.93-2.47c-2.15-1.14-5-2.47-5.93-2.47S138.39,75.05,136.58,76.18Z"/><path class="cls-36" d="M141.77,63.94c1.77,0,7.45,3.2,7.45,3.2s-5.68,3.21-7.45,3.21-6.53-3.21-6.53-3.21S140,63.94,141.77,63.94Z"/><path class="cls-37" d="M141.77,71.08c-1.9,0-6.12-2.77-6.94-3.33l-.91-.61.91-.6c.82-.56,5-3.34,6.94-3.34s6.84,2.75,7.81,3.3l1.14.64-1.14.64C148.61,68.33,143.64,71.08,141.77,71.08Zm-5.19-3.94c1.81,1.14,4.24,2.48,5.19,2.48s3.78-1.34,5.93-2.48c-2.15-1.14-5-2.47-5.93-2.47S138.38,66,136.58,67.14Z"/><path class="cls-38" d="M157.11,197.76l-.5-.47a88.35,88.35,0,0,1-11-12.47,10.35,10.35,0,0,1-.64-.94,89.51,89.51,0,0,1-10.17-18.46l-.11-.11v-.16c-.1-.24-.19-.49-.29-.74l-.16-.43a24.28,24.28,0,1,1,47.16-8.13A24.55,24.55,0,0,1,180,164l-.15.38c-.15.39-.25.66-.36.93a89.42,89.42,0,0,1-10.11,18.44c-.23.35-.49.73-.76,1.1a89.07,89.07,0,0,1-11,12.45Zm-21-32.9a87.87,87.87,0,0,0,10,18.21c.21.33.4.6.61.88a86,86,0,0,0,10.34,11.79A88.86,88.86,0,0,0,167.43,184q.39-.53.72-1.05a87.69,87.69,0,0,0,10-18.18l.31-.78.18-.47a22.81,22.81,0,1,0-43,0l.13.34c.11.28.2.52.3.76Z"/><polygon class="cls-39" points="148.23 141.33 141.13 147 134.03 152.68 135.33 140.01 136.63 127.34 142.43 134.34 148.23 141.33"/><polygon class="cls-40" points="165.77 141.33 172.86 147 179.96 152.68 178.66 140.01 177.36 127.34 171.57 134.34 165.77 141.33"/><path class="cls-41" d="M158,325.39a24.3,24.3,0,0,1-24.27-24.27A24.6,24.6,0,0,1,135.1,293l.15-.37c.15-.39.26-.67.37-.93a88.23,88.23,0,0,1,10.11-18.44c.22-.35.48-.74.76-1.1a89,89,0,0,1,11-12.46l.5-.47.5.47a87.18,87.18,0,0,1,11,12.47,10.44,10.44,0,0,1,.65.94,89.21,89.21,0,0,1,10.16,18.46l.11.11v.16c.1.24.2.49.29.74l.17.42a24.6,24.6,0,0,1,1.39,8.14A24.31,24.31,0,0,1,158,325.39Zm0-64.17A87.53,87.53,0,0,0,147.67,273c-.27.35-.5.7-.73,1.05a88.16,88.16,0,0,0-10,18.18q-.16.39-.3.78l-.19.47a22.81,22.81,0,1,0,43,0l-.14-.35-.29-.75-.12-.27a87.61,87.61,0,0,0-10-18.21c-.21-.33-.4-.61-.61-.88A85.44,85.44,0,0,0,158,261.22Z"/><polygon class="cls-42" points="166.87 315.63 173.96 309.96 181.06 304.29 179.76 316.96 178.46 329.62 172.66 322.63 166.87 315.63"/><polygon class="cls-43" points="149.32 315.63 142.23 309.96 135.13 304.29 136.43 316.96 137.73 329.62 143.53 322.63 149.32 315.63"/><polygon class="cls-44" points="163.88 118.89 161.91 110.43 159.93 118.89 159.49 120.75 159.06 118.89 157.08 110.43 155.1 118.89 154.69 120.66 154.28 118.89 152.3 110.43 150.32 118.89 148.34 127.34 152.3 127.34 153.13 127.34 156.25 127.34 157.08 127.34 157.95 127.34 161.03 127.34 161.91 127.34 165.86 127.34 163.88 118.89"/><polygon class="cls-45" points="150.32 338.96 152.3 347.42 154.28 338.96 154.71 337.1 155.15 338.96 157.12 347.42 159.1 338.96 159.51 337.19 159.93 338.96 161.91 347.42 163.88 338.96 165.86 330.5 161.91 330.5 161.08 330.5 157.95 330.5 157.12 330.5 156.25 330.5 153.17 330.5 152.3 330.5 148.34 330.5 150.32 338.96"/></g></g></svg>