<svg xmlns="http://www.w3.org/2000/svg" xmlns:xlink="http://www.w3.org/1999/xlink" width="316.89" height="472.49" viewBox="0 0 316.89 472.49"><defs><style>.cls-1{fill:url(#未命名漸層_191);}.cls-10,.cls-13,.cls-2,.cls-3,.cls-4,.cls-5,.cls-8,.cls-9{fill:none;stroke-width:2px;}.cls-10,.cls-13,.cls-14,.cls-15,.cls-16,.cls-17,.cls-18,.cls-19,.cls-2,.cls-20,.cls-21,.cls-22,.cls-23,.cls-24,.cls-25,.cls-26,.cls-27,.cls-28,.cls-29,.cls-3,.cls-30,.cls-31,.cls-32,.cls-33,.cls-4,.cls-5,.cls-8,.cls-9{stroke-miterlimit:10;}.cls-2{stroke:url(#未命名漸層_42);}.cls-3{stroke:url(#未命名漸層_42-2);}.cls-4{stroke:url(#未命名漸層_42-3);}.cls-5{stroke:url(#未命名漸層_42-4);}.cls-6{fill:url(#未命名漸層_42-5);}.cls-7{fill:url(#未命名漸層_42-6);}.cls-8{stroke:url(#未命名漸層_42-7);}.cls-9{stroke:url(#未命名漸層_42-8);}.cls-10{stroke:url(#未命名漸層_42-9);}.cls-11{fill:url(#未命名漸層_42-10);}.cls-12{fill:url(#未命名漸層_42-11);}.cls-13{stroke:url(#未命名漸層_42-12);}.cls-14{fill:url(#未命名漸層_47);stroke:url(#未命名漸層_44);}.cls-15{fill:url(#未命名漸層_47-2);stroke:url(#未命名漸層_44-2);}.cls-16{fill:url(#未命名漸層_47-3);stroke:url(#未命名漸層_44-3);}.cls-17{fill:url(#未命名漸層_47-4);stroke:url(#未命名漸層_44-4);}.cls-18{fill:url(#未命名漸層_47-5);stroke:url(#未命名漸層_44-5);}.cls-19{fill:url(#未命名漸層_47-6);stroke:url(#未命名漸層_44-6);}.cls-20{fill:url(#未命名漸層_47-7);stroke:url(#未命名漸層_44-7);}.cls-21{fill:url(#未命名漸層_47-8);stroke:url(#未命名漸層_44-8);}.cls-22{fill:url(#未命名漸層_47-9);stroke:url(#未命名漸層_44-9);}.cls-23{fill:url(#未命名漸層_47-10);stroke:url(#未命名漸層_44-10);}.cls-24{fill:url(#未命名漸層_47-11);stroke:url(#未命名漸層_44-11);}.cls-25{fill:url(#未命名漸層_47-12);stroke:url(#未命名漸層_44-12);}.cls-26{fill:url(#未命名漸層_47-13);stroke:url(#未命名漸層_44-13);}.cls-27{fill:url(#未命名漸層_47-14);stroke:url(#未命名漸層_44-14);}.cls-28{fill:url(#未命名漸層_47-15);stroke:url(#未命名漸層_44-15);}.cls-29{fill:url(#未命名漸層_47-16);stroke:url(#未命名漸層_44-16);}.cls-30{fill:url(#未命名漸層_47-17);stroke:url(#未命名漸層_44-17);}.cls-31{fill:url(#未命名漸層_47-18);stroke:url(#未命名漸層_44-18);}.cls-32{fill:url(#未命名漸層_47-19);stroke:url(#未命名漸層_44-19);}.cls-33{fill:url(#未命名漸層_47-20);stroke:url(#未命名漸層_44-20);}</style><linearGradient id="未命名漸層_191" x1="29.8" y1="4.68" x2="290.74" y2="474.37" gradientUnits="userSpaceOnUse"><stop offset="0" stop-color="#2e3453"/><stop offset="0.16" stop-color="#313f76"/><stop offset="0.29" stop-color="#32468d"/><stop offset="0.38" stop-color="#334996"/><stop offset="0.52" stop-color="#324384"/><stop offset="0.83" stop-color="#2f3860"/><stop offset="1" stop-color="#2e3453"/></linearGradient><linearGradient id="未命名漸層_42" x1="29.13" y1="251.23" x2="261.12" y2="251.23" gradientUnits="userSpaceOnUse"><stop offset="0" stop-color="#e8c5df"/><stop offset="0.96" stop-color="#a2ddd9"/></linearGradient><linearGradient id="未命名漸層_42-2" x1="56.71" y1="219.85" x2="288.79" y2="219.85" xlink:href="#未命名漸層_42"/><linearGradient id="未命名漸層_42-3" x1="38.66" y1="32.11" x2="57.71" y2="32.11" xlink:href="#未命名漸層_42"/><linearGradient id="未命名漸層_42-4" x1="20.6" y1="53.79" x2="39.65" y2="53.79" xlink:href="#未命名漸層_42"/><linearGradient id="未命名漸層_42-5" x1="70.25" y1="32" x2="94.09" y2="32" xlink:href="#未命名漸層_42"/><linearGradient id="未命名漸層_42-6" x1="24.68" y1="85.4" x2="35.61" y2="85.4" xlink:href="#未命名漸層_42"/><linearGradient id="未命名漸層_42-7" x1="20.19" y1="40.15" x2="51.34" y2="40.15" xlink:href="#未命名漸層_42"/><linearGradient id="未命名漸層_42-8" x1="260.15" y1="438.79" x2="279.2" y2="438.79" xlink:href="#未命名漸層_42"/><linearGradient id="未命名漸層_42-9" x1="278.21" y1="417.11" x2="297.26" y2="417.11" xlink:href="#未命名漸層_42"/><linearGradient id="未命名漸層_42-10" x1="223.77" y1="438.9" x2="247.61" y2="438.9" xlink:href="#未命名漸層_42"/><linearGradient id="未命名漸層_42-11" x1="282.26" y1="385.5" x2="293.19" y2="385.5" xlink:href="#未命名漸層_42"/><linearGradient id="未命名漸層_42-12" x1="266.52" y1="430.75" x2="297.67" y2="430.75" xlink:href="#未命名漸層_42"/><linearGradient id="未命名漸層_47" x1="141.44" y1="290.68" x2="184.42" y2="290.68" gradientUnits="userSpaceOnUse"><stop offset="0" stop-color="#2e3453"/><stop offset="1" stop-color="#83a2ce"/></linearGradient><linearGradient id="未命名漸層_44" x1="140.94" y1="290.58" x2="184.92" y2="290.58" gradientUnits="userSpaceOnUse"><stop offset="0" stop-color="#fff"/><stop offset="1" stop-color="#83a2ce"/></linearGradient><linearGradient id="未命名漸層_47-2" x1="102.81" y1="180.95" x2="223.06" y2="180.95" xlink:href="#未命名漸層_47"/><linearGradient id="未命名漸層_44-2" x1="102.31" y1="181.04" x2="223.56" y2="181.04" xlink:href="#未命名漸層_44"/><linearGradient id="未命名漸層_47-3" x1="98.74" y1="153.13" x2="111.52" y2="153.13" xlink:href="#未命名漸層_47"/><linearGradient id="未命名漸層_44-3" x1="98.24" y1="153.13" x2="112.02" y2="153.13" xlink:href="#未命名漸層_44"/><linearGradient id="未命名漸層_47-4" x1="149.26" y1="300.1" x2="176.6" y2="300.1" xlink:href="#未命名漸層_47"/><linearGradient id="未命名漸層_44-4" x1="148.62" y1="300.16" x2="177.24" y2="300.16" xlink:href="#未命名漸層_44"/><linearGradient id="未命名漸層_47-5" x1="162.28" y1="288.28" x2="163.58" y2="288.28" xlink:href="#未命名漸層_47"/><linearGradient id="未命名漸層_44-5" x1="161.78" y1="288.28" x2="164.08" y2="288.28" xlink:href="#未命名漸層_44"/><linearGradient id="未命名漸層_47-6" x1="161.31" y1="277.57" x2="164.55" y2="277.57" xlink:href="#未命名漸層_47"/><linearGradient id="未命名漸層_44-6" x1="160.81" y1="277.57" x2="165.05" y2="277.57" xlink:href="#未命名漸層_44"/><linearGradient id="未命名漸層_47-7" x1="104.17" y1="105.9" x2="195.84" y2="105.9" xlink:href="#未命名漸層_47"/><linearGradient id="未命名漸層_44-7" x1="103.42" y1="105.95" x2="196.54" y2="105.95" xlink:href="#未命名漸層_44"/><linearGradient id="未命名漸層_47-8" x1="180.64" y1="139.24" x2="202.42" y2="139.24" gradientTransform="matrix(0.63, 0.77, -0.77, 0.63, 177.61, -97.14)" xlink:href="#未命名漸層_47"/><linearGradient id="未命名漸層_44-8" x1="179.93" y1="139.24" x2="203.12" y2="139.24" gradientTransform="matrix(0.63, 0.77, -0.77, 0.63, 177.61, -97.14)" xlink:href="#未命名漸層_44"/><linearGradient id="未命名漸層_47-9" x1="188.71" y1="145.03" x2="208.44" y2="145.03" xlink:href="#未命名漸層_47"/><linearGradient id="未命名漸層_44-9" x1="188.01" y1="145.03" x2="209.14" y2="145.03" xlink:href="#未命名漸層_44"/><linearGradient id="未命名漸層_47-10" x1="116.63" y1="103.77" x2="180.03" y2="103.77" gradientTransform="translate(134.41 -76.72) rotate(50.61)" xlink:href="#未命名漸層_47"/><linearGradient id="未命名漸層_44-10" x1="115.93" y1="103.77" x2="180.73" y2="103.77" gradientTransform="translate(134.41 -76.72) rotate(50.61)" xlink:href="#未命名漸層_44"/><linearGradient id="未命名漸層_47-11" x1="141.03" y1="187.39" x2="184.01" y2="187.39" xlink:href="#未命名漸層_47"/><linearGradient id="未命名漸層_44-11" x1="140.53" y1="187.48" x2="184.51" y2="187.48" xlink:href="#未命名漸層_44"/><linearGradient id="未命名漸層_47-12" x1="102.39" y1="297.11" x2="222.64" y2="297.11" xlink:href="#未命名漸層_47"/><linearGradient id="未命名漸層_44-12" x1="101.89" y1="297.02" x2="223.14" y2="297.02" xlink:href="#未命名漸層_44"/><linearGradient id="未命名漸層_47-13" x1="213.93" y1="324.93" x2="226.71" y2="324.93" xlink:href="#未命名漸層_47"/><linearGradient id="未命名漸層_44-13" x1="213.43" y1="324.93" x2="227.21" y2="324.93" xlink:href="#未命名漸層_44"/><linearGradient id="未命名漸層_47-14" x1="148.85" y1="177.96" x2="176.19" y2="177.96" xlink:href="#未命名漸層_47"/><linearGradient id="未命名漸層_44-14" x1="148.21" y1="177.9" x2="176.83" y2="177.9" xlink:href="#未命名漸層_44"/><linearGradient id="未命名漸層_47-15" x1="161.87" y1="189.78" x2="163.17" y2="189.78" xlink:href="#未命名漸層_47"/><linearGradient id="未命名漸層_44-15" x1="161.37" y1="189.78" x2="163.67" y2="189.78" xlink:href="#未命名漸層_44"/><linearGradient id="未命名漸層_47-16" x1="160.9" y1="200.49" x2="164.14" y2="200.49" xlink:href="#未命名漸層_47"/><linearGradient id="未命名漸層_44-16" x1="160.4" y1="200.49" x2="164.64" y2="200.49" xlink:href="#未命名漸層_44"/><linearGradient id="未命名漸層_47-17" x1="129.61" y1="372.16" x2="221.28" y2="372.16" xlink:href="#未命名漸層_47"/><linearGradient id="未命名漸層_44-17" x1="128.91" y1="372.11" x2="222.03" y2="372.11" xlink:href="#未命名漸層_44"/><linearGradient id="未命名漸層_47-18" x1="123.03" y1="338.82" x2="144.82" y2="338.82" gradientTransform="translate(-42.95 657.33) rotate(-129.39)" xlink:href="#未命名漸層_47"/><linearGradient id="未命名漸層_44-18" x1="122.33" y1="338.82" x2="145.52" y2="338.82" gradientTransform="translate(-42.95 657.33) rotate(-129.39)" xlink:href="#未命名漸層_44"/><linearGradient id="未命名漸層_47-19" x1="117.01" y1="333.03" x2="136.74" y2="333.03" xlink:href="#未命名漸層_47"/><linearGradient id="未命名漸層_44-19" x1="116.31" y1="333.03" x2="137.44" y2="333.03" xlink:href="#未命名漸層_44"/><linearGradient id="未命名漸層_47-20" x1="145.42" y1="374.29" x2="208.82" y2="374.29" gradientTransform="translate(354 -0.11) rotate(50.61)" xlink:href="#未命名漸層_47"/><linearGradient id="未命名漸層_44-20" x1="144.72" y1="374.29" x2="209.52" y2="374.29" gradientTransform="translate(354 -0.11) rotate(50.61)" xlink:href="#未命名漸層_44"/></defs><g id="圖層_2" data-name="圖層 2"><g id="圖層_1-2" data-name="圖層 1"><rect class="cls-1" width="316.89" height="472.49" rx="25.28"/><path class="cls-2" d="M261.12,439.15H47a16.88,16.88,0,0,1-16.88-16.88V62.32"/><path class="cls-3" d="M56.71,32.11H270.9A16.89,16.89,0,0,1,287.79,49v359.6"/><circle class="cls-4" cx="48.18" cy="32.11" r="8.53"/><circle class="cls-5" cx="30.13" cy="53.79" r="8.53"/><path class="cls-6" d="M83,37.46c-3,0-12.71-5.46-12.71-5.46S79.94,26.53,83,26.53,94.09,32,94.09,32,86,37.46,83,37.46Z"/><path class="cls-7" d="M24.68,86.19c0-3,5.46-12.7,5.46-12.7s5.47,9.68,5.47,12.7-5.47,11.13-5.47,11.13S24.68,89.21,24.68,86.19Z"/><circle class="cls-8" cx="35.76" cy="40.15" r="14.57"/><circle class="cls-9" cx="269.68" cy="438.79" r="8.53"/><circle class="cls-10" cx="287.74" cy="417.11" r="8.53"/><path class="cls-11" d="M234.91,433.44c3,0,12.7,5.46,12.7,5.46s-9.68,5.47-12.7,5.47-11.14-5.47-11.14-5.47S231.89,433.44,234.91,433.44Z"/><path class="cls-12" d="M293.19,384.71c0,3-5.47,12.71-5.47,12.71s-5.46-9.69-5.46-12.71,5.46-11.13,5.46-11.13S293.19,381.69,293.19,384.71Z"/><circle class="cls-13" cx="282.1" cy="430.75" r="14.57"/><path class="cls-14" d="M162.92,320a21.49,21.49,0,0,1-20.24-28.68l.13-.33c.13-.34.22-.59.32-.83h0a78.93,78.93,0,0,1,9-16.31c.2-.31.43-.65.67-1a79,79,0,0,1,9.73-11l.44-.42.45.42a77,77,0,0,1,9.75,11c.2.27.39.54.57.83a78.85,78.85,0,0,1,9,16.45h0c.1.24.2.49.29.74l.17.42a21.88,21.88,0,0,1,1.23,7.2A21.51,21.51,0,0,1,162.92,320Zm-18.68-29.11c-.07.16-.13.31-.19.47l-.16.41a20.41,20.41,0,0,0-1.15,6.75,20.19,20.19,0,0,0,40.38,0,20.56,20.56,0,0,0-1.15-6.76l-.13-.31-.21-.56-.14-.07v-.28a77.39,77.39,0,0,0-8.87-16.11c-.18-.29-.35-.53-.53-.78a77.14,77.14,0,0,0-9.15-10.44,78.13,78.13,0,0,0-9.14,10.43c-.22.31-.44.62-.63.93a77.47,77.47,0,0,0-8.78,16v.28Z"/><path class="cls-15" d="M162.92,263.15l-.44-.42A228.14,228.14,0,0,1,107,181l-.06-.13a60,60,0,0,1-4.14-22h1.29a58.73,58.73,0,0,0,4,21.4l.07.16a226.81,226.81,0,0,0,54.74,80.92A226,226,0,0,0,190,230.63a2.17,2.17,0,0,1,.21-.29,224.85,224.85,0,0,0,27.45-49.88l.06-.14a58.89,58.89,0,0,0-54.8-80.27V98.76a60.16,60.16,0,0,1,56,82.12l-.06.13a225.89,225.89,0,0,1-27.6,50.13.92.92,0,0,0-.14.2,227.59,227.59,0,0,1-27.74,31.39Z"/><path class="cls-16" d="M105.13,159.52a6.39,6.39,0,1,1,6.39-6.39A6.4,6.4,0,0,1,105.13,159.52Zm0-11.48a5.1,5.1,0,1,0,5.1,5.09A5.09,5.09,0,0,0,105.13,148Z"/><polygon class="cls-17" points="150.18 303.91 149.26 301.48 162.93 296.3 176.6 301.48 175.68 303.91 162.93 299.08 150.18 303.91"/><rect class="cls-18" x="162.28" y="282.64" width="1.3" height="11.29"/><rect class="cls-19" x="161.31" y="276.92" width="3.24" height="1.3"/><path class="cls-20" d="M188.22,144.29,108,78.41l-3.81-10.9,11.42,1.62L129.32,80.4,195.84,135ZM109.08,77.64l79,64.83,6-7.27-79-64.84-9-1.26Z"/><rect class="cls-21" x="178.69" y="135.69" width="25.67" height="7.11" transform="translate(-37.63 198.91) rotate(-50.61)"/><path class="cls-22" d="M203.81,154.05l-15.1-12.4,4.63-5.64,15.1,12.4Zm-13.27-12.58,13.09,10.75,3-3.63-13.09-10.75Z"/><rect class="cls-23" x="147.68" y="63.29" width="1.3" height="80.97" transform="matrix(0.63, -0.77, 0.77, 0.63, -26, 152.56)"/><path class="cls-24" d="M162.53,216.67l-.45-.42a77,77,0,0,1-9.75-11c-.2-.27-.39-.54-.57-.83a78.67,78.67,0,0,1-9-16.46c-.1-.23-.2-.48-.29-.72l-.17-.43a21.88,21.88,0,0,1-1.23-7.2,21.49,21.49,0,0,1,43,0,21.88,21.88,0,0,1-1.23,7.2l-.14.33c-.13.34-.22.59-.32.82a79.08,79.08,0,0,1-8.95,16.33c-.19.31-.43.64-.67,1a79,79,0,0,1-9.73,11ZM144,187.56a77.39,77.39,0,0,0,8.87,16.11c.18.29.35.54.53.78a77.14,77.14,0,0,0,9.15,10.44,78.13,78.13,0,0,0,9.14-10.43c.23-.31.44-.62.64-.93a77.65,77.65,0,0,0,8.77-16v-.14l.1-.11c.08-.18.15-.37.22-.56l.17-.42a20.19,20.19,0,1,0-38.08,0l.13.31.25.66.1.1Z"/><path class="cls-25" d="M162.51,379.31a60.17,60.17,0,0,1-56-82.13l0-.12a226,226,0,0,1,27.61-50.14,1.26,1.26,0,0,0,.14-.19,227.68,227.68,0,0,1,27.74-31.4l.45-.41.44.41a227.84,227.84,0,0,1,55.47,81.73l.06.12a60.07,60.07,0,0,1,4.14,22h-1.29a58.76,58.76,0,0,0-4-21.42h0l-.06-.15a226.81,226.81,0,0,0-54.74-80.92,226,226,0,0,0-27.1,30.73,1.67,1.67,0,0,1-.21.29,224.7,224.7,0,0,0-27.45,49.89l0,.13A58.86,58.86,0,0,0,162.51,378Z"/><path class="cls-26" d="M220.32,331.32a6.39,6.39,0,1,1,6.39-6.39A6.4,6.4,0,0,1,220.32,331.32Zm0-11.49a5.1,5.1,0,1,0,5.09,5.1A5.1,5.1,0,0,0,220.32,319.83Z"/><polygon class="cls-27" points="162.52 181.76 148.85 176.58 149.77 174.15 162.52 178.99 175.27 174.15 176.19 176.58 162.52 181.76"/><rect class="cls-28" x="161.87" y="184.13" width="1.3" height="11.29"/><rect class="cls-29" x="160.9" y="199.84" width="3.24" height="1.3"/><path class="cls-30" d="M221.28,410.55l-11.42-1.62-13.73-11.27-66.52-54.61,7.62-9.28,80.25,65.88ZM210.4,407.7l9,1.26-3-8.53-79-64.84-6,7.28Z"/><rect class="cls-31" x="121.09" y="335.26" width="25.67" height="7.11" transform="translate(480.77 450.32) rotate(129.39)"/><path class="cls-32" d="M132.11,342.05,117,329.66l4.63-5.64,15.1,12.39Zm-13.27-12.57,13.09,10.74,3-3.63-13.09-10.75Z"/><rect class="cls-33" x="176.47" y="333.8" width="1.3" height="80.97" transform="translate(-224.55 273.67) rotate(-50.61)"/></g></g></svg>