<svg xmlns="http://www.w3.org/2000/svg" xmlns:xlink="http://www.w3.org/1999/xlink" width="316.89" height="472.49" viewBox="0 0 316.89 472.49"><defs><style>.cls-1{fill:url(#未命名漸層_191);}.cls-10,.cls-13,.cls-2,.cls-3,.cls-4,.cls-5,.cls-8,.cls-9{fill:none;stroke-width:2px;}.cls-10,.cls-13,.cls-14,.cls-15,.cls-16,.cls-17,.cls-18,.cls-2,.cls-20,.cls-22,.cls-23,.cls-24,.cls-25,.cls-26,.cls-28,.cls-29,.cls-3,.cls-30,.cls-31,.cls-32,.cls-33,.cls-34,.cls-35,.cls-36,.cls-37,.cls-38,.cls-4,.cls-5,.cls-8,.cls-9{stroke-miterlimit:10;}.cls-2{stroke:url(#未命名漸層_42);}.cls-3{stroke:url(#未命名漸層_42-2);}.cls-4{stroke:url(#未命名漸層_42-3);}.cls-5{stroke:url(#未命名漸層_42-4);}.cls-6{fill:url(#未命名漸層_42-5);}.cls-7{fill:url(#未命名漸層_42-6);}.cls-8{stroke:url(#未命名漸層_42-7);}.cls-9{stroke:url(#未命名漸層_42-8);}.cls-10{stroke:url(#未命名漸層_42-9);}.cls-11{fill:url(#未命名漸層_42-10);}.cls-12{fill:url(#未命名漸層_42-11);}.cls-13{stroke:url(#未命名漸層_42-12);}.cls-14{fill:url(#未命名漸層_47);stroke:url(#未命名漸層_44);}.cls-15{fill:url(#未命名漸層_47-2);stroke:url(#未命名漸層_44-2);}.cls-16{fill:url(#未命名漸層_47-3);stroke:url(#未命名漸層_44-3);}.cls-17{fill:url(#未命名漸層_47-4);stroke:url(#未命名漸層_44-4);}.cls-18{fill:url(#未命名漸層_47-5);stroke:url(#未命名漸層_44-5);}.cls-19{fill:url(#未命名漸層_47-6);}.cls-20{fill:url(#未命名漸層_47-7);stroke:url(#未命名漸層_44-6);}.cls-21{opacity:0.4;}.cls-22{fill:url(#未命名漸層_47-8);stroke:url(#未命名漸層_44-7);}.cls-23{fill:url(#未命名漸層_47-9);stroke:url(#未命名漸層_44-8);}.cls-24{fill:url(#未命名漸層_47-10);stroke:url(#未命名漸層_44-9);}.cls-25{fill:url(#未命名漸層_47-11);stroke:url(#未命名漸層_44-10);}.cls-26{fill:url(#未命名漸層_47-12);stroke:url(#未命名漸層_44-11);}.cls-27{fill:url(#未命名漸層_47-13);}.cls-28{fill:url(#未命名漸層_47-14);stroke:url(#未命名漸層_44-12);}.cls-29{fill:url(#未命名漸層_47-15);stroke:url(#未命名漸層_44-13);}.cls-30{fill:url(#未命名漸層_47-16);stroke:url(#未命名漸層_44-14);}.cls-31{fill:url(#未命名漸層_47-17);stroke:url(#未命名漸層_44-15);}.cls-32{fill:url(#未命名漸層_47-18);stroke:url(#未命名漸層_44-16);}.cls-33{fill:url(#未命名漸層_47-19);stroke:url(#未命名漸層_44-17);}.cls-34{fill:url(#未命名漸層_47-20);stroke:url(#未命名漸層_44-18);}.cls-35{fill:url(#未命名漸層_47-21);stroke:url(#未命名漸層_44-19);}.cls-36{fill:url(#未命名漸層_47-22);stroke:url(#未命名漸層_44-20);}.cls-37{fill:url(#未命名漸層_47-23);stroke:url(#未命名漸層_44-21);}.cls-38{fill:url(#未命名漸層_47-24);stroke:url(#未命名漸層_44-22);}</style><linearGradient id="未命名漸層_191" x1="29.8" y1="4.68" x2="290.74" y2="474.37" gradientUnits="userSpaceOnUse"><stop offset="0" stop-color="#2e3453"/><stop offset="0.16" stop-color="#313f76"/><stop offset="0.29" stop-color="#32468d"/><stop offset="0.38" stop-color="#334996"/><stop offset="0.52" stop-color="#324384"/><stop offset="0.83" stop-color="#2f3860"/><stop offset="1" stop-color="#2e3453"/></linearGradient><linearGradient id="未命名漸層_42" x1="28.26" y1="252.63" x2="260.25" y2="252.63" gradientUnits="userSpaceOnUse"><stop offset="0" stop-color="#e8c5df"/><stop offset="0.96" stop-color="#a2ddd9"/></linearGradient><linearGradient id="未命名漸層_42-2" x1="55.85" y1="221.25" x2="287.92" y2="221.25" xlink:href="#未命名漸層_42"/><linearGradient id="未命名漸層_42-3" x1="37.79" y1="33.51" x2="56.85" y2="33.51" xlink:href="#未命名漸層_42"/><linearGradient id="未命名漸層_42-4" x1="19.74" y1="55.19" x2="38.79" y2="55.19" xlink:href="#未命名漸層_42"/><linearGradient id="未命名漸層_42-5" x1="69.39" y1="33.4" x2="93.23" y2="33.4" xlink:href="#未命名漸層_42"/><linearGradient id="未命名漸層_42-6" x1="23.81" y1="86.8" x2="34.74" y2="86.8" xlink:href="#未命名漸層_42"/><linearGradient id="未命名漸層_42-7" x1="19.32" y1="41.55" x2="50.47" y2="41.55" xlink:href="#未命名漸層_42"/><linearGradient id="未命名漸層_42-8" x1="259.29" y1="440.19" x2="278.34" y2="440.19" xlink:href="#未命名漸層_42"/><linearGradient id="未命名漸層_42-9" x1="277.35" y1="418.51" x2="296.4" y2="418.51" xlink:href="#未命名漸層_42"/><linearGradient id="未命名漸層_42-10" x1="222.91" y1="440.3" x2="246.75" y2="440.3" xlink:href="#未命名漸層_42"/><linearGradient id="未命名漸層_42-11" x1="281.39" y1="386.9" x2="292.32" y2="386.9" xlink:href="#未命名漸層_42"/><linearGradient id="未命名漸層_42-12" x1="265.66" y1="432.15" x2="296.81" y2="432.15" xlink:href="#未命名漸層_42"/><linearGradient id="未命名漸層_47" x1="92.96" y1="295.65" x2="228.83" y2="295.65" gradientUnits="userSpaceOnUse"><stop offset="0" stop-color="#2e3453"/><stop offset="1" stop-color="#83a2ce"/></linearGradient><linearGradient id="未命名漸層_44" x1="92.46" y1="295.56" x2="229.33" y2="295.56" gradientUnits="userSpaceOnUse"><stop offset="0" stop-color="#fff"/><stop offset="1" stop-color="#83a2ce"/></linearGradient><linearGradient id="未命名漸層_47-2" x1="154.24" y1="185.61" x2="161.6" y2="185.61" gradientTransform="translate(300.16 -12.28) rotate(76.1)" xlink:href="#未命名漸層_47"/><linearGradient id="未命名漸層_44-2" x1="153.64" y1="185.61" x2="162.21" y2="185.61" gradientTransform="translate(300.16 -12.28) rotate(76.1)" xlink:href="#未命名漸層_44"/><linearGradient id="未命名漸層_47-3" x1="136.92" y1="146.94" x2="153.06" y2="146.94" xlink:href="#未命名漸層_47"/><linearGradient id="未命名漸層_44-3" x1="136.3" y1="146.89" x2="153.77" y2="146.89" xlink:href="#未命名漸層_44"/><linearGradient id="未命名漸層_47-4" x1="168.52" y1="146.94" x2="184.66" y2="146.94" xlink:href="#未命名漸層_47"/><linearGradient id="未命名漸層_44-4" x1="167.81" y1="146.89" x2="185.27" y2="146.89" xlink:href="#未命名漸層_44"/><linearGradient id="未命名漸層_47-5" x1="160.6" y1="185.61" x2="167.85" y2="185.61" gradientTransform="translate(49.42 -34.03) rotate(13.9)" xlink:href="#未命名漸層_47"/><linearGradient id="未命名漸層_44-5" x1="160" y1="185.61" x2="168.46" y2="185.61" gradientTransform="translate(49.42 -34.03) rotate(13.9)" xlink:href="#未命名漸層_44"/><linearGradient id="未命名漸層_47-6" x1="156.47" y1="198.83" x2="165.31" y2="198.83" xlink:href="#未命名漸層_47"/><linearGradient id="未命名漸層_47-7" x1="219.65" y1="324.76" x2="237.27" y2="324.76" xlink:href="#未命名漸層_47"/><linearGradient id="未命名漸層_44-6" x1="219.15" y1="324.76" x2="238.27" y2="324.76" xlink:href="#未命名漸層_44"/><linearGradient id="未命名漸層_47-8" x1="93.84" y1="169.21" x2="229.72" y2="169.21" xlink:href="#未命名漸層_47"/><linearGradient id="未命名漸層_44-7" x1="93.34" y1="169.3" x2="230.22" y2="169.3" xlink:href="#未命名漸層_44"/><linearGradient id="未命名漸層_47-9" x1="161.07" y1="279.25" x2="168.43" y2="279.25" gradientTransform="translate(396.24 52.24) rotate(76.1)" xlink:href="#未命名漸層_47"/><linearGradient id="未命名漸層_44-8" x1="160.46" y1="279.25" x2="169.03" y2="279.25" gradientTransform="translate(396.24 52.24) rotate(76.1)" xlink:href="#未命名漸層_44"/><linearGradient id="未命名漸層_47-10" x1="169.62" y1="317.92" x2="185.76" y2="317.92" xlink:href="#未命名漸層_47"/><linearGradient id="未命名漸層_44-9" x1="168.91" y1="317.97" x2="186.37" y2="317.97" xlink:href="#未命名漸層_44"/><linearGradient id="未命名漸層_47-11" x1="138.02" y1="317.92" x2="154.16" y2="317.92" xlink:href="#未命名漸層_47"/><linearGradient id="未命名漸層_44-10" x1="137.4" y1="317.97" x2="154.87" y2="317.97" xlink:href="#未命名漸層_44"/><linearGradient id="未命名漸層_47-12" x1="154.82" y1="279.25" x2="162.07" y2="279.25" gradientTransform="translate(71.76 -29.9) rotate(13.91)" xlink:href="#未命名漸層_47"/><linearGradient id="未命名漸層_44-11" x1="154.22" y1="279.25" x2="162.68" y2="279.25" gradientTransform="translate(71.76 -29.9) rotate(13.91)" xlink:href="#未命名漸層_44"/><linearGradient id="未命名漸層_47-13" x1="157.36" y1="266.03" x2="166.2" y2="266.03" xlink:href="#未命名漸層_47"/><linearGradient id="未命名漸層_47-14" x1="85.4" y1="140.1" x2="103.02" y2="140.1" xlink:href="#未命名漸層_47"/><linearGradient id="未命名漸層_44-12" x1="84.4" y1="140.1" x2="103.52" y2="140.1" xlink:href="#未命名漸層_44"/><linearGradient id="未命名漸層_47-15" x1="140.42" y1="68.03" x2="157.22" y2="68.03" xlink:href="#未命名漸層_47"/><linearGradient id="未命名漸層_44-13" x1="139.41" y1="68.03" x2="158.11" y2="68.03" xlink:href="#未命名漸層_44"/><linearGradient id="未命名漸層_47-16" x1="140.42" y1="77.07" x2="157.22" y2="77.07" xlink:href="#未命名漸層_47"/><linearGradient id="未命名漸層_44-14" x1="139.41" y1="77.07" x2="158.11" y2="77.07" xlink:href="#未命名漸層_44"/><linearGradient id="未命名漸層_47-17" x1="140.42" y1="86.11" x2="157.22" y2="86.11" xlink:href="#未命名漸層_47"/><linearGradient id="未命名漸層_44-15" x1="139.41" y1="86.11" x2="158.11" y2="86.11" xlink:href="#未命名漸層_44"/><linearGradient id="未命名漸層_47-18" x1="138.85" y1="294.6" x2="184.71" y2="294.6" xlink:href="#未命名漸層_47"/><linearGradient id="未命名漸層_44-16" x1="138.23" y1="294.65" x2="185.33" y2="294.65" xlink:href="#未命名漸層_44"/><linearGradient id="未命名漸層_47-19" x1="137.5" y1="293.19" x2="186.06" y2="293.19" xlink:href="#未命名漸層_47"/><linearGradient id="未命名漸層_44-17" x1="137" y1="293.09" x2="186.56" y2="293.09" xlink:href="#未命名漸層_44"/><linearGradient id="未命名漸層_47-20" x1="168.17" y1="378.76" x2="184.96" y2="378.76" xlink:href="#未命名漸層_47"/><linearGradient id="未命名漸層_44-18" x1="167.15" y1="378.76" x2="185.85" y2="378.76" xlink:href="#未命名漸層_44"/><linearGradient id="未命名漸層_47-21" x1="168.17" y1="387.79" x2="184.96" y2="387.79" xlink:href="#未命名漸層_47"/><linearGradient id="未命名漸層_44-19" x1="167.15" y1="387.79" x2="185.85" y2="387.79" xlink:href="#未命名漸層_44"/><linearGradient id="未命名漸層_47-22" x1="168.17" y1="396.83" x2="184.96" y2="396.83" xlink:href="#未命名漸層_47"/><linearGradient id="未命名漸層_44-20" x1="167.15" y1="396.83" x2="185.85" y2="396.83" xlink:href="#未命名漸層_44"/><linearGradient id="未命名漸層_47-23" x1="137.97" y1="170.26" x2="183.82" y2="170.26" xlink:href="#未命名漸層_47"/><linearGradient id="未命名漸層_44-21" x1="137.34" y1="170.21" x2="184.44" y2="170.21" xlink:href="#未命名漸層_44"/><linearGradient id="未命名漸層_47-24" x1="136.61" y1="171.68" x2="185.17" y2="171.68" xlink:href="#未命名漸層_47"/><linearGradient id="未命名漸層_44-22" x1="136.11" y1="171.77" x2="185.67" y2="171.77" xlink:href="#未命名漸層_44"/></defs><g id="圖層_2" data-name="圖層 2"><g id="圖層_1-2" data-name="圖層 1"><rect class="cls-1" width="316.89" height="472.49" rx="25.28"/><path class="cls-2" d="M260.25,440.55H46.15a16.89,16.89,0,0,1-16.89-16.88v-360"/><path class="cls-3" d="M55.85,33.51H270a16.88,16.88,0,0,1,16.88,16.88V410"/><circle class="cls-4" cx="47.32" cy="33.51" r="8.53"/><circle class="cls-5" cx="29.26" cy="55.19" r="8.53"/><path class="cls-6" d="M82.09,38.86c-3,0-12.7-5.46-12.7-5.46s9.68-5.47,12.7-5.47S93.23,33.4,93.23,33.4,85.11,38.86,82.09,38.86Z"/><path class="cls-7" d="M23.81,87.59c0-3,5.47-12.71,5.47-12.71s5.46,9.69,5.46,12.71-5.46,11.13-5.46,11.13S23.81,90.61,23.81,87.59Z"/><circle class="cls-8" cx="34.9" cy="41.55" r="14.57"/><circle class="cls-9" cx="268.81" cy="440.19" r="8.53"/><circle class="cls-10" cx="286.87" cy="418.51" r="8.53"/><path class="cls-11" d="M234,434.84c3,0,12.71,5.46,12.71,5.46s-9.69,5.47-12.71,5.47-11.13-5.47-11.13-5.47S231,434.84,234,434.84Z"/><path class="cls-12" d="M292.32,386.11c0,3-5.46,12.71-5.46,12.71s-5.47-9.69-5.47-12.71S286.86,375,286.86,375,292.32,383.09,292.32,386.11Z"/><circle class="cls-13" cx="281.23" cy="432.15" r="14.57"/><path class="cls-14" d="M160.89,388.53a68,68,0,0,1-63.25-92.79l.07-.16A254.9,254.9,0,0,1,128.89,239a1.87,1.87,0,0,0,.17-.23,258,258,0,0,1,31.34-35.47l.5-.47.5.47a257.65,257.65,0,0,1,62.67,92.32l.07.17a67.75,67.75,0,0,1,4.69,24.86h-1.47a66.39,66.39,0,0,0-4.52-24.18h0l-.07-.19A256.24,256.24,0,0,0,160.9,204.8a255.82,255.82,0,0,0-30.62,34.72,1.83,1.83,0,0,1-.23.33,253.69,253.69,0,0,0-31,56.36l-.07.17a66.53,66.53,0,0,0,61.93,90.68Z"/><rect class="cls-15" x="145.55" y="184.88" width="24.75" height="1.47" transform="translate(-60.19 294.32) rotate(-76.1)"/><path class="cls-16" d="M136.92,161.35l3-28.81,13.19,15.91ZM141,136.17,138.73,158,151,148.23Z"/><path class="cls-17" d="M184.66,161.35l-16.14-12.9,13.18-15.91ZM170.6,148.23,182.84,158l-2.24-21.85Z"/><rect class="cls-18" x="163.49" y="173.49" width="1.47" height="24.23" transform="translate(-39.79 44.9) rotate(-13.9)"/><polygon class="cls-19" points="160.83 200.76 158.65 198.83 156.47 196.91 160.89 196.97 165.31 197.04 163.07 198.9 160.83 200.76"/><path class="cls-20" d="M219.65,334.94V314.59l17.62,10.17Zm1.47-17.81V332.4l13.22-7.64Z"/><g class="cls-21"><path class="cls-22" d="M161.77,262.08l-.5-.47a257.75,257.75,0,0,1-62.68-92.33l-.06-.15a67.81,67.81,0,0,1-4.69-24.87h1.47a66.24,66.24,0,0,0,4.53,24.19l.07.18a256.27,256.27,0,0,0,61.86,91.44,256.5,256.5,0,0,0,30.62-34.73,1.83,1.83,0,0,1,.23-.33,253.28,253.28,0,0,0,31-56.36l.06-.15a66.52,66.52,0,0,0-61.91-90.7V76.34A68,68,0,0,1,225,169.13l-.06.14a255.45,255.45,0,0,1-31.19,56.64,1.08,1.08,0,0,0-.16.23,258.76,258.76,0,0,1-31.35,35.47Z"/><rect class="cls-23" x="152.37" y="278.52" width="24.75" height="1.47" transform="translate(-145.9 372.09) rotate(-76.1)"/><path class="cls-24" d="M182.8,332.32l-13.18-15.91,16.14-12.9Zm-11.1-15.69,10,12.07,2.24-21.86Z"/><path class="cls-25" d="M141,332.32,138,303.51l16.14,12.9Zm-1.14-25.48,2.24,21.86,10-12.07Z"/><rect class="cls-26" x="157.71" y="267.13" width="1.47" height="24.23" transform="translate(-62.47 46.27) rotate(-13.91)"/><polygon class="cls-27" points="161.84 264.1 164.02 266.03 166.2 267.96 161.78 267.89 157.36 267.82 159.6 265.96 161.84 264.1"/><path class="cls-28" d="M103,150.27,85.4,140.1,103,129.92ZM88.33,140.1l13.22,7.63V132.47Z"/><path class="cls-29" d="M149.37,72c-1.87,0-6.84-2.75-7.81-3.3L140.42,68l1.14-.64c1-.55,5.94-3.3,7.81-3.3s6.12,2.78,6.94,3.33l.91.61-.91.61C155.49,69.2,151.27,72,149.37,72ZM143.44,68c2.15,1.14,5,2.47,5.93,2.47s3.38-1.33,5.19-2.47c-1.81-1.13-4.24-2.47-5.19-2.47S145.59,66.89,143.44,68Z"/><path class="cls-30" d="M149.37,81c-1.87,0-6.84-2.75-7.81-3.3l-1.14-.64,1.14-.64c1-.55,5.94-3.3,7.81-3.3s6.12,2.77,6.94,3.33l.91.61-.91.61C155.49,78.23,151.27,81,149.37,81Zm-5.93-3.94c2.15,1.14,5,2.47,5.93,2.47s3.38-1.34,5.19-2.47c-1.81-1.14-4.24-2.47-5.19-2.47S145.59,75.93,143.44,77.07Z"/><path class="cls-31" d="M149.37,90.05c-1.87,0-6.84-2.75-7.81-3.3l-1.14-.64,1.14-.64c1-.55,5.94-3.3,7.81-3.3s6.12,2.77,6.94,3.33l.91.61-.91.6C155.49,87.27,151.27,90.05,149.37,90.05Zm-5.93-3.94c2.15,1.14,5,2.47,5.93,2.47s3.38-1.34,5.19-2.47c-1.81-1.14-4.24-2.48-5.19-2.48S145.59,85,143.44,86.11Z"/><polygon class="cls-32" points="184.29 298.7 161.78 292.03 139.27 298.7 138.85 297.29 161.78 290.5 184.71 297.29 184.29 298.7"/><path class="cls-33" d="M161.77,326.28a24.31,24.31,0,0,1-22.88-32.41l.15-.37c.14-.37.25-.66.37-.94a88.74,88.74,0,0,1,10.11-18.44c.22-.35.48-.73.75-1.09a89.15,89.15,0,0,1,11-12.46l.5-.47.5.47a87.1,87.1,0,0,1,11,12.46c.23.31.44.62.65.94a89.38,89.38,0,0,1,10.22,18.61c.11.26.22.55.33.83l.18.46a24.59,24.59,0,0,1,1.39,8.13A24.31,24.31,0,0,1,161.77,326.28Zm0-64.17a88.31,88.31,0,0,0-10.32,11.79c-.26.34-.49.69-.72,1.05a87.62,87.62,0,0,0-10,18.17l-.32.81-.17.44A23.08,23.08,0,0,0,139,302a22.81,22.81,0,1,0,45.62,0,23.17,23.17,0,0,0-1.3-7.63l-.14-.35c-.14-.35-.24-.62-.35-.88a87.21,87.21,0,0,0-10.08-18.35c-.21-.33-.4-.61-.61-.88A85.52,85.52,0,0,0,161.77,262.11Z"/></g><path class="cls-34" d="M177.11,382.7c-1.86,0-6.83-2.75-7.81-3.31l-1.13-.63,1.13-.64c1-.55,5.95-3.3,7.81-3.3s6.12,2.77,6.95,3.33l.9.61-.9.6C183.23,379.92,179,382.7,177.11,382.7Zm-5.92-3.94c2.14,1.14,5,2.47,5.92,2.47s3.39-1.34,5.19-2.47c-1.8-1.14-4.24-2.48-5.19-2.48S173.33,377.62,171.19,378.76Z"/><path class="cls-35" d="M177.11,391.73c-1.86,0-6.83-2.75-7.81-3.3l-1.13-.64,1.13-.63c1-.56,5.95-3.31,7.81-3.31s6.12,2.78,6.95,3.34l.9.6-.9.61C183.23,389,179,391.73,177.11,391.73Zm-5.92-3.94c2.14,1.14,5,2.48,5.92,2.48s3.39-1.34,5.19-2.48c-1.8-1.13-4.24-2.47-5.19-2.47S173.33,386.65,171.19,387.79Z"/><path class="cls-36" d="M177.11,400.77c-1.86,0-6.83-2.75-7.81-3.3l-1.13-.64,1.13-.64c1-.55,5.95-3.3,7.81-3.3s6.12,2.78,6.95,3.33l.9.61-.9.61C183.23,398,179,400.77,177.11,400.77Zm-5.92-3.94c2.14,1.14,5,2.47,5.92,2.47s3.39-1.33,5.19-2.47c-1.8-1.13-4.24-2.47-5.19-2.47S173.33,395.69,171.19,396.83Z"/><polygon class="cls-37" points="160.89 174.36 137.97 167.57 138.38 166.16 160.89 172.83 183.4 166.16 183.82 167.57 160.89 174.36"/><path class="cls-38" d="M160.9,204.76l-.5-.46a88.35,88.35,0,0,1-11-12.47c-.23-.3-.44-.62-.65-.94a89.26,89.26,0,0,1-10.21-18.6c-.12-.27-.23-.55-.34-.84L138,171a24.3,24.3,0,0,1,22.9-32.4,24.3,24.3,0,0,1,24.27,24.27,24.55,24.55,0,0,1-1.39,8.13l-.15.38c-.14.37-.25.65-.37.93a88.91,88.91,0,0,1-10.1,18.44c-.23.35-.49.73-.76,1.1a89.07,89.07,0,0,1-11,12.45Zm-21.52-34.27.14.35c.14.36.24.62.35.88A88.45,88.45,0,0,0,150,190.08c.21.33.4.6.61.88a86,86,0,0,0,10.34,11.79A88.23,88.23,0,0,0,171.22,191q.39-.53.72-1.05a87.69,87.69,0,0,0,10-18.18c.12-.28.22-.54.32-.81l.17-.44a23.08,23.08,0,0,0,1.3-7.63,22.81,22.81,0,1,0-45.62,0A23.08,23.08,0,0,0,139.38,170.49Z"/></g></g></svg>