<svg xmlns="http://www.w3.org/2000/svg" xmlns:xlink="http://www.w3.org/1999/xlink" width="316.89" height="472.49" viewBox="0 0 316.89 472.49"><defs><style>.cls-1{fill:url(#未命名漸層_191);}.cls-10,.cls-13,.cls-2,.cls-3,.cls-4,.cls-5,.cls-8,.cls-9{fill:none;stroke-width:2px;}.cls-10,.cls-13,.cls-14,.cls-15,.cls-16,.cls-17,.cls-18,.cls-19,.cls-2,.cls-20,.cls-21,.cls-22,.cls-23,.cls-3,.cls-4,.cls-5,.cls-8,.cls-9{stroke-miterlimit:10;}.cls-2{stroke:url(#未命名漸層_42);}.cls-3{stroke:url(#未命名漸層_42-2);}.cls-4{stroke:url(#未命名漸層_42-3);}.cls-5{stroke:url(#未命名漸層_42-4);}.cls-6{fill:url(#未命名漸層_42-5);}.cls-7{fill:url(#未命名漸層_42-6);}.cls-8{stroke:url(#未命名漸層_42-7);}.cls-9{stroke:url(#未命名漸層_42-8);}.cls-10{stroke:url(#未命名漸層_42-9);}.cls-11{fill:url(#未命名漸層_42-10);}.cls-12{fill:url(#未命名漸層_42-11);}.cls-13{stroke:url(#未命名漸層_42-12);}.cls-14{fill:url(#未命名漸層_47);stroke:url(#未命名漸層_44);}.cls-15{fill:url(#未命名漸層_47-2);stroke:url(#未命名漸層_44-2);}.cls-16{fill:url(#未命名漸層_47-3);stroke:url(#未命名漸層_44-3);}.cls-17{fill:url(#未命名漸層_47-4);stroke:url(#未命名漸層_44-4);}.cls-18{fill:url(#未命名漸層_47-5);stroke:url(#未命名漸層_44-5);}.cls-19{fill:url(#未命名漸層_47-6);stroke:url(#未命名漸層_44-6);}.cls-20{fill:url(#未命名漸層_47-7);stroke:url(#未命名漸層_44-7);}.cls-21{fill:url(#未命名漸層_47-8);stroke:url(#未命名漸層_44-8);}.cls-22{fill:url(#未命名漸層_47-9);stroke:url(#未命名漸層_44-9);}.cls-23{fill:url(#未命名漸層_47-10);stroke:url(#未命名漸層_44-10);}</style><linearGradient id="未命名漸層_191" x1="29.8" y1="4.68" x2="290.74" y2="474.37" gradientUnits="userSpaceOnUse"><stop offset="0" stop-color="#2e3453"/><stop offset="0.16" stop-color="#313f76"/><stop offset="0.29" stop-color="#32468d"/><stop offset="0.38" stop-color="#334996"/><stop offset="0.52" stop-color="#324384"/><stop offset="0.83" stop-color="#2f3860"/><stop offset="1" stop-color="#2e3453"/></linearGradient><linearGradient id="未命名漸層_42" x1="30.81" y1="253.01" x2="262.8" y2="253.01" gradientUnits="userSpaceOnUse"><stop offset="0" stop-color="#e8c5df"/><stop offset="0.96" stop-color="#a2ddd9"/></linearGradient><linearGradient id="未命名漸層_42-2" x1="58.39" y1="221.62" x2="290.47" y2="221.62" xlink:href="#未命名漸層_42"/><linearGradient id="未命名漸層_42-3" x1="40.34" y1="33.89" x2="59.39" y2="33.89" xlink:href="#未命名漸層_42"/><linearGradient id="未命名漸層_42-4" x1="22.28" y1="55.57" x2="41.33" y2="55.57" xlink:href="#未命名漸層_42"/><linearGradient id="未命名漸層_42-5" x1="71.93" y1="33.78" x2="95.77" y2="33.78" xlink:href="#未命名漸層_42"/><linearGradient id="未命名漸層_42-6" x1="26.36" y1="87.18" x2="37.29" y2="87.18" xlink:href="#未命名漸層_42"/><linearGradient id="未命名漸層_42-7" x1="21.87" y1="41.93" x2="53.02" y2="41.93" xlink:href="#未命名漸層_42"/><linearGradient id="未命名漸層_42-8" x1="261.83" y1="440.57" x2="280.88" y2="440.57" xlink:href="#未命名漸層_42"/><linearGradient id="未命名漸層_42-9" x1="279.89" y1="418.89" x2="298.94" y2="418.89" xlink:href="#未命名漸層_42"/><linearGradient id="未命名漸層_42-10" x1="225.45" y1="440.68" x2="249.29" y2="440.68" xlink:href="#未命名漸層_42"/><linearGradient id="未命名漸層_42-11" x1="283.94" y1="387.27" x2="294.87" y2="387.27" xlink:href="#未命名漸層_42"/><linearGradient id="未命名漸層_42-12" x1="268.2" y1="432.53" x2="299.35" y2="432.53" xlink:href="#未命名漸層_42"/><linearGradient id="未命名漸層_47" x1="142.69" y1="121.23" x2="191.25" y2="121.23" gradientUnits="userSpaceOnUse"><stop offset="0" stop-color="#2e3453"/><stop offset="1" stop-color="#83a2ce"/></linearGradient><linearGradient id="未命名漸層_44" x1="142.19" y1="121.32" x2="191.75" y2="121.32" gradientUnits="userSpaceOnUse"><stop offset="0" stop-color="#fff"/><stop offset="1" stop-color="#83a2ce"/></linearGradient><linearGradient id="未命名漸層_47-2" x1="165.9" y1="228.57" x2="222.43" y2="228.57" xlink:href="#未命名漸層_47"/><linearGradient id="未命名漸層_44-2" x1="165.19" y1="228.46" x2="222.93" y2="228.46" xlink:href="#未命名漸層_44"/><linearGradient id="未命名漸層_47-3" x1="153.61" y1="114.48" x2="177.13" y2="114.48" xlink:href="#未命名漸層_47"/><linearGradient id="未命名漸層_44-3" x1="153.11" y1="114.48" x2="177.79" y2="114.48" xlink:href="#未命名漸層_44"/><linearGradient id="未命名漸層_47-4" x1="130.77" y1="236.24" x2="181.01" y2="236.24" xlink:href="#未命名漸層_47"/><linearGradient id="未命名漸層_44-4" x1="130.26" y1="236.24" x2="181.51" y2="236.24" xlink:href="#未命名漸層_44"/><linearGradient id="未命名漸層_47-5" x1="130.03" y1="236.24" x2="193.37" y2="236.24" xlink:href="#未命名漸層_47"/><linearGradient id="未命名漸層_44-5" x1="129.53" y1="236.24" x2="193.87" y2="236.24" xlink:href="#未命名漸層_44"/><linearGradient id="未命名漸層_47-6" x1="152.05" y1="304.18" x2="167.13" y2="304.18" xlink:href="#未命名漸層_47"/><linearGradient id="未命名漸層_44-6" x1="151.55" y1="304.18" x2="167.63" y2="304.18" xlink:href="#未命名漸層_44"/><linearGradient id="未命名漸層_47-7" x1="129" y1="355.83" x2="177.56" y2="355.83" xlink:href="#未命名漸層_47"/><linearGradient id="未命名漸層_44-7" x1="128.5" y1="355.74" x2="178.06" y2="355.74" xlink:href="#未命名漸層_44"/><linearGradient id="未命名漸層_47-8" x1="97.82" y1="248.49" x2="154.35" y2="248.49" xlink:href="#未命名漸層_47"/><linearGradient id="未命名漸層_44-8" x1="97.32" y1="248.59" x2="155.06" y2="248.59" xlink:href="#未命名漸層_44"/><linearGradient id="未命名漸層_47-9" x1="143.12" y1="362.57" x2="166.65" y2="362.57" xlink:href="#未命名漸層_47"/><linearGradient id="未命名漸層_44-9" x1="142.46" y1="362.57" x2="167.15" y2="362.57" xlink:href="#未命名漸層_44"/><linearGradient id="未命名漸層_47-10" x1="153.13" y1="172.88" x2="168.21" y2="172.88" xlink:href="#未命名漸層_47"/><linearGradient id="未命名漸層_44-10" x1="152.63" y1="172.88" x2="168.71" y2="172.88" xlink:href="#未命名漸層_44"/></defs><g id="圖層_2" data-name="圖層 2"><g id="圖層_1-2" data-name="圖層 1"><rect class="cls-1" width="316.89" height="472.49" rx="25.28"/><path class="cls-2" d="M262.8,440.93H48.69A16.89,16.89,0,0,1,31.81,424v-360"/><path class="cls-3" d="M58.39,33.89H272.58a16.88,16.88,0,0,1,16.89,16.88V410.36"/><circle class="cls-4" cx="49.86" cy="33.89" r="8.53"/><circle class="cls-5" cx="31.81" cy="55.57" r="8.53"/><path class="cls-6" d="M84.64,39.24c-3,0-12.71-5.46-12.71-5.46s9.69-5.47,12.71-5.47,11.13,5.47,11.13,5.47S87.65,39.24,84.64,39.24Z"/><path class="cls-7" d="M26.36,88c0-3,5.46-12.71,5.46-12.71S37.29,85,37.29,88,31.82,99.1,31.82,99.1,26.36,91,26.36,88Z"/><circle class="cls-8" cx="37.44" cy="41.93" r="14.57"/><circle class="cls-9" cx="271.36" cy="440.57" r="8.53"/><circle class="cls-10" cx="289.42" cy="418.89" r="8.53"/><path class="cls-11" d="M236.59,435.22c3,0,12.7,5.46,12.7,5.46s-9.68,5.47-12.7,5.47-11.14-5.47-11.14-5.47S233.57,435.22,236.59,435.22Z"/><path class="cls-12" d="M294.87,386.49c0,3-5.47,12.7-5.47,12.7s-5.46-9.68-5.46-12.7,5.46-11.13,5.46-11.13S294.87,383.47,294.87,386.49Z"/><circle class="cls-13" cx="283.78" cy="432.53" r="14.57"/><path class="cls-14" d="M167,154.32l-.5-.47a87.18,87.18,0,0,1-11-12.47,10.44,10.44,0,0,1-.65-.94,89.3,89.3,0,0,1-10.22-18.6q-.17-.41-.33-.84l-.18-.46a24.28,24.28,0,1,1,45.78,0l-.15.38c-.14.37-.25.65-.37.93a88.49,88.49,0,0,1-10.11,18.44c-.22.35-.48.73-.76,1.1a89,89,0,0,1-11,12.46Zm-21.52-34.27.14.34c.13.36.24.62.35.88A87.53,87.53,0,0,0,156,139.63c.21.33.4.6.61.88A86.64,86.64,0,0,0,167,152.3a86.23,86.23,0,0,0,10.32-11.78c.26-.35.5-.7.73-1.05a87.65,87.65,0,0,0,10-18.18c.12-.28.22-.54.33-.81l.17-.44a22.81,22.81,0,1,0-43,0Z"/><path class="cls-15" d="M166.39,304.91v-1.47a54.61,54.61,0,0,0,50.87-74.39h0l-.07-.18a210.61,210.61,0,0,0-51.28-75.58l1-1.06a212.06,212.06,0,0,1,51.59,76l.07.16a56.08,56.08,0,0,1-52.18,76.53Z"/><path class="cls-16" d="M170.17,128.94a16.88,16.88,0,0,1-15.34-9.88,13.63,13.63,0,0,1,6.77-18,11,11,0,0,1,14.62,5.48,9,9,0,0,1-4.46,11.89,7.34,7.34,0,0,1-9.71-3.64,6,6,0,0,1,3-8,5,5,0,0,1,6.57,2.46,4.12,4.12,0,0,1-2,5.44A3.44,3.44,0,0,1,165,113a2.89,2.89,0,0,1,1.43-3.84l.61,1.34a1.43,1.43,0,0,0-.71,1.89,2,2,0,0,0,2.61,1,2.65,2.65,0,0,0,1.31-3.5,3.5,3.5,0,0,0-4.62-1.74,4.53,4.53,0,0,0-2.37,2.55,4.45,4.45,0,0,0,.12,3.47,5.86,5.86,0,0,0,7.76,2.91,7.52,7.52,0,0,0,3.73-10,9.57,9.57,0,0,0-12.68-4.75,12.16,12.16,0,0,0-6,16.09,15.37,15.37,0,0,0,20.35,7.63l.61,1.34A16.8,16.8,0,0,1,170.17,128.94Z"/><path class="cls-17" d="M163,256.49h-.47a14.58,14.58,0,0,1-14.19-14.94,11.86,11.86,0,0,1,12.1-11.5,9.6,9.6,0,0,1,9.34,9.83,7.86,7.86,0,0,1-8,7.62,6.39,6.39,0,0,1-6.23-6.57,5.3,5.3,0,0,1,5.4-5.13,4.37,4.37,0,0,1,4.25,4.48l-1.47,0a2.89,2.89,0,0,0-2.82-3A3.83,3.83,0,0,0,157,241a4.94,4.94,0,0,0,4.81,5.06,6.33,6.33,0,0,0,6.51-6.18,8.12,8.12,0,0,0-7.91-8.33,10.35,10.35,0,0,0-10.6,10.06A13.12,13.12,0,0,0,162.55,255a16.56,16.56,0,0,0,17-16.13,20.91,20.91,0,0,0-20.34-21.42,26.3,26.3,0,0,0-27,25.6l-1.46,0a27.79,27.79,0,0,1,27.74-27h.73A22.39,22.39,0,0,1,181,238.93a18,18,0,0,1-18,17.56Z"/><path class="cls-18" d="M161.7,267.91a31.67,31.67,0,1,1,31.67-31.67A31.7,31.7,0,0,1,161.7,267.91Zm0-61.87a30.21,30.21,0,1,0,30.21,30.2A30.24,30.24,0,0,0,161.7,206Z"/><path class="cls-19" d="M159.6,311.72a7.82,7.82,0,0,1-2-.28,7.55,7.55,0,0,1-5.25-9.28,7.54,7.54,0,1,1,7.28,9.56Zm0-13.62a6.07,6.07,0,1,0,5.86,7.7h0a6.08,6.08,0,0,0-4.23-7.47A6.11,6.11,0,0,0,159.58,298.1Z"/><path class="cls-20" d="M153.28,388.92a24.28,24.28,0,0,1-22.88-32.41l.14-.37c.16-.4.26-.67.37-.93h0A89.09,89.09,0,0,1,141,336.77c.22-.35.48-.74.76-1.1a89.72,89.72,0,0,1,11-12.46l.5-.47.51.47a87.12,87.12,0,0,1,11,12.47,10.44,10.44,0,0,1,.65.94,89.12,89.12,0,0,1,10.21,18.58h0c.12.26.22.53.32.8l.2.5a24.6,24.6,0,0,1,1.39,8.14A24.3,24.3,0,0,1,153.28,388.92Zm-21.07-33c-.09.2-.17.41-.25.62l-.19.49a22.81,22.81,0,1,0,43,0l-.14-.35c-.12-.32-.2-.54-.29-.75l-.11-.11v-.16a87.86,87.86,0,0,0-10-18.21c-.21-.33-.4-.61-.61-.88a86,86,0,0,0-10.33-11.8A87.6,87.6,0,0,0,143,336.54c-.26.35-.5.7-.73,1a88.08,88.08,0,0,0-9.91,18v.17Z"/><path class="cls-21" d="M153.35,324.83a212.12,212.12,0,0,1-51.6-76l-.07-.16a56.08,56.08,0,0,1,52.18-76.53v1.46A54.62,54.62,0,0,0,103,248l.08.19a210.65,210.65,0,0,0,51.28,75.58Z"/><path class="cls-22" d="M154.1,377A11,11,0,0,1,144,370.55a9,9,0,0,1,4.46-11.89,7.32,7.32,0,0,1,9.7,3.64,6,6,0,0,1-3,8,5,5,0,0,1-6.56-2.46,4.11,4.11,0,0,1,2-5.45,3.45,3.45,0,0,1,4.55,1.71,2.9,2.9,0,0,1-1.44,3.83l-.61-1.33a1.43,1.43,0,0,0,.71-1.89,2,2,0,0,0-2.61-1,2.65,2.65,0,0,0-1.31,3.5,3.49,3.49,0,0,0,4.62,1.73,4.55,4.55,0,0,0,2.26-6A5.88,5.88,0,0,0,149.1,360a7.53,7.53,0,0,0-3.73,9.95,9.59,9.59,0,0,0,12.68,4.76,12.15,12.15,0,0,0,6-16.09A15.39,15.39,0,0,0,143.73,351l-.61-1.33a16.84,16.84,0,0,1,22.3,8.36,13.62,13.62,0,0,1-6.76,18A11,11,0,0,1,154.1,377Z"/><path class="cls-23" d="M160.68,180.42a7.42,7.42,0,0,1-2-.28,7.55,7.55,0,0,1-5.25-9.27h0a7.54,7.54,0,1,1,7.28,9.55Zm-5.86-9.16h0a6.06,6.06,0,0,0,8.83,6.9,6.08,6.08,0,0,0,2.3-8.27,6.07,6.07,0,0,0-11.13,1.37Z"/></g></g></svg>