<svg xmlns="http://www.w3.org/2000/svg" xmlns:xlink="http://www.w3.org/1999/xlink" width="316.89" height="472.49" viewBox="0 0 316.89 472.49"><defs><style>.cls-1{fill:url(#未命名漸層_191);}.cls-10,.cls-13,.cls-2,.cls-3,.cls-4,.cls-5,.cls-8,.cls-9{fill:none;stroke-width:2px;}.cls-10,.cls-13,.cls-14,.cls-15,.cls-16,.cls-17,.cls-18,.cls-2,.cls-20,.cls-21,.cls-22,.cls-23,.cls-24,.cls-25,.cls-27,.cls-3,.cls-31,.cls-32,.cls-33,.cls-34,.cls-35,.cls-36,.cls-37,.cls-38,.cls-39,.cls-4,.cls-5,.cls-8,.cls-9{stroke-miterlimit:10;}.cls-2{stroke:url(#未命名漸層_42);}.cls-3{stroke:url(#未命名漸層_42-2);}.cls-4{stroke:url(#未命名漸層_42-3);}.cls-5{stroke:url(#未命名漸層_42-4);}.cls-6{fill:url(#未命名漸層_42-5);}.cls-7{fill:url(#未命名漸層_42-6);}.cls-8{stroke:url(#未命名漸層_42-7);}.cls-9{stroke:url(#未命名漸層_42-8);}.cls-10{stroke:url(#未命名漸層_42-9);}.cls-11{fill:url(#未命名漸層_42-10);}.cls-12{fill:url(#未命名漸層_42-11);}.cls-13{stroke:url(#未命名漸層_42-12);}.cls-14{fill:url(#未命名漸層_47);stroke:url(#未命名漸層_44);}.cls-15{fill:url(#未命名漸層_47-2);stroke:url(#未命名漸層_44-2);}.cls-16{fill:url(#未命名漸層_47-3);stroke:url(#未命名漸層_44-3);}.cls-17{fill:url(#未命名漸層_47-4);stroke:url(#未命名漸層_44-4);}.cls-18{fill:url(#未命名漸層_47-5);stroke:url(#未命名漸層_44-5);}.cls-19{fill:url(#未命名漸層_47-6);}.cls-20{fill:url(#未命名漸層_47-7);stroke:url(#未命名漸層_44-6);}.cls-21{fill:url(#未命名漸層_47-8);stroke:url(#未命名漸層_44-7);}.cls-22{fill:url(#未命名漸層_47-9);stroke:url(#未命名漸層_44-8);}.cls-23{fill:url(#未命名漸層_47-10);stroke:url(#未命名漸層_44-9);}.cls-24{fill:url(#未命名漸層_47-11);stroke:url(#未命名漸層_44-10);}.cls-25{fill:url(#未命名漸層_47-12);stroke:url(#未命名漸層_44-11);}.cls-26{fill:url(#未命名漸層_47-13);}.cls-27{fill:url(#未命名漸層_47-14);stroke:url(#未命名漸層_44-12);}.cls-28{fill:url(#未命名漸層_42-13);}.cls-29{fill:url(#未命名漸層_42-14);}.cls-30{fill:url(#未命名漸層_42-15);}.cls-31{fill:url(#未命名漸層_47-15);stroke:url(#未命名漸層_44-13);}.cls-32{fill:url(#未命名漸層_47-16);stroke:url(#未命名漸層_44-14);}.cls-33{fill:url(#未命名漸層_47-17);stroke:url(#未命名漸層_44-15);}.cls-34{fill:url(#未命名漸層_47-18);stroke:url(#未命名漸層_44-16);}.cls-35{fill:url(#未命名漸層_47-19);stroke:url(#未命名漸層_44-17);}.cls-36{fill:url(#未命名漸層_47-20);stroke:url(#未命名漸層_44-18);}.cls-37{fill:url(#未命名漸層_47-21);stroke:url(#未命名漸層_44-19);}.cls-38{fill:url(#未命名漸層_47-22);stroke:url(#未命名漸層_44-20);}.cls-39{fill:url(#未命名漸層_47-23);stroke:url(#未命名漸層_44-21);}</style><linearGradient id="未命名漸層_191" x1="29.8" y1="4.68" x2="290.74" y2="474.37" gradientUnits="userSpaceOnUse"><stop offset="0" stop-color="#2e3453"/><stop offset="0.16" stop-color="#313f76"/><stop offset="0.29" stop-color="#32468d"/><stop offset="0.38" stop-color="#334996"/><stop offset="0.52" stop-color="#324384"/><stop offset="0.83" stop-color="#2f3860"/><stop offset="1" stop-color="#2e3453"/></linearGradient><linearGradient id="未命名漸層_42" x1="29.74" y1="252.63" x2="261.73" y2="252.63" gradientUnits="userSpaceOnUse"><stop offset="0" stop-color="#e8c5df"/><stop offset="0.96" stop-color="#a2ddd9"/></linearGradient><linearGradient id="未命名漸層_42-2" x1="57.32" y1="221.25" x2="289.4" y2="221.25" xlink:href="#未命名漸層_42"/><linearGradient id="未命名漸層_42-3" x1="39.27" y1="33.51" x2="58.32" y2="33.51" xlink:href="#未命名漸層_42"/><linearGradient id="未命名漸層_42-4" x1="21.22" y1="55.19" x2="40.27" y2="55.19" xlink:href="#未命名漸層_42"/><linearGradient id="未命名漸層_42-5" x1="70.87" y1="33.4" x2="94.7" y2="33.4" xlink:href="#未命名漸層_42"/><linearGradient id="未命名漸層_42-6" x1="25.29" y1="86.8" x2="36.22" y2="86.8" xlink:href="#未命名漸層_42"/><linearGradient id="未命名漸層_42-7" x1="20.8" y1="41.55" x2="51.95" y2="41.55" xlink:href="#未命名漸層_42"/><linearGradient id="未命名漸層_42-8" x1="260.77" y1="440.19" x2="279.82" y2="440.19" xlink:href="#未命名漸層_42"/><linearGradient id="未命名漸層_42-9" x1="278.82" y1="418.51" x2="297.88" y2="418.51" xlink:href="#未命名漸層_42"/><linearGradient id="未命名漸層_42-10" x1="224.39" y1="440.3" x2="248.23" y2="440.3" xlink:href="#未命名漸層_42"/><linearGradient id="未命名漸層_42-11" x1="282.87" y1="386.9" x2="293.8" y2="386.9" xlink:href="#未命名漸層_42"/><linearGradient id="未命名漸層_42-12" x1="267.14" y1="432.15" x2="298.29" y2="432.15" xlink:href="#未命名漸層_42"/><linearGradient id="未命名漸層_47" x1="97.25" y1="299.47" x2="233.12" y2="299.47" gradientUnits="userSpaceOnUse"><stop offset="0" stop-color="#2e3453"/><stop offset="1" stop-color="#83a2ce"/></linearGradient><linearGradient id="未命名漸層_44" x1="96.75" y1="299.37" x2="233.62" y2="299.37" gradientUnits="userSpaceOnUse"><stop offset="0" stop-color="#fff"/><stop offset="1" stop-color="#83a2ce"/></linearGradient><linearGradient id="未命名漸層_47-2" x1="158.53" y1="189.42" x2="165.89" y2="189.42" gradientTransform="translate(307.12 -13.55) rotate(76.1)" xlink:href="#未命名漸層_47"/><linearGradient id="未命名漸層_44-2" x1="157.93" y1="189.42" x2="166.5" y2="189.42" gradientTransform="translate(307.12 -13.55) rotate(76.1)" xlink:href="#未命名漸層_44"/><linearGradient id="未命名漸層_47-3" x1="141.21" y1="150.76" x2="157.35" y2="150.76" xlink:href="#未命名漸層_47"/><linearGradient id="未命名漸層_44-3" x1="140.59" y1="150.71" x2="158.06" y2="150.71" xlink:href="#未命名漸層_44"/><linearGradient id="未命名漸層_47-4" x1="172.81" y1="150.76" x2="188.95" y2="150.76" xlink:href="#未命名漸層_47"/><linearGradient id="未命名漸層_44-4" x1="172.1" y1="150.71" x2="189.57" y2="150.71" xlink:href="#未命名漸層_44"/><linearGradient id="未命名漸層_47-5" x1="164.89" y1="189.42" x2="172.14" y2="189.42" gradientTransform="translate(50.46 -34.95) rotate(13.9)" xlink:href="#未命名漸層_47"/><linearGradient id="未命名漸層_44-5" x1="164.29" y1="189.42" x2="172.75" y2="189.42" gradientTransform="translate(50.46 -34.95) rotate(13.9)" xlink:href="#未命名漸層_44"/><linearGradient id="未命名漸層_47-6" x1="160.76" y1="202.65" x2="169.6" y2="202.65" xlink:href="#未命名漸層_47"/><linearGradient id="未命名漸層_47-7" x1="223.94" y1="328.58" x2="241.56" y2="328.58" xlink:href="#未命名漸層_47"/><linearGradient id="未命名漸層_44-6" x1="223.44" y1="328.58" x2="242.56" y2="328.58" xlink:href="#未命名漸層_44"/><linearGradient id="未命名漸層_47-8" x1="98.13" y1="173.02" x2="234.01" y2="173.02" xlink:href="#未命名漸層_47"/><linearGradient id="未命名漸層_44-7" x1="97.63" y1="173.11" x2="234.51" y2="173.11" xlink:href="#未命名漸層_44"/><linearGradient id="未命名漸層_47-9" x1="165.36" y1="283.07" x2="172.72" y2="283.07" gradientTransform="translate(403.2 50.97) rotate(76.1)" xlink:href="#未命名漸層_47"/><linearGradient id="未命名漸層_44-8" x1="164.75" y1="283.07" x2="173.32" y2="283.07" gradientTransform="translate(403.2 50.97) rotate(76.1)" xlink:href="#未命名漸層_44"/><linearGradient id="未命名漸層_47-10" x1="173.91" y1="321.73" x2="190.05" y2="321.73" xlink:href="#未命名漸層_47"/><linearGradient id="未命名漸層_44-9" x1="173.2" y1="321.78" x2="190.67" y2="321.78" xlink:href="#未命名漸層_44"/><linearGradient id="未命名漸層_47-11" x1="142.3" y1="321.73" x2="158.45" y2="321.73" xlink:href="#未命名漸層_47"/><linearGradient id="未命名漸層_44-10" x1="141.69" y1="321.78" x2="159.16" y2="321.78" xlink:href="#未命名漸層_44"/><linearGradient id="未命名漸層_47-12" x1="159.11" y1="283.07" x2="166.36" y2="283.07" gradientTransform="translate(72.79 -30.81) rotate(13.9)" xlink:href="#未命名漸層_47"/><linearGradient id="未命名漸層_44-11" x1="158.51" y1="283.07" x2="166.97" y2="283.07" gradientTransform="translate(72.79 -30.81) rotate(13.9)" xlink:href="#未命名漸層_44"/><linearGradient id="未命名漸層_47-13" x1="161.65" y1="269.84" x2="170.49" y2="269.84" xlink:href="#未命名漸層_47"/><linearGradient id="未命名漸層_47-14" x1="89.69" y1="143.91" x2="107.31" y2="143.91" xlink:href="#未命名漸層_47"/><linearGradient id="未命名漸層_44-12" x1="88.69" y1="143.91" x2="107.81" y2="143.91" xlink:href="#未命名漸層_44"/><linearGradient id="未命名漸層_42-13" x1="144.71" y1="71.84" x2="161.51" y2="71.84" xlink:href="#未命名漸層_42"/><linearGradient id="未命名漸層_42-14" x1="144.71" y1="80.88" x2="161.51" y2="80.88" xlink:href="#未命名漸層_42"/><linearGradient id="未命名漸層_42-15" x1="144.71" y1="89.92" x2="161.51" y2="89.92" xlink:href="#未命名漸層_42"/><linearGradient id="未命名漸層_47-15" x1="172.46" y1="382.57" x2="189.25" y2="382.57" xlink:href="#未命名漸層_47"/><linearGradient id="未命名漸層_44-13" x1="171.44" y1="382.57" x2="190.15" y2="382.57" xlink:href="#未命名漸層_44"/><linearGradient id="未命名漸層_47-16" x1="172.46" y1="391.61" x2="189.25" y2="391.61" xlink:href="#未命名漸層_47"/><linearGradient id="未命名漸層_44-14" x1="171.44" y1="391.61" x2="190.15" y2="391.61" xlink:href="#未命名漸層_44"/><linearGradient id="未命名漸層_47-17" x1="172.46" y1="400.64" x2="189.25" y2="400.64" xlink:href="#未命名漸層_47"/><linearGradient id="未命名漸層_44-15" x1="171.44" y1="400.64" x2="190.15" y2="400.64" xlink:href="#未命名漸層_44"/><linearGradient id="未命名漸層_47-18" x1="156.31" y1="129.71" x2="173.82" y2="129.71" xlink:href="#未命名漸層_47"/><linearGradient id="未命名漸層_44-16" x1="155.68" y1="128.86" x2="174.45" y2="128.86" xlink:href="#未命名漸層_44"/><linearGradient id="未命名漸層_47-19" x1="156.89" y1="342.78" x2="174.41" y2="342.78" xlink:href="#未命名漸層_47"/><linearGradient id="未命名漸層_44-17" x1="156.26" y1="343.63" x2="175.04" y2="343.63" xlink:href="#未命名漸層_44"/><linearGradient id="未命名漸層_47-20" x1="140.9" y1="175.49" x2="189.46" y2="175.49" xlink:href="#未命名漸層_47"/><linearGradient id="未命名漸層_44-18" x1="140.4" y1="175.58" x2="189.96" y2="175.58" xlink:href="#未命名漸層_44"/><linearGradient id="未命名漸層_47-21" x1="142.26" y1="174.08" x2="188.11" y2="174.08" xlink:href="#未命名漸層_47"/><linearGradient id="未命名漸層_44-19" x1="141.63" y1="174.03" x2="188.73" y2="174.03" xlink:href="#未命名漸層_44"/><linearGradient id="未命名漸層_47-22" x1="141.79" y1="297" x2="190.35" y2="297" xlink:href="#未命名漸層_47"/><linearGradient id="未命名漸層_44-20" x1="141.29" y1="296.91" x2="190.85" y2="296.91" xlink:href="#未命名漸層_44"/><linearGradient id="未命名漸層_47-23" x1="143.14" y1="298.41" x2="189" y2="298.41" xlink:href="#未命名漸層_47"/><linearGradient id="未命名漸層_44-21" x1="142.52" y1="298.46" x2="189.62" y2="298.46" xlink:href="#未命名漸層_44"/></defs><g id="圖層_2" data-name="圖層 2"><g id="圖層_1-2" data-name="圖層 1"><rect class="cls-1" width="316.89" height="472.49" rx="25.28"/><path class="cls-2" d="M261.73,440.55H47.62a16.88,16.88,0,0,1-16.88-16.88v-360"/><path class="cls-3" d="M57.32,33.51h214.2A16.88,16.88,0,0,1,288.4,50.39V410"/><circle class="cls-4" cx="48.8" cy="33.51" r="8.53"/><circle class="cls-5" cx="30.74" cy="55.19" r="8.53"/><path class="cls-6" d="M83.57,38.86c-3,0-12.7-5.46-12.7-5.46s9.68-5.47,12.7-5.47S94.7,33.4,94.7,33.4,86.59,38.86,83.57,38.86Z"/><path class="cls-7" d="M25.29,87.59c0-3,5.47-12.71,5.47-12.71s5.46,9.69,5.46,12.71-5.46,11.13-5.46,11.13S25.29,90.61,25.29,87.59Z"/><circle class="cls-8" cx="36.38" cy="41.55" r="14.57"/><circle class="cls-9" cx="270.29" cy="440.19" r="8.53"/><circle class="cls-10" cx="288.35" cy="418.51" r="8.53"/><path class="cls-11" d="M235.52,434.84c3,0,12.71,5.46,12.71,5.46s-9.69,5.47-12.71,5.47-11.13-5.47-11.13-5.47S232.5,434.84,235.52,434.84Z"/><path class="cls-12" d="M293.8,386.11c0,3-5.47,12.71-5.47,12.71s-5.46-9.69-5.46-12.71S288.33,375,288.33,375,293.8,383.09,293.8,386.11Z"/><circle class="cls-13" cx="282.71" cy="432.15" r="14.57"/><path class="cls-14" d="M165.18,392.34a68,68,0,0,1-63.25-92.79l.06-.14a255.15,255.15,0,0,1,31.2-56.65l.16-.22a255.55,255.55,0,0,1,31.34-35.47l.5-.47.5.47a257.54,257.54,0,0,1,62.68,92.34l.06.14a67.75,67.75,0,0,1,4.69,24.86h-1.47a66.24,66.24,0,0,0-4.53-24.19h0l-.07-.18a256.32,256.32,0,0,0-61.86-91.43,255.82,255.82,0,0,0-30.62,34.73,1.83,1.83,0,0,1-.23.32,253.31,253.31,0,0,0-31,56.37l-.07.15a66.51,66.51,0,0,0,61.92,90.69Z"/><rect class="cls-15" x="149.84" y="188.69" width="24.75" height="1.47" transform="translate(-60.63 301.38) rotate(-76.1)"/><path class="cls-16" d="M141.21,165.16l2.95-28.81,13.19,15.91Zm4-25.18L143,161.84l12.24-9.79Z"/><path class="cls-17" d="M189,165.16l-16.14-12.9L186,136.35Zm-14.06-13.11,12.24,9.79L184.89,140Z"/><rect class="cls-18" x="167.78" y="177.31" width="1.47" height="24.23" transform="translate(-40.58 46.05) rotate(-13.9)"/><polygon class="cls-19" points="165.13 204.58 162.94 202.65 160.76 200.72 165.18 200.79 169.6 200.85 167.36 202.72 165.13 204.58"/><path class="cls-20" d="M223.94,338.75V318.4l17.62,10.18Zm1.47-17.81v15.27l13.22-7.63Z"/><path class="cls-21" d="M166.06,265.89l-.5-.47a257.6,257.6,0,0,1-62.67-92.33l-.07-.15a67.75,67.75,0,0,1-4.69-24.86H99.6a66.19,66.19,0,0,0,4.53,24.18l.07.18a256.27,256.27,0,0,0,61.86,91.44,255.82,255.82,0,0,0,30.62-34.73,1.83,1.83,0,0,1,.23-.32,253.75,253.75,0,0,0,31-56.37l.06-.15a66.51,66.51,0,0,0-61.91-90.69V80.15a68,68,0,0,1,63.24,92.79l-.06.15a255.23,255.23,0,0,1-31.19,56.64,1.06,1.06,0,0,0-.16.22,256.27,256.27,0,0,1-31.35,35.47Z"/><rect class="cls-22" x="156.66" y="282.33" width="24.75" height="1.47" transform="translate(-146.35 379.15) rotate(-76.1)"/><path class="cls-23" d="M187.09,336.14l-13.18-15.91,16.14-12.9ZM176,320.44l10,12.07,2.24-21.86Z"/><path class="cls-24" d="M145.26,336.14l-3-28.81,16.15,12.9Zm-1.14-25.49,2.24,21.86,10-12.07Z"/><rect class="cls-25" x="162" y="270.95" width="1.47" height="24.23" transform="translate(-63.25 47.4) rotate(-13.9)"/><polygon class="cls-26" points="166.13 267.91 168.31 269.84 170.49 271.77 166.07 271.7 161.65 271.63 163.89 269.77 166.13 267.91"/><path class="cls-27" d="M107.31,154.09,89.69,143.91l17.62-10.17ZM92.62,143.91l13.22,7.64V136.28Z"/><path class="cls-28" d="M153.66,75.78c-1.87,0-6.84-2.75-7.81-3.3l-1.14-.64,1.14-.63c1-.56,5.94-3.31,7.81-3.31s6.12,2.78,6.94,3.34l.91.6-.91.61C159.78,73,155.56,75.78,153.66,75.78Zm-5.93-3.94c2.15,1.14,5,2.48,5.93,2.48S157,73,158.85,71.84c-1.81-1.13-4.24-2.47-5.19-2.47S149.88,70.7,147.73,71.84Z"/><path class="cls-29" d="M153.66,84.82c-1.87,0-6.84-2.75-7.81-3.3l-1.14-.64,1.14-.64c1-.55,5.94-3.3,7.81-3.3s6.12,2.78,6.94,3.33l.91.61-.91.61C159.78,82.05,155.56,84.82,153.66,84.82Zm-5.93-3.94c2.15,1.14,5,2.48,5.93,2.48S157,82,158.85,80.88c-1.81-1.13-4.24-2.47-5.19-2.47S149.88,79.74,147.73,80.88Z"/><path class="cls-30" d="M153.66,93.86c-1.87,0-6.84-2.75-7.81-3.3l-1.14-.64,1.14-.64c1-.55,5.94-3.3,7.81-3.3s6.12,2.78,6.94,3.33l.91.61-.91.61C159.78,91.08,155.56,93.86,153.66,93.86Zm-5.93-3.94c2.15,1.14,5,2.47,5.93,2.47s3.38-1.34,5.19-2.47c-1.81-1.13-4.24-2.47-5.19-2.47S149.88,88.78,147.73,89.92Z"/><path class="cls-31" d="M181.4,386.51c-1.86,0-6.83-2.75-7.81-3.3l-1.13-.64,1.13-.64c1-.55,5.95-3.3,7.81-3.3s6.12,2.77,6.95,3.33l.9.61-.9.61C187.52,383.73,183.3,386.51,181.4,386.51Zm-5.92-3.94c2.14,1.14,5,2.47,5.92,2.47s3.39-1.34,5.19-2.47c-1.8-1.14-4.24-2.47-5.19-2.47S177.62,381.43,175.48,382.57Z"/><path class="cls-32" d="M181.4,395.55c-1.86,0-6.83-2.75-7.81-3.3l-1.13-.64,1.13-.64c1-.55,5.95-3.3,7.81-3.3s6.12,2.77,6.95,3.33l.9.61-.9.61C187.52,392.77,183.3,395.55,181.4,395.55Zm-5.92-3.94c2.14,1.14,5,2.47,5.92,2.47s3.39-1.34,5.19-2.47c-1.8-1.14-4.24-2.48-5.19-2.48S177.62,390.47,175.48,391.61Z"/><path class="cls-33" d="M181.4,404.58c-1.86,0-6.83-2.74-7.81-3.3l-1.13-.64,1.13-.63c1-.56,5.95-3.3,7.81-3.3s6.12,2.77,6.95,3.33l.9.6-.9.61C187.52,401.81,183.3,404.58,181.4,404.58Zm-5.92-3.94c2.14,1.14,5,2.48,5.92,2.48s3.39-1.34,5.19-2.48c-1.8-1.13-4.24-2.47-5.19-2.47S177.62,399.5,175.48,400.64Z"/><polygon class="cls-34" points="171.84 129.71 169.87 121.25 167.89 129.71 167.45 131.57 167.02 129.71 165.04 121.25 163.07 129.71 162.65 131.49 162.24 129.71 160.26 121.25 158.28 129.71 156.31 138.17 160.26 138.17 161.09 138.17 164.21 138.17 165.04 138.17 165.91 138.17 169 138.17 169.87 138.17 173.82 138.17 171.84 129.71"/><polygon class="cls-35" points="158.87 342.78 160.84 351.24 162.82 342.78 163.26 340.92 163.69 342.78 165.67 351.24 167.65 342.78 168.06 341 168.48 342.78 170.45 351.24 172.43 342.78 174.41 334.32 170.45 334.32 169.62 334.32 166.5 334.32 165.67 334.32 164.8 334.32 161.72 334.32 160.84 334.32 156.89 334.32 158.87 342.78"/><path class="cls-36" d="M165.19,208.58l-.5-.47a87.8,87.8,0,0,1-11-12.47c-.23-.3-.44-.61-.65-.94a89.26,89.26,0,0,1-10.21-18.6c-.11-.24-.21-.51-.31-.77l-.21-.53a24.28,24.28,0,1,1,45.78,0l-.2.53c-.1.26-.21.53-.32.78a88.65,88.65,0,0,1-10.1,18.44c-.23.35-.49.73-.76,1.1a89.72,89.72,0,0,1-11,12.46Zm-21.52-34.27.2.49c.09.25.19.5.29.73a87.94,87.94,0,0,0,10.08,18.36c.21.33.4.61.61.88a86,86,0,0,0,10.34,11.79,87.61,87.61,0,0,0,10.32-11.78q.39-.53.72-1.05a87.69,87.69,0,0,0,10-18.18c.11-.25.2-.5.3-.75l.19-.5a22.81,22.81,0,1,0-43,0Z"/><polygon class="cls-37" points="165.18 178.17 142.26 171.38 142.67 169.98 165.18 176.65 187.69 169.98 188.11 171.38 165.18 178.17"/><path class="cls-38" d="M166.06,330.09a24.3,24.3,0,0,1-24.27-24.27,24.6,24.6,0,0,1,1.39-8.14l.21-.52c.1-.26.2-.53.31-.78a88.23,88.23,0,0,1,10.11-18.44c.22-.35.48-.73.75-1.1a89.15,89.15,0,0,1,11-12.46l.5-.47.5.47a87.18,87.18,0,0,1,11,12.47,10.44,10.44,0,0,1,.65.94,89.51,89.51,0,0,1,10.22,18.6c.1.24.2.51.3.77l.21.52a24.6,24.6,0,0,1,1.39,8.14A24.31,24.31,0,0,1,166.06,330.09Zm0-64.16a87.61,87.61,0,0,0-10.32,11.78q-.37.53-.72,1.05a88.16,88.16,0,0,0-10,18.18c-.11.25-.2.5-.3.75l-.19.5a22.81,22.81,0,1,0,43,0l-.2-.49c-.09-.25-.18-.5-.29-.74A87.66,87.66,0,0,0,177,278.6c-.21-.33-.4-.61-.61-.88A85.44,85.44,0,0,0,166.06,265.93Z"/><polygon class="cls-39" points="188.58 302.51 166.07 295.84 143.56 302.51 143.14 301.11 166.07 294.31 189 301.11 188.58 302.51"/></g></g></svg>