<svg xmlns="http://www.w3.org/2000/svg" xmlns:xlink="http://www.w3.org/1999/xlink" width="316.89" height="472.49" viewBox="0 0 316.89 472.49"><defs><style>.cls-1{fill:url(#未命名漸層_191);}.cls-10,.cls-13,.cls-2,.cls-3,.cls-4,.cls-5,.cls-8,.cls-9{fill:none;stroke-width:2px;}.cls-10,.cls-13,.cls-15,.cls-16,.cls-17,.cls-18,.cls-19,.cls-2,.cls-20,.cls-21,.cls-22,.cls-23,.cls-24,.cls-25,.cls-26,.cls-27,.cls-28,.cls-29,.cls-3,.cls-30,.cls-31,.cls-32,.cls-33,.cls-4,.cls-5,.cls-8,.cls-9{stroke-miterlimit:10;}.cls-2{stroke:url(#未命名漸層_42);}.cls-3{stroke:url(#未命名漸層_42-2);}.cls-4{stroke:url(#未命名漸層_42-3);}.cls-5{stroke:url(#未命名漸層_42-4);}.cls-6{fill:url(#未命名漸層_42-5);}.cls-7{fill:url(#未命名漸層_42-6);}.cls-8{stroke:url(#未命名漸層_42-7);}.cls-9{stroke:url(#未命名漸層_42-8);}.cls-10{stroke:url(#未命名漸層_42-9);}.cls-11{fill:url(#未命名漸層_42-10);}.cls-12{fill:url(#未命名漸層_42-11);}.cls-13{stroke:url(#未命名漸層_42-12);}.cls-14{stroke-linejoin:round;fill:url(#未命名漸層_47);stroke:url(#未命名漸層_44);}.cls-15{fill:url(#未命名漸層_47-2);stroke:url(#未命名漸層_44-2);}.cls-16{fill:url(#未命名漸層_47-3);stroke:url(#未命名漸層_44-3);}.cls-17{fill:url(#未命名漸層_47-4);stroke:url(#未命名漸層_44-4);}.cls-18{fill:url(#未命名漸層_47-5);stroke:url(#未命名漸層_44-5);}.cls-19{fill:url(#未命名漸層_47-6);stroke:url(#未命名漸層_44-6);}.cls-20{fill:url(#未命名漸層_47-7);stroke:url(#未命名漸層_44-7);}.cls-21{fill:url(#未命名漸層_47-8);stroke:url(#未命名漸層_44-8);}.cls-22{fill:url(#未命名漸層_47-9);stroke:url(#未命名漸層_44-9);}.cls-23{fill:url(#未命名漸層_47-10);stroke:url(#未命名漸層_44-10);}.cls-24{fill:url(#未命名漸層_47-11);stroke:url(#未命名漸層_44-11);}.cls-25{fill:url(#未命名漸層_47-12);stroke:url(#未命名漸層_44-12);}.cls-26{fill:url(#未命名漸層_47-13);stroke:url(#未命名漸層_44-13);}.cls-27{fill:url(#未命名漸層_47-14);stroke:url(#未命名漸層_44-14);}.cls-28{fill:url(#未命名漸層_47-15);stroke:url(#未命名漸層_44-15);}.cls-29{fill:url(#未命名漸層_47-16);stroke:url(#未命名漸層_44-16);}.cls-30{fill:url(#未命名漸層_47-17);stroke:url(#未命名漸層_44-17);}.cls-31{fill:url(#未命名漸層_47-18);stroke:url(#未命名漸層_44-18);}.cls-32{fill:url(#未命名漸層_47-19);stroke:url(#未命名漸層_44-19);}.cls-33{fill:url(#未命名漸層_47-20);stroke:url(#未命名漸層_44-20);}</style><linearGradient id="未命名漸層_191" x1="29.8" y1="4.68" x2="290.74" y2="474.37" gradientUnits="userSpaceOnUse"><stop offset="0" stop-color="#2e3453"/><stop offset="0.16" stop-color="#313f76"/><stop offset="0.29" stop-color="#32468d"/><stop offset="0.38" stop-color="#334996"/><stop offset="0.52" stop-color="#324384"/><stop offset="0.83" stop-color="#2f3860"/><stop offset="1" stop-color="#2e3453"/></linearGradient><linearGradient id="未命名漸層_42" x1="29.86" y1="252.97" x2="261.85" y2="252.97" gradientUnits="userSpaceOnUse"><stop offset="0" stop-color="#e8c5df"/><stop offset="0.96" stop-color="#a2ddd9"/></linearGradient><linearGradient id="未命名漸層_42-2" x1="57.44" y1="221.59" x2="289.52" y2="221.59" xlink:href="#未命名漸層_42"/><linearGradient id="未命名漸層_42-3" x1="39.39" y1="33.85" x2="58.44" y2="33.85" xlink:href="#未命名漸層_42"/><linearGradient id="未命名漸層_42-4" x1="21.34" y1="55.53" x2="40.39" y2="55.53" xlink:href="#未命名漸層_42"/><linearGradient id="未命名漸層_42-5" x1="70.99" y1="33.74" x2="94.82" y2="33.74" xlink:href="#未命名漸層_42"/><linearGradient id="未命名漸層_42-6" x1="25.41" y1="87.15" x2="36.34" y2="87.15" xlink:href="#未命名漸層_42"/><linearGradient id="未命名漸層_42-7" x1="20.92" y1="41.89" x2="52.07" y2="41.89" xlink:href="#未命名漸層_42"/><linearGradient id="未命名漸層_42-8" x1="260.89" y1="440.53" x2="279.94" y2="440.53" xlink:href="#未命名漸層_42"/><linearGradient id="未命名漸層_42-9" x1="278.94" y1="418.85" x2="297.99" y2="418.85" xlink:href="#未命名漸層_42"/><linearGradient id="未命名漸層_42-10" x1="224.51" y1="440.64" x2="248.34" y2="440.64" xlink:href="#未命名漸層_42"/><linearGradient id="未命名漸層_42-11" x1="282.99" y1="387.24" x2="293.92" y2="387.24" xlink:href="#未命名漸層_42"/><linearGradient id="未命名漸層_42-12" x1="267.26" y1="432.49" x2="298.41" y2="432.49" xlink:href="#未命名漸層_42"/><linearGradient id="未命名漸層_47" x1="142.4" y1="174.99" x2="189.98" y2="174.99" gradientUnits="userSpaceOnUse"><stop offset="0" stop-color="#2e3453"/><stop offset="1" stop-color="#83a2ce"/></linearGradient><linearGradient id="未命名漸層_44" x1="141.9" y1="174.99" x2="190.48" y2="174.99" gradientUnits="userSpaceOnUse"><stop offset="0" stop-color="#fff"/><stop offset="1" stop-color="#83a2ce"/></linearGradient><linearGradient id="未命名漸層_47-2" x1="99.63" y1="296.45" x2="232.78" y2="296.45" xlink:href="#未命名漸層_47"/><linearGradient id="未命名漸層_44-2" x1="99.13" y1="296.36" x2="233.28" y2="296.36" xlink:href="#未命名漸層_44"/><linearGradient id="未命名漸層_47-3" x1="95.12" y1="327.25" x2="109.28" y2="327.25" xlink:href="#未命名漸層_47"/><linearGradient id="未命名漸層_44-3" x1="94.62" y1="327.25" x2="109.78" y2="327.25" xlink:href="#未命名漸層_44"/><linearGradient id="未命名漸層_47-4" x1="152.76" y1="387.06" x2="166.92" y2="387.06" xlink:href="#未命名漸層_47"/><linearGradient id="未命名漸層_44-4" x1="152.26" y1="387.06" x2="167.42" y2="387.06" xlink:href="#未命名漸層_44"/><linearGradient id="未命名漸層_47-5" x1="165.47" y1="173.74" x2="166.91" y2="173.74" xlink:href="#未命名漸層_47"/><linearGradient id="未命名漸層_44-5" x1="164.97" y1="173.74" x2="167.41" y2="173.74" xlink:href="#未命名漸層_44"/><linearGradient id="未命名漸層_47-6" x1="157.67" y1="185.17" x2="175.49" y2="185.17" xlink:href="#未命名漸層_47"/><linearGradient id="未命名漸層_44-6" x1="156.97" y1="185.07" x2="176.19" y2="185.07" xlink:href="#未命名漸層_44"/><linearGradient id="未命名漸層_47-7" x1="117.57" y1="359.34" x2="142.44" y2="359.34" xlink:href="#未命名漸層_47"/><linearGradient id="未命名漸層_44-7" x1="117.07" y1="359.34" x2="142.94" y2="359.34" xlink:href="#未命名漸層_44"/><linearGradient id="未命名漸層_47-8" x1="121.85" y1="359.34" x2="138.17" y2="359.34" xlink:href="#未命名漸層_47"/><linearGradient id="未命名漸層_44-8" x1="121.35" y1="359.34" x2="138.67" y2="359.34" xlink:href="#未命名漸層_44"/><linearGradient id="未命名漸層_47-9" x1="126.17" y1="359.34" x2="133.84" y2="359.34" xlink:href="#未命名漸層_47"/><linearGradient id="未命名漸層_44-9" x1="125.67" y1="359.34" x2="134.34" y2="359.34" xlink:href="#未命名漸層_44"/><linearGradient id="未命名漸層_47-10" x1="137.78" y1="375.67" x2="155.99" y2="375.67" gradientTransform="translate(314.7 8.87) rotate(45.94)" xlink:href="#未命名漸層_47"/><linearGradient id="未命名漸層_44-10" x1="137.07" y1="375.67" x2="156.7" y2="375.67" gradientTransform="translate(314.7 8.87) rotate(45.94)" xlink:href="#未命名漸層_44"/><linearGradient id="未命名漸層_47-11" x1="143.56" y1="295.34" x2="191.14" y2="295.34" xlink:href="#未命名漸層_47"/><linearGradient id="未命名漸層_44-11" x1="143.06" y1="295.25" x2="191.64" y2="295.25" xlink:href="#未命名漸層_44"/><linearGradient id="未命名漸層_47-12" x1="100.76" y1="173.88" x2="233.91" y2="173.88" xlink:href="#未命名漸層_47"/><linearGradient id="未命名漸層_44-12" x1="100.26" y1="173.97" x2="234.41" y2="173.97" xlink:href="#未命名漸層_44"/><linearGradient id="未命名漸層_47-13" x1="224.26" y1="143.08" x2="238.42" y2="143.08" xlink:href="#未命名漸層_47"/><linearGradient id="未命名漸層_44-13" x1="223.76" y1="143.08" x2="238.92" y2="143.08" xlink:href="#未命名漸層_44"/><linearGradient id="未命名漸層_47-14" x1="166.62" y1="83.27" x2="180.77" y2="83.27" xlink:href="#未命名漸層_47"/><linearGradient id="未命名漸層_44-14" x1="166.12" y1="83.27" x2="181.27" y2="83.27" xlink:href="#未命名漸層_44"/><linearGradient id="未命名漸層_47-15" x1="166.63" y1="296.59" x2="168.07" y2="296.59" xlink:href="#未命名漸層_47"/><linearGradient id="未命名漸層_44-15" x1="166.13" y1="296.59" x2="168.57" y2="296.59" xlink:href="#未命名漸層_44"/><linearGradient id="未命名漸層_47-16" x1="158.05" y1="285.17" x2="175.87" y2="285.17" xlink:href="#未命名漸層_47"/><linearGradient id="未命名漸層_44-16" x1="157.35" y1="285.26" x2="176.57" y2="285.26" xlink:href="#未命名漸層_44"/><linearGradient id="未命名漸層_47-17" x1="191.1" y1="110.99" x2="215.97" y2="110.99" xlink:href="#未命名漸層_47"/><linearGradient id="未命名漸層_44-17" x1="190.6" y1="110.99" x2="216.47" y2="110.99" xlink:href="#未命名漸層_44"/><linearGradient id="未命名漸層_47-18" x1="195.38" y1="110.99" x2="211.69" y2="110.99" xlink:href="#未命名漸層_47"/><linearGradient id="未命名漸層_44-18" x1="194.88" y1="110.99" x2="212.19" y2="110.99" xlink:href="#未命名漸層_44"/><linearGradient id="未命名漸層_47-19" x1="199.7" y1="110.99" x2="207.37" y2="110.99" xlink:href="#未命名漸層_47"/><linearGradient id="未命名漸層_44-19" x1="199.2" y1="110.99" x2="207.87" y2="110.99" xlink:href="#未命名漸層_44"/><linearGradient id="未命名漸層_47-20" x1="177.55" y1="94.66" x2="195.76" y2="94.66" gradientTransform="translate(248.44 294.62) rotate(-134.06)" xlink:href="#未命名漸層_47"/><linearGradient id="未命名漸層_44-20" x1="176.84" y1="94.66" x2="196.47" y2="94.66" gradientTransform="translate(248.44 294.62) rotate(-134.06)" xlink:href="#未命名漸層_44"/></defs><g id="圖層_2" data-name="圖層 2"><g id="圖層_1-2" data-name="圖層 1"><rect class="cls-1" width="316.89" height="472.49" rx="25.28"/><path class="cls-2" d="M261.85,440.89H47.74A16.88,16.88,0,0,1,30.86,424V64.06"/><path class="cls-3" d="M57.44,33.85h214.2a16.88,16.88,0,0,1,16.88,16.88v359.6"/><circle class="cls-4" cx="48.92" cy="33.85" r="8.53"/><circle class="cls-5" cx="30.86" cy="55.53" r="8.53"/><path class="cls-6" d="M83.69,39.2c-3,0-12.7-5.46-12.7-5.46s9.68-5.47,12.7-5.47,11.13,5.47,11.13,5.47S86.71,39.2,83.69,39.2Z"/><path class="cls-7" d="M25.41,87.93c0-3,5.47-12.7,5.47-12.7s5.46,9.68,5.46,12.7-5.46,11.13-5.46,11.13S25.41,91,25.41,87.93Z"/><circle class="cls-8" cx="36.5" cy="41.89" r="14.57"/><circle class="cls-9" cx="270.41" cy="440.53" r="8.53"/><circle class="cls-10" cx="288.47" cy="418.85" r="8.53"/><path class="cls-11" d="M235.64,435.18c3,0,12.7,5.46,12.7,5.46s-9.68,5.47-12.7,5.47-11.13-5.47-11.13-5.47S232.62,435.18,235.64,435.18Z"/><path class="cls-12" d="M293.92,386.45c0,3-5.47,12.71-5.47,12.71S283,389.47,283,386.45s5.46-11.13,5.46-11.13S293.92,383.43,293.92,386.45Z"/><circle class="cls-13" cx="282.83" cy="432.49" r="14.57"/><path class="cls-14" d="M166.2,207.42l-.49-.46a86.57,86.57,0,0,1-10.8-12.22c-.22-.3-.43-.6-.63-.92a86.56,86.56,0,0,1-9.91-18l-.16-.08v-.3c-.1-.24-.2-.49-.29-.74l-.16-.4a24.1,24.1,0,0,1-1.36-8,23.79,23.79,0,0,1,47.58,0,24.14,24.14,0,0,1-1.36,8l-.1.25-.76,0,.68.26c-.11.27-.21.54-.33.81a87,87,0,0,1-9.9,18.07c-.22.34-.48.72-.75,1.08A87.21,87.21,0,0,1,166.69,207Zm-20.55-32.24A86,86,0,0,0,155.47,193a10,10,0,0,0,.6.86,83.89,83.89,0,0,0,10.13,11.56,86.15,86.15,0,0,0,10.11-11.55c.25-.34.49-.68.71-1a86.27,86.27,0,0,0,9.77-17.81c.11-.26.21-.52.3-.77l.18-.45a22.7,22.7,0,0,0,1.28-7.48,22.36,22.36,0,1,0-43.43,7.49l.13.33c.08.23.16.43.24.63h0Z"/><path class="cls-15" d="M166.21,387.46V386a65.19,65.19,0,0,0,60.68-88.86l-.06-.13a248.72,248.72,0,0,0-30.43-55.3,2.93,2.93,0,0,1-.25-.35,250.66,250.66,0,0,0-30-34A251.1,251.1,0,0,0,105.58,297l-.06.14a65,65,0,0,0-4.46,23.76H99.63a66.37,66.37,0,0,1,4.59-24.37l.06-.14a252.45,252.45,0,0,1,61.42-90.48l.49-.47.5.47a252.12,252.12,0,0,1,30.67,34.69,2,2,0,0,0,.17.25,249.89,249.89,0,0,1,30.59,55.54l.06.14a66.61,66.61,0,0,1-62,90.93Z"/><path class="cls-16" d="M102.2,334.33a7.08,7.08,0,1,1,7.08-7.08A7.09,7.09,0,0,1,102.2,334.33Zm0-12.72a5.64,5.64,0,1,0,5.64,5.64A5.65,5.65,0,0,0,102.2,321.61Z"/><path class="cls-17" d="M159.84,394.14a7.08,7.08,0,1,1,7.08-7.08A7.09,7.09,0,0,1,159.84,394.14Zm0-12.72a5.64,5.64,0,1,0,5.64,5.64A5.65,5.65,0,0,0,159.84,381.42Z"/><rect class="cls-18" x="165.47" y="171.39" width="1.44" height="4.7"/><path class="cls-19" d="M166.22,187.35a12.74,12.74,0,0,1-8.55-3.28l1-1c.25.26,6.44,6.4,16-.09l.81,1.19A16.4,16.4,0,0,1,166.22,187.35Z"/><path class="cls-20" d="M130,371.77a12.43,12.43,0,1,1,8.94-3.78A12.4,12.4,0,0,1,130,371.77Zm0-23.43a11,11,0,1,0,7.65,3.09A11,11,0,0,0,130,348.34Z"/><path class="cls-21" d="M130,367.5a8.07,8.07,0,0,1-5.67-2.3,8.16,8.16,0,0,1,11.35-11.73,8.17,8.17,0,0,1-5.54,14Zm0-14.88h-.12a6.73,6.73,0,1,0,4.79,1.89h0A6.64,6.64,0,0,0,130,352.62Z"/><path class="cls-22" d="M130,363.17a3.84,3.84,0,0,1-.07-7.67H130a3.79,3.79,0,0,1,2.66,1.08h0a3.83,3.83,0,0,1-2.66,6.59Zm0-6.23h0a2.4,2.4,0,0,0-1.69.73,2.4,2.4,0,0,0,3.45,3.34,2.41,2.41,0,0,0,0-3.4h0A2.44,2.44,0,0,0,130,356.94Z"/><rect class="cls-23" x="145.44" y="364.4" width="2.89" height="22.54" transform="translate(-225.22 219.97) rotate(-45.94)"/><path class="cls-24" d="M167.34,327.77A23.81,23.81,0,0,1,143.56,304a24.14,24.14,0,0,1,1.36-8l.15-.37c.14-.37.24-.64.35-.91h0a86.76,86.76,0,0,1,9.9-18.07c.22-.34.47-.72.75-1.08a86.57,86.57,0,0,1,10.77-12.2l.49-.46.49.46a85.94,85.94,0,0,1,10.8,12.21c.22.3.43.6.63.92a87.3,87.3,0,0,1,10,18.22h0c.12.27.22.54.32.82l.19.46a24.14,24.14,0,0,1,1.36,8A23.82,23.82,0,0,1,167.34,327.77Zm-20.69-32.23c-.07.17-.14.34-.2.52l-.18.45A22.36,22.36,0,1,0,189.7,304a22.78,22.78,0,0,0-1.27-7.48l-.14-.34c-.09-.25-.17-.44-.24-.62l-.16-.08v-.31a86.18,86.18,0,0,0-9.82-17.84c-.21-.32-.39-.59-.6-.86a83.89,83.89,0,0,0-10.13-11.56,86.06,86.06,0,0,0-10.11,11.55c-.26.34-.49.68-.71,1a85.79,85.79,0,0,0-9.71,17.68v.31Z"/><path class="cls-25" d="M167.34,264.89l-.49-.46a253.3,253.3,0,0,1-30.67-34.69,1.45,1.45,0,0,0-.17-.25A249.72,249.72,0,0,1,105.43,174h0l-.07-.16a66.63,66.63,0,0,1,62-90.93v1.44a65.19,65.19,0,0,0-60.7,88.81h0l.08.19a248.65,248.65,0,0,0,30.43,55.29,2.93,2.93,0,0,1,.25.35,250.58,250.58,0,0,0,30,34A250.91,250.91,0,0,0,228,173.33l.06-.15a64.93,64.93,0,0,0,4.46-23.74h1.43a66.36,66.36,0,0,1-4.59,24.36l-.06.15a252.58,252.58,0,0,1-61.42,90.48Z"/><path class="cls-26" d="M231.34,150.16a7.08,7.08,0,1,1,7.08-7.08A7.09,7.09,0,0,1,231.34,150.16Zm0-12.72a5.64,5.64,0,1,0,5.64,5.64A5.65,5.65,0,0,0,231.34,137.44Z"/><path class="cls-27" d="M173.7,90.35a7.08,7.08,0,1,1,7.07-7.08A7.09,7.09,0,0,1,173.7,90.35Zm0-12.72a5.64,5.64,0,1,0,5.64,5.64A5.65,5.65,0,0,0,173.7,77.63Z"/><rect class="cls-28" x="166.63" y="294.25" width="1.44" height="4.7"/><path class="cls-29" d="M158.86,287.35l-.81-1.18c10.56-7.2,17.74,0,17.82.09l-1,1C174.58,287,168.39,280.86,158.86,287.35Z"/><path class="cls-30" d="M203.53,123.42a12.43,12.43,0,1,1,8.94-3.78A12.44,12.44,0,0,1,203.53,123.42Zm0-23.42a11,11,0,1,0,7.64,3.09A11,11,0,0,0,203.54,100Z"/><path class="cls-31" d="M203.53,119.15a8.16,8.16,0,0,1-.13-16.31,8.28,8.28,0,0,1,5.81,2.29,8.16,8.16,0,0,1-5.54,14Zm0-14.88h-.12a6.86,6.86,0,1,0,.12,0Z"/><path class="cls-32" d="M203.53,114.83a3.83,3.83,0,0,1-2.67-1.08h0a3.84,3.84,0,0,1,2.61-6.59,3.54,3.54,0,0,1,2.73,1.08,3.83,3.83,0,0,1,.09,5.42,3.81,3.81,0,0,1-2.69,1.17Zm0-6.24h0a2.4,2.4,0,0,0-1.63,4.13h0a2.4,2.4,0,1,0,1.68-4.13Z"/><rect class="cls-33" x="185.21" y="83.39" width="2.89" height="22.54" transform="translate(384.48 26.36) rotate(134.06)"/></g></g></svg>