<svg xmlns="http://www.w3.org/2000/svg" xmlns:xlink="http://www.w3.org/1999/xlink" width="316.89" height="472.49" viewBox="0 0 316.89 472.49"><defs><style>.cls-1{fill:url(#未命名漸層_191);}.cls-10,.cls-13,.cls-2,.cls-3,.cls-4,.cls-5,.cls-8,.cls-9{fill:none;stroke-width:2px;}.cls-10,.cls-13,.cls-14,.cls-15,.cls-16,.cls-17,.cls-18,.cls-2,.cls-20,.cls-21,.cls-22,.cls-29,.cls-3,.cls-30,.cls-31,.cls-32,.cls-33,.cls-34,.cls-35,.cls-36,.cls-38,.cls-39,.cls-4,.cls-40,.cls-47,.cls-48,.cls-49,.cls-5,.cls-8,.cls-9{stroke-miterlimit:10;}.cls-2{stroke:url(#未命名漸層_42);}.cls-3{stroke:url(#未命名漸層_42-2);}.cls-4{stroke:url(#未命名漸層_42-3);}.cls-5{stroke:url(#未命名漸層_42-4);}.cls-6{fill:url(#未命名漸層_42-5);}.cls-7{fill:url(#未命名漸層_42-6);}.cls-8{stroke:url(#未命名漸層_42-7);}.cls-9{stroke:url(#未命名漸層_42-8);}.cls-10{stroke:url(#未命名漸層_42-9);}.cls-11{fill:url(#未命名漸層_42-10);}.cls-12{fill:url(#未命名漸層_42-11);}.cls-13{stroke:url(#未命名漸層_42-12);}.cls-14{fill:url(#未命名漸層_47);stroke:url(#未命名漸層_44);}.cls-15{fill:url(#未命名漸層_47-2);stroke:url(#未命名漸層_44-2);}.cls-16{fill:url(#未命名漸層_47-3);stroke:url(#未命名漸層_44-3);}.cls-17{fill:url(#未命名漸層_47-4);stroke:url(#未命名漸層_44-4);}.cls-18{fill:url(#未命名漸層_47-5);stroke:url(#未命名漸層_44-5);}.cls-19{fill:url(#未命名漸層_47-6);}.cls-20{fill:url(#未命名漸層_47-7);stroke:url(#未命名漸層_44-6);}.cls-21{fill:url(#未命名漸層_47-8);stroke:url(#未命名漸層_44-7);}.cls-22{fill:url(#未命名漸層_47-9);stroke:url(#未命名漸層_44-8);}.cls-23{fill:url(#未命名漸層_44-9);}.cls-24{fill:url(#未命名漸層_44-10);}.cls-25{fill:url(#未命名漸層_44-11);}.cls-26{fill:url(#未命名漸層_44-12);}.cls-27{fill:url(#未命名漸層_44-13);}.cls-28{fill:url(#未命名漸層_44-14);}.cls-29{fill:url(#未命名漸層_47-10);stroke:url(#未命名漸層_44-15);}.cls-30{fill:url(#未命名漸層_47-11);stroke:url(#未命名漸層_44-16);}.cls-31{fill:url(#未命名漸層_47-12);stroke:url(#未命名漸層_44-17);}.cls-32{fill:url(#未命名漸層_47-13);stroke:url(#未命名漸層_44-18);}.cls-33{fill:url(#未命名漸層_47-14);stroke:url(#未命名漸層_44-19);}.cls-34{fill:url(#未命名漸層_47-15);stroke:url(#未命名漸層_44-20);}.cls-35{fill:url(#未命名漸層_47-16);stroke:url(#未命名漸層_44-21);}.cls-36{fill:url(#未命名漸層_47-17);stroke:url(#未命名漸層_44-22);}.cls-37{fill:url(#未命名漸層_47-18);}.cls-38{fill:url(#未命名漸層_47-19);stroke:url(#未命名漸層_44-23);}.cls-39{fill:url(#未命名漸層_47-20);stroke:url(#未命名漸層_44-24);}.cls-40{fill:url(#未命名漸層_47-21);stroke:url(#未命名漸層_44-25);}.cls-41{fill:url(#未命名漸層_44-26);}.cls-42{fill:url(#未命名漸層_44-27);}.cls-43{fill:url(#未命名漸層_44-28);}.cls-44{fill:url(#未命名漸層_44-29);}.cls-45{fill:url(#未命名漸層_44-30);}.cls-46{fill:url(#未命名漸層_44-31);}.cls-47{fill:url(#未命名漸層_47-22);stroke:url(#未命名漸層_44-32);}.cls-48{fill:url(#未命名漸層_47-23);stroke:url(#未命名漸層_44-33);}.cls-49{fill:url(#未命名漸層_47-24);stroke:url(#未命名漸層_44-34);}</style><linearGradient id="未命名漸層_191" x1="29.8" y1="4.68" x2="290.74" y2="474.37" gradientUnits="userSpaceOnUse"><stop offset="0" stop-color="#2e3453"/><stop offset="0.16" stop-color="#313f76"/><stop offset="0.29" stop-color="#32468d"/><stop offset="0.38" stop-color="#334996"/><stop offset="0.52" stop-color="#324384"/><stop offset="0.83" stop-color="#2f3860"/><stop offset="1" stop-color="#2e3453"/></linearGradient><linearGradient id="未命名漸層_42" x1="29.6" y1="252.63" x2="261.59" y2="252.63" gradientUnits="userSpaceOnUse"><stop offset="0" stop-color="#e8c5df"/><stop offset="0.96" stop-color="#a2ddd9"/></linearGradient><linearGradient id="未命名漸層_42-2" x1="57.18" y1="221.25" x2="289.26" y2="221.25" xlink:href="#未命名漸層_42"/><linearGradient id="未命名漸層_42-3" x1="39.13" y1="33.51" x2="58.18" y2="33.51" xlink:href="#未命名漸層_42"/><linearGradient id="未命名漸層_42-4" x1="21.08" y1="55.19" x2="40.13" y2="55.19" xlink:href="#未命名漸層_42"/><linearGradient id="未命名漸層_42-5" x1="70.73" y1="33.4" x2="94.56" y2="33.4" xlink:href="#未命名漸層_42"/><linearGradient id="未命名漸層_42-6" x1="25.15" y1="86.8" x2="36.08" y2="86.8" xlink:href="#未命名漸層_42"/><linearGradient id="未命名漸層_42-7" x1="20.66" y1="41.55" x2="51.81" y2="41.55" xlink:href="#未命名漸層_42"/><linearGradient id="未命名漸層_42-8" x1="260.63" y1="440.19" x2="279.68" y2="440.19" xlink:href="#未命名漸層_42"/><linearGradient id="未命名漸層_42-9" x1="278.68" y1="418.51" x2="297.74" y2="418.51" xlink:href="#未命名漸層_42"/><linearGradient id="未命名漸層_42-10" x1="224.25" y1="440.3" x2="248.09" y2="440.3" xlink:href="#未命名漸層_42"/><linearGradient id="未命名漸層_42-11" x1="282.73" y1="386.9" x2="293.66" y2="386.9" xlink:href="#未命名漸層_42"/><linearGradient id="未命名漸層_42-12" x1="267" y1="432.15" x2="298.15" y2="432.15" xlink:href="#未命名漸層_42"/><linearGradient id="未命名漸層_47" x1="87.06" y1="295.17" x2="231.17" y2="295.17" gradientUnits="userSpaceOnUse"><stop offset="0" stop-color="#2e3453"/><stop offset="1" stop-color="#83a2ce"/></linearGradient><linearGradient id="未命名漸層_44" x1="86.56" y1="295.07" x2="231.67" y2="295.07" gradientUnits="userSpaceOnUse"><stop offset="0" stop-color="#fff"/><stop offset="1" stop-color="#83a2ce"/></linearGradient><linearGradient id="未命名漸層_47-2" x1="153.28" y1="191.08" x2="160.96" y2="191.08" gradientTransform="translate(304.86 -7.35) rotate(76.1)" xlink:href="#未命名漸層_47"/><linearGradient id="未命名漸層_44-2" x1="152.67" y1="191.08" x2="161.57" y2="191.08" gradientTransform="translate(304.86 -7.35) rotate(76.1)" xlink:href="#未命名漸層_44"/><linearGradient id="未命名漸層_47-3" x1="135.18" y1="150.69" x2="152.04" y2="150.69" xlink:href="#未命名漸層_47"/><linearGradient id="未命名漸層_44-3" x1="134.56" y1="150.64" x2="152.75" y2="150.64" xlink:href="#未命名漸層_44"/><linearGradient id="未命名漸層_47-4" x1="168.18" y1="150.69" x2="185.04" y2="150.69" xlink:href="#未命名漸層_47"/><linearGradient id="未命名漸層_44-4" x1="167.47" y1="150.64" x2="185.66" y2="150.64" xlink:href="#未命名漸層_44"/><linearGradient id="未命名漸層_47-5" x1="159.92" y1="191.08" x2="167.49" y2="191.08" gradientTransform="translate(50.71 -33.74) rotate(13.9)" xlink:href="#未命名漸層_47"/><linearGradient id="未命名漸層_44-5" x1="159.31" y1="191.08" x2="168.09" y2="191.08" gradientTransform="translate(50.71 -33.74) rotate(13.9)" xlink:href="#未命名漸層_44"/><linearGradient id="未命名漸層_47-6" x1="155.61" y1="204.89" x2="164.84" y2="204.89" xlink:href="#未命名漸層_47"/><linearGradient id="未命名漸層_47-7" x1="150.89" y1="357.65" x2="164.43" y2="357.65" xlink:href="#未命名漸層_47"/><linearGradient id="未命名漸層_44-6" x1="150.11" y1="357.68" x2="165.12" y2="357.68" xlink:href="#未命名漸層_44"/><linearGradient id="未命名漸層_47-8" x1="156.89" y1="364.93" x2="170.43" y2="364.93" xlink:href="#未命名漸層_47"/><linearGradient id="未命名漸層_44-7" x1="156.11" y1="364.97" x2="171.12" y2="364.97" xlink:href="#未命名漸層_44"/><linearGradient id="未命名漸層_47-9" x1="162.9" y1="372.22" x2="176.43" y2="372.22" xlink:href="#未命名漸層_47"/><linearGradient id="未命名漸層_44-8" x1="162.11" y1="372.26" x2="177.12" y2="372.26" xlink:href="#未命名漸層_44"/><linearGradient id="未命名漸層_44-9" x1="141.13" y1="171.11" x2="144.1" y2="171.11" xlink:href="#未命名漸層_44"/><linearGradient id="未命名漸層_44-10" x1="144.38" y1="172.21" x2="147.44" y2="172.21" xlink:href="#未命名漸層_44"/><linearGradient id="未命名漸層_44-11" x1="148.07" y1="173.15" x2="150.73" y2="173.15" xlink:href="#未命名漸層_44"/><linearGradient id="未命名漸層_44-12" x1="176.08" y1="171.11" x2="179.06" y2="171.11" xlink:href="#未命名漸層_44"/><linearGradient id="未命名漸層_44-13" x1="172.74" y1="172.21" x2="175.8" y2="172.21" xlink:href="#未命名漸層_44"/><linearGradient id="未命名漸層_44-14" x1="169.46" y1="173.15" x2="172.11" y2="173.15" xlink:href="#未命名漸層_44"/><linearGradient id="未命名漸層_47-10" x1="219.03" y1="336.26" x2="237.81" y2="336.26" xlink:href="#未命名漸層_47"/><linearGradient id="未命名漸層_44-15" x1="218.48" y1="336.33" x2="238.31" y2="336.33" xlink:href="#未命名漸層_44"/><linearGradient id="未命名漸層_47-11" x1="136.28" y1="175.05" x2="184.17" y2="175.05" xlink:href="#未命名漸層_47"/><linearGradient id="未命名漸層_44-16" x1="135.66" y1="175" x2="184.79" y2="175" xlink:href="#未命名漸層_44"/><linearGradient id="未命名漸層_47-12" x1="134.87" y1="176.52" x2="185.58" y2="176.52" xlink:href="#未命名漸層_47"/><linearGradient id="未命名漸層_44-17" x1="134.37" y1="176.62" x2="186.08" y2="176.62" xlink:href="#未命名漸層_44"/><linearGradient id="未命名漸層_47-13" x1="90.17" y1="177.32" x2="234.28" y2="177.32" xlink:href="#未命名漸層_47"/><linearGradient id="未命名漸層_44-18" x1="89.67" y1="177.41" x2="234.78" y2="177.41" xlink:href="#未命名漸層_44"/><linearGradient id="未命名漸層_47-14" x1="160.38" y1="281.41" x2="168.06" y2="281.41" gradientTransform="translate(397.94 54.4) rotate(76.1)" xlink:href="#未命名漸層_47"/><linearGradient id="未命名漸層_44-19" x1="159.77" y1="281.41" x2="168.67" y2="281.41" gradientTransform="translate(397.94 54.4) rotate(76.1)" xlink:href="#未命名漸層_44"/><linearGradient id="未命名漸層_47-15" x1="169.3" y1="321.8" x2="186.16" y2="321.8" xlink:href="#未命名漸層_47"/><linearGradient id="未命名漸層_44-20" x1="168.59" y1="321.85" x2="186.78" y2="321.85" xlink:href="#未命名漸層_44"/><linearGradient id="未命名漸層_47-16" x1="136.3" y1="321.8" x2="153.16" y2="321.8" xlink:href="#未命名漸層_47"/><linearGradient id="未命名漸層_44-21" x1="135.68" y1="321.85" x2="153.87" y2="321.85" xlink:href="#未命名漸層_44"/><linearGradient id="未命名漸層_47-17" x1="153.85" y1="281.41" x2="161.42" y2="281.41" gradientTransform="translate(72.25 -29.64) rotate(13.91)" xlink:href="#未命名漸層_47"/><linearGradient id="未命名漸層_44-22" x1="153.25" y1="281.41" x2="162.03" y2="281.41" gradientTransform="translate(72.25 -29.64) rotate(13.91)" xlink:href="#未命名漸層_44"/><linearGradient id="未命名漸層_47-18" x1="156.51" y1="267.6" x2="165.73" y2="267.6" xlink:href="#未命名漸層_47"/><linearGradient id="未命名漸層_47-19" x1="156.91" y1="114.84" x2="170.45" y2="114.84" xlink:href="#未命名漸層_47"/><linearGradient id="未命名漸層_44-23" x1="156.22" y1="114.8" x2="171.23" y2="114.8" xlink:href="#未命名漸層_44"/><linearGradient id="未命名漸層_47-20" x1="150.91" y1="107.56" x2="164.45" y2="107.56" xlink:href="#未命名漸層_47"/><linearGradient id="未命名漸層_44-24" x1="150.22" y1="107.52" x2="165.23" y2="107.52" xlink:href="#未命名漸層_44"/><linearGradient id="未命名漸層_47-21" x1="144.91" y1="100.27" x2="158.45" y2="100.27" xlink:href="#未命名漸層_47"/><linearGradient id="未命名漸層_44-25" x1="144.22" y1="100.23" x2="159.23" y2="100.23" xlink:href="#未命名漸層_44"/><linearGradient id="未命名漸層_44-26" x1="177.24" y1="301.38" x2="180.22" y2="301.38" xlink:href="#未命名漸層_44"/><linearGradient id="未命名漸層_44-27" x1="173.9" y1="300.27" x2="176.96" y2="300.27" xlink:href="#未命名漸層_44"/><linearGradient id="未命名漸層_44-28" x1="170.61" y1="299.34" x2="173.27" y2="299.34" xlink:href="#未命名漸層_44"/><linearGradient id="未命名漸層_44-29" x1="142.28" y1="301.38" x2="145.26" y2="301.38" xlink:href="#未命名漸層_44"/><linearGradient id="未命名漸層_44-30" x1="145.54" y1="300.27" x2="148.6" y2="300.27" xlink:href="#未命名漸層_44"/><linearGradient id="未命名漸層_44-31" x1="149.23" y1="299.34" x2="151.88" y2="299.34" xlink:href="#未命名漸層_44"/><linearGradient id="未命名漸層_47-22" x1="83.53" y1="136.23" x2="102.31" y2="136.23" xlink:href="#未命名漸層_47"/><linearGradient id="未命名漸層_44-32" x1="83.03" y1="136.16" x2="102.88" y2="136.16" xlink:href="#未命名漸層_44"/><linearGradient id="未命名漸層_47-23" x1="137.18" y1="297.44" x2="185.06" y2="297.44" xlink:href="#未命名漸層_47"/><linearGradient id="未命名漸層_44-33" x1="136.55" y1="297.49" x2="185.69" y2="297.49" xlink:href="#未命名漸層_44"/><linearGradient id="未命名漸層_47-24" x1="135.76" y1="295.97" x2="186.48" y2="295.97" xlink:href="#未命名漸層_47"/><linearGradient id="未命名漸層_44-34" x1="135.26" y1="295.87" x2="186.98" y2="295.87" xlink:href="#未命名漸層_44"/></defs><g id="圖層_2" data-name="圖層 2"><g id="圖層_1-2" data-name="圖層 1"><rect class="cls-1" width="316.89" height="472.49" rx="25.28"/><path class="cls-2" d="M261.59,440.55H47.48A16.88,16.88,0,0,1,30.6,423.67v-360"/><path class="cls-3" d="M57.18,33.51h214.2a16.88,16.88,0,0,1,16.88,16.88V410"/><circle class="cls-4" cx="48.66" cy="33.51" r="8.53"/><circle class="cls-5" cx="30.6" cy="55.19" r="8.53"/><path class="cls-6" d="M83.43,38.86c-3,0-12.7-5.46-12.7-5.46s9.68-5.47,12.7-5.47S94.56,33.4,94.56,33.4,86.45,38.86,83.43,38.86Z"/><path class="cls-7" d="M25.15,87.59c0-3,5.47-12.71,5.47-12.71s5.46,9.69,5.46,12.71-5.46,11.13-5.46,11.13S25.15,90.61,25.15,87.59Z"/><circle class="cls-8" cx="36.24" cy="41.55" r="14.57"/><circle class="cls-9" cx="270.15" cy="440.19" r="8.53"/><circle class="cls-10" cx="288.21" cy="418.51" r="8.53"/><path class="cls-11" d="M235.38,434.84c3,0,12.71,5.46,12.71,5.46s-9.69,5.47-12.71,5.47-11.13-5.47-11.13-5.47S232.36,434.84,235.38,434.84Z"/><path class="cls-12" d="M293.66,386.11c0,3-5.47,12.71-5.47,12.71s-5.46-9.69-5.46-12.71S288.19,375,288.19,375,293.66,383.09,293.66,386.11Z"/><circle class="cls-13" cx="282.57" cy="432.15" r="14.57"/><path class="cls-14" d="M129.76,381.32a40.11,40.11,0,0,1-20.72-5.8c-14.72-8.77-23.47-25.59-21.77-41.86a112,112,0,0,1,6.89-27.57l.07-.16,0-.07a266.29,266.29,0,0,1,32.54-59.08,1.33,1.33,0,0,0,.17-.23A269.16,269.16,0,0,1,159.7,209.5l.53-.49.52.49a269.15,269.15,0,0,1,65.46,96.43l.07.16a70.74,70.74,0,0,1,4.89,26h-1.53a69.23,69.23,0,0,0-4.73-25.26l-.08-.2a267.47,267.47,0,0,0-64.6-95.48,267.51,267.51,0,0,0-32,36.26,2,2,0,0,1-.24.34A265.36,265.36,0,0,0,96.94,303.3h0l-.14.33a21.28,21.28,0,0,1-1,2.38l-.24.58h0l0,.05h0a110.64,110.64,0,0,0-6.8,27.17c-1.64,15.69,6.82,31.92,21,40.38,14,8.34,30.54,7.3,45.35-2.86l.87,1.27C147.58,378.4,138.58,381.32,129.76,381.32Z"/><rect class="cls-15" x="144.2" y="190.31" width="25.85" height="1.53" transform="translate(-66.11 297.69) rotate(-76.1)"/><path class="cls-16" d="M135.18,165.74l3.08-30.09L152,152.26Zm4.24-26.3-2.34,22.82L149.86,152Z"/><path class="cls-17" d="M185,165.74l-16.86-13.48L182,135.65ZM170.36,152l12.78,10.22-2.33-22.82Z"/><rect class="cls-18" x="162.94" y="178.42" width="1.53" height="25.31" transform="translate(-41.12 44.94) rotate(-13.9)"/><polygon class="cls-19" points="160.16 206.9 157.88 204.89 155.61 202.87 160.22 202.94 164.84 203.01 162.5 204.96 160.16 206.9"/><path class="cls-20" d="M150.89,363.22l.49-1.27c.43-1.09,2.61-6.61,4.11-7.85s6.78-1.82,7.81-1.92l1.13-.11-.32,1.09c-.3,1-1.86,6-3.39,7.3s-7.33,2.32-8.49,2.52Zm11.4-9.38c-2.21.28-5.06.82-5.82,1.45s-2.17,3.58-3.14,5.92c2.49-.5,5.65-1.3,6.42-1.94S161.59,356,162.29,353.84Z"/><path class="cls-21" d="M156.89,370.51l.49-1.27c.43-1.09,2.61-6.61,4.11-7.85s6.78-1.82,7.81-1.92l1.13-.11-.32,1.09c-.3,1-1.85,6-3.39,7.29h0c-1.5,1.24-7.33,2.33-8.49,2.53Zm11.4-9.39c-2.21.29-5.06.82-5.82,1.45s-2.17,3.59-3.14,5.93c2.49-.5,5.65-1.3,6.42-1.94h0C166.51,365.93,167.59,363.23,168.29,361.12Z"/><path class="cls-22" d="M162.9,377.79l.48-1.26c.43-1.1,2.61-6.61,4.11-7.85s6.78-1.83,7.81-1.93l1.13-.11-.32,1.09c-.3,1-1.85,6-3.39,7.3s-7.33,2.32-8.49,2.53Zm11.39-9.38c-2.21.28-5.06.82-5.82,1.45s-2.17,3.58-3.14,5.93c2.49-.51,5.65-1.3,6.42-1.94S173.59,370.52,174.29,368.41Z"/><polygon class="cls-23" points="141.13 168.35 142.61 170.78 144.1 173.22 143.33 173.55 142.55 173.88 141.84 171.11 141.13 168.35"/><polygon class="cls-24" points="144.38 169.31 145.91 171.9 147.44 174.5 146.71 174.81 145.97 175.12 145.18 172.22 144.38 169.31"/><polygon class="cls-25" points="148.07 170.73 149.4 172.84 150.73 174.95 149.99 175.26 149.25 175.58 148.66 173.15 148.07 170.73"/><polygon class="cls-26" points="179.06 168.35 177.57 170.78 176.08 173.22 176.85 173.55 177.63 173.88 178.34 171.11 179.06 168.35"/><polygon class="cls-27" points="175.8 169.31 174.27 171.9 172.74 174.5 173.47 174.81 174.21 175.12 175.01 172.22 175.8 169.31"/><polygon class="cls-28" points="172.11 170.73 170.78 172.84 169.46 174.95 170.19 175.26 170.93 175.58 171.52 173.15 172.11 170.73"/><path class="cls-29" d="M222.49,345.52h0l-.22-.75-2.86-10h0l-.16-.56v0l-.15-.5h0a5.66,5.66,0,0,1,3.95-6.42,5.56,5.56,0,0,1,6.69,3.18h0l.13.44a1.05,1.05,0,0,1,.05.19h0l.16.55.55-.16.06,0,.51-.15v0a5.47,5.47,0,0,1,3.67.59,5.52,5.52,0,0,1,2.66,3.34,5.66,5.66,0,0,1-3.27,6.76v0l-.37.11-.19.07h0l-1.29.39Zm-1.2-9.72,2.24,7.81,8.93-2.64v0l.74-.21a4.14,4.14,0,0,0,2.93-5.1h0a4,4,0,0,0-5-2.75l-2,.6-.31-1.08h0l-.22-.82a4,4,0,0,0-5-2.89,4.11,4.11,0,0,0-2.78,5.06l.57,2Z"/><polygon class="cls-30" points="160.22 179.33 136.28 172.23 136.71 170.77 160.22 177.73 183.73 170.77 184.16 172.23 160.22 179.33"/><path class="cls-31" d="M160.23,211.08l-.52-.49a90.81,90.81,0,0,1-11.51-13c-.24-.32-.47-.64-.68-1a93.26,93.26,0,0,1-10.66-19.41h0c-.12-.27-.23-.55-.34-.83l-.2-.53a25.36,25.36,0,1,1,47.8,0l-.15.39c-.16.42-.27.7-.38,1h0A92.65,92.65,0,0,1,173,196.43c-.23.37-.51.77-.79,1.15a93.33,93.33,0,0,1-11.49,13Zm-21.9-34.36a91.61,91.61,0,0,0,10.47,19c.21.34.42.63.63.92A89.91,89.91,0,0,0,160.23,209,92,92,0,0,0,171,196.67a12.73,12.73,0,0,0,.76-1.1,91.28,91.28,0,0,0,10.35-18.84v-.17l.12-.12c.09-.21.17-.43.26-.65l.2-.51a23.82,23.82,0,1,0-44.93,0l.14.36.31.79.12.11Z"/><path class="cls-32" d="M161.11,263.48l-.52-.5a268.94,268.94,0,0,1-65.46-96.42l-.07-.16a70.74,70.74,0,0,1-4.89-26H91.7a69.23,69.23,0,0,0,4.73,25.26l.08.19a267.42,267.42,0,0,0,64.6,95.49,267.51,267.51,0,0,0,32-36.26,2,2,0,0,1,.24-.35,264.59,264.59,0,0,0,31.07-55.57h0l.11-.27a22,22,0,0,1,1.07-2.59l.18-.43h0l0-.05h0a110.64,110.64,0,0,0,6.8-27.17c1.64-15.69-6.81-31.92-21-40.38-14-8.34-30.54-7.3-45.35,2.86l-.87-1.27c15.33-10.5,32.46-11.56,47-2.91,14.72,8.77,23.47,25.59,21.77,41.86a112,112,0,0,1-6.89,27.57l-.06.15a.39.39,0,0,0,0,.09,266.45,266.45,0,0,1-32.54,59.07,1.33,1.33,0,0,0-.17.23,268.49,268.49,0,0,1-32.73,37Z"/><rect class="cls-33" x="151.29" y="280.65" width="25.85" height="1.53" transform="translate(-148.4 373.22) rotate(-76.1)"/><path class="cls-34" d="M183.08,336.84,169.3,320.23l16.86-13.48Zm-11.6-16.39,10.45,12.6,2.33-22.82Z"/><path class="cls-35" d="M139.38,336.84l-3.08-30.09,16.86,13.48Zm-1.18-26.61,2.34,22.82L151,320.45Z"/><rect class="cls-36" x="156.87" y="268.76" width="1.53" height="25.31" transform="translate(-63.01 46.13) rotate(-13.91)"/><polygon class="cls-37" points="161.18 265.59 163.46 267.6 165.73 269.62 161.12 269.55 156.51 269.47 158.84 267.53 161.18 265.59"/><path class="cls-38" d="M156.91,120.42l.32-1.09c.3-1,1.86-6,3.39-7.3s7.34-2.32,8.49-2.52l1.34-.24-.49,1.27c-.42,1.09-2.6,6.61-4.11,7.85s-6.77,1.82-7.81,1.92Zm11.1-9.15c-2.49.51-5.64,1.31-6.42,1.94s-1.84,3.33-2.54,5.44c2.21-.28,5.06-.82,5.83-1.45S167,113.62,168,111.27Z"/><path class="cls-39" d="M150.91,113.13l.32-1.09c.3-1,1.86-6,3.39-7.29h0c1.5-1.24,7.34-2.33,8.49-2.53l1.34-.24-.49,1.27c-.42,1.09-2.6,6.61-4.11,7.85s-6.78,1.82-7.81,1.92Zm4.68-7.2c-.76.63-1.84,3.32-2.54,5.44,2.21-.29,5.06-.82,5.83-1.45S161,106.33,162,104c-2.49.5-5.64,1.3-6.42,1.94Z"/><path class="cls-40" d="M144.91,105.85l.32-1.1c.3-1,1.86-6,3.39-7.29s7.34-2.32,8.49-2.53l1.34-.23L158,96c-.42,1.1-2.61,6.61-4.11,7.85s-6.78,1.82-7.81,1.93ZM156,96.7c-2.49.51-5.65,1.3-6.42,1.94s-1.84,3.33-2.54,5.44c2.21-.28,5.06-.82,5.82-1.45S155,99.05,156,96.7Z"/><polygon class="cls-41" points="180.22 304.14 178.73 301.7 177.24 299.26 178.01 298.94 178.79 298.61 179.5 301.38 180.22 304.14"/><polygon class="cls-42" points="176.96 303.18 175.43 300.58 173.9 297.99 174.63 297.68 175.37 297.37 176.17 300.27 176.96 303.18"/><polygon class="cls-43" points="173.27 301.76 171.94 299.65 170.62 297.54 171.35 297.22 172.09 296.91 172.68 299.34 173.27 301.76"/><polygon class="cls-44" points="142.28 304.14 143.77 301.7 145.26 299.26 144.49 298.94 143.71 298.61 143 301.38 142.28 304.14"/><polygon class="cls-45" points="145.54 303.18 147.07 300.58 148.6 297.99 147.87 297.68 147.13 297.37 146.33 300.27 145.54 303.18"/><polygon class="cls-46" points="149.23 301.76 150.56 299.65 151.88 297.54 151.15 297.22 150.41 296.91 149.82 299.34 149.23 301.76"/><path class="cls-47" d="M96.69,145.48A5.56,5.56,0,0,1,91.56,142h0l-.11-.37-.06-.2h0l-.16-.55-1.14.34v0a5.54,5.54,0,0,1-6.31-3.94A5.65,5.65,0,0,1,87,130.52v0l.37-.11.21-.07h0l1.29-.39,10-3h0l.22.75,2.86,10h0l.17.56a.09.09,0,0,0,0,.05l.15.54h0a5.66,5.66,0,0,1-4,6.36A5.82,5.82,0,0,1,96.69,145.48Zm-4.08-5.34.2.75a4,4,0,0,0,2,2.56,4,4,0,0,0,3.07.33,4.12,4.12,0,0,0,2.78-5.07l-.57-2h0l-2.23-7.82-8.92,2.65v0l-.76.21a4.14,4.14,0,0,0-2.93,5.1,4,4,0,0,0,1.93,2.42,4,4,0,0,0,3.08.32l.75-.22h0l1.28-.38.33,1.15Z"/><polygon class="cls-48" points="137.61 301.72 137.18 300.25 161.12 293.16 185.06 300.25 184.63 301.72 161.12 294.76 137.61 301.72"/><path class="cls-49" d="M161.11,330.52a25.36,25.36,0,0,1-23.89-33.84l.15-.39c.15-.39.26-.69.39-1a92.51,92.51,0,0,1,10.55-19.26c.24-.37.51-.77.79-1.15a93.33,93.33,0,0,1,11.49-13l.52-.49.52.49a90.27,90.27,0,0,1,11.51,13,11.37,11.37,0,0,1,.68,1,93.24,93.24,0,0,1,10.67,19.43c.12.27.23.57.35.87l.18.48a25.36,25.36,0,0,1-23.91,33.84Zm0-67a92,92,0,0,0-10.77,12.31c-.28.36-.52.73-.76,1.1a91.36,91.36,0,0,0-10.41,19c-.12.29-.23.57-.33.85l-.18.45a23.82,23.82,0,1,0,44.92,0l-.14-.36c-.14-.37-.25-.65-.36-.92a92,92,0,0,0-10.54-19.17,9.83,9.83,0,0,0-.63-.92A89.91,89.91,0,0,0,161.11,263.51Z"/></g></g></svg>