<svg xmlns="http://www.w3.org/2000/svg" xmlns:xlink="http://www.w3.org/1999/xlink" width="316.89" height="472.49" viewBox="0 0 316.89 472.49"><defs><style>.cls-1{fill:url(#未命名漸層_191);}.cls-10,.cls-13,.cls-2,.cls-3,.cls-4,.cls-5,.cls-8,.cls-9{fill:none;stroke-width:2px;}.cls-10,.cls-13,.cls-14,.cls-15,.cls-16,.cls-17,.cls-18,.cls-19,.cls-2,.cls-20,.cls-21,.cls-22,.cls-23,.cls-24,.cls-25,.cls-26,.cls-27,.cls-28,.cls-29,.cls-3,.cls-30,.cls-31,.cls-4,.cls-5,.cls-8,.cls-9{stroke-miterlimit:10;}.cls-2{stroke:url(#未命名漸層_42);}.cls-3{stroke:url(#未命名漸層_42-2);}.cls-4{stroke:url(#未命名漸層_42-3);}.cls-5{stroke:url(#未命名漸層_42-4);}.cls-6{fill:url(#未命名漸層_42-5);}.cls-7{fill:url(#未命名漸層_42-6);}.cls-8{stroke:url(#未命名漸層_42-7);}.cls-9{stroke:url(#未命名漸層_42-8);}.cls-10{stroke:url(#未命名漸層_42-9);}.cls-11{fill:url(#未命名漸層_42-10);}.cls-12{fill:url(#未命名漸層_42-11);}.cls-13{stroke:url(#未命名漸層_42-12);}.cls-14{fill:url(#未命名漸層_47);stroke:url(#未命名漸層_44);}.cls-15{fill:url(#未命名漸層_47-2);stroke:url(#未命名漸層_44-2);}.cls-16{fill:url(#未命名漸層_47-3);stroke:url(#未命名漸層_44-3);}.cls-17{fill:url(#未命名漸層_47-4);stroke:url(#未命名漸層_44-4);}.cls-18{fill:url(#未命名漸層_47-5);stroke:url(#未命名漸層_44-5);}.cls-19{fill:url(#未命名漸層_47-6);stroke:url(#未命名漸層_44-6);}.cls-20{fill:url(#未命名漸層_47-7);stroke:url(#未命名漸層_44-7);}.cls-21{fill:url(#未命名漸層_47-8);stroke:url(#未命名漸層_44-8);}.cls-22{fill:url(#未命名漸層_47-9);stroke:url(#未命名漸層_44-9);}.cls-23{fill:url(#未命名漸層_47-10);stroke:url(#未命名漸層_44-10);}.cls-24{fill:url(#未命名漸層_47-11);stroke:url(#未命名漸層_44-11);}.cls-25{fill:url(#未命名漸層_47-12);stroke:url(#未命名漸層_44-12);}.cls-26{fill:url(#未命名漸層_47-13);stroke:url(#未命名漸層_44-13);}.cls-27{fill:url(#未命名漸層_47-14);stroke:url(#未命名漸層_44-14);}.cls-28{fill:url(#未命名漸層_47-15);stroke:url(#未命名漸層_44-15);}.cls-29{fill:url(#未命名漸層_47-16);stroke:url(#未命名漸層_44-16);}.cls-30{fill:url(#未命名漸層_47-17);stroke:url(#未命名漸層_44-17);}.cls-31{fill:url(#未命名漸層_47-18);stroke:url(#未命名漸層_44-18);}</style><linearGradient id="未命名漸層_191" x1="29.8" y1="4.68" x2="290.74" y2="474.37" gradientUnits="userSpaceOnUse"><stop offset="0" stop-color="#2e3453"/><stop offset="0.16" stop-color="#313f76"/><stop offset="0.29" stop-color="#32468d"/><stop offset="0.38" stop-color="#334996"/><stop offset="0.52" stop-color="#324384"/><stop offset="0.83" stop-color="#2f3860"/><stop offset="1" stop-color="#2e3453"/></linearGradient><linearGradient id="未命名漸層_42" x1="29.83" y1="252.63" x2="261.82" y2="252.63" gradientUnits="userSpaceOnUse"><stop offset="0" stop-color="#e8c5df"/><stop offset="0.96" stop-color="#a2ddd9"/></linearGradient><linearGradient id="未命名漸層_42-2" x1="57.42" y1="221.25" x2="289.49" y2="221.25" xlink:href="#未命名漸層_42"/><linearGradient id="未命名漸層_42-3" x1="39.37" y1="33.51" x2="58.42" y2="33.51" xlink:href="#未命名漸層_42"/><linearGradient id="未命名漸層_42-4" x1="21.31" y1="55.19" x2="40.36" y2="55.19" xlink:href="#未命名漸層_42"/><linearGradient id="未命名漸層_42-5" x1="70.96" y1="33.4" x2="94.8" y2="33.4" xlink:href="#未命名漸層_42"/><linearGradient id="未命名漸層_42-6" x1="25.39" y1="86.8" x2="36.31" y2="86.8" xlink:href="#未命名漸層_42"/><linearGradient id="未命名漸層_42-7" x1="20.9" y1="41.55" x2="52.05" y2="41.55" xlink:href="#未命名漸層_42"/><linearGradient id="未命名漸層_42-8" x1="260.86" y1="440.19" x2="279.91" y2="440.19" xlink:href="#未命名漸層_42"/><linearGradient id="未命名漸層_42-9" x1="278.92" y1="418.51" x2="297.97" y2="418.51" xlink:href="#未命名漸層_42"/><linearGradient id="未命名漸層_42-10" x1="224.48" y1="440.3" x2="248.32" y2="440.3" xlink:href="#未命名漸層_42"/><linearGradient id="未命名漸層_42-11" x1="282.96" y1="386.9" x2="293.89" y2="386.9" xlink:href="#未命名漸層_42"/><linearGradient id="未命名漸層_42-12" x1="267.23" y1="432.15" x2="298.38" y2="432.15" xlink:href="#未命名漸層_42"/><linearGradient id="未命名漸層_47" x1="137.3" y1="182.38" x2="181" y2="182.38" gradientUnits="userSpaceOnUse"><stop offset="0" stop-color="#2e3453"/><stop offset="1" stop-color="#83a2ce"/></linearGradient><linearGradient id="未命名漸層_44" x1="136.8" y1="182.47" x2="181.5" y2="182.47" gradientUnits="userSpaceOnUse"><stop offset="0" stop-color="#fff"/><stop offset="1" stop-color="#83a2ce"/></linearGradient><linearGradient id="未命名漸層_47-2" x1="84.94" y1="264.86" x2="233.36" y2="264.86" xlink:href="#未命名漸層_47"/><linearGradient id="未命名漸層_44-2" x1="84.44" y1="264.86" x2="233.86" y2="264.86" xlink:href="#未命名漸層_44"/><linearGradient id="未命名漸層_47-3" x1="98.11" y1="293.66" x2="220.19" y2="293.66" xlink:href="#未命名漸層_47"/><linearGradient id="未命名漸層_44-3" x1="97.61" y1="293.57" x2="220.69" y2="293.57" xlink:href="#未命名漸層_44"/><linearGradient id="未命名漸層_47-4" x1="138.49" y1="182.45" x2="179.83" y2="182.45" xlink:href="#未命名漸層_47"/><linearGradient id="未命名漸層_44-4" x1="137.83" y1="182.37" x2="180.5" y2="182.37" xlink:href="#未命名漸層_44"/><linearGradient id="未命名漸層_47-5" x1="158.45" y1="197.94" x2="159.87" y2="197.94" xlink:href="#未命名漸層_47"/><linearGradient id="未命名漸層_44-5" x1="157.95" y1="197.94" x2="160.37" y2="197.94" xlink:href="#未命名漸層_44"/><linearGradient id="未命名漸層_47-6" x1="131.58" y1="373.1" x2="213.23" y2="373.1" xlink:href="#未命名漸層_47"/><linearGradient id="未命名漸層_44-6" x1="130.38" y1="373.49" x2="215.21" y2="373.49" xlink:href="#未命名漸層_44"/><linearGradient id="未命名漸層_47-7" x1="147.9" y1="372.9" x2="197.01" y2="372.9" gradientTransform="translate(313.66 -12.92) rotate(44.92)" xlink:href="#未命名漸層_47"/><linearGradient id="未命名漸層_44-7" x1="147.19" y1="372.9" x2="197.72" y2="372.9" gradientTransform="translate(313.66 -12.92) rotate(44.92)" xlink:href="#未命名漸層_44"/><linearGradient id="未命名漸層_47-8" x1="135.6" y1="290.75" x2="179.3" y2="290.75" xlink:href="#未命名漸層_47"/><linearGradient id="未命名漸層_44-8" x1="135.1" y1="290.65" x2="179.8" y2="290.65" xlink:href="#未命名漸層_44"/><linearGradient id="未命名漸層_47-9" x1="84.95" y1="208.28" x2="233.36" y2="208.28" xlink:href="#未命名漸層_47"/><linearGradient id="未命名漸層_44-9" x1="84.45" y1="208.27" x2="233.86" y2="208.27" xlink:href="#未命名漸層_44"/><linearGradient id="未命名漸層_47-10" x1="98.11" y1="179.47" x2="220.2" y2="179.47" xlink:href="#未命名漸層_47"/><linearGradient id="未命名漸層_44-10" x1="97.61" y1="179.56" x2="220.7" y2="179.56" xlink:href="#未命名漸層_44"/><linearGradient id="未命名漸層_47-11" x1="136.85" y1="290.79" x2="178.18" y2="290.79" xlink:href="#未命名漸層_47"/><linearGradient id="未命名漸層_44-11" x1="136.18" y1="290.87" x2="178.85" y2="290.87" xlink:href="#未命名漸層_44"/><linearGradient id="未命名漸層_47-12" x1="156.86" y1="275.18" x2="158.59" y2="275.18" gradientTransform="translate(431.04 114.25) rotate(89.33)" xlink:href="#未命名漸層_47"/><linearGradient id="未命名漸層_44-12" x1="156.35" y1="275.18" x2="159.1" y2="275.18" gradientTransform="translate(431.04 114.25) rotate(89.33)" xlink:href="#未命名漸層_44"/><linearGradient id="未命名漸層_47-13" x1="106.26" y1="99.78" x2="187.12" y2="99.78" xlink:href="#未命名漸層_47"/><linearGradient id="未命名漸層_44-13" x1="104.3" y1="99.38" x2="188.31" y2="99.38" xlink:href="#未命名漸層_44"/><linearGradient id="未命名漸層_47-14" x1="122.27" y1="100.08" x2="170.81" y2="100.08" gradientTransform="translate(111.35 -73.85) rotate(44.23)" xlink:href="#未命名漸層_47"/><linearGradient id="未命名漸層_44-14" x1="121.56" y1="100.08" x2="171.51" y2="100.08" gradientTransform="translate(111.35 -73.85) rotate(44.23)" xlink:href="#未命名漸層_44"/><linearGradient id="未命名漸層_47-15" x1="142.87" y1="183.56" x2="155.11" y2="183.56" xlink:href="#未命名漸層_47"/><linearGradient id="未命名漸層_44-15" x1="141.88" y1="183.56" x2="155.99" y2="183.56" xlink:href="#未命名漸層_44"/><linearGradient id="未命名漸層_47-16" x1="162.86" y1="183.56" x2="175.16" y2="183.56" xlink:href="#未命名漸層_47"/><linearGradient id="未命名漸層_44-16" x1="161.87" y1="183.56" x2="176.04" y2="183.56" xlink:href="#未命名漸層_44"/><linearGradient id="未命名漸層_47-17" x1="161.61" y1="289.68" x2="173.82" y2="289.68" xlink:href="#未命名漸層_47"/><linearGradient id="未命名漸層_44-17" x1="160.74" y1="289.68" x2="174.81" y2="289.68" xlink:href="#未命名漸層_44"/><linearGradient id="未命名漸層_47-18" x1="141.53" y1="289.44" x2="153.86" y2="289.44" xlink:href="#未命名漸層_47"/><linearGradient id="未命名漸層_44-18" x1="140.65" y1="289.44" x2="154.86" y2="289.44" xlink:href="#未命名漸層_44"/></defs><g id="圖層_2" data-name="圖層 2"><g id="圖層_1-2" data-name="圖層 1"><rect class="cls-1" width="316.89" height="472.49" rx="25.28"/><path class="cls-2" d="M261.82,440.55H47.72a16.89,16.89,0,0,1-16.89-16.88v-360"/><path class="cls-3" d="M57.42,33.51H271.61a16.88,16.88,0,0,1,16.88,16.88V410"/><circle class="cls-4" cx="48.89" cy="33.51" r="8.53"/><circle class="cls-5" cx="30.83" cy="55.19" r="8.53"/><path class="cls-6" d="M83.66,38.86c-3,0-12.7-5.46-12.7-5.46s9.69-5.47,12.7-5.47S94.8,33.4,94.8,33.4,86.68,38.86,83.66,38.86Z"/><path class="cls-7" d="M25.39,87.59c0-3,5.46-12.71,5.46-12.71s5.46,9.69,5.46,12.71-5.46,11.13-5.46,11.13S25.39,90.61,25.39,87.59Z"/><circle class="cls-8" cx="36.47" cy="41.55" r="14.57"/><circle class="cls-9" cx="270.39" cy="440.19" r="8.53"/><circle class="cls-10" cx="288.44" cy="418.51" r="8.53"/><path class="cls-11" d="M235.61,434.84c3,0,12.71,5.46,12.71,5.46s-9.69,5.47-12.71,5.47-11.13-5.47-11.13-5.47S232.6,434.84,235.61,434.84Z"/><path class="cls-12" d="M293.89,386.11c0,3-5.46,12.71-5.46,12.71S283,389.13,283,386.11,288.43,375,288.43,375,293.89,383.09,293.89,386.11Z"/><circle class="cls-13" cx="282.81" cy="432.15" r="14.57"/><path class="cls-14" d="M159.16,212.15l-.49-.46a78.79,78.79,0,0,1-9.9-11.2c-.2-.27-.4-.55-.58-.84A80,80,0,0,1,139,183h0c-.11-.25-.21-.51-.31-.77l-.16-.41a21.85,21.85,0,1,1,41.2,0l-.09.22-.71-.13.64.32c-.1.26-.2.52-.31.77h0a79.61,79.61,0,0,1-9.08,16.56c-.2.32-.43.66-.68,1a80.21,80.21,0,0,1-9.88,11.19Zm-18.78-29.62a78.78,78.78,0,0,0,9,16.33c.19.3.36.54.54.79a78.11,78.11,0,0,0,9.24,10.55,79.1,79.1,0,0,0,9.23-10.54c.23-.31.44-.63.64-.94a78.61,78.61,0,0,0,8.9-16.19v-.15l.11-.11.23-.6.15-.38a20.66,20.66,0,0,0,1.17-6.84,20.43,20.43,0,1,0-39.69,6.84l.12.31.26.67.11.11Z"/><path class="cls-15" d="M159.14,390.27A74.25,74.25,0,0,1,90.06,288.92l1-2.61a242.22,242.22,0,0,1,28.35-50.94l.49-.68a246,246,0,0,1,20-24c-.62-.79-1.23-1.59-1.82-2.41-.32-.42-.62-.85-.89-1.27A92.93,92.93,0,0,1,126.85,188c-.1-.22-1-2.48-1-2.48l0-.36a35,35,0,1,1,66.7,0l-.05.36-1,2.49a93.07,93.07,0,0,1-10.35,18.93c-.3.46-.63.93-1,1.4-.58.8-1.2,1.6-1.82,2.39a245.9,245.9,0,0,1,48.83,75.47l.1.19,1,2.56a74.15,74.15,0,0,1,5.12,27.14h-1.42a72.62,72.62,0,0,0-5-26.62l-1-2.6a244.45,244.45,0,0,0-49-75.61l-.43-.44.39-.49c.74-.93,1.47-1.88,2.17-2.84.33-.44.64-.89.94-1.35a91.85,91.85,0,0,0,10.22-18.67l.94-2.36,0-.27a33.59,33.59,0,1,0-63.94,0l0,.27.94,2.35a91.89,91.89,0,0,0,10.3,18.8c.28.43.56.83.86,1.23.71,1,1.44,1.91,2.18,2.85l.38.48-.42.45a243.93,243.93,0,0,0-20.37,24.29l-.45.61a241.91,241.91,0,0,0-28.21,50.7l-1.05,2.6a72.84,72.84,0,0,0,67.76,99.41Z"/><path class="cls-16" d="M159.14,377.1a61.09,61.09,0,0,1-56.82-83.37l.05-.13a229,229,0,0,1,28-50.87,1.26,1.26,0,0,0,.14-.19,231.37,231.37,0,0,1,28.15-31.86l.49-.45.48.45a231.16,231.16,0,0,1,56.28,82.91l.06.14a60.94,60.94,0,0,1,4.21,22.33h-1.42a59.64,59.64,0,0,0-4.06-21.69l-.07-.17a230,230,0,0,0-55.48-82,228.7,228.7,0,0,0-27.45,31.13,2.13,2.13,0,0,1-.21.3,227.83,227.83,0,0,0-27.84,50.58l0,.13a59.67,59.67,0,0,0,55.53,81.36Z"/><path class="cls-17" d="M160.34,185.36a56.5,56.5,0,0,1-21.85-4.54l.62-1.28c.21.1,21.11,9.86,40.06,0l.66,1.26A42,42,0,0,1,160.34,185.36Z"/><rect class="cls-18" x="158.45" y="184.68" width="1.42" height="26.52"/><path class="cls-19" d="M213.23,413.83l-41.9-28.92,7.31,1.35-3.77-2.35-26.39-18.28,8.39.71-25.29-17.86,13-3.05,3-13.06,17.94,25.24-.74-8.38,18.34,26.3,2.37,3.79-1.37-7.3ZM177.6,387.51l30,20.72-20.8-30,1.53,8.16L182,376.32l-15.28-21.91.76,8.64-2.17-3.38-17-23.9-2.51,10.84L135,349.14l24.92,17.55,2.42,1.54-8.65-.73,22,15.23L185.76,389Z"/><rect class="cls-20" x="171.74" y="338.83" width="1.42" height="68.13" transform="translate(-212.97 230.63) rotate(-44.92)"/><path class="cls-21" d="M157.45,320.51h-.27a21.87,21.87,0,0,1-20.24-29.41l.14-.33c.14-.37.24-.61.34-.84a80.15,80.15,0,0,1,9.28-16.45c.2-.31.44-.65.69-1a80.36,80.36,0,0,1,10-11.07l.49-.45.49.46a79.27,79.27,0,0,1,9.76,11.32c.2.27.39.56.57.85a80.16,80.16,0,0,1,9,16.82c.1.23.2.49.29.74l.16.43a22,22,0,0,1,1.16,7.33,21.83,21.83,0,0,1-21.84,21.58Zm.42-57.58a78.55,78.55,0,0,0-9.34,10.43q-.36.47-.66.93a78.52,78.52,0,0,0-9.14,16.2c-.11.23-.19.45-.28.67l-.18.45a20.44,20.44,0,0,0,33.45,21.68,20.51,20.51,0,0,0,5.07-21.22l-.12-.32-.3-.79a79,79,0,0,0-8.85-16.57c-.18-.3-.35-.55-.53-.8A77.51,77.51,0,0,0,157.87,262.93Z"/><path class="cls-22" d="M157.45,333.68H157a35,35,0,0,1-32.79-46.08l0-.35,1-2.49A93.35,93.35,0,0,1,135.9,266c.3-.45.64-.92,1-1.38.6-.8,1.22-1.59,1.85-2.37a246.14,246.14,0,0,1-47.91-76.06l-.1-.19-1-2.57a73.91,73.91,0,0,1-4.8-27.2h1.42a72.6,72.6,0,0,0,4.7,26.69l1,2.61a244.52,244.52,0,0,0,48.1,76.19l.42.45-.39.48c-.75.93-1.49,1.86-2.2,2.81q-.51.66-1,1.35a91.29,91.29,0,0,0-10.44,18.54c-.08.2-.78,1.87-1,2.35l0,.27a33.61,33.61,0,0,0,7.81,34.19A33.3,33.3,0,0,0,157,332.25h.41a33.61,33.61,0,0,0,32.09-43.55l0-.11v-.17l-.92-2.36a92.43,92.43,0,0,0-10.07-18.93c-.27-.42-.55-.82-.85-1.24-.69-1-1.41-1.93-2.14-2.87l-.38-.49.43-.44a244.38,244.38,0,0,0,20.66-24l.45-.61a241,241,0,0,0,28.83-50.36l1.08-2.58A72.85,72.85,0,0,0,160,84.29l0-1.42a74.25,74.25,0,0,1,67.85,102.18l-1.08,2.59a242.16,242.16,0,0,1-29,50.6l-.49.67A246.73,246.73,0,0,1,177,262.65c.61.8,1.22,1.61,1.8,2.43.31.43.6.85.87,1.28a93.63,93.63,0,0,1,10.21,19.18l1,2.5.05.13v.22a35,35,0,0,1-33.48,45.29Z"/><path class="cls-23" d="M157.87,262.9l-.48-.46a231.49,231.49,0,0,1-55.27-83.57l-.06-.15a60.88,60.88,0,0,1-3.94-22.39l1.42,0a59.53,59.53,0,0,0,3.8,21.74h0l.06.17A230,230,0,0,0,157.9,261a229.34,229.34,0,0,0,27.81-30.8c0-.06.13-.19.22-.3a227.31,227.31,0,0,0,28.44-50.24l.07-.15a59.68,59.68,0,0,0-54.56-82l0-1.42a61.08,61.08,0,0,1,55.81,84.05l-.06.14A229,229,0,0,1,187,230.74l-.15.2a230.57,230.57,0,0,1-28.53,31.51Z"/><path class="cls-24" d="M177.55,293.83c-.21-.1-21-10.11-40.06-.5l-.64-1.26c19.71-9.95,41.11.38,41.33.49Z"/><rect class="cls-25" x="144.47" y="274.47" width="26.52" height="1.42" transform="matrix(0.01, -1, 1, 0.01, -119.29, 429.67)"/><path class="cls-26" d="M170.86,140.9l-17.63-25.45.64,8.39-18-26.52-2.32-3.82,1.28,7.31L106.26,58.66,147.8,88.08l-7.28-1.43L144.25,89l26.17,18.6-8.38-.82L187.12,125,174,127.88ZM151.39,110l2.14,3.4,16.7,24.11,2.63-10.81,10.86-2.41L159,106.44l-2.4-1.57,8.63.84-21.79-15.5-10-6.4,8.15,1.6L111.82,64.33l20.44,30.2-1.43-8.18L137,96.55l15,22.09Z"/><rect class="cls-27" x="145.83" y="66.02" width="1.42" height="68.13" transform="translate(-28.27 130.58) rotate(-44.23)"/><path class="cls-28" d="M148.76,186.37c-1.55-.35-5.89-4.29-5.89-4.29s5.61-1.68,7.16-1.32,5.08,4.1,5.08,4.1S150.31,186.72,148.76,186.37Z"/><path class="cls-29" d="M170,186.38c-1.56.32-7.14-1.46-7.14-1.46s4.42-3.86,6-4.18,6.33,1.63,6.33,1.63S171.56,186.06,170,186.38Z"/><path class="cls-30" d="M168,286.88c1.55.37,5.84,4.36,5.84,4.36s-5.63,1.61-7.18,1.24-5-4.17-5-4.17S166.44,286.51,168,286.88Z"/><path class="cls-31" d="M146.74,286.62c1.56-.31,7.12,1.55,7.12,1.55s-4.46,3.79-6,4.1-6.31-1.71-6.31-1.71S145.18,286.92,146.74,286.62Z"/></g></g></svg>