<svg xmlns="http://www.w3.org/2000/svg" xmlns:xlink="http://www.w3.org/1999/xlink" width="316.89" height="472.49" viewBox="0 0 316.89 472.49"><defs><style>.cls-1{fill:url(#未命名漸層_191);}.cls-10,.cls-13,.cls-2,.cls-3,.cls-4,.cls-5,.cls-8,.cls-9{fill:none;stroke-width:2px;}.cls-10,.cls-13,.cls-14,.cls-15,.cls-16,.cls-17,.cls-18,.cls-19,.cls-2,.cls-20,.cls-21,.cls-22,.cls-23,.cls-24,.cls-25,.cls-3,.cls-4,.cls-5,.cls-8,.cls-9{stroke-miterlimit:10;}.cls-2{stroke:url(#未命名漸層_42);}.cls-3{stroke:url(#未命名漸層_42-2);}.cls-4{stroke:url(#未命名漸層_42-3);}.cls-5{stroke:url(#未命名漸層_42-4);}.cls-6{fill:url(#未命名漸層_42-5);}.cls-7{fill:url(#未命名漸層_42-6);}.cls-8{stroke:url(#未命名漸層_42-7);}.cls-9{stroke:url(#未命名漸層_42-8);}.cls-10{stroke:url(#未命名漸層_42-9);}.cls-11{fill:url(#未命名漸層_42-10);}.cls-12{fill:url(#未命名漸層_42-11);}.cls-13{stroke:url(#未命名漸層_42-12);}.cls-14{fill:url(#未命名漸層_47);stroke:url(#未命名漸層_44);}.cls-15{fill:url(#未命名漸層_47-2);stroke:url(#未命名漸層_44-2);}.cls-16{fill:url(#未命名漸層_47-3);stroke:url(#未命名漸層_44-3);}.cls-17{fill:url(#未命名漸層_47-4);stroke:url(#未命名漸層_44-4);}.cls-18{fill:url(#未命名漸層_47-5);stroke:url(#未命名漸層_44-5);}.cls-19{fill:url(#未命名漸層_47-6);stroke:url(#未命名漸層_44-6);}.cls-20{fill:url(#未命名漸層_47-7);stroke:url(#未命名漸層_44-7);}.cls-21{fill:url(#未命名漸層_47-8);stroke:url(#未命名漸層_44-8);}.cls-22{fill:url(#未命名漸層_47-9);stroke:url(#未命名漸層_44-9);}.cls-23{fill:url(#未命名漸層_47-10);stroke:url(#未命名漸層_44-10);}.cls-24{fill:url(#未命名漸層_47-11);stroke:url(#未命名漸層_44-11);}.cls-25{fill:url(#未命名漸層_47-12);stroke:url(#未命名漸層_44-12);}</style><linearGradient id="未命名漸層_191" x1="29.8" y1="4.68" x2="290.74" y2="474.37" gradientUnits="userSpaceOnUse"><stop offset="0" stop-color="#2e3453"/><stop offset="0.16" stop-color="#313f76"/><stop offset="0.29" stop-color="#32468d"/><stop offset="0.38" stop-color="#334996"/><stop offset="0.52" stop-color="#324384"/><stop offset="0.83" stop-color="#2f3860"/><stop offset="1" stop-color="#2e3453"/></linearGradient><linearGradient id="未命名漸層_42" x1="29.86" y1="252.63" x2="261.85" y2="252.63" gradientUnits="userSpaceOnUse"><stop offset="0" stop-color="#e8c5df"/><stop offset="0.96" stop-color="#a2ddd9"/></linearGradient><linearGradient id="未命名漸層_42-2" x1="57.44" y1="221.25" x2="289.52" y2="221.25" xlink:href="#未命名漸層_42"/><linearGradient id="未命名漸層_42-3" x1="39.39" y1="33.51" x2="58.44" y2="33.51" xlink:href="#未命名漸層_42"/><linearGradient id="未命名漸層_42-4" x1="21.34" y1="55.19" x2="40.39" y2="55.19" xlink:href="#未命名漸層_42"/><linearGradient id="未命名漸層_42-5" x1="70.99" y1="33.4" x2="94.82" y2="33.4" xlink:href="#未命名漸層_42"/><linearGradient id="未命名漸層_42-6" x1="25.41" y1="86.8" x2="36.34" y2="86.8" xlink:href="#未命名漸層_42"/><linearGradient id="未命名漸層_42-7" x1="20.92" y1="41.55" x2="52.07" y2="41.55" xlink:href="#未命名漸層_42"/><linearGradient id="未命名漸層_42-8" x1="260.89" y1="440.19" x2="279.94" y2="440.19" xlink:href="#未命名漸層_42"/><linearGradient id="未命名漸層_42-9" x1="278.94" y1="418.51" x2="297.99" y2="418.51" xlink:href="#未命名漸層_42"/><linearGradient id="未命名漸層_42-10" x1="224.51" y1="440.3" x2="248.34" y2="440.3" xlink:href="#未命名漸層_42"/><linearGradient id="未命名漸層_42-11" x1="282.99" y1="386.9" x2="293.92" y2="386.9" xlink:href="#未命名漸層_42"/><linearGradient id="未命名漸層_42-12" x1="267.26" y1="432.15" x2="298.41" y2="432.15" xlink:href="#未命名漸層_42"/><linearGradient id="未命名漸層_47" x1="134.9" y1="113.39" x2="183.46" y2="113.39" gradientUnits="userSpaceOnUse"><stop offset="0" stop-color="#2e3453"/><stop offset="1" stop-color="#83a2ce"/></linearGradient><linearGradient id="未命名漸層_44" x1="134.4" y1="113.48" x2="183.96" y2="113.48" gradientUnits="userSpaceOnUse"><stop offset="0" stop-color="#fff"/><stop offset="1" stop-color="#83a2ce"/></linearGradient><linearGradient id="未命名漸層_47-2" x1="152.41" y1="127.66" x2="165.94" y2="127.66" xlink:href="#未命名漸層_47"/><linearGradient id="未命名漸層_44-2" x1="151.91" y1="127.75" x2="166.44" y2="127.75" xlink:href="#未命名漸層_44"/><linearGradient id="未命名漸層_47-3" x1="91.24" y1="237.37" x2="227.12" y2="237.37" xlink:href="#未命名漸層_47"/><linearGradient id="未命名漸層_44-3" x1="90.74" y1="237.28" x2="227.62" y2="237.28" xlink:href="#未命名漸層_44"/><linearGradient id="未命名漸層_47-4" x1="134.9" y1="361.62" x2="183.46" y2="361.62" xlink:href="#未命名漸層_47"/><linearGradient id="未命名漸層_44-4" x1="134.4" y1="361.53" x2="183.96" y2="361.53" xlink:href="#未命名漸層_44"/><linearGradient id="未命名漸層_47-5" x1="91.24" y1="237.64" x2="227.12" y2="237.64" xlink:href="#未命名漸層_47"/><linearGradient id="未命名漸層_44-5" x1="90.74" y1="237.74" x2="227.62" y2="237.74" xlink:href="#未命名漸層_44"/><linearGradient id="未命名漸層_47-6" x1="137.51" y1="97.29" x2="159.58" y2="97.29" xlink:href="#未命名漸層_47"/><linearGradient id="未命名漸層_44-6" x1="137.01" y1="97.38" x2="160.27" y2="97.38" xlink:href="#未命名漸層_44"/><linearGradient id="未命名漸層_47-7" x1="158.45" y1="104.16" x2="180.85" y2="104.16" xlink:href="#未命名漸層_47"/><linearGradient id="未命名漸層_44-7" x1="157.95" y1="104.16" x2="181.35" y2="104.16" xlink:href="#未命名漸層_44"/><linearGradient id="未命名漸層_47-8" x1="128.54" y1="233.23" x2="189.82" y2="233.23" gradientTransform="translate(-118.29 180.87) rotate(-45)" xlink:href="#未命名漸層_47"/><linearGradient id="未命名漸層_44-8" x1="127.83" y1="233.23" x2="190.52" y2="233.23" gradientTransform="translate(-118.29 180.87) rotate(-45)" xlink:href="#未命名漸層_44"/><linearGradient id="未命名漸層_47-9" x1="128.54" y1="233.23" x2="189.82" y2="233.23" gradientTransform="translate(106.82 510.7) rotate(-135)" xlink:href="#未命名漸層_47"/><linearGradient id="未命名漸層_44-9" x1="127.83" y1="233.23" x2="190.52" y2="233.23" gradientTransform="translate(106.82 510.7) rotate(-135)" xlink:href="#未命名漸層_44"/><linearGradient id="未命名漸層_47-10" x1="152.41" y1="347.35" x2="165.94" y2="347.35" xlink:href="#未命名漸層_47"/><linearGradient id="未命名漸層_44-10" x1="151.91" y1="347.26" x2="166.44" y2="347.26" xlink:href="#未命名漸層_44"/><linearGradient id="未命名漸層_47-11" x1="158.78" y1="377.72" x2="180.85" y2="377.72" xlink:href="#未命名漸層_47"/><linearGradient id="未命名漸層_44-11" x1="158.09" y1="377.63" x2="181.35" y2="377.63" xlink:href="#未命名漸層_44"/><linearGradient id="未命名漸層_47-12" x1="137.51" y1="370.85" x2="159.91" y2="370.85" xlink:href="#未命名漸層_47"/><linearGradient id="未命名漸層_44-12" x1="137.01" y1="370.85" x2="160.41" y2="370.85" xlink:href="#未命名漸層_44"/></defs><g id="圖層_2" data-name="圖層 2"><g id="圖層_1-2" data-name="圖層 1"><rect class="cls-1" width="316.89" height="472.49" rx="25.28"/><path class="cls-2" d="M261.85,440.55H47.74a16.88,16.88,0,0,1-16.88-16.88v-360"/><path class="cls-3" d="M57.44,33.51h214.2a16.88,16.88,0,0,1,16.88,16.88V410"/><circle class="cls-4" cx="48.92" cy="33.51" r="8.53"/><circle class="cls-5" cx="30.86" cy="55.19" r="8.53"/><path class="cls-6" d="M83.69,38.86c-3,0-12.7-5.46-12.7-5.46s9.68-5.47,12.7-5.47S94.82,33.4,94.82,33.4,86.71,38.86,83.69,38.86Z"/><path class="cls-7" d="M25.41,87.59c0-3,5.47-12.71,5.47-12.71s5.46,9.69,5.46,12.71-5.46,11.13-5.46,11.13S25.41,90.61,25.41,87.59Z"/><circle class="cls-8" cx="36.5" cy="41.55" r="14.57"/><circle class="cls-9" cx="270.41" cy="440.19" r="8.53"/><circle class="cls-10" cx="288.47" cy="418.51" r="8.53"/><path class="cls-11" d="M235.64,434.84c3,0,12.7,5.46,12.7,5.46s-9.68,5.47-12.7,5.47-11.13-5.47-11.13-5.47S232.62,434.84,235.64,434.84Z"/><path class="cls-12" d="M293.92,386.11c0,3-5.47,12.71-5.47,12.71S283,389.13,283,386.11,288.45,375,288.45,375,293.92,383.09,293.92,386.11Z"/><circle class="cls-13" cx="282.83" cy="432.15" r="14.57"/><path class="cls-14" d="M159.19,146.48l-.5-.47a87.18,87.18,0,0,1-11-12.47,10.44,10.44,0,0,1-.65-.94,89.05,89.05,0,0,1-10.11-18.34l-.16-.08v-.31l-.3-.76-.16-.4a24.6,24.6,0,0,1-1.39-8.14,24.28,24.28,0,0,1,48.56,0,24.6,24.6,0,0,1-1.39,8.14L182,113l-.77,0,.69.26c-.11.28-.21.56-.33.83a88.69,88.69,0,0,1-10.11,18.44c-.22.35-.48.74-.76,1.1a88.43,88.43,0,0,1-11,12.46Zm-21-32.9a87.61,87.61,0,0,0,10,18.21c.21.33.4.61.61.88a85.44,85.44,0,0,0,10.34,11.8,87.53,87.53,0,0,0,10.31-11.79c.26-.35.5-.7.73-1.05a87.65,87.65,0,0,0,10-18.18c.12-.27.22-.53.32-.79l.18-.46a22.81,22.81,0,1,0-43,0l.14.35c.08.22.16.43.25.63h0Z"/><path class="cls-15" d="M152.8,127.43h0a1,1,0,0,0,0,.1c0,.09.07.18.1.26h0a25.89,25.89,0,0,0,2.92,5.32l.18.25a24.77,24.77,0,0,0,3.14,3.56,25.32,25.32,0,0,0,3.14-3.56l.21-.31a24.83,24.83,0,0,0,2.88-5.26h0c0-.08.07-.17.11-.26a.69.69,0,0,1,0-.1h0a6.77,6.77,0,1,0-12.76,0Z"/><path class="cls-16" d="M159.17,330.24a68,68,0,0,1-63.24-92.79l.06-.15a255.23,255.23,0,0,1,31.19-56.64,1.19,1.19,0,0,0,.16-.22A258.18,258.18,0,0,1,158.68,145l.51-.47.5.47a257.52,257.52,0,0,1,62.67,92.31h0l.06.16a68,68,0,0,1-63.26,92.79ZM97.25,238.08a66.47,66.47,0,1,0,123.88.07h0L221,238a256.12,256.12,0,0,0-61.85-91.44,256.5,256.5,0,0,0-30.62,34.73,1.52,1.52,0,0,1-.23.32,253.35,253.35,0,0,0-31,56.37Z"/><path class="cls-17" d="M159.17,394.71a24.3,24.3,0,0,1-22.88-32.4l.15-.38c.11-.29.21-.55.31-.79V361l.11-.11a89,89,0,0,1,10.06-18.31c.22-.35.48-.73.75-1.1a89.72,89.72,0,0,1,11-12.46l.5-.47.5.47a87.8,87.8,0,0,1,11,12.47c.23.3.44.61.65.94A89.3,89.3,0,0,1,181.56,361c.1.26.21.53.31.81l.2.49a24.3,24.3,0,0,1-22.9,32.4Zm-21.07-33-.27.7-.16.4a23.14,23.14,0,0,0-1.3,7.64,22.81,22.81,0,0,0,45.62,0,23.18,23.18,0,0,0-1.3-7.64l-.14-.34c-.14-.38-.24-.63-.35-.88a87.53,87.53,0,0,0-10.08-18.36c-.21-.33-.4-.6-.61-.88a86,86,0,0,0-10.34-11.79,87.61,87.61,0,0,0-10.32,11.78c-.26.35-.49.7-.72,1.05a87.47,87.47,0,0,0-9.91,18.05Z"/><path class="cls-18" d="M159.17,330.52l-.5-.48A257.63,257.63,0,0,1,96,237.71l-.06-.15a67.94,67.94,0,1,1,126.5,0l-.06.14a254.93,254.93,0,0,1-31.19,56.65,1.91,1.91,0,0,0-.17.22A255.55,255.55,0,0,1,159.67,330ZM97.24,236.89h0l.07.17a256.32,256.32,0,0,0,61.86,91.43,256.34,256.34,0,0,0,30.62-34.72,1.83,1.83,0,0,1,.23-.33,253.35,253.35,0,0,0,31-56.37l.06-.15a66.47,66.47,0,1,0-123.86,0Z"/><path class="cls-19" d="M158.78,99.51c-4.74-3.06-21.11-3-21.26-3V95.07c.69,0,17-.09,22.07,3.21Z"/><path class="cls-20" d="M158.45,113.26V98.49l.33-.21c5.11-3.3,21.37-3.21,22.07-3.21l0,1.46c-.14,0-15.79-.08-20.92,2.78v13.94Z"/><rect class="cls-21" x="153.76" y="195.31" width="10.83" height="75.83" transform="translate(211.54 -44.25) rotate(45)"/><rect class="cls-22" x="153.76" y="195.31" width="10.83" height="75.83" transform="translate(436.65 285.59) rotate(135)"/><path class="cls-23" d="M165.56,347.58h0a.42.42,0,0,1,0-.1c0-.09-.07-.18-.11-.26h0a25.43,25.43,0,0,0-2.92-5.32l-.17-.25a24.69,24.69,0,0,0-3.14-3.55,25.24,25.24,0,0,0-3.14,3.55,3.37,3.37,0,0,0-.21.31,25.32,25.32,0,0,0-2.89,5.26h0c0,.08-.07.17-.1.26l0,.1h0a6.76,6.76,0,1,0,12.76,0Z"/><path class="cls-24" d="M180.51,380c-2.46,0-17-.14-21.73-3.22l.8-1.23c4.74,3.06,21.1,3,21.25,3l0,1.46Z"/><path class="cls-25" d="M137.84,380h-.33v-1.46c.16,0,15.8.08,20.93-2.78V361.76h1.47v14.76l-.33.21C154.81,379.81,140.31,380,137.84,380Z"/></g></g></svg>