<svg xmlns="http://www.w3.org/2000/svg" xmlns:xlink="http://www.w3.org/1999/xlink" width="316.89" height="472.49" viewBox="0 0 316.89 472.49"><defs><style>.cls-1{fill:url(#未命名漸層_191);}.cls-10,.cls-13,.cls-2,.cls-3,.cls-4,.cls-5,.cls-8,.cls-9{fill:none;stroke-width:2px;}.cls-10,.cls-13,.cls-14,.cls-15,.cls-16,.cls-17,.cls-18,.cls-19,.cls-2,.cls-20,.cls-21,.cls-22,.cls-23,.cls-24,.cls-25,.cls-3,.cls-4,.cls-5,.cls-8,.cls-9{stroke-miterlimit:10;}.cls-2{stroke:url(#未命名漸層_42);}.cls-3{stroke:url(#未命名漸層_42-2);}.cls-4{stroke:url(#未命名漸層_42-3);}.cls-5{stroke:url(#未命名漸層_42-4);}.cls-6{fill:url(#未命名漸層_42-5);}.cls-7{fill:url(#未命名漸層_42-6);}.cls-8{stroke:url(#未命名漸層_42-7);}.cls-9{stroke:url(#未命名漸層_42-8);}.cls-10{stroke:url(#未命名漸層_42-9);}.cls-11{fill:url(#未命名漸層_42-10);}.cls-12{fill:url(#未命名漸層_42-11);}.cls-13{stroke:url(#未命名漸層_42-12);}.cls-14{fill:url(#未命名漸層_47);stroke:url(#未命名漸層_44);}.cls-15{fill:url(#未命名漸層_47-2);stroke:url(#未命名漸層_44-2);}.cls-16{fill:url(#未命名漸層_47-3);stroke:url(#未命名漸層_44-3);}.cls-17{fill:url(#未命名漸層_47-4);stroke:url(#未命名漸層_44-4);}.cls-18{fill:url(#未命名漸層_47-5);stroke:url(#未命名漸層_44-5);}.cls-19{fill:url(#未命名漸層_47-6);stroke:url(#未命名漸層_44-6);}.cls-20{fill:url(#未命名漸層_47-7);stroke:url(#未命名漸層_44-7);}.cls-21{fill:url(#未命名漸層_47-8);stroke:url(#未命名漸層_44-8);}.cls-22{fill:url(#未命名漸層_47-9);stroke:url(#未命名漸層_44-9);}.cls-23{fill:url(#未命名漸層_47-10);stroke:url(#未命名漸層_44-10);}.cls-24{fill:url(#未命名漸層_47-11);stroke:url(#未命名漸層_44-11);}.cls-25{fill:url(#未命名漸層_47-12);stroke:url(#未命名漸層_44-12);}</style><linearGradient id="未命名漸層_191" x1="29.8" y1="4.68" x2="290.74" y2="474.37" gradientUnits="userSpaceOnUse"><stop offset="0" stop-color="#2e3453"/><stop offset="0.16" stop-color="#313f76"/><stop offset="0.29" stop-color="#32468d"/><stop offset="0.38" stop-color="#334996"/><stop offset="0.52" stop-color="#324384"/><stop offset="0.83" stop-color="#2f3860"/><stop offset="1" stop-color="#2e3453"/></linearGradient><linearGradient id="未命名漸層_42" x1="28.81" y1="252.63" x2="260.8" y2="252.63" gradientUnits="userSpaceOnUse"><stop offset="0" stop-color="#e8c5df"/><stop offset="0.96" stop-color="#a2ddd9"/></linearGradient><linearGradient id="未命名漸層_42-2" x1="56.39" y1="221.25" x2="288.47" y2="221.25" xlink:href="#未命名漸層_42"/><linearGradient id="未命名漸層_42-3" x1="38.34" y1="33.51" x2="57.39" y2="33.51" xlink:href="#未命名漸層_42"/><linearGradient id="未命名漸層_42-4" x1="20.28" y1="55.19" x2="39.33" y2="55.19" xlink:href="#未命名漸層_42"/><linearGradient id="未命名漸層_42-5" x1="69.93" y1="33.4" x2="93.77" y2="33.4" xlink:href="#未命名漸層_42"/><linearGradient id="未命名漸層_42-6" x1="24.36" y1="86.8" x2="35.29" y2="86.8" xlink:href="#未命名漸層_42"/><linearGradient id="未命名漸層_42-7" x1="19.87" y1="41.55" x2="51.02" y2="41.55" xlink:href="#未命名漸層_42"/><linearGradient id="未命名漸層_42-8" x1="259.83" y1="440.19" x2="278.88" y2="440.19" xlink:href="#未命名漸層_42"/><linearGradient id="未命名漸層_42-9" x1="277.89" y1="418.51" x2="296.94" y2="418.51" xlink:href="#未命名漸層_42"/><linearGradient id="未命名漸層_42-10" x1="223.45" y1="440.3" x2="247.29" y2="440.3" xlink:href="#未命名漸層_42"/><linearGradient id="未命名漸層_42-11" x1="281.93" y1="386.9" x2="292.86" y2="386.9" xlink:href="#未命名漸層_42"/><linearGradient id="未命名漸層_42-12" x1="266.2" y1="432.15" x2="297.35" y2="432.15" xlink:href="#未命名漸層_42"/><linearGradient id="未命名漸層_47" x1="134.9" y1="176.38" x2="183.46" y2="176.38" gradientUnits="userSpaceOnUse"><stop offset="0" stop-color="#2e3453"/><stop offset="1" stop-color="#83a2ce"/></linearGradient><linearGradient id="未命名漸層_44" x1="134.4" y1="176.47" x2="183.96" y2="176.47" gradientUnits="userSpaceOnUse"><stop offset="0" stop-color="#fff"/><stop offset="1" stop-color="#83a2ce"/></linearGradient><linearGradient id="未命名漸層_47-2" x1="91.25" y1="300.33" x2="227.13" y2="300.33" xlink:href="#未命名漸層_47"/><linearGradient id="未命名漸層_44-2" x1="90.75" y1="300.23" x2="227.63" y2="300.23" xlink:href="#未命名漸層_44"/><linearGradient id="未命名漸層_47-3" x1="86.66" y1="331.76" x2="101.1" y2="331.76" xlink:href="#未命名漸層_47"/><linearGradient id="未命名漸層_44-3" x1="86.16" y1="331.76" x2="101.6" y2="331.76" xlink:href="#未命名漸層_44"/><linearGradient id="未命名漸層_47-4" x1="145.48" y1="392.79" x2="159.92" y2="392.79" xlink:href="#未命名漸層_47"/><linearGradient id="未命名漸層_44-4" x1="144.98" y1="392.79" x2="160.42" y2="392.79" xlink:href="#未命名漸層_44"/><linearGradient id="未命名漸層_47-5" x1="158.45" y1="176.87" x2="159.91" y2="176.87" xlink:href="#未命名漸層_47"/><linearGradient id="未命名漸層_44-5" x1="157.95" y1="176.87" x2="160.41" y2="176.87" xlink:href="#未命名漸層_44"/><linearGradient id="未命名漸層_47-6" x1="155.65" y1="191.19" x2="163.48" y2="191.19" xlink:href="#未命名漸層_47"/><linearGradient id="未命名漸層_44-6" x1="155.15" y1="191.19" x2="163.98" y2="191.19" xlink:href="#未命名漸層_44"/><linearGradient id="未命名漸層_47-7" x1="155.65" y1="281.3" x2="163.48" y2="281.3" xlink:href="#未命名漸層_47"/><linearGradient id="未命名漸層_44-7" x1="155.15" y1="281.3" x2="163.98" y2="281.3" xlink:href="#未命名漸層_44"/><linearGradient id="未命名漸層_47-8" x1="135.29" y1="296.11" x2="183.85" y2="296.11" xlink:href="#未命名漸層_47"/><linearGradient id="未命名漸層_44-8" x1="134.79" y1="296.02" x2="184.35" y2="296.02" xlink:href="#未命名漸層_44"/><linearGradient id="未命名漸層_47-9" x1="91.62" y1="172.16" x2="227.5" y2="172.16" xlink:href="#未命名漸層_47"/><linearGradient id="未命名漸層_44-9" x1="91.12" y1="172.25" x2="228" y2="172.25" xlink:href="#未命名漸層_44"/><linearGradient id="未命名漸層_47-10" x1="217.65" y1="140.73" x2="232.09" y2="140.73" xlink:href="#未命名漸層_47"/><linearGradient id="未命名漸層_44-10" x1="217.15" y1="140.73" x2="232.59" y2="140.73" xlink:href="#未命名漸層_44"/><linearGradient id="未命名漸層_47-11" x1="158.83" y1="79.7" x2="173.27" y2="79.7" xlink:href="#未命名漸層_47"/><linearGradient id="未命名漸層_44-11" x1="158.33" y1="79.7" x2="173.77" y2="79.7" xlink:href="#未命名漸層_44"/><linearGradient id="未命名漸層_47-12" x1="158.84" y1="295.62" x2="160.3" y2="295.62" xlink:href="#未命名漸層_47"/><linearGradient id="未命名漸層_44-12" x1="158.34" y1="295.62" x2="160.8" y2="295.62" xlink:href="#未命名漸層_44"/></defs><g id="圖層_2" data-name="圖層 2"><g id="圖層_1-2" data-name="圖層 1"><rect class="cls-1" width="316.89" height="472.49" rx="25.28"/><path class="cls-2" d="M260.8,440.55H46.69a16.88,16.88,0,0,1-16.88-16.88v-360"/><path class="cls-3" d="M56.39,33.51H270.58a16.89,16.89,0,0,1,16.89,16.88V410"/><circle class="cls-4" cx="47.86" cy="33.51" r="8.53"/><circle class="cls-5" cx="29.81" cy="55.19" r="8.53"/><path class="cls-6" d="M82.63,38.86c-3,0-12.7-5.46-12.7-5.46s9.69-5.47,12.7-5.47S93.77,33.4,93.77,33.4,85.65,38.86,82.63,38.86Z"/><path class="cls-7" d="M24.36,87.59c0-3,5.46-12.71,5.46-12.71s5.47,9.69,5.47,12.71-5.47,11.13-5.47,11.13S24.36,90.61,24.36,87.59Z"/><circle class="cls-8" cx="35.44" cy="41.55" r="14.57"/><circle class="cls-9" cx="269.36" cy="440.19" r="8.53"/><circle class="cls-10" cx="287.41" cy="418.51" r="8.53"/><path class="cls-11" d="M234.59,434.84c3,0,12.7,5.46,12.7,5.46s-9.69,5.47-12.7,5.47-11.14-5.47-11.14-5.47S231.57,434.84,234.59,434.84Z"/><path class="cls-12" d="M292.86,386.11c0,3-5.46,12.71-5.46,12.71s-5.47-9.69-5.47-12.71S287.4,375,287.4,375,292.86,383.09,292.86,386.11Z"/><circle class="cls-13" cx="281.78" cy="432.15" r="14.57"/><path class="cls-14" d="M159.19,209.47l-.5-.47a87.18,87.18,0,0,1-11-12.47,10.44,10.44,0,0,1-.65-.94A89.05,89.05,0,0,1,136.8,177c-.1-.24-.2-.51-.31-.77l-.2-.52a24.6,24.6,0,0,1-1.39-8.14,24.28,24.28,0,0,1,48.56,0,24.6,24.6,0,0,1-1.39,8.14l-.21.52c-.1.26-.2.53-.31.78a88.69,88.69,0,0,1-10.11,18.44c-.22.35-.48.73-.76,1.1a88.43,88.43,0,0,1-11,12.46ZM137.67,175.2l.19.49c.1.25.19.5.3.73a87,87,0,0,0,10.08,18.36c.21.33.4.61.61.88a85.37,85.37,0,0,0,10.33,11.79,86.23,86.23,0,0,0,10.32-11.78c.26-.35.5-.7.73-1a87.65,87.65,0,0,0,10-18.18q.17-.37.3-.75l.2-.5a22.81,22.81,0,1,0-43,0Z"/><path class="cls-15" d="M159.2,393.2v-1.47a66.51,66.51,0,0,0,61.93-90.64l-.08-.19A253.38,253.38,0,0,0,190,244.49a3.36,3.36,0,0,1-.25-.37,256.89,256.89,0,0,0-30.57-34.65,256.22,256.22,0,0,0-61.85,91.42l-.07.15a66.5,66.5,0,0,0-4.54,24.23H91.25a67.75,67.75,0,0,1,4.69-24.86l.06-.15a257.62,257.62,0,0,1,62.68-92.33l.5-.47.5.47a256.13,256.13,0,0,1,31.3,35.4,1.54,1.54,0,0,0,.18.26,255.09,255.09,0,0,1,31.22,56.67l.06.15A68,68,0,0,1,159.2,393.2Z"/><path class="cls-16" d="M93.88,339a7.22,7.22,0,1,1,7.22-7.22A7.23,7.23,0,0,1,93.88,339Zm0-13a5.76,5.76,0,1,0,5.75,5.76A5.77,5.77,0,0,0,93.88,326Z"/><path class="cls-17" d="M152.7,400a7.23,7.23,0,1,1,7.22-7.23A7.23,7.23,0,0,1,152.7,400Zm0-13a5.76,5.76,0,1,0,5.76,5.75A5.77,5.77,0,0,0,152.7,387Z"/><rect class="cls-18" x="158.45" y="172.71" width="1.47" height="8.33"/><rect class="cls-19" x="155.65" y="190.46" width="7.83" height="1.47"/><rect class="cls-20" x="155.65" y="280.57" width="7.83" height="1.47"/><path class="cls-21" d="M159.56,329.2a24.3,24.3,0,0,1-24.27-24.27,24.6,24.6,0,0,1,1.39-8.14l.15-.37c.14-.37.25-.66.37-.93a88.69,88.69,0,0,1,10.11-18.44c.22-.35.48-.73.76-1.1a89.72,89.72,0,0,1,11-12.46l.5-.47.51.47a87.73,87.73,0,0,1,11,12.47,10.44,10.44,0,0,1,.65.94A88.85,88.85,0,0,1,182,295.5c.11.26.22.55.33.83l.18.46a24.6,24.6,0,0,1,1.39,8.14A24.3,24.3,0,0,1,159.56,329.2Zm0-64.17a86.91,86.91,0,0,0-10.32,11.79c-.26.35-.5.7-.73,1.05a87.65,87.65,0,0,0-10,18.18c-.12.27-.22.54-.33.81l-.17.43a23.1,23.1,0,0,0-1.3,7.64,22.81,22.81,0,1,0,44.32-7.64l-.14-.35c-.13-.35-.23-.62-.35-.88a87.71,87.71,0,0,0-10.08-18.35c-.21-.33-.4-.61-.61-.88A86,86,0,0,0,159.57,265Z"/><path class="cls-22" d="M159.57,265l-.5-.47a257.44,257.44,0,0,1-31.3-35.4,1.36,1.36,0,0,0-.18-.25,255.44,255.44,0,0,1-31.22-56.69l-.06-.14a68,68,0,0,1,63.24-92.79v1.47a66.52,66.52,0,0,0-61.93,90.65l.07.17A253.67,253.67,0,0,0,128.75,228a2.45,2.45,0,0,1,.25.36A256.36,256.36,0,0,0,159.57,263a256.22,256.22,0,0,0,61.85-91.42l.07-.15A66.5,66.5,0,0,0,226,147.22h1.47a67.75,67.75,0,0,1-4.69,24.86l-.06.15a257.75,257.75,0,0,1-62.68,92.33Z"/><path class="cls-23" d="M224.87,148a7.22,7.22,0,1,1,7.22-7.22A7.23,7.23,0,0,1,224.87,148Zm0-13a5.76,5.76,0,1,0,5.76,5.76A5.77,5.77,0,0,0,224.87,135Z"/><path class="cls-24" d="M166.05,86.92a7.23,7.23,0,1,1,7.22-7.22A7.23,7.23,0,0,1,166.05,86.92Zm0-13a5.76,5.76,0,1,0,5.76,5.76A5.77,5.77,0,0,0,166.05,73.94Z"/><rect class="cls-25" x="158.84" y="291.45" width="1.47" height="8.33"/></g></g></svg>