<svg xmlns="http://www.w3.org/2000/svg" xmlns:xlink="http://www.w3.org/1999/xlink" width="316.89" height="472.49" viewBox="0 0 316.89 472.49"><defs><style>.cls-1{fill:url(#未命名漸層_191);}.cls-10,.cls-13,.cls-2,.cls-3,.cls-4,.cls-5,.cls-8,.cls-9{fill:none;stroke-width:2px;}.cls-10,.cls-13,.cls-14,.cls-15,.cls-16,.cls-17,.cls-18,.cls-19,.cls-2,.cls-20,.cls-21,.cls-22,.cls-23,.cls-24,.cls-25,.cls-26,.cls-27,.cls-28,.cls-29,.cls-3,.cls-30,.cls-4,.cls-5,.cls-8,.cls-9{stroke-miterlimit:10;}.cls-2{stroke:url(#未命名漸層_42);}.cls-3{stroke:url(#未命名漸層_42-2);}.cls-4{stroke:url(#未命名漸層_42-3);}.cls-5{stroke:url(#未命名漸層_42-4);}.cls-6{fill:url(#未命名漸層_42-5);}.cls-7{fill:url(#未命名漸層_42-6);}.cls-8{stroke:url(#未命名漸層_42-7);}.cls-9{stroke:url(#未命名漸層_42-8);}.cls-10{stroke:url(#未命名漸層_42-9);}.cls-11{fill:url(#未命名漸層_42-10);}.cls-12{fill:url(#未命名漸層_42-11);}.cls-13{stroke:url(#未命名漸層_42-12);}.cls-14{fill:url(#未命名漸層_47);stroke:url(#未命名漸層_44);}.cls-15{fill:url(#未命名漸層_47-2);stroke:url(#未命名漸層_44-2);}.cls-16{fill:url(#未命名漸層_47-3);stroke:url(#未命名漸層_44-3);}.cls-17{fill:url(#未命名漸層_47-4);stroke:url(#未命名漸層_44-4);}.cls-18{fill:url(#未命名漸層_47-5);stroke:url(#未命名漸層_44-5);}.cls-19{fill:url(#未命名漸層_47-6);stroke:url(#未命名漸層_44-6);}.cls-20{fill:url(#未命名漸層_47-7);stroke:url(#未命名漸層_44-7);}.cls-21{fill:url(#未命名漸層_47-8);stroke:url(#未命名漸層_44-8);}.cls-22{fill:url(#未命名漸層_47-9);stroke:url(#未命名漸層_44-9);}.cls-23{fill:url(#未命名漸層_47-10);stroke:url(#未命名漸層_44-10);}.cls-24{fill:url(#未命名漸層_47-11);stroke:url(#未命名漸層_44-11);}.cls-25{fill:url(#未命名漸層_47-12);stroke:url(#未命名漸層_44-12);}.cls-26{fill:url(#未命名漸層_47-13);stroke:url(#未命名漸層_44-13);}.cls-27{fill:url(#未命名漸層_47-14);stroke:url(#未命名漸層_44-14);}.cls-28{fill:url(#未命名漸層_47-15);stroke:url(#未命名漸層_44-15);}.cls-29{fill:url(#未命名漸層_47-16);stroke:url(#未命名漸層_44-16);}.cls-30{fill:url(#未命名漸層_47-17);stroke:url(#未命名漸層_44-17);}</style><linearGradient id="未命名漸層_191" x1="29.8" y1="4.68" x2="290.74" y2="474.37" gradientUnits="userSpaceOnUse"><stop offset="0" stop-color="#2e3453"/><stop offset="0.16" stop-color="#313f76"/><stop offset="0.29" stop-color="#32468d"/><stop offset="0.38" stop-color="#334996"/><stop offset="0.52" stop-color="#324384"/><stop offset="0.83" stop-color="#2f3860"/><stop offset="1" stop-color="#2e3453"/></linearGradient><linearGradient id="未命名漸層_42" x1="29.79" y1="252.97" x2="261.78" y2="252.97" gradientUnits="userSpaceOnUse"><stop offset="0" stop-color="#e8c5df"/><stop offset="0.96" stop-color="#a2ddd9"/></linearGradient><linearGradient id="未命名漸層_42-2" x1="57.37" y1="221.59" x2="289.45" y2="221.59" xlink:href="#未命名漸層_42"/><linearGradient id="未命名漸層_42-3" x1="39.32" y1="33.85" x2="58.37" y2="33.85" xlink:href="#未命名漸層_42"/><linearGradient id="未命名漸層_42-4" x1="21.26" y1="55.53" x2="40.31" y2="55.53" xlink:href="#未命名漸層_42"/><linearGradient id="未命名漸層_42-5" x1="70.91" y1="33.74" x2="94.75" y2="33.74" xlink:href="#未命名漸層_42"/><linearGradient id="未命名漸層_42-6" x1="25.34" y1="87.15" x2="36.27" y2="87.15" xlink:href="#未命名漸層_42"/><linearGradient id="未命名漸層_42-7" x1="20.85" y1="41.89" x2="52" y2="41.89" xlink:href="#未命名漸層_42"/><linearGradient id="未命名漸層_42-8" x1="260.81" y1="440.53" x2="279.86" y2="440.53" xlink:href="#未命名漸層_42"/><linearGradient id="未命名漸層_42-9" x1="278.87" y1="418.85" x2="297.92" y2="418.85" xlink:href="#未命名漸層_42"/><linearGradient id="未命名漸層_42-10" x1="224.43" y1="440.64" x2="248.27" y2="440.64" xlink:href="#未命名漸層_42"/><linearGradient id="未命名漸層_42-11" x1="282.91" y1="387.24" x2="293.84" y2="387.24" xlink:href="#未命名漸層_42"/><linearGradient id="未命名漸層_42-12" x1="267.18" y1="432.49" x2="298.33" y2="432.49" xlink:href="#未命名漸層_42"/><linearGradient id="未命名漸層_47" x1="125.62" y1="252.26" x2="162.81" y2="252.26" gradientUnits="userSpaceOnUse"><stop offset="0" stop-color="#2e3453"/><stop offset="1" stop-color="#83a2ce"/></linearGradient><linearGradient id="未命名漸層_44" x1="125.12" y1="252.26" x2="163.31" y2="252.26" gradientUnits="userSpaceOnUse"><stop offset="0" stop-color="#fff"/><stop offset="1" stop-color="#83a2ce"/></linearGradient><linearGradient id="未命名漸層_47-2" x1="155.51" y1="270.12" x2="170.11" y2="270.12" xlink:href="#未命名漸層_47"/><linearGradient id="未命名漸層_44-2" x1="155.01" y1="270.12" x2="170.61" y2="270.12" xlink:href="#未命名漸層_44"/><linearGradient id="未命名漸層_47-3" x1="151.15" y1="216.38" x2="188.33" y2="216.38" xlink:href="#未命名漸層_47"/><linearGradient id="未命名漸層_44-3" x1="150.65" y1="216.38" x2="188.83" y2="216.38" xlink:href="#未命名漸層_44"/><linearGradient id="未命名漸層_47-4" x1="143.85" y1="198.52" x2="158.45" y2="198.52" xlink:href="#未命名漸層_47"/><linearGradient id="未命名漸層_44-4" x1="143.35" y1="198.52" x2="158.95" y2="198.52" xlink:href="#未命名漸層_44"/><linearGradient id="未命名漸層_47-5" x1="132.85" y1="112.47" x2="181.4" y2="112.47" xlink:href="#未命名漸層_47"/><linearGradient id="未命名漸層_44-5" x1="132.35" y1="112.56" x2="181.9" y2="112.56" xlink:href="#未命名漸層_44"/><linearGradient id="未命名漸層_47-6" x1="74.52" y1="236.24" x2="239.73" y2="236.24" xlink:href="#未命名漸層_47"/><linearGradient id="未命名漸層_44-6" x1="74.02" y1="236.25" x2="240.23" y2="236.25" xlink:href="#未命名漸層_44"/><linearGradient id="未命名漸層_47-7" x1="89.19" y1="236.45" x2="225.06" y2="236.45" xlink:href="#未命名漸層_47"/><linearGradient id="未命名漸層_44-7" x1="88.69" y1="236.36" x2="225.56" y2="236.36" xlink:href="#未命名漸層_44"/><linearGradient id="未命名漸層_47-8" x1="156.24" y1="111.93" x2="157.71" y2="111.93" xlink:href="#未命名漸層_47"/><linearGradient id="未命名漸層_44-8" x1="155.74" y1="111.93" x2="158.21" y2="111.93" xlink:href="#未命名漸層_44"/><linearGradient id="未命名漸層_47-9" x1="154.35" y1="125.68" x2="159.61" y2="125.68" xlink:href="#未命名漸層_47"/><linearGradient id="未命名漸層_44-9" x1="153.85" y1="125.68" x2="160.11" y2="125.68" xlink:href="#未命名漸層_44"/><linearGradient id="未命名漸層_47-10" x1="160.51" y1="101.78" x2="175.27" y2="101.78" xlink:href="#未命名漸層_47"/><linearGradient id="未命名漸層_44-10" x1="160.01" y1="101.78" x2="175.77" y2="101.78" xlink:href="#未命名漸層_44"/><linearGradient id="未命名漸層_47-11" x1="132.85" y1="360.7" x2="181.4" y2="360.7" xlink:href="#未命名漸層_47"/><linearGradient id="未命名漸層_44-11" x1="132.35" y1="360.61" x2="181.9" y2="360.61" xlink:href="#未命名漸層_44"/><linearGradient id="未命名漸層_47-12" x1="74.52" y1="236.93" x2="239.73" y2="236.93" xlink:href="#未命名漸層_47"/><linearGradient id="未命名漸層_44-12" x1="74.02" y1="236.92" x2="240.23" y2="236.92" xlink:href="#未命名漸層_44"/><linearGradient id="未命名漸層_47-13" x1="89.19" y1="236.72" x2="225.06" y2="236.72" xlink:href="#未命名漸層_47"/><linearGradient id="未命名漸層_44-13" x1="88.69" y1="236.82" x2="225.56" y2="236.82" xlink:href="#未命名漸層_44"/><linearGradient id="未命名漸層_47-14" x1="156.54" y1="361.24" x2="158.01" y2="361.24" xlink:href="#未命名漸層_47"/><linearGradient id="未命名漸層_44-14" x1="156.04" y1="361.24" x2="158.51" y2="361.24" xlink:href="#未命名漸層_44"/><linearGradient id="未命名漸層_47-15" x1="154.64" y1="347.49" x2="159.91" y2="347.49" xlink:href="#未命名漸層_47"/><linearGradient id="未命名漸層_44-15" x1="154.14" y1="347.49" x2="160.41" y2="347.49" xlink:href="#未命名漸層_44"/><linearGradient id="未命名漸層_47-16" x1="143.11" y1="366.63" x2="157.86" y2="366.63" xlink:href="#未命名漸層_47"/><linearGradient id="未命名漸層_44-16" x1="142.61" y1="366.63" x2="158.36" y2="366.63" xlink:href="#未命名漸層_44"/><linearGradient id="未命名漸層_47-17" x1="146.39" y1="234.97" x2="167.92" y2="234.97" xlink:href="#未命名漸層_47"/><linearGradient id="未命名漸層_44-17" x1="145.89" y1="234.97" x2="168.42" y2="234.97" xlink:href="#未命名漸層_44"/></defs><g id="圖層_2" data-name="圖層 2"><g id="圖層_1-2" data-name="圖層 1"><rect class="cls-1" width="316.89" height="472.49" rx="25.28"/><path class="cls-2" d="M261.78,440.89H47.67A16.88,16.88,0,0,1,30.79,424V64.06"/><path class="cls-3" d="M57.37,33.85H271.56a16.89,16.89,0,0,1,16.89,16.88v359.6"/><circle class="cls-4" cx="48.84" cy="33.85" r="8.53"/><circle class="cls-5" cx="30.79" cy="55.53" r="8.53"/><path class="cls-6" d="M83.61,39.2c-3,0-12.7-5.46-12.7-5.46s9.69-5.47,12.7-5.47,11.14,5.47,11.14,5.47S86.63,39.2,83.61,39.2Z"/><path class="cls-7" d="M25.34,87.93c0-3,5.46-12.7,5.46-12.7s5.47,9.68,5.47,12.7S30.8,99.06,30.8,99.06,25.34,91,25.34,87.93Z"/><circle class="cls-8" cx="36.42" cy="41.89" r="14.57"/><circle class="cls-9" cx="270.34" cy="440.53" r="8.53"/><circle class="cls-10" cx="288.39" cy="418.85" r="8.53"/><path class="cls-11" d="M235.56,435.18c3,0,12.71,5.46,12.71,5.46s-9.69,5.47-12.71,5.47-11.13-5.47-11.13-5.47S232.55,435.18,235.56,435.18Z"/><path class="cls-12" d="M293.84,386.45c0,3-5.46,12.71-5.46,12.71s-5.47-9.69-5.47-12.71,5.47-11.13,5.47-11.13S293.84,383.43,293.84,386.45Z"/><circle class="cls-13" cx="282.76" cy="432.49" r="14.57"/><path class="cls-14" d="M162.81,270.85a37.23,37.23,0,0,1-37.19-37.18h1.47a35.75,35.75,0,0,0,35.72,35.71Z"/><path class="cls-15" d="M162.81,277.42a7.3,7.3,0,1,1,7.3-7.3A7.31,7.31,0,0,1,162.81,277.42Zm0-13.13a5.83,5.83,0,1,0,5.83,5.83A5.83,5.83,0,0,0,162.81,264.29Z"/><path class="cls-16" d="M188.33,235h-1.46a35.76,35.76,0,0,0-35.72-35.71v-1.47A37.22,37.22,0,0,1,188.33,235Z"/><path class="cls-17" d="M151.15,205.82a7.3,7.3,0,1,1,7.3-7.3A7.3,7.3,0,0,1,151.15,205.82Zm0-13.13a5.83,5.83,0,1,0,5.83,5.83A5.84,5.84,0,0,0,151.15,192.69Z"/><path class="cls-18" d="M157.14,145.56l-.51-.47a87.12,87.12,0,0,1-11-12.47,10.44,10.44,0,0,1-.65-.94,88.85,88.85,0,0,1-10.22-18.6c-.11-.26-.22-.55-.33-.83l-.18-.46a24.6,24.6,0,0,1-1.39-8.14A24.28,24.28,0,1,1,180,111.79l-.14.37c-.15.37-.25.66-.37.93a89,89,0,0,1-10.11,18.44c-.22.35-.48.73-.76,1.1a89.72,89.72,0,0,1-11,12.46Zm-21.52-34.27.14.35c.13.35.23.62.34.88a88.21,88.21,0,0,0,10.09,18.35c.2.33.4.6.6.88a86.71,86.71,0,0,0,10.34,11.79,86.92,86.92,0,0,0,10.32-11.78c.26-.35.5-.7.73-1a87.65,87.65,0,0,0,10-18.18c.12-.27.22-.54.32-.81l.18-.43a23.1,23.1,0,0,0,1.3-7.64,22.82,22.82,0,1,0-44.32,7.64Z"/><path class="cls-19" d="M89.5,328.91a82.62,82.62,0,0,1-9.28-77.6l1.23-3A270.22,270.22,0,0,1,113,191.67l.54-.75a272.31,272.31,0,0,1,33.09-37.42l10.55-9.92,10.55,9.93a272.67,272.67,0,0,1,65.11,94.75l.11.2,1.12,2.86a82.61,82.61,0,0,1-8.43,76.36l-1.21-.83a81.21,81.21,0,0,0,8.28-75L231.5,249a271.24,271.24,0,0,0-64.82-94.38l-9.54-9-9.55,9a271.07,271.07,0,0,0-32.9,37.21l-.5.68A269.16,269.16,0,0,0,82.75,249l-1.16,2.88a81.17,81.17,0,0,0,9.11,76.23Z"/><path class="cls-20" d="M157.12,329.32a68,68,0,0,1-63.25-92.79l.07-.14a254.71,254.71,0,0,1,31.19-56.65l.16-.22a256.86,256.86,0,0,1,31.34-35.47l.5-.47.51.47a257.6,257.6,0,0,1,62.67,92.33l.07.15a68,68,0,0,1-63.26,92.79ZM95.2,237.16a66.47,66.47,0,1,0,123.87.05L219,237a256,256,0,0,0-61.86-91.44,255.75,255.75,0,0,0-30.61,34.73,2.91,2.91,0,0,1-.24.32,253.72,253.72,0,0,0-31,56.37Z"/><rect class="cls-21" x="156.24" y="106.04" width="1.47" height="11.78"/><rect class="cls-22" x="154.35" y="124.95" width="5.26" height="1.47"/><path class="cls-23" d="M167.89,109.16a7.38,7.38,0,1,1,7.38-7.38A7.39,7.39,0,0,1,167.89,109.16Zm0-13.29a5.91,5.91,0,1,0,5.91,5.91A5.92,5.92,0,0,0,167.89,95.87Z"/><path class="cls-24" d="M157.12,393.79a24.3,24.3,0,0,1-22.88-32.4l.15-.38c.14-.37.25-.66.37-.93a88.65,88.65,0,0,1,10.1-18.44c.23-.35.49-.73.76-1.1a89.15,89.15,0,0,1,11-12.46l.5-.47.5.47a87.8,87.8,0,0,1,11,12.47c.22.3.44.61.64.94a88.85,88.85,0,0,1,10.22,18.6c.12.26.22.55.33.84l.18.46a24.3,24.3,0,0,1-22.89,32.4Zm0-64.16a87.61,87.61,0,0,0-10.32,11.78q-.39.52-.72,1a87.69,87.69,0,0,0-10,18.18c-.12.27-.22.54-.32.81l-.17.44a22.81,22.81,0,1,0,43,0l-.13-.35c-.14-.35-.24-.62-.35-.87a88,88,0,0,0-10.09-18.36,10.38,10.38,0,0,0-.6-.88A86.71,86.71,0,0,0,157.12,329.63Z"/><path class="cls-25" d="M157.11,329.6l-10.55-9.93a272.71,272.71,0,0,1-65.11-94.76l-.11-.2-1.12-2.86a82.59,82.59,0,0,1,8.43-76.35l1.22.82a81.15,81.15,0,0,0-8.28,75l1.16,2.89a271.38,271.38,0,0,0,64.82,94.38l9.54,9,9.55-9a271.22,271.22,0,0,0,32.91-37.22l.49-.68a268.89,268.89,0,0,0,31.44-56.49l1.16-2.88a81.19,81.19,0,0,0-9.11-76.24l1.2-.84a82.62,82.62,0,0,1,9.28,77.6l-1.23,3a270,270,0,0,1-31.51,56.59l-.54.75a271.65,271.65,0,0,1-33.09,37.42Z"/><path class="cls-26" d="M157.12,329.6l-.5-.48A257.63,257.63,0,0,1,93.94,236.8l-.07-.16a67.94,67.94,0,1,1,126.51,0l-.07.16a254.76,254.76,0,0,1-31.19,56.63l-.16.22a256.86,256.86,0,0,1-31.34,35.47ZM95.18,236h0l.08.19a256.32,256.32,0,0,0,61.86,91.43,256.27,256.27,0,0,0,30.61-34.72,1.78,1.78,0,0,1,.24-.33,253.31,253.31,0,0,0,31-56.37l.07-.16A66.46,66.46,0,1,0,95.18,236Z"/><rect class="cls-27" x="156.54" y="355.35" width="1.47" height="11.78"/><rect class="cls-28" x="154.64" y="346.76" width="5.26" height="1.47"/><path class="cls-29" d="M150.48,374a7.38,7.38,0,1,1,7.38-7.38A7.38,7.38,0,0,1,150.48,374Zm0-13.29a5.91,5.91,0,1,0,5.91,5.91A5.92,5.92,0,0,0,150.48,360.72Z"/><rect class="cls-30" x="146.39" y="218.06" width="21.53" height="33.82"/></g></g></svg>