<svg xmlns="http://www.w3.org/2000/svg" xmlns:xlink="http://www.w3.org/1999/xlink" width="316.89" height="472.49" viewBox="0 0 316.89 472.49"><defs><style>.cls-1{fill:url(#未命名漸層_191);}.cls-10,.cls-13,.cls-2,.cls-3,.cls-4,.cls-5,.cls-8,.cls-9{fill:none;stroke-width:2px;}.cls-10,.cls-13,.cls-14,.cls-15,.cls-16,.cls-17,.cls-18,.cls-19,.cls-2,.cls-20,.cls-21,.cls-22,.cls-23,.cls-24,.cls-25,.cls-26,.cls-27,.cls-28,.cls-29,.cls-3,.cls-30,.cls-31,.cls-32,.cls-33,.cls-34,.cls-35,.cls-36,.cls-37,.cls-38,.cls-4,.cls-5,.cls-8,.cls-9{stroke-miterlimit:10;}.cls-2{stroke:url(#未命名漸層_42);}.cls-3{stroke:url(#未命名漸層_42-2);}.cls-4{stroke:url(#未命名漸層_42-3);}.cls-5{stroke:url(#未命名漸層_42-4);}.cls-6{fill:url(#未命名漸層_42-5);}.cls-7{fill:url(#未命名漸層_42-6);}.cls-8{stroke:url(#未命名漸層_42-7);}.cls-9{stroke:url(#未命名漸層_42-8);}.cls-10{stroke:url(#未命名漸層_42-9);}.cls-11{fill:url(#未命名漸層_42-10);}.cls-12{fill:url(#未命名漸層_42-11);}.cls-13{stroke:url(#未命名漸層_42-12);}.cls-14{fill:url(#未命名漸層_47);stroke:url(#未命名漸層_44);}.cls-15{fill:url(#未命名漸層_47-2);stroke:url(#未命名漸層_44-2);}.cls-16{fill:url(#未命名漸層_47-3);stroke:url(#未命名漸層_44-3);}.cls-17{fill:url(#未命名漸層_47-4);stroke:url(#未命名漸層_44-4);}.cls-18{fill:url(#未命名漸層_47-5);stroke:url(#未命名漸層_44-5);}.cls-19{fill:url(#未命名漸層_47-6);stroke:url(#未命名漸層_44-6);}.cls-20{fill:url(#未命名漸層_47-7);stroke:url(#未命名漸層_44-7);}.cls-21{fill:url(#未命名漸層_47-8);stroke:url(#未命名漸層_44-8);}.cls-22{fill:url(#未命名漸層_47-9);stroke:url(#未命名漸層_44-9);}.cls-23{fill:url(#未命名漸層_47-10);stroke:url(#未命名漸層_44-10);}.cls-24{fill:url(#未命名漸層_47-11);stroke:url(#未命名漸層_44-11);}.cls-25{fill:url(#未命名漸層_47-12);stroke:url(#未命名漸層_44-12);}.cls-26{fill:url(#未命名漸層_47-13);stroke:url(#未命名漸層_44-13);}.cls-27{fill:url(#未命名漸層_47-14);stroke:url(#未命名漸層_44-14);}.cls-28{fill:url(#未命名漸層_47-15);stroke:url(#未命名漸層_44-15);}.cls-29{fill:url(#未命名漸層_47-16);stroke:url(#未命名漸層_44-16);}.cls-30{fill:url(#未命名漸層_47-17);stroke:url(#未命名漸層_44-17);}.cls-31{fill:url(#未命名漸層_47-18);stroke:url(#未命名漸層_44-18);}.cls-32{fill:url(#未命名漸層_47-19);stroke:url(#未命名漸層_44-19);}.cls-33{fill:url(#未命名漸層_47-20);stroke:url(#未命名漸層_44-20);}.cls-34{fill:url(#未命名漸層_47-21);stroke:url(#未命名漸層_44-21);}.cls-35{fill:url(#未命名漸層_47-22);stroke:url(#未命名漸層_44-22);}.cls-36{fill:url(#未命名漸層_47-23);stroke:url(#未命名漸層_44-23);}.cls-37{fill:url(#未命名漸層_47-24);stroke:url(#未命名漸層_44-24);}.cls-38{fill:url(#未命名漸層_47-25);stroke:url(#未命名漸層_44-25);}</style><linearGradient id="未命名漸層_191" x1="29.8" y1="4.68" x2="290.74" y2="474.37" gradientUnits="userSpaceOnUse"><stop offset="0" stop-color="#2e3453"/><stop offset="0.16" stop-color="#313f76"/><stop offset="0.29" stop-color="#32468d"/><stop offset="0.38" stop-color="#334996"/><stop offset="0.52" stop-color="#324384"/><stop offset="0.83" stop-color="#2f3860"/><stop offset="1" stop-color="#2e3453"/></linearGradient><linearGradient id="未命名漸層_42" x1="28.51" y1="252.77" x2="260.5" y2="252.77" gradientUnits="userSpaceOnUse"><stop offset="0" stop-color="#e8c5df"/><stop offset="0.96" stop-color="#a2ddd9"/></linearGradient><linearGradient id="未命名漸層_42-2" x1="56.09" y1="221.38" x2="288.17" y2="221.38" xlink:href="#未命名漸層_42"/><linearGradient id="未命名漸層_42-3" x1="38.04" y1="33.65" x2="57.09" y2="33.65" xlink:href="#未命名漸層_42"/><linearGradient id="未命名漸層_42-4" x1="19.98" y1="55.33" x2="39.03" y2="55.33" xlink:href="#未命名漸層_42"/><linearGradient id="未命名漸層_42-5" x1="69.63" y1="33.54" x2="93.47" y2="33.54" xlink:href="#未命名漸層_42"/><linearGradient id="未命名漸層_42-6" x1="24.06" y1="86.94" x2="34.99" y2="86.94" xlink:href="#未命名漸層_42"/><linearGradient id="未命名漸層_42-7" x1="19.57" y1="41.69" x2="50.72" y2="41.69" xlink:href="#未命名漸層_42"/><linearGradient id="未命名漸層_42-8" x1="259.53" y1="440.33" x2="278.58" y2="440.33" xlink:href="#未命名漸層_42"/><linearGradient id="未命名漸層_42-9" x1="277.59" y1="418.65" x2="296.64" y2="418.65" xlink:href="#未命名漸層_42"/><linearGradient id="未命名漸層_42-10" x1="223.15" y1="440.44" x2="246.99" y2="440.44" xlink:href="#未命名漸層_42"/><linearGradient id="未命名漸層_42-11" x1="281.63" y1="387.03" x2="292.56" y2="387.03" xlink:href="#未命名漸層_42"/><linearGradient id="未命名漸層_42-12" x1="265.9" y1="432.29" x2="297.05" y2="432.29" xlink:href="#未命名漸層_42"/><linearGradient id="未命名漸層_47" x1="132.81" y1="108.11" x2="181.37" y2="108.11" gradientUnits="userSpaceOnUse"><stop offset="0" stop-color="#2e3453"/><stop offset="1" stop-color="#83a2ce"/></linearGradient><linearGradient id="未命名漸層_44" x1="132.31" y1="108.2" x2="181.87" y2="108.2" gradientUnits="userSpaceOnUse"><stop offset="0" stop-color="#fff"/><stop offset="1" stop-color="#83a2ce"/></linearGradient><linearGradient id="未命名漸層_47-2" x1="89.15" y1="232.09" x2="225.03" y2="232.09" xlink:href="#未命名漸層_47"/><linearGradient id="未命名漸層_44-2" x1="88.65" y1="232" x2="225.53" y2="232" xlink:href="#未命名漸層_44"/><linearGradient id="未命名漸層_47-3" x1="132.81" y1="356.34" x2="181.37" y2="356.34" xlink:href="#未命名漸層_47"/><linearGradient id="未命名漸層_44-3" x1="132.31" y1="356.25" x2="181.87" y2="356.25" xlink:href="#未命名漸層_44"/><linearGradient id="未命名漸層_47-4" x1="89.15" y1="232.36" x2="225.03" y2="232.36" xlink:href="#未命名漸層_47"/><linearGradient id="未命名漸層_44-4" x1="88.65" y1="232.46" x2="225.53" y2="232.46" xlink:href="#未命名漸層_44"/><linearGradient id="未命名漸層_47-5" x1="138.5" y1="227.15" x2="175.69" y2="227.15" xlink:href="#未命名漸層_47"/><linearGradient id="未命名漸層_44-5" x1="138" y1="227.15" x2="176.19" y2="227.15" xlink:href="#未命名漸層_44"/><linearGradient id="未命名漸層_47-6" x1="114.15" y1="244.83" x2="145.27" y2="244.83" xlink:href="#未命名漸層_47"/><linearGradient id="未命名漸層_44-6" x1="113.65" y1="244.83" x2="145.77" y2="244.83" xlink:href="#未命名漸層_44"/><linearGradient id="未命名漸層_47-7" x1="139.07" y1="259.66" x2="151.48" y2="259.66" xlink:href="#未命名漸層_47"/><linearGradient id="未命名漸層_44-7" x1="138.57" y1="259.66" x2="151.98" y2="259.66" xlink:href="#未命名漸層_44"/><linearGradient id="未命名漸層_47-8" x1="170.09" y1="244.83" x2="201.22" y2="244.83" xlink:href="#未命名漸層_47"/><linearGradient id="未命名漸層_44-8" x1="169.59" y1="244.83" x2="201.72" y2="244.83" xlink:href="#未命名漸層_44"/><linearGradient id="未命名漸層_47-9" x1="163.89" y1="259.66" x2="176.3" y2="259.66" xlink:href="#未命名漸層_47"/><linearGradient id="未命名漸層_44-9" x1="163.39" y1="259.66" x2="176.8" y2="259.66" xlink:href="#未命名漸層_44"/><linearGradient id="未命名漸層_47-10" x1="144.72" y1="98.16" x2="169.17" y2="98.16" xlink:href="#未命名漸層_47"/><linearGradient id="未命名漸層_44-10" x1="144.22" y1="98.16" x2="169.67" y2="98.16" xlink:href="#未命名漸層_44"/><linearGradient id="未命名漸層_47-11" x1="156.21" y1="105.81" x2="157.68" y2="105.81" xlink:href="#未命名漸層_47"/><linearGradient id="未命名漸層_44-11" x1="155.71" y1="105.81" x2="158.18" y2="105.81" xlink:href="#未命名漸層_44"/><linearGradient id="未命名漸層_47-12" x1="154.31" y1="121.32" x2="159.58" y2="121.32" xlink:href="#未命名漸層_47"/><linearGradient id="未命名漸層_44-12" x1="153.81" y1="121.32" x2="160.08" y2="121.32" xlink:href="#未命名漸層_44"/><linearGradient id="未命名漸層_47-13" x1="144.87" y1="366.29" x2="169.32" y2="366.29" xlink:href="#未命名漸層_47"/><linearGradient id="未命名漸層_44-13" x1="144.37" y1="366.29" x2="169.82" y2="366.29" xlink:href="#未命名漸層_44"/><linearGradient id="未命名漸層_47-14" x1="156.36" y1="358.64" x2="157.83" y2="358.64" xlink:href="#未命名漸層_47"/><linearGradient id="未命名漸層_44-14" x1="155.86" y1="358.64" x2="158.33" y2="358.64" xlink:href="#未命名漸層_44"/><linearGradient id="未命名漸層_47-15" x1="154.46" y1="343.13" x2="159.72" y2="343.13" xlink:href="#未命名漸層_47"/><linearGradient id="未命名漸層_44-15" x1="153.96" y1="343.13" x2="160.22" y2="343.13" xlink:href="#未命名漸層_44"/><linearGradient id="未命名漸層_47-16" x1="156.36" y1="203.22" x2="157.83" y2="203.22" xlink:href="#未命名漸層_47"/><linearGradient id="未命名漸層_44-16" x1="155.86" y1="203.22" x2="158.33" y2="203.22" xlink:href="#未命名漸層_44"/><linearGradient id="未命名漸層_47-17" x1="153.48" y1="208.71" x2="160.69" y2="208.71" xlink:href="#未命名漸層_47"/><linearGradient id="未命名漸層_44-17" x1="152.98" y1="208.71" x2="161.19" y2="208.71" xlink:href="#未命名漸層_44"/><linearGradient id="未命名漸層_47-18" x1="156.44" y1="184.13" x2="157.91" y2="184.13" xlink:href="#未命名漸層_47"/><linearGradient id="未命名漸層_44-18" x1="155.94" y1="184.13" x2="158.41" y2="184.13" xlink:href="#未命名漸層_44"/><linearGradient id="未命名漸層_47-19" x1="156.44" y1="193.01" x2="157.91" y2="193.01" xlink:href="#未命名漸層_47"/><linearGradient id="未命名漸層_44-19" x1="155.94" y1="193.01" x2="158.41" y2="193.01" xlink:href="#未命名漸層_44"/><linearGradient id="未命名漸層_47-20" x1="158.72" y1="185.43" x2="161.91" y2="185.43" gradientTransform="translate(178.08 -59.05) rotate(45)" xlink:href="#未命名漸層_47"/><linearGradient id="未命名漸層_44-20" x1="158.01" y1="185.43" x2="162.62" y2="185.43" gradientTransform="translate(178.08 -59.05) rotate(45)" xlink:href="#未命名漸層_44"/><linearGradient id="未命名漸層_47-21" x1="152.44" y1="191.71" x2="155.63" y2="191.71" gradientTransform="translate(180.68 -52.77) rotate(45)" xlink:href="#未命名漸層_47"/><linearGradient id="未命名漸層_44-21" x1="151.73" y1="191.71" x2="156.34" y2="191.71" gradientTransform="translate(180.68 -52.77) rotate(45)" xlink:href="#未命名漸層_44"/><linearGradient id="未命名漸層_47-22" x1="160" y1="188.57" x2="163.05" y2="188.57" xlink:href="#未命名漸層_47"/><linearGradient id="未命名漸層_44-22" x1="159.5" y1="188.57" x2="163.55" y2="188.57" xlink:href="#未命名漸層_44"/><linearGradient id="未命名漸層_47-23" x1="151.12" y1="188.57" x2="154.17" y2="188.57" xlink:href="#未命名漸層_47"/><linearGradient id="未命名漸層_44-23" x1="150.62" y1="188.57" x2="154.67" y2="188.57" xlink:href="#未命名漸層_44"/><linearGradient id="未命名漸層_47-24" x1="158.72" y1="191.71" x2="161.91" y2="191.71" gradientTransform="translate(182.56 -57.21) rotate(45.01)" xlink:href="#未命名漸層_47"/><linearGradient id="未命名漸層_44-24" x1="158.01" y1="191.71" x2="162.62" y2="191.71" gradientTransform="translate(182.56 -57.21) rotate(45.01)" xlink:href="#未命名漸層_44"/><linearGradient id="未命名漸層_47-25" x1="152.44" y1="185.43" x2="155.63" y2="185.43" gradientTransform="translate(176.24 -54.61) rotate(45)" xlink:href="#未命名漸層_47"/><linearGradient id="未命名漸層_44-25" x1="151.73" y1="185.43" x2="156.34" y2="185.43" gradientTransform="translate(176.24 -54.61) rotate(45)" xlink:href="#未命名漸層_44"/></defs><g id="圖層_2" data-name="圖層 2"><g id="圖層_1-2" data-name="圖層 1"><rect class="cls-1" width="316.89" height="472.49" rx="25.28"/><path class="cls-2" d="M260.5,440.69H46.39A16.89,16.89,0,0,1,29.51,423.8V63.85"/><path class="cls-3" d="M56.09,33.65H270.28a16.88,16.88,0,0,1,16.89,16.88V410.12"/><circle class="cls-4" cx="47.56" cy="33.65" r="8.53"/><circle class="cls-5" cx="29.51" cy="55.33" r="8.53"/><path class="cls-6" d="M82.34,39c-3,0-12.71-5.46-12.71-5.46s9.69-5.47,12.71-5.47,11.13,5.47,11.13,5.47S85.35,39,82.34,39Z"/><path class="cls-7" d="M24.06,87.73c0-3,5.46-12.71,5.46-12.71S35,84.71,35,87.73s-5.47,11.13-5.47,11.13S24.06,90.74,24.06,87.73Z"/><circle class="cls-8" cx="35.14" cy="41.69" r="14.57"/><circle class="cls-9" cx="269.06" cy="440.33" r="8.53"/><circle class="cls-10" cx="287.11" cy="418.65" r="8.53"/><path class="cls-11" d="M234.29,435c3,0,12.7,5.46,12.7,5.46s-9.69,5.47-12.7,5.47-11.14-5.47-11.14-5.47S231.27,435,234.29,435Z"/><path class="cls-12" d="M292.56,386.25c0,3-5.46,12.7-5.46,12.7s-5.47-9.68-5.47-12.7,5.47-11.13,5.47-11.13S292.56,383.23,292.56,386.25Z"/><circle class="cls-13" cx="281.48" cy="432.29" r="14.57"/><path class="cls-14" d="M157.1,141.2l-.5-.47a87.8,87.8,0,0,1-11-12.47c-.23-.3-.44-.61-.65-.94a89.21,89.21,0,0,1-10.16-18.46l-.11-.11v-.16c-.1-.23-.19-.48-.28-.72l-.18-.44a24.6,24.6,0,0,1-1.39-8.14,24.28,24.28,0,0,1,48.56,0,24.6,24.6,0,0,1-1.39,8.14l-.15.37c-.11.3-.21.55-.31.79v.16l-.11.11a88.89,88.89,0,0,1-10,18.31c-.23.35-.49.74-.76,1.1a89.15,89.15,0,0,1-11,12.46Zm-21-32.9a87.61,87.61,0,0,0,10,18.21c.21.33.4.61.61.88a86.11,86.11,0,0,0,10.34,11.8,88.31,88.31,0,0,0,10.32-11.79q.39-.53.72-1.05a87.72,87.72,0,0,0,9.92-18l.05-.13h0l.06-.14c.09-.22.18-.45.26-.68l.17-.42a23.1,23.1,0,0,0,1.3-7.64,22.81,22.81,0,0,0-45.62,0,23.18,23.18,0,0,0,1.3,7.64l.14.34c.11.3.2.53.3.76Z"/><path class="cls-15" d="M157.08,325a68,68,0,0,1-63.24-92.79l.06-.15a255.45,255.45,0,0,1,31.19-56.64.85.85,0,0,0,.16-.22,257.59,257.59,0,0,1,31.35-35.47l.5-.47.5.47A257.65,257.65,0,0,1,220.27,232l.07.16A68,68,0,0,1,157.08,325ZM95.17,232.8a66.47,66.47,0,1,0,123.87.06h0l-.07-.19a256.32,256.32,0,0,0-61.86-91.43A256.5,256.5,0,0,0,126.48,176a1.52,1.52,0,0,1-.23.32,253.75,253.75,0,0,0-31,56.37Z"/><path class="cls-16" d="M157.08,389.43A24.3,24.3,0,0,1,134.2,357l.15-.38c.14-.37.25-.65.37-.93a89,89,0,0,1,10.11-18.44c.22-.35.48-.73.76-1.1a89,89,0,0,1,11-12.46l.5-.47.51.47a87.12,87.12,0,0,1,11,12.47,10.44,10.44,0,0,1,.65.94,89.3,89.3,0,0,1,10.22,18.6q.17.4.33.84l.18.46a24.3,24.3,0,0,1-22.9,32.4Zm0-64.16a86.83,86.83,0,0,0-10.32,11.78c-.26.35-.5.7-.73,1.05a87.65,87.65,0,0,0-10,18.18c-.12.28-.22.54-.32.81l-.18.44a22.81,22.81,0,1,0,43,0l-.14-.35c-.13-.35-.23-.61-.34-.87A88,88,0,0,0,168,337.94c-.21-.33-.4-.6-.61-.88A86,86,0,0,0,157.09,325.27Z"/><path class="cls-17" d="M157.08,325.23l-.5-.47a257.51,257.51,0,0,1-62.67-92.33l-.07-.15a67.94,67.94,0,1,1,126.5,0l-.06.15a255.23,255.23,0,0,1-31.19,56.64,1.65,1.65,0,0,0-.16.22,256.86,256.86,0,0,1-31.34,35.47ZM95.15,231.6l.08.18a256,256,0,0,0,61.86,91.44A257,257,0,0,0,187.7,288.5a2.2,2.2,0,0,1,.24-.34,253.43,253.43,0,0,0,31-56.36l.07-.15a66.47,66.47,0,1,0-123.87-.05Z"/><circle class="cls-18" cx="157.09" cy="227.15" r="18.59"/><path class="cls-19" d="M145.27,260.4a31.16,31.16,0,0,1-31.12-31.13h1.47a29.68,29.68,0,0,0,29.65,29.66Z"/><path class="cls-20" d="M145.27,265.87a6.21,6.21,0,1,1,6.21-6.21A6.21,6.21,0,0,1,145.27,265.87Zm0-11a4.74,4.74,0,1,0,4.74,4.74A4.75,4.75,0,0,0,145.27,254.92Z"/><path class="cls-21" d="M170.09,260.4v-1.47a29.69,29.69,0,0,0,29.66-29.66h1.47A31.17,31.17,0,0,1,170.09,260.4Z"/><path class="cls-22" d="M170.09,265.87a6.21,6.21,0,1,1,6.21-6.21A6.21,6.21,0,0,1,170.09,265.87Zm0-11a4.74,4.74,0,1,0,4.74,4.74A4.75,4.75,0,0,0,170.09,254.92Z"/><rect class="cls-23" x="144.72" y="97.43" width="24.45" height="1.47"/><rect class="cls-24" x="156.21" y="98.16" width="1.47" height="15.3"/><rect class="cls-25" x="154.31" y="120.59" width="5.26" height="1.47"/><rect class="cls-26" x="144.87" y="365.56" width="24.45" height="1.47"/><rect class="cls-27" x="156.36" y="350.99" width="1.47" height="15.3"/><rect class="cls-28" x="154.46" y="342.4" width="5.26" height="1.47"/><rect class="cls-29" x="156.36" y="198.38" width="1.47" height="9.68"/><rect class="cls-30" x="153.48" y="206.29" width="7.2" height="4.84"/><rect class="cls-31" x="156.44" y="182.61" width="1.47" height="3.05"/><rect class="cls-32" x="156.44" y="191.49" width="1.47" height="3.05"/><rect class="cls-33" x="158.79" y="184.7" width="3.05" height="1.47" transform="translate(-84.16 167.67) rotate(-45)"/><rect class="cls-34" x="152.51" y="190.98" width="3.05" height="1.47" transform="translate(-90.45 165.07) rotate(-45)"/><rect class="cls-35" x="160" y="187.84" width="3.05" height="1.47"/><rect class="cls-36" x="151.12" y="187.84" width="3.05" height="1.47"/><rect class="cls-37" x="159.58" y="190.19" width="1.47" height="3.05" transform="translate(-88.61 169.55) rotate(-45.01)"/><rect class="cls-38" x="153.3" y="183.91" width="1.47" height="3.05" transform="translate(-86 163.23) rotate(-45)"/></g></g></svg>