<svg xmlns="http://www.w3.org/2000/svg" xmlns:xlink="http://www.w3.org/1999/xlink" width="316.89" height="472.49" viewBox="0 0 316.89 472.49"><defs><style>.cls-1{fill:url(#未命名漸層_191);}.cls-10,.cls-13,.cls-2,.cls-3,.cls-4,.cls-5,.cls-8,.cls-9{fill:none;stroke-width:2px;}.cls-10,.cls-13,.cls-14,.cls-15,.cls-16,.cls-17,.cls-18,.cls-19,.cls-2,.cls-20,.cls-21,.cls-22,.cls-23,.cls-24,.cls-25,.cls-26,.cls-27,.cls-28,.cls-29,.cls-3,.cls-30,.cls-31,.cls-32,.cls-33,.cls-34,.cls-35,.cls-36,.cls-37,.cls-38,.cls-39,.cls-4,.cls-5,.cls-8,.cls-9{stroke-miterlimit:10;}.cls-2{stroke:url(#未命名漸層_42);}.cls-3{stroke:url(#未命名漸層_42-2);}.cls-4{stroke:url(#未命名漸層_42-3);}.cls-5{stroke:url(#未命名漸層_42-4);}.cls-6{fill:url(#未命名漸層_42-5);}.cls-7{fill:url(#未命名漸層_42-6);}.cls-8{stroke:url(#未命名漸層_42-7);}.cls-9{stroke:url(#未命名漸層_42-8);}.cls-10{stroke:url(#未命名漸層_42-9);}.cls-11{fill:url(#未命名漸層_42-10);}.cls-12{fill:url(#未命名漸層_42-11);}.cls-13{stroke:url(#未命名漸層_42-12);}.cls-14{fill:url(#未命名漸層_47);stroke:url(#未命名漸層_44);}.cls-15{fill:url(#未命名漸層_47-2);stroke:url(#未命名漸層_44-2);}.cls-16{fill:url(#未命名漸層_47-3);stroke:url(#未命名漸層_44-3);}.cls-17{fill:url(#未命名漸層_47-4);stroke:url(#未命名漸層_44-4);}.cls-18{fill:url(#未命名漸層_47-5);stroke:url(#未命名漸層_44-5);}.cls-19{fill:url(#未命名漸層_47-6);stroke:url(#未命名漸層_44-6);}.cls-20{fill:url(#未命名漸層_47-7);stroke:url(#未命名漸層_44-7);}.cls-21{fill:url(#未命名漸層_47-8);stroke:url(#未命名漸層_44-8);}.cls-22{fill:url(#未命名漸層_47-9);stroke:url(#未命名漸層_44-9);}.cls-23{fill:url(#未命名漸層_47-10);stroke:url(#未命名漸層_44-10);}.cls-24{fill:url(#未命名漸層_47-11);stroke:url(#未命名漸層_44-11);}.cls-25{fill:url(#未命名漸層_47-12);stroke:url(#未命名漸層_44-12);}.cls-26{fill:url(#未命名漸層_47-13);stroke:url(#未命名漸層_44-13);}.cls-27{fill:url(#未命名漸層_47-14);stroke:url(#未命名漸層_44-14);}.cls-28{fill:url(#未命名漸層_47-15);stroke:url(#未命名漸層_44-15);}.cls-29{fill:url(#未命名漸層_47-16);stroke:url(#未命名漸層_44-16);}.cls-30{fill:url(#未命名漸層_47-17);stroke:url(#未命名漸層_44-17);}.cls-31{fill:url(#未命名漸層_47-18);stroke:url(#未命名漸層_44-18);}.cls-32{fill:url(#未命名漸層_47-19);stroke:url(#未命名漸層_44-19);}.cls-33{fill:url(#未命名漸層_47-20);stroke:url(#未命名漸層_44-20);}.cls-34{fill:url(#未命名漸層_47-21);stroke:url(#未命名漸層_44-21);}.cls-35{fill:url(#未命名漸層_47-22);stroke:url(#未命名漸層_44-22);}.cls-36{fill:url(#未命名漸層_47-23);stroke:url(#未命名漸層_44-23);}.cls-37{fill:url(#未命名漸層_47-24);stroke:url(#未命名漸層_44-24);}.cls-38{fill:url(#未命名漸層_47-25);stroke:url(#未命名漸層_44-25);}.cls-39{fill:url(#未命名漸層_47-26);stroke:url(#未命名漸層_44-26);}</style><linearGradient id="未命名漸層_191" x1="29.8" y1="4.68" x2="290.74" y2="474.37" gradientUnits="userSpaceOnUse"><stop offset="0" stop-color="#2e3453"/><stop offset="0.16" stop-color="#313f76"/><stop offset="0.29" stop-color="#32468d"/><stop offset="0.38" stop-color="#334996"/><stop offset="0.52" stop-color="#324384"/><stop offset="0.83" stop-color="#2f3860"/><stop offset="1" stop-color="#2e3453"/></linearGradient><linearGradient id="未命名漸層_42" x1="30.69" y1="253.01" x2="262.68" y2="253.01" gradientUnits="userSpaceOnUse"><stop offset="0" stop-color="#e8c5df"/><stop offset="0.96" stop-color="#a2ddd9"/></linearGradient><linearGradient id="未命名漸層_42-2" x1="58.27" y1="221.62" x2="290.35" y2="221.62" xlink:href="#未命名漸層_42"/><linearGradient id="未命名漸層_42-3" x1="40.22" y1="33.89" x2="59.27" y2="33.89" xlink:href="#未命名漸層_42"/><linearGradient id="未命名漸層_42-4" x1="22.17" y1="55.57" x2="41.22" y2="55.57" xlink:href="#未命名漸層_42"/><linearGradient id="未命名漸層_42-5" x1="71.82" y1="33.78" x2="95.65" y2="33.78" xlink:href="#未命名漸層_42"/><linearGradient id="未命名漸層_42-6" x1="26.24" y1="87.18" x2="37.17" y2="87.18" xlink:href="#未命名漸層_42"/><linearGradient id="未命名漸層_42-7" x1="21.75" y1="41.93" x2="52.9" y2="41.93" xlink:href="#未命名漸層_42"/><linearGradient id="未命名漸層_42-8" x1="261.72" y1="440.57" x2="280.77" y2="440.57" xlink:href="#未命名漸層_42"/><linearGradient id="未命名漸層_42-9" x1="279.77" y1="418.89" x2="298.83" y2="418.89" xlink:href="#未命名漸層_42"/><linearGradient id="未命名漸層_42-10" x1="225.34" y1="440.68" x2="249.18" y2="440.68" xlink:href="#未命名漸層_42"/><linearGradient id="未命名漸層_42-11" x1="283.82" y1="387.27" x2="294.75" y2="387.27" xlink:href="#未命名漸層_42"/><linearGradient id="未命名漸層_42-12" x1="268.09" y1="432.53" x2="299.24" y2="432.53" xlink:href="#未命名漸層_42"/><linearGradient id="未命名漸層_47" x1="143.25" y1="181.84" x2="188.39" y2="181.84" gradientUnits="userSpaceOnUse"><stop offset="0" stop-color="#2e3453"/><stop offset="1" stop-color="#83a2ce"/></linearGradient><linearGradient id="未命名漸層_44" x1="142.75" y1="181.94" x2="188.89" y2="181.94" gradientUnits="userSpaceOnUse"><stop offset="0" stop-color="#fff"/><stop offset="1" stop-color="#83a2ce"/></linearGradient><linearGradient id="未命名漸層_47-2" x1="102.67" y1="297.08" x2="228.99" y2="297.08" xlink:href="#未命名漸層_47"/><linearGradient id="未命名漸層_44-2" x1="102.17" y1="296.99" x2="229.49" y2="296.99" xlink:href="#未命名漸層_44"/><linearGradient id="未命名漸層_47-3" x1="98.4" y1="326.3" x2="111.83" y2="326.3" xlink:href="#未命名漸層_47"/><linearGradient id="未命名漸層_44-3" x1="97.9" y1="326.3" x2="112.33" y2="326.3" xlink:href="#未命名漸層_44"/><linearGradient id="未命名漸層_47-4" x1="153.08" y1="383.04" x2="166.51" y2="383.04" xlink:href="#未命名漸層_47"/><linearGradient id="未命名漸層_44-4" x1="152.58" y1="383.04" x2="167.01" y2="383.04" xlink:href="#未命名漸層_44"/><linearGradient id="未命名漸層_47-5" x1="165.14" y1="182.3" x2="166.5" y2="182.3" xlink:href="#未命名漸層_47"/><linearGradient id="未命名漸層_44-5" x1="164.64" y1="182.3" x2="167" y2="182.3" xlink:href="#未命名漸層_44"/><linearGradient id="未命名漸層_47-6" x1="164.12" y1="195.61" x2="167.52" y2="195.61" xlink:href="#未命名漸層_47"/><linearGradient id="未命名漸層_44-6" x1="163.62" y1="195.61" x2="168.02" y2="195.61" xlink:href="#未命名漸層_44"/><linearGradient id="未命名漸層_47-7" x1="130.57" y1="359.33" x2="143.78" y2="359.33" xlink:href="#未命名漸層_47"/><linearGradient id="未命名漸層_44-7" x1="129.88" y1="359.45" x2="144.76" y2="359.45" xlink:href="#未命名漸層_44"/><linearGradient id="未命名漸層_47-8" x1="137.84" y1="383.32" x2="181.92" y2="383.32" gradientTransform="translate(309.08 -4.29) rotate(43.69)" xlink:href="#未命名漸層_47"/><linearGradient id="未命名漸層_44-8" x1="137.14" y1="383.32" x2="182.63" y2="383.32" gradientTransform="translate(309.08 -4.29) rotate(43.69)" xlink:href="#未命名漸層_44"/><linearGradient id="未命名漸層_47-9" x1="172.15" y1="405.02" x2="181.18" y2="405.02" xlink:href="#未命名漸層_47"/><linearGradient id="未命名漸層_44-9" x1="171.64" y1="405.02" x2="181.69" y2="405.02" xlink:href="#未命名漸層_44"/><linearGradient id="未命名漸層_47-10" x1="171.95" y1="401.08" x2="189.63" y2="401.08" xlink:href="#未命名漸層_47"/><linearGradient id="未命名漸層_44-10" x1="170.82" y1="401.08" x2="190.76" y2="401.08" xlink:href="#未命名漸層_44"/><linearGradient id="未命名漸層_47-11" x1="149.19" y1="172.59" x2="163.05" y2="172.59" xlink:href="#未命名漸層_47"/><linearGradient id="未命名漸層_44-11" x1="148.5" y1="172.69" x2="163.76" y2="172.69" xlink:href="#未命名漸層_44"/><linearGradient id="未命名漸層_47-12" x1="167.11" y1="172.59" x2="180.97" y2="172.59" xlink:href="#未命名漸層_47"/><linearGradient id="未命名漸層_44-12" x1="166.4" y1="172.69" x2="181.65" y2="172.69" xlink:href="#未命名漸層_44"/><linearGradient id="未命名漸層_47-13" x1="143.62" y1="293.16" x2="188.76" y2="293.16" xlink:href="#未命名漸層_47"/><linearGradient id="未命名漸層_44-13" x1="143.12" y1="293.06" x2="189.26" y2="293.06" xlink:href="#未命名漸層_44"/><linearGradient id="未命名漸層_47-14" x1="103.02" y1="177.92" x2="229.34" y2="177.92" xlink:href="#未命名漸層_47"/><linearGradient id="未命名漸層_44-14" x1="102.52" y1="178.02" x2="229.84" y2="178.02" xlink:href="#未命名漸層_44"/><linearGradient id="未命名漸層_47-15" x1="220.18" y1="148.7" x2="233.61" y2="148.7" xlink:href="#未命名漸層_47"/><linearGradient id="未命名漸層_44-15" x1="219.68" y1="148.7" x2="234.11" y2="148.7" xlink:href="#未命名漸層_44"/><linearGradient id="未命名漸層_47-16" x1="165.5" y1="91.96" x2="178.92" y2="91.96" xlink:href="#未命名漸層_47"/><linearGradient id="未命名漸層_44-16" x1="165" y1="91.96" x2="179.42" y2="91.96" xlink:href="#未命名漸層_44"/><linearGradient id="未命名漸層_47-17" x1="165.5" y1="292.7" x2="166.87" y2="292.7" xlink:href="#未命名漸層_47"/><linearGradient id="未命名漸層_44-17" x1="165" y1="292.7" x2="167.37" y2="292.7" xlink:href="#未命名漸層_44"/><linearGradient id="未命名漸層_47-18" x1="164.49" y1="279.39" x2="167.89" y2="279.39" xlink:href="#未命名漸層_47"/><linearGradient id="未命名漸層_44-18" x1="163.99" y1="279.39" x2="168.39" y2="279.39" xlink:href="#未命名漸層_44"/><linearGradient id="未命名漸層_47-19" x1="188.22" y1="115.67" x2="201.44" y2="115.67" xlink:href="#未命名漸層_47"/><linearGradient id="未命名漸層_44-19" x1="187.25" y1="115.55" x2="202.13" y2="115.55" xlink:href="#未命名漸層_44"/><linearGradient id="未命名漸層_47-20" x1="150.09" y1="91.68" x2="194.17" y2="91.68" gradientTransform="translate(111 -93.51) rotate(43.69)" xlink:href="#未命名漸層_47"/><linearGradient id="未命名漸層_44-20" x1="149.38" y1="91.68" x2="194.87" y2="91.68" gradientTransform="translate(111 -93.51) rotate(43.69)" xlink:href="#未命名漸層_44"/><linearGradient id="未命名漸層_47-21" x1="150.83" y1="69.98" x2="159.86" y2="69.98" xlink:href="#未命名漸層_47"/><linearGradient id="未命名漸層_44-21" x1="150.31" y1="69.98" x2="160.37" y2="69.98" xlink:href="#未命名漸層_44"/><linearGradient id="未命名漸層_47-22" x1="142.38" y1="73.93" x2="160.06" y2="73.93" xlink:href="#未命名漸層_47"/><linearGradient id="未命名漸層_44-22" x1="141.25" y1="73.93" x2="161.18" y2="73.93" xlink:href="#未命名漸層_44"/><linearGradient id="未命名漸層_47-23" x1="168.96" y1="302.41" x2="182.82" y2="302.41" xlink:href="#未命名漸層_47"/><linearGradient id="未命名漸層_44-23" x1="168.25" y1="302.31" x2="183.51" y2="302.31" xlink:href="#未命名漸層_44"/><linearGradient id="未命名漸層_47-24" x1="151.04" y1="302.41" x2="164.9" y2="302.41" xlink:href="#未命名漸層_47"/><linearGradient id="未命名漸層_44-24" x1="150.36" y1="302.31" x2="165.61" y2="302.31" xlink:href="#未命名漸層_44"/><linearGradient id="未命名漸層_47-25" x1="146.46" y1="139.52" x2="185.9" y2="139.52" xlink:href="#未命名漸層_47"/><linearGradient id="未命名漸層_44-25" x1="145.96" y1="139.52" x2="186.4" y2="139.52" xlink:href="#未命名漸層_44"/><linearGradient id="未命名漸層_47-26" x1="146.46" y1="336.15" x2="185.9" y2="336.15" xlink:href="#未命名漸層_47"/><linearGradient id="未命名漸層_44-26" x1="145.96" y1="336.15" x2="186.4" y2="336.15" xlink:href="#未命名漸層_44"/></defs><g id="圖層_2" data-name="圖層 2"><g id="圖層_1-2" data-name="圖層 1"><rect class="cls-1" width="316.89" height="472.49" rx="25.28"/><path class="cls-2" d="M262.68,440.93H48.57A16.89,16.89,0,0,1,31.69,424v-360"/><path class="cls-3" d="M58.27,33.89h214.2a16.88,16.88,0,0,1,16.88,16.88V410.36"/><circle class="cls-4" cx="49.75" cy="33.89" r="8.53"/><circle class="cls-5" cx="31.69" cy="55.57" r="8.53"/><path class="cls-6" d="M84.52,39.24c-3,0-12.7-5.46-12.7-5.46s9.68-5.47,12.7-5.47,11.13,5.47,11.13,5.47S87.54,39.24,84.52,39.24Z"/><path class="cls-7" d="M26.24,88c0-3,5.47-12.71,5.47-12.71S37.17,85,37.17,88,31.71,99.1,31.71,99.1,26.24,91,26.24,88Z"/><circle class="cls-8" cx="37.33" cy="41.93" r="14.57"/><circle class="cls-9" cx="271.24" cy="440.57" r="8.53"/><circle class="cls-10" cx="289.3" cy="418.89" r="8.53"/><path class="cls-11" d="M236.47,435.22c3,0,12.71,5.46,12.71,5.46s-9.69,5.47-12.71,5.47-11.13-5.47-11.13-5.47S233.45,435.22,236.47,435.22Z"/><path class="cls-12" d="M294.75,386.49c0,3-5.47,12.7-5.47,12.7s-5.46-9.68-5.46-12.7,5.46-11.13,5.46-11.13S294.75,383.47,294.75,386.49Z"/><circle class="cls-13" cx="283.66" cy="432.53" r="14.57"/><path class="cls-14" d="M165.83,212.61l-.47-.44a81.28,81.28,0,0,1-10.24-11.59q-.31-.42-.6-.87a83.28,83.28,0,0,1-9.5-17.28h0c-.1-.24-.2-.49-.29-.74l-.19-.47a23,23,0,0,1-1.29-7.56,22.57,22.57,0,1,1,43.85,7.56l-.14.35c-.14.37-.24.62-.34.86h0a82.86,82.86,0,0,1-9.4,17.14c-.2.32-.45.68-.7,1a83.25,83.25,0,0,1-10.22,11.58ZM146.33,182A81.71,81.71,0,0,0,155.65,199c.2.31.37.56.57.82a79,79,0,0,0,9.61,11,81.85,81.85,0,0,0,9.59-10.95c.24-.32.47-.65.67-1A81.17,81.17,0,0,0,185.31,182v-.15l.11-.1c.07-.19.15-.38.22-.58l.18-.45a21.21,21.21,0,1,0-40,0l.12.32.28.7.1.1Z"/><path class="cls-15" d="M165.84,383.42v-1.36a61.85,61.85,0,0,0,57.58-84.28h0l-.06-.17a236,236,0,0,0-28.87-52.45,1.57,1.57,0,0,1-.23-.33,238,238,0,0,0-28.42-32.22,238.06,238.06,0,0,0-57.51,85l-.06.14A61.77,61.77,0,0,0,104,320.27h-1.36A63.08,63.08,0,0,1,107,297.15l.06-.14a239.58,239.58,0,0,1,58.27-85.84l.46-.43.47.43a239.47,239.47,0,0,1,29.1,32.92l.16.24a237.06,237.06,0,0,1,29,52.68l.06.14a63.22,63.22,0,0,1-58.8,86.27Z"/><path class="cls-16" d="M105.11,333a6.72,6.72,0,1,1,6.72-6.72A6.73,6.73,0,0,1,105.11,333Zm0-12.07a5.35,5.35,0,1,0,5.35,5.35A5.36,5.36,0,0,0,105.11,321Z"/><path class="cls-17" d="M159.8,389.76a6.72,6.72,0,1,1,6.71-6.71A6.73,6.73,0,0,1,159.8,389.76Zm0-12.07a5.36,5.36,0,1,0,5.35,5.36A5.36,5.36,0,0,0,159.8,377.69Z"/><rect class="cls-18" x="165.14" y="178.43" width="1.36" height="7.74"/><rect class="cls-19" x="164.12" y="194.93" width="3.4" height="1.36"/><path class="cls-20" d="M133.83,366l-3.26-13.38,13.21,3.86Zm-1.38-11.41,2.14,8.79,6.54-6.25Z"/><rect class="cls-21" x="159.2" y="352.13" width="1.36" height="62.38" transform="translate(-220.52 216.61) rotate(-43.69)"/><path class="cls-22" d="M180.39,414l-8.24-8.62.79-9.41,8.24,8.62Zm-6.83-9.12,5.73,6,.48-5.78-5.72-6Z"/><path class="cls-23" d="M180.19,405.56,172,396.94l9.44-.35,8.24,8.62ZM175,398.19l5.72,6,5.8-.22-5.72-6Z"/><path class="cls-24" d="M162.08,174.85l-.48-.48c-.2-.2-5.06-5-11.13-1.34l-.58.35-.7-1.17.58-.35c7-4.18,12.74,1.49,12.8,1.55l.48.48Z"/><path class="cls-25" d="M168.07,174.85l-1-1,.47-.48c.06-.06,5.8-5.73,12.8-1.55l.59.35-.7,1.17-.59-.35c-6.07-3.62-10.92,1.14-11.13,1.34Z"/><path class="cls-26" d="M166.18,323.92a22.6,22.6,0,0,1-21.27-30.13l.14-.35c.1-.28.19-.51.28-.73v-.15l.11-.1a82.57,82.57,0,0,1,9.35-17c.2-.32.45-.68.7-1a83.25,83.25,0,0,1,10.22-11.58l.47-.44.47.44a81.9,81.9,0,0,1,10.24,11.59q.31.42.6.87a83,83,0,0,1,9.45,17.17l.1.1v.15c.09.22.18.44.26.67l.17.41a23,23,0,0,1,1.29,7.56A22.6,22.6,0,0,1,166.18,323.92Zm-19.59-30.69c-.08.21-.16.42-.25.63l-.15.4a21.22,21.22,0,1,0,40,0l-.12-.33c-.11-.27-.19-.49-.28-.7l-.1-.25a82,82,0,0,0-9.32-16.93c-.2-.31-.37-.56-.57-.82a79,79,0,0,0-9.61-11,81.85,81.85,0,0,0-9.59,11c-.24.33-.47.65-.68,1A81.39,81.39,0,0,0,146.7,293l0,.12h0Z"/><path class="cls-27" d="M166.19,264.27l-.47-.44a239.47,239.47,0,0,1-29.1-32.92l-.16-.24a237.13,237.13,0,0,1-29-52.69l-.06-.13a63.22,63.22,0,0,1,58.8-86.27v1.36a61.85,61.85,0,0,0-57.58,84.28l.07.16a235.85,235.85,0,0,0,28.87,52.46,1.88,1.88,0,0,1,.23.33,238.57,238.57,0,0,0,28.42,32.22,238.19,238.19,0,0,0,57.51-85l.06-.13A61.85,61.85,0,0,0,228,154.73h1.37A63.08,63.08,0,0,1,225,177.85l0,.13a239.68,239.68,0,0,1-58.28,85.85Z"/><path class="cls-28" d="M226.9,155.41a6.71,6.71,0,1,1,6.71-6.71A6.72,6.72,0,0,1,226.9,155.41Zm0-12.06a5.35,5.35,0,1,0,5.35,5.35A5.36,5.36,0,0,0,226.9,143.35Z"/><path class="cls-29" d="M172.21,98.67A6.72,6.72,0,1,1,178.92,92,6.72,6.72,0,0,1,172.21,98.67Zm0-12.07A5.36,5.36,0,1,0,177.56,92,5.36,5.36,0,0,0,172.21,86.6Z"/><rect class="cls-30" x="165.5" y="288.83" width="1.36" height="7.74"/><rect class="cls-31" x="164.49" y="278.71" width="3.4" height="1.36"/><path class="cls-32" d="M201.44,122.36l-13.22-3.86,10-9.52Zm-10.57-4.51,8.69,2.54-2.14-8.79Z"/><rect class="cls-33" x="171.45" y="60.49" width="1.36" height="62.38" transform="translate(-15.66 144.3) rotate(-43.69)"/><path class="cls-34" d="M159.07,79l-8.24-8.62.79-9.41,8.24,8.62Zm-6.83-9.12,5.72,6,.49-5.78-5.73-6Z"/><path class="cls-35" d="M150.62,78.42l-8.24-8.63,9.44-.35,8.24,8.62ZM145.46,71l5.72,6,5.8-.22-5.72-6Z"/><path class="cls-36" d="M177,304.67a11.59,11.59,0,0,1-7.51-3.08l-.48-.48,1-1,.48.48c.2.2,5.05,5,11.13,1.34l.58-.35.7,1.17-.58.35A10.25,10.25,0,0,1,177,304.67Z"/><path class="cls-37" d="M156.92,304.67a10.2,10.2,0,0,1-5.29-1.53l-.59-.35.7-1.17.59.35c6.09,3.64,11.08-1.29,11.13-1.34l.48-.48,1,1-.47.48A11.71,11.71,0,0,1,156.92,304.67Z"/><path class="cls-38" d="M166.18,146c-9.56,0-19.72-2.27-19.72-6.49s10.16-6.5,19.72-6.5,19.72,2.27,19.72,6.5S175.74,146,166.18,146Zm0-11.63c-10.82,0-18.36,2.71-18.36,5.14s7.54,5.13,18.36,5.13,18.35-2.71,18.35-5.13S177,134.38,166.18,134.38Z"/><path class="cls-39" d="M166.18,342.65c-9.56,0-19.72-2.28-19.72-6.5s10.16-6.49,19.72-6.49,19.72,2.27,19.72,6.49S175.74,342.65,166.18,342.65Zm0-11.63c-10.82,0-18.36,2.7-18.36,5.13s7.54,5.14,18.36,5.14,18.35-2.71,18.35-5.14S177,331,166.18,331Z"/></g></g></svg>