<svg xmlns="http://www.w3.org/2000/svg" xmlns:xlink="http://www.w3.org/1999/xlink" width="316.89" height="472.49" viewBox="0 0 316.89 472.49"><defs><style>.cls-1{fill:url(#未命名漸層_191);}.cls-10,.cls-13,.cls-2,.cls-3,.cls-4,.cls-5,.cls-8,.cls-9{fill:none;stroke-width:2px;}.cls-10,.cls-13,.cls-14,.cls-15,.cls-16,.cls-17,.cls-18,.cls-19,.cls-2,.cls-20,.cls-21,.cls-22,.cls-23,.cls-24,.cls-25,.cls-26,.cls-27,.cls-28,.cls-29,.cls-3,.cls-30,.cls-31,.cls-32,.cls-33,.cls-4,.cls-5,.cls-8,.cls-9{stroke-miterlimit:10;}.cls-2{stroke:url(#未命名漸層_42);}.cls-3{stroke:url(#未命名漸層_42-2);}.cls-4{stroke:url(#未命名漸層_42-3);}.cls-5{stroke:url(#未命名漸層_42-4);}.cls-6{fill:url(#未命名漸層_42-5);}.cls-7{fill:url(#未命名漸層_42-6);}.cls-8{stroke:url(#未命名漸層_42-7);}.cls-9{stroke:url(#未命名漸層_42-8);}.cls-10{stroke:url(#未命名漸層_42-9);}.cls-11{fill:url(#未命名漸層_42-10);}.cls-12{fill:url(#未命名漸層_42-11);}.cls-13{stroke:url(#未命名漸層_42-12);}.cls-14{fill:url(#未命名漸層_47);stroke:url(#未命名漸層_44);}.cls-15{fill:url(#未命名漸層_47-2);stroke:url(#未命名漸層_44-2);}.cls-16{fill:url(#未命名漸層_47-3);stroke:url(#未命名漸層_44-3);}.cls-17{fill:url(#未命名漸層_47-4);stroke:url(#未命名漸層_44-4);}.cls-18{fill:url(#未命名漸層_47-5);stroke:url(#未命名漸層_44-5);}.cls-19{fill:url(#未命名漸層_47-6);stroke:url(#未命名漸層_44-6);}.cls-20{fill:url(#未命名漸層_47-7);stroke:url(#未命名漸層_44-7);}.cls-21{fill:url(#未命名漸層_47-8);stroke:url(#未命名漸層_44-8);}.cls-22{fill:url(#未命名漸層_47-9);stroke:url(#未命名漸層_44-9);}.cls-23{fill:url(#未命名漸層_47-10);stroke:url(#未命名漸層_44-10);}.cls-24{fill:url(#未命名漸層_47-11);stroke:url(#未命名漸層_44-11);}.cls-25{fill:url(#未命名漸層_47-12);stroke:url(#未命名漸層_44-12);}.cls-26{fill:url(#未命名漸層_47-13);stroke:url(#未命名漸層_44-13);}.cls-27{fill:url(#未命名漸層_47-14);stroke:url(#未命名漸層_44-14);}.cls-28{fill:url(#未命名漸層_47-15);stroke:url(#未命名漸層_44-15);}.cls-29{fill:url(#未命名漸層_47-16);stroke:url(#未命名漸層_44-16);}.cls-30{fill:url(#未命名漸層_47-17);stroke:url(#未命名漸層_44-17);}.cls-31{fill:url(#未命名漸層_47-18);stroke:url(#未命名漸層_44-18);}.cls-32{fill:url(#未命名漸層_47-19);stroke:url(#未命名漸層_44-19);}.cls-33{fill:url(#未命名漸層_47-20);stroke:url(#未命名漸層_44-20);}</style><linearGradient id="未命名漸層_191" x1="29.8" y1="4.68" x2="290.74" y2="474.37" gradientUnits="userSpaceOnUse"><stop offset="0" stop-color="#2e3453"/><stop offset="0.16" stop-color="#313f76"/><stop offset="0.29" stop-color="#32468d"/><stop offset="0.38" stop-color="#334996"/><stop offset="0.52" stop-color="#324384"/><stop offset="0.83" stop-color="#2f3860"/><stop offset="1" stop-color="#2e3453"/></linearGradient><linearGradient id="未命名漸層_42" x1="28.94" y1="252.63" x2="260.93" y2="252.63" gradientUnits="userSpaceOnUse"><stop offset="0" stop-color="#e8c5df"/><stop offset="0.96" stop-color="#a2ddd9"/></linearGradient><linearGradient id="未命名漸層_42-2" x1="56.52" y1="221.25" x2="288.6" y2="221.25" xlink:href="#未命名漸層_42"/><linearGradient id="未命名漸層_42-3" x1="38.47" y1="33.51" x2="57.52" y2="33.51" xlink:href="#未命名漸層_42"/><linearGradient id="未命名漸層_42-4" x1="20.41" y1="55.19" x2="39.46" y2="55.19" xlink:href="#未命名漸層_42"/><linearGradient id="未命名漸層_42-5" x1="70.06" y1="33.4" x2="93.9" y2="33.4" xlink:href="#未命名漸層_42"/><linearGradient id="未命名漸層_42-6" x1="24.49" y1="86.8" x2="35.42" y2="86.8" xlink:href="#未命名漸層_42"/><linearGradient id="未命名漸層_42-7" x1="20" y1="41.55" x2="51.15" y2="41.55" xlink:href="#未命名漸層_42"/><linearGradient id="未命名漸層_42-8" x1="259.96" y1="440.19" x2="279.01" y2="440.19" xlink:href="#未命名漸層_42"/><linearGradient id="未命名漸層_42-9" x1="278.02" y1="418.51" x2="297.07" y2="418.51" xlink:href="#未命名漸層_42"/><linearGradient id="未命名漸層_42-10" x1="223.58" y1="440.3" x2="247.42" y2="440.3" xlink:href="#未命名漸層_42"/><linearGradient id="未命名漸層_42-11" x1="282.06" y1="386.9" x2="292.99" y2="386.9" xlink:href="#未命名漸層_42"/><linearGradient id="未命名漸層_42-12" x1="266.33" y1="432.15" x2="297.48" y2="432.15" xlink:href="#未命名漸層_42"/><linearGradient id="未命名漸層_47" x1="131.57" y1="175.69" x2="180.13" y2="175.69" gradientUnits="userSpaceOnUse"><stop offset="0" stop-color="#2e3453"/><stop offset="1" stop-color="#83a2ce"/></linearGradient><linearGradient id="未命名漸層_44" x1="131.07" y1="175.79" x2="180.63" y2="175.79" gradientUnits="userSpaceOnUse"><stop offset="0" stop-color="#fff"/><stop offset="1" stop-color="#83a2ce"/></linearGradient><linearGradient id="未命名漸層_47-2" x1="87.92" y1="299.64" x2="223.8" y2="299.64" xlink:href="#未命名漸層_47"/><linearGradient id="未命名漸層_44-2" x1="87.42" y1="299.55" x2="224.3" y2="299.55" xlink:href="#未命名漸層_44"/><linearGradient id="未命名漸層_47-3" x1="132.71" y1="391.78" x2="156.59" y2="391.78" xlink:href="#未命名漸層_47"/><linearGradient id="未命名漸層_44-3" x1="132.21" y1="391.78" x2="157.09" y2="391.78" xlink:href="#未命名漸層_44"/><linearGradient id="未命名漸層_47-4" x1="138.3" y1="391.78" x2="151.01" y2="391.78" xlink:href="#未命名漸層_47"/><linearGradient id="未命名漸層_44-4" x1="137.8" y1="391.78" x2="151.51" y2="391.78" xlink:href="#未命名漸層_44"/><linearGradient id="未命名漸層_47-5" x1="77.87" y1="335.8" x2="101.76" y2="335.8" xlink:href="#未命名漸層_47"/><linearGradient id="未命名漸層_44-5" x1="77.37" y1="335.8" x2="102.26" y2="335.8" xlink:href="#未命名漸層_44"/><linearGradient id="未命名漸層_47-6" x1="83.46" y1="335.8" x2="96.17" y2="335.8" xlink:href="#未命名漸層_47"/><linearGradient id="未命名漸層_44-6" x1="82.96" y1="335.8" x2="96.67" y2="335.8" xlink:href="#未命名漸層_44"/><linearGradient id="未命名漸層_47-7" x1="155.12" y1="178.55" x2="156.59" y2="178.55" xlink:href="#未命名漸層_47"/><linearGradient id="未命名漸層_44-7" x1="154.62" y1="178.55" x2="157.09" y2="178.55" xlink:href="#未命名漸層_44"/><linearGradient id="未命名漸層_47-8" x1="157.88" y1="192.35" x2="179.12" y2="192.35" xlink:href="#未命名漸層_47"/><linearGradient id="未命名漸層_44-8" x1="157.38" y1="192.35" x2="179.62" y2="192.35" xlink:href="#未命名漸層_44"/><linearGradient id="未命名漸層_47-9" x1="180.86" y1="185.85" x2="184.45" y2="185.85" xlink:href="#未命名漸層_47"/><linearGradient id="未命名漸層_44-9" x1="180.36" y1="185.85" x2="184.95" y2="185.85" xlink:href="#未命名漸層_44"/><linearGradient id="未命名漸層_47-10" x1="133.6" y1="161.25" x2="178.1" y2="161.25" xlink:href="#未命名漸層_47"/><linearGradient id="未命名漸層_44-10" x1="133" y1="161.21" x2="178.7" y2="161.21" xlink:href="#未命名漸層_44"/><linearGradient id="未命名漸層_47-11" x1="133" y1="296.8" x2="181.55" y2="296.8" xlink:href="#未命名漸層_47"/><linearGradient id="未命名漸層_44-11" x1="132.5" y1="296.7" x2="182.05" y2="296.7" xlink:href="#未命名漸層_44"/><linearGradient id="未命名漸層_47-12" x1="89.33" y1="172.85" x2="225.2" y2="172.85" xlink:href="#未命名漸層_47"/><linearGradient id="未命名漸層_44-12" x1="88.83" y1="172.94" x2="225.7" y2="172.94" xlink:href="#未命名漸層_44"/><linearGradient id="未命名漸層_47-13" x1="156.53" y1="80.71" x2="180.42" y2="80.71" xlink:href="#未命名漸層_47"/><linearGradient id="未命名漸層_44-13" x1="156.03" y1="80.71" x2="180.92" y2="80.71" xlink:href="#未命名漸層_44"/><linearGradient id="未命名漸層_47-14" x1="162.12" y1="80.71" x2="174.83" y2="80.71" xlink:href="#未命名漸層_47"/><linearGradient id="未命名漸層_44-14" x1="161.62" y1="80.71" x2="175.33" y2="80.71" xlink:href="#未命名漸層_44"/><linearGradient id="未命名漸層_47-15" x1="211.36" y1="136.69" x2="235.25" y2="136.69" xlink:href="#未命名漸層_47"/><linearGradient id="未命名漸層_44-15" x1="210.86" y1="136.69" x2="235.75" y2="136.69" xlink:href="#未命名漸層_44"/><linearGradient id="未命名漸層_47-16" x1="216.95" y1="136.69" x2="229.66" y2="136.69" xlink:href="#未命名漸層_47"/><linearGradient id="未命名漸層_44-16" x1="216.45" y1="136.69" x2="230.16" y2="136.69" xlink:href="#未命名漸層_44"/><linearGradient id="未命名漸層_47-17" x1="156.54" y1="293.94" x2="158.01" y2="293.94" xlink:href="#未命名漸層_47"/><linearGradient id="未命名漸層_44-17" x1="156.04" y1="293.94" x2="158.51" y2="293.94" xlink:href="#未命名漸層_44"/><linearGradient id="未命名漸層_47-18" x1="134" y1="280.14" x2="155.25" y2="280.14" gradientTransform="translate(289.26 560.27) rotate(-180)" xlink:href="#未命名漸層_47"/><linearGradient id="未命名漸層_44-18" x1="133.5" y1="280.14" x2="155.75" y2="280.14" gradientTransform="translate(289.26 560.27) rotate(-180)" xlink:href="#未命名漸層_44"/><linearGradient id="未命名漸層_47-19" x1="128.68" y1="286.64" x2="132.27" y2="286.64" xlink:href="#未命名漸層_47"/><linearGradient id="未命名漸層_44-19" x1="128.18" y1="286.64" x2="132.77" y2="286.64" xlink:href="#未命名漸層_44"/><linearGradient id="未命名漸層_47-20" x1="135.03" y1="311.24" x2="179.53" y2="311.24" xlink:href="#未命名漸層_47"/><linearGradient id="未命名漸層_44-20" x1="134.43" y1="311.28" x2="180.13" y2="311.28" xlink:href="#未命名漸層_44"/></defs><g id="圖層_2" data-name="圖層 2"><g id="圖層_1-2" data-name="圖層 1"><rect class="cls-1" width="316.89" height="472.49" rx="25.28"/><path class="cls-2" d="M260.93,440.55H46.82a16.88,16.88,0,0,1-16.88-16.88v-360"/><path class="cls-3" d="M56.52,33.51H270.71A16.89,16.89,0,0,1,287.6,50.39V410"/><circle class="cls-4" cx="47.99" cy="33.51" r="8.53"/><circle class="cls-5" cx="29.94" cy="55.19" r="8.53"/><path class="cls-6" d="M82.77,38.86c-3,0-12.71-5.46-12.71-5.46s9.69-5.47,12.71-5.47S93.9,33.4,93.9,33.4,85.78,38.86,82.77,38.86Z"/><path class="cls-7" d="M24.49,87.59c0-3,5.46-12.71,5.46-12.71s5.47,9.69,5.47,12.71S30,98.72,30,98.72,24.49,90.61,24.49,87.59Z"/><circle class="cls-8" cx="35.57" cy="41.55" r="14.57"/><circle class="cls-9" cx="269.49" cy="440.19" r="8.53"/><circle class="cls-10" cx="287.54" cy="418.51" r="8.53"/><path class="cls-11" d="M234.72,434.84c3,0,12.7,5.46,12.7,5.46s-9.69,5.47-12.7,5.47-11.14-5.47-11.14-5.47S231.7,434.84,234.72,434.84Z"/><path class="cls-12" d="M293,386.11c0,3-5.46,12.71-5.46,12.71s-5.47-9.69-5.47-12.71S287.53,375,287.53,375,293,383.09,293,386.11Z"/><circle class="cls-13" cx="281.91" cy="432.15" r="14.57"/><path class="cls-14" d="M155.86,208.78l-.5-.47a87.72,87.72,0,0,1-11-12.46c-.23-.31-.44-.62-.65-.94a89.34,89.34,0,0,1-10.21-18.61c-.12-.26-.23-.55-.34-.83L133,175a24.59,24.59,0,0,1-1.39-8.13A24.28,24.28,0,1,1,178.74,175l-.15.37c-.14.37-.25.66-.37.94a89.16,89.16,0,0,1-10.1,18.44c-.23.35-.49.73-.76,1.09a89.15,89.15,0,0,1-11,12.46Zm-21.52-34.27.14.35c.14.35.24.62.35.88a87.66,87.66,0,0,0,10.08,18.35c.21.33.4.61.61.88a85.52,85.52,0,0,0,10.34,11.8A88.31,88.31,0,0,0,166.18,195a12.2,12.2,0,0,0,.72-1,87.62,87.62,0,0,0,10-18.17c.12-.28.22-.55.32-.81l.17-.44a23.08,23.08,0,0,0,1.3-7.63,22.81,22.81,0,1,0-45.62,0A23.17,23.17,0,0,0,134.34,174.51Z"/><path class="cls-15" d="M155.87,392.51v-1.46A66.52,66.52,0,0,0,217.8,300.4l-.07-.18a253.85,253.85,0,0,0-31-56.42,1.87,1.87,0,0,1-.26-.36,256.29,256.29,0,0,0-30.56-34.66A256.12,256.12,0,0,0,94,300.2l-.07.16a66.46,66.46,0,0,0-4.54,24.23H87.92a67.81,67.81,0,0,1,4.69-24.87l.07-.16a257.68,257.68,0,0,1,62.67-92.32l.5-.47.51.47a256.71,256.71,0,0,1,31.29,35.4c.09.14.14.2.18.26a255.31,255.31,0,0,1,31.22,56.67l.06.15a68,68,0,0,1-63.24,92.79Z"/><path class="cls-16" d="M144.65,403.73a11.95,11.95,0,1,1,11.94-12A12,12,0,0,1,144.65,403.73Zm0-22.43a10.48,10.48,0,1,0,10.48,10.48A10.49,10.49,0,0,0,144.65,381.3Z"/><path class="cls-17" d="M144.65,398.14a6.36,6.36,0,1,1,6.36-6.36A6.36,6.36,0,0,1,144.65,398.14Zm0-11.25a4.89,4.89,0,1,0,4.89,4.89A4.9,4.9,0,0,0,144.65,386.89Z"/><path class="cls-18" d="M89.82,347.74a11.95,11.95,0,1,1,11.94-11.94A12,12,0,0,1,89.82,347.74Zm0-22.42A10.48,10.48,0,1,0,100.3,335.8,10.49,10.49,0,0,0,89.82,325.32Z"/><path class="cls-19" d="M89.82,342.15a6.36,6.36,0,1,1,6.35-6.35A6.37,6.37,0,0,1,89.82,342.15Zm0-11.24a4.89,4.89,0,1,0,4.89,4.89A4.89,4.89,0,0,0,89.82,330.91Z"/><rect class="cls-20" x="155.12" y="172.02" width="1.47" height="13.06"/><rect class="cls-21" x="157.88" y="190.84" width="21.25" height="3.02"/><path class="cls-22" d="M182.86,192.71l-1-1.05a4,4,0,0,0,.21-5.34,5.4,5.4,0,0,1,.56-7.33l1,1.08-.5-.54.5.53a4,4,0,0,0-.39,5.38A5.42,5.42,0,0,1,182.86,192.71Z"/><polygon class="cls-23" points="155.85 164.51 133.6 159.42 133.93 157.99 155.85 163.01 177.77 157.99 178.1 159.42 155.85 164.51"/><path class="cls-24" d="M157.27,329.88A24.29,24.29,0,0,1,133,305.61a24.55,24.55,0,0,1,1.39-8.13l.2-.52c.1-.27.2-.53.32-.79A89.16,89.16,0,0,1,145,277.73c.23-.35.49-.73.76-1.09a89.15,89.15,0,0,1,11-12.46l.5-.47.5.47a87.72,87.72,0,0,1,11,12.46c.22.31.44.62.64.94a88.85,88.85,0,0,1,10.22,18.6c.11.25.21.51.31.78l.2.52a24.3,24.3,0,0,1-22.89,32.4Zm0-64.16A88.31,88.31,0,0,0,147,277.51c-.26.34-.5.69-.72,1a87.69,87.69,0,0,0-10,18.18c-.11.26-.2.51-.3.75l-.19.5a22.82,22.82,0,1,0,43,0l-.19-.5c-.09-.24-.19-.49-.29-.73a87.7,87.7,0,0,0-10.09-18.35c-.2-.33-.4-.61-.6-.89A86,86,0,0,0,157.27,265.72Z"/><path class="cls-25" d="M157.27,265.72l-.5-.47a258.62,258.62,0,0,1-31.3-35.4,1.93,1.93,0,0,0-.17-.26,255,255,0,0,1-31.22-56.68l-.07-.14A68,68,0,0,1,157.26,80v1.46A66.53,66.53,0,0,0,95.33,172.1h0l.07.17a253.85,253.85,0,0,0,31.05,56.42,2.45,2.45,0,0,1,.25.36,255.67,255.67,0,0,0,30.57,34.65,255.92,255.92,0,0,0,61.85-91.41l.08-.17a66.41,66.41,0,0,0,4.54-24.22h1.46a67.8,67.8,0,0,1-4.68,24.87l-.07.16a257.77,257.77,0,0,1-62.67,92.32Z"/><path class="cls-26" d="M168.48,92.65a11.95,11.95,0,1,1,11.94-11.94A12,12,0,0,1,168.48,92.65Zm0-22.42A10.48,10.48,0,1,0,179,80.71,10.49,10.49,0,0,0,168.48,70.23Z"/><path class="cls-27" d="M168.48,87.06a6.36,6.36,0,1,1,6.35-6.35A6.36,6.36,0,0,1,168.48,87.06Zm0-11.24a4.89,4.89,0,1,0,4.88,4.89A4.89,4.89,0,0,0,168.48,75.82Z"/><path class="cls-28" d="M223.31,148.64a11.95,11.95,0,1,1,11.94-11.95A12,12,0,0,1,223.31,148.64Zm0-22.42a10.48,10.48,0,1,0,10.48,10.47A10.49,10.49,0,0,0,223.31,126.22Z"/><path class="cls-29" d="M223.31,143.05a6.36,6.36,0,1,1,6.35-6.36A6.36,6.36,0,0,1,223.31,143.05Zm0-11.24a4.89,4.89,0,1,0,4.89,4.88A4.89,4.89,0,0,0,223.31,131.81Z"/><rect class="cls-30" x="156.54" y="287.41" width="1.47" height="13.06"/><rect class="cls-31" x="134" y="278.63" width="21.25" height="3.02" transform="translate(289.26 560.27) rotate(180)"/><path class="cls-32" d="M130.52,293.5l-1-1.08.5.54-.5-.53a4,4,0,0,0,.38-5.38,5.43,5.43,0,0,1,.37-7.27l1,1.05a4,4,0,0,0-.21,5.34A5.4,5.4,0,0,1,130.52,293.5Z"/><polygon class="cls-33" points="179.2 314.5 157.28 309.48 135.35 314.5 135.03 313.07 157.28 307.98 179.53 313.07 179.2 314.5"/></g></g></svg>