<svg xmlns="http://www.w3.org/2000/svg" xmlns:xlink="http://www.w3.org/1999/xlink" width="316.89" height="472.49" viewBox="0 0 316.89 472.49"><defs><style>.cls-1{fill:url(#未命名漸層_191);}.cls-10,.cls-13,.cls-2,.cls-3,.cls-4,.cls-5,.cls-8,.cls-9{fill:none;stroke-width:2px;}.cls-10,.cls-13,.cls-14,.cls-15,.cls-16,.cls-17,.cls-18,.cls-19,.cls-2,.cls-20,.cls-21,.cls-22,.cls-23,.cls-24,.cls-25,.cls-26,.cls-27,.cls-29,.cls-3,.cls-30,.cls-31,.cls-32,.cls-33,.cls-34,.cls-35,.cls-36,.cls-37,.cls-4,.cls-5,.cls-8,.cls-9{stroke-miterlimit:10;}.cls-2{stroke:url(#未命名漸層_42);}.cls-3{stroke:url(#未命名漸層_42-2);}.cls-4{stroke:url(#未命名漸層_42-3);}.cls-5{stroke:url(#未命名漸層_42-4);}.cls-6{fill:url(#未命名漸層_42-5);}.cls-7{fill:url(#未命名漸層_42-6);}.cls-8{stroke:url(#未命名漸層_42-7);}.cls-9{stroke:url(#未命名漸層_42-8);}.cls-10{stroke:url(#未命名漸層_42-9);}.cls-11{fill:url(#未命名漸層_42-10);}.cls-12{fill:url(#未命名漸層_42-11);}.cls-13{stroke:url(#未命名漸層_42-12);}.cls-14{fill:url(#未命名漸層_47);stroke:url(#未命名漸層_44);}.cls-15{fill:url(#未命名漸層_47-2);stroke:url(#未命名漸層_44-2);}.cls-16{fill:url(#未命名漸層_47-3);stroke:url(#未命名漸層_44-3);}.cls-17{fill:url(#未命名漸層_47-4);stroke:url(#未命名漸層_44-4);}.cls-18{fill:url(#未命名漸層_47-5);stroke:url(#未命名漸層_44-5);}.cls-19{fill:url(#未命名漸層_47-6);stroke:url(#未命名漸層_44-6);}.cls-20{fill:url(#未命名漸層_47-7);stroke:url(#未命名漸層_44-7);}.cls-21{fill:url(#未命名漸層_47-8);stroke:url(#未命名漸層_44-8);}.cls-22{fill:url(#未命名漸層_47-9);stroke:url(#未命名漸層_44-9);}.cls-23{fill:url(#未命名漸層_47-10);stroke:url(#未命名漸層_44-10);}.cls-24{fill:url(#未命名漸層_47-11);stroke:url(#未命名漸層_44-11);}.cls-25{fill:url(#未命名漸層_47-12);stroke:url(#未命名漸層_44-12);}.cls-26{fill:url(#未命名漸層_47-13);stroke:url(#未命名漸層_44-13);}.cls-27{fill:url(#未命名漸層_47-14);stroke:url(#未命名漸層_44-14);}.cls-28{fill:url(#未命名漸層_47-15);}.cls-29{fill:url(#未命名漸層_47-16);stroke:url(#未命名漸層_44-15);}.cls-30{fill:url(#未命名漸層_47-17);stroke:url(#未命名漸層_44-16);}.cls-31{fill:url(#未命名漸層_47-18);stroke:url(#未命名漸層_44-17);}.cls-32{fill:url(#未命名漸層_47-19);stroke:url(#未命名漸層_44-18);}.cls-33{fill:url(#未命名漸層_47-20);stroke:url(#未命名漸層_44-19);}.cls-34{fill:url(#未命名漸層_47-21);stroke:url(#未命名漸層_44-20);}.cls-35{fill:url(#未命名漸層_47-22);stroke:url(#未命名漸層_44-21);}.cls-36{fill:url(#未命名漸層_47-23);stroke:url(#未命名漸層_44-22);}.cls-37{fill:url(#未命名漸層_47-24);stroke:url(#未命名漸層_44-23);}</style><linearGradient id="未命名漸層_191" x1="29.8" y1="4.68" x2="290.74" y2="474.37" gradientUnits="userSpaceOnUse"><stop offset="0" stop-color="#2e3453"/><stop offset="0.16" stop-color="#313f76"/><stop offset="0.29" stop-color="#32468d"/><stop offset="0.38" stop-color="#334996"/><stop offset="0.52" stop-color="#324384"/><stop offset="0.83" stop-color="#2f3860"/><stop offset="1" stop-color="#2e3453"/></linearGradient><linearGradient id="未命名漸層_42" x1="28.64" y1="252.29" x2="260.63" y2="252.29" gradientUnits="userSpaceOnUse"><stop offset="0" stop-color="#e8c5df"/><stop offset="0.96" stop-color="#a2ddd9"/></linearGradient><linearGradient id="未命名漸層_42-2" x1="56.22" y1="220.91" x2="288.3" y2="220.91" xlink:href="#未命名漸層_42"/><linearGradient id="未命名漸層_42-3" x1="38.17" y1="33.17" x2="57.22" y2="33.17" xlink:href="#未命名漸層_42"/><linearGradient id="未命名漸層_42-4" x1="20.11" y1="54.85" x2="39.16" y2="54.85" xlink:href="#未命名漸層_42"/><linearGradient id="未命名漸層_42-5" x1="69.76" y1="33.06" x2="93.6" y2="33.06" xlink:href="#未命名漸層_42"/><linearGradient id="未命名漸層_42-6" x1="24.19" y1="86.46" x2="35.12" y2="86.46" xlink:href="#未命名漸層_42"/><linearGradient id="未命名漸層_42-7" x1="19.7" y1="41.21" x2="50.85" y2="41.21" xlink:href="#未命名漸層_42"/><linearGradient id="未命名漸層_42-8" x1="259.67" y1="439.85" x2="278.72" y2="439.85" xlink:href="#未命名漸層_42"/><linearGradient id="未命名漸層_42-9" x1="277.72" y1="418.17" x2="296.77" y2="418.17" xlink:href="#未命名漸層_42"/><linearGradient id="未命名漸層_42-10" x1="223.29" y1="439.96" x2="247.12" y2="439.96" xlink:href="#未命名漸層_42"/><linearGradient id="未命名漸層_42-11" x1="281.77" y1="386.56" x2="292.7" y2="386.56" xlink:href="#未命名漸層_42"/><linearGradient id="未命名漸層_42-12" x1="266.04" y1="431.81" x2="297.19" y2="431.81" xlink:href="#未命名漸層_42"/><linearGradient id="未命名漸層_47" x1="135.71" y1="181.76" x2="184.27" y2="181.76" gradientUnits="userSpaceOnUse"><stop offset="0" stop-color="#2e3453"/><stop offset="1" stop-color="#83a2ce"/></linearGradient><linearGradient id="未命名漸層_44" x1="135.21" y1="181.85" x2="184.77" y2="181.85" gradientUnits="userSpaceOnUse"><stop offset="0" stop-color="#fff"/><stop offset="1" stop-color="#83a2ce"/></linearGradient><linearGradient id="未命名漸層_47-2" x1="92.06" y1="305.71" x2="227.94" y2="305.71" xlink:href="#未命名漸層_47"/><linearGradient id="未命名漸層_44-2" x1="91.56" y1="305.62" x2="228.44" y2="305.62" xlink:href="#未命名漸層_44"/><linearGradient id="未命名漸層_47-3" x1="87.47" y1="337.14" x2="101.91" y2="337.14" xlink:href="#未命名漸層_47"/><linearGradient id="未命名漸層_44-3" x1="86.97" y1="337.14" x2="102.41" y2="337.14" xlink:href="#未命名漸層_44"/><linearGradient id="未命名漸層_47-4" x1="159.26" y1="182.25" x2="160.72" y2="182.25" xlink:href="#未命名漸層_47"/><linearGradient id="未命名漸層_44-4" x1="158.76" y1="182.25" x2="161.22" y2="182.25" xlink:href="#未命名漸層_44"/><linearGradient id="未命名漸層_47-5" x1="158.16" y1="196.57" x2="161.82" y2="196.57" xlink:href="#未命名漸層_47"/><linearGradient id="未命名漸層_44-5" x1="157.66" y1="196.57" x2="162.32" y2="196.57" xlink:href="#未命名漸層_44"/><linearGradient id="未命名漸層_47-6" x1="142.1" y1="171.81" x2="157.01" y2="171.81" xlink:href="#未命名漸層_47"/><linearGradient id="未命名漸層_44-6" x1="141.41" y1="171.91" x2="157.71" y2="171.91" xlink:href="#未命名漸層_44"/><linearGradient id="未命名漸層_47-7" x1="161.37" y1="171.81" x2="176.28" y2="171.81" xlink:href="#未命名漸層_47"/><linearGradient id="未命名漸層_44-7" x1="160.66" y1="171.91" x2="176.97" y2="171.91" xlink:href="#未命名漸層_44"/><linearGradient id="未命名漸層_47-8" x1="149.94" y1="379.64" x2="206.59" y2="379.64" xlink:href="#未命名漸層_47"/><linearGradient id="未命名漸層_44-8" x1="149.24" y1="379.64" x2="207.3" y2="379.64" xlink:href="#未命名漸層_44"/><linearGradient id="未命名漸層_47-9" x1="150.98" y1="397.04" x2="168.53" y2="397.04" gradientTransform="translate(-238.95 241.47) rotate(-46.77)" xlink:href="#未命名漸層_47"/><linearGradient id="未命名漸層_44-9" x1="150.27" y1="397.04" x2="169.24" y2="397.04" gradientTransform="translate(-238.95 241.47) rotate(-46.77)" xlink:href="#未命名漸層_44"/><linearGradient id="未命名漸層_47-10" x1="143.6" y1="137.16" x2="177.14" y2="137.16" xlink:href="#未命名漸層_47"/><linearGradient id="未命名漸層_44-10" x1="143.1" y1="137.16" x2="177.64" y2="137.16" xlink:href="#未命名漸層_44"/><linearGradient id="未命名漸層_47-11" x1="142.87" y1="137.16" x2="177.88" y2="137.16" xlink:href="#未命名漸層_47"/><linearGradient id="未命名漸層_44-11" x1="142.37" y1="137.16" x2="178.38" y2="137.16" xlink:href="#未命名漸層_44"/><linearGradient id="未命名漸層_47-12" x1="129.51" y1="157.72" x2="190.47" y2="157.72" xlink:href="#未命名漸層_47"/><linearGradient id="未命名漸層_44-12" x1="129.01" y1="157.72" x2="190.97" y2="157.72" xlink:href="#未命名漸層_44"/><linearGradient id="未命名漸層_47-13" x1="135.55" y1="290.04" x2="184.11" y2="290.04" xlink:href="#未命名漸層_47"/><linearGradient id="未命名漸層_44-13" x1="135.05" y1="289.95" x2="184.61" y2="289.95" xlink:href="#未命名漸層_44"/><linearGradient id="未命名漸層_47-14" x1="91.88" y1="166.1" x2="227.76" y2="166.1" xlink:href="#未命名漸層_47"/><linearGradient id="未命名漸層_44-14" x1="91.38" y1="166.19" x2="228.26" y2="166.19" xlink:href="#未命名漸層_44"/><linearGradient id="未命名漸層_47-15" x1="217.9" y1="134.66" x2="232.35" y2="134.66" xlink:href="#未命名漸層_47"/><linearGradient id="未命名漸層_47-16" x1="159.09" y1="289.55" x2="160.56" y2="289.55" xlink:href="#未命名漸層_47"/><linearGradient id="未命名漸層_44-15" x1="158.59" y1="289.55" x2="161.06" y2="289.55" xlink:href="#未命名漸層_44"/><linearGradient id="未命名漸層_47-17" x1="158" y1="275.23" x2="161.66" y2="275.23" xlink:href="#未命名漸層_47"/><linearGradient id="未命名漸層_44-16" x1="157.5" y1="275.23" x2="162.16" y2="275.23" xlink:href="#未命名漸層_44"/><linearGradient id="未命名漸層_47-18" x1="162.81" y1="300" x2="177.72" y2="300" xlink:href="#未命名漸層_47"/><linearGradient id="未命名漸層_44-17" x1="162.1" y1="299.9" x2="178.4" y2="299.9" xlink:href="#未命名漸層_44"/><linearGradient id="未命名漸層_47-19" x1="143.54" y1="300" x2="158.45" y2="300" xlink:href="#未命名漸層_47"/><linearGradient id="未命名漸層_44-18" x1="142.85" y1="299.9" x2="159.15" y2="299.9" xlink:href="#未命名漸層_44"/><linearGradient id="未命名漸層_47-20" x1="113.23" y1="92.17" x2="169.87" y2="92.17" xlink:href="#未命名漸層_47"/><linearGradient id="未命名漸層_44-19" x1="112.52" y1="92.17" x2="170.58" y2="92.17" xlink:href="#未命名漸層_44"/><linearGradient id="未命名漸層_47-21" x1="151.29" y1="74.76" x2="168.84" y2="74.76" gradientTransform="translate(324.17 9.36) rotate(133.23)" xlink:href="#未命名漸層_47"/><linearGradient id="未命名漸層_44-20" x1="150.58" y1="74.76" x2="169.54" y2="74.76" gradientTransform="translate(324.17 9.36) rotate(133.23)" xlink:href="#未命名漸層_44"/><linearGradient id="未命名漸層_47-22" x1="142.67" y1="334.64" x2="176.22" y2="334.64" gradientTransform="translate(318.89 669.29) rotate(-180)" xlink:href="#未命名漸層_47"/><linearGradient id="未命名漸層_44-21" x1="142.17" y1="334.64" x2="176.72" y2="334.64" gradientTransform="translate(318.89 669.29) rotate(-180)" xlink:href="#未命名漸層_44"/><linearGradient id="未命名漸層_47-23" x1="141.94" y1="334.64" x2="176.95" y2="334.64" xlink:href="#未命名漸層_47"/><linearGradient id="未命名漸層_44-22" x1="141.44" y1="334.64" x2="177.45" y2="334.64" xlink:href="#未命名漸層_44"/><linearGradient id="未命名漸層_47-24" x1="129.35" y1="314.08" x2="190.31" y2="314.08" gradientTransform="translate(319.66 628.17) rotate(-180)" xlink:href="#未命名漸層_47"/><linearGradient id="未命名漸層_44-23" x1="128.85" y1="314.08" x2="190.81" y2="314.08" gradientTransform="translate(319.66 628.17) rotate(-180)" xlink:href="#未命名漸層_44"/></defs><g id="圖層_2" data-name="圖層 2"><g id="圖層_1-2" data-name="圖層 1"><rect class="cls-1" width="316.89" height="472.49" rx="25.28"/><path class="cls-2" d="M260.63,440.21H46.52a16.88,16.88,0,0,1-16.88-16.88v-360"/><path class="cls-3" d="M56.22,33.17h214.2A16.88,16.88,0,0,1,287.3,50.05V409.64"/><circle class="cls-4" cx="47.7" cy="33.17" r="8.53"/><circle class="cls-5" cx="29.64" cy="54.85" r="8.53"/><path class="cls-6" d="M82.47,38.52c-3,0-12.71-5.46-12.71-5.46s9.69-5.47,12.71-5.47S93.6,33.06,93.6,33.06,85.49,38.52,82.47,38.52Z"/><path class="cls-7" d="M24.19,87.25c0-3,5.47-12.71,5.47-12.71s5.46,9.69,5.46,12.71-5.46,11.13-5.46,11.13S24.19,90.27,24.19,87.25Z"/><circle class="cls-8" cx="35.28" cy="41.21" r="14.57"/><circle class="cls-9" cx="269.19" cy="439.85" r="8.53"/><circle class="cls-10" cx="287.25" cy="418.17" r="8.53"/><path class="cls-11" d="M234.42,434.5c3,0,12.7,5.46,12.7,5.46s-9.68,5.47-12.7,5.47S223.29,440,223.29,440,231.4,434.5,234.42,434.5Z"/><path class="cls-12" d="M292.7,385.77c0,3-5.47,12.7-5.47,12.7s-5.46-9.68-5.46-12.7,5.46-11.13,5.46-11.13S292.7,382.75,292.7,385.77Z"/><circle class="cls-13" cx="281.61" cy="431.81" r="14.57"/><path class="cls-14" d="M160,214.85l-.5-.47a87.18,87.18,0,0,1-11-12.47,10.44,10.44,0,0,1-.65-.94,89.3,89.3,0,0,1-10.22-18.6c-.1-.23-.2-.49-.29-.74l-.22-.55a24.6,24.6,0,0,1-1.39-8.14,24.28,24.28,0,0,1,48.56,0,24.6,24.6,0,0,1-1.39,8.14l-.22.55c-.1.25-.19.51-.3.75a88.23,88.23,0,0,1-10.11,18.44c-.22.35-.48.74-.75,1.1a89.15,89.15,0,0,1-11,12.46Zm-21.52-34.27.21.52c.09.24.18.48.28.71a87.21,87.21,0,0,0,10.08,18.35c.21.33.4.61.61.88A85.44,85.44,0,0,0,160,212.84a88.31,88.31,0,0,0,10.32-11.79c.25-.34.49-.7.72-1.05a87.9,87.9,0,0,0,10-18.18c.1-.24.19-.48.28-.72l.21-.53a22.81,22.81,0,1,0-43,0Z"/><path class="cls-15" d="M160,398.58v-1.46a66.52,66.52,0,0,0,61.93-90.65l-.08-.19a253.38,253.38,0,0,0-31.05-56.41,2.45,2.45,0,0,1-.25-.36A255.76,255.76,0,0,0,160,214.85a256.22,256.22,0,0,0-61.85,91.42l-.07.17a66.4,66.4,0,0,0-4.54,24.21H92.06a67.79,67.79,0,0,1,4.69-24.86l.07-.17a257.73,257.73,0,0,1,62.67-92.31l.5-.47.51.47a258,258,0,0,1,31.29,35.4,2.52,2.52,0,0,0,.18.26,255.09,255.09,0,0,1,31.22,56.67l.06.15A68,68,0,0,1,160,398.58Z"/><path class="cls-16" d="M94.69,344.36a7.22,7.22,0,1,1,7.22-7.22A7.23,7.23,0,0,1,94.69,344.36Zm0-13a5.76,5.76,0,1,0,5.76,5.75A5.76,5.76,0,0,0,94.69,331.39Z"/><rect class="cls-17" x="159.26" y="178.09" width="1.47" height="8.33"/><rect class="cls-18" x="158.16" y="195.84" width="3.66" height="1.47"/><path class="cls-19" d="M156,174.24l-.52-.52c-.22-.22-5.44-5.33-12-1.44l-.63.38-.75-1.26.63-.38c7.53-4.49,13.7,1.61,13.76,1.67l.52.52Z"/><path class="cls-20" d="M162.41,174.24l-1-1,.51-.52c.06-.06,6.24-6.16,13.77-1.67l.63.38-.75,1.26-.63-.38c-6.55-3.91-11.92,1.39-12,1.44Z"/><path class="cls-21" d="M154.06,406.52l-4.12-4.38,52.53-49.38,4.12,4.38Zm-2-4.31,2.11,2.24,50.39-47.37-2.11-2.25Z"/><rect class="cls-22" x="157.48" y="387.14" width="4.55" height="19.81" transform="translate(339.6 8.69) rotate(46.77)"/><rect class="cls-23" x="143.6" y="117.48" width="33.54" height="39.37"/><path class="cls-24" d="M177.88,157.58h-35V116.74h35Zm-33.55-1.46h32.08V118.21H144.33Z"/><rect class="cls-25" x="129.51" y="153.68" width="60.96" height="8.09"/><path class="cls-26" d="M159.82,323.13a24.29,24.29,0,0,1-24.27-24.27,24.55,24.55,0,0,1,1.39-8.13l.21-.54c.1-.26.2-.52.31-.77A89.16,89.16,0,0,1,147.56,271c.23-.35.49-.73.76-1.1a89.07,89.07,0,0,1,11-12.45l.5-.47.5.47a87.1,87.1,0,0,1,11,12.46c.23.31.44.62.65.94a89.26,89.26,0,0,1,10.21,18.6c.11.24.21.5.31.76l.21.54a24.3,24.3,0,0,1-22.9,32.4Zm0-64.16a87.69,87.69,0,0,0-10.32,11.79c-.26.34-.5.69-.72,1a88,88,0,0,0-10,18.18c-.1.25-.2.49-.29.74l-.2.51a23.08,23.08,0,0,0-1.3,7.63,22.81,22.81,0,1,0,45.62,0,23.08,23.08,0,0,0-1.3-7.63l-.2-.51c-.1-.25-.19-.49-.29-.72a88.12,88.12,0,0,0-10.08-18.35c-.21-.34-.4-.61-.61-.89A86,86,0,0,0,159.82,259Z"/><path class="cls-27" d="M159.83,259l-.51-.47A257.88,257.88,0,0,1,128,223.1a1.73,1.73,0,0,0-.18-.26,255,255,0,0,1-31.22-56.68l-.06-.15a68,68,0,0,1,63.24-92.79v1.47a66.53,66.53,0,0,0-61.93,90.66h0l.07.17A253.48,253.48,0,0,0,129,221.94a2.48,2.48,0,0,1,.24.36A255.75,255.75,0,0,0,159.83,257a256.18,256.18,0,0,0,61.85-91.41l.07-.17a66.41,66.41,0,0,0,4.54-24.22h1.47A67.72,67.72,0,0,1,223.07,166l-.07.17a257.77,257.77,0,0,1-62.67,92.32Z"/><path class="cls-28" d="M225.13,141.89a7.23,7.23,0,1,1,7.22-7.23A7.23,7.23,0,0,1,225.13,141.89Zm0-13a5.76,5.76,0,1,0,5.75,5.75A5.76,5.76,0,0,0,225.13,128.91Z"/><rect class="cls-29" x="159.09" y="285.39" width="1.47" height="8.33"/><rect class="cls-30" x="158" y="274.5" width="3.66" height="1.47"/><path class="cls-31" d="M171.4,302.43a12.58,12.58,0,0,1-8.08-3.31l-.51-.52,1-1,.52.51c.22.22,5.44,5.34,12,1.44l.63-.37.75,1.26-.63.37A11,11,0,0,1,171.4,302.43Z"/><path class="cls-32" d="M149.85,302.43a10.93,10.93,0,0,1-5.68-1.65l-.63-.37.75-1.26.63.37c6.54,3.9,11.75-1.22,12-1.44l.52-.51,1,1-.52.52A12.52,12.52,0,0,1,149.85,302.43Z"/><path class="cls-33" d="M117.35,119.05l-4.12-4.38,52.52-49.39,4.12,4.38Zm-2-4.32,2.11,2.25L167.8,69.6l-2.11-2.24Z"/><rect class="cls-34" x="157.79" y="64.85" width="4.55" height="19.81" transform="translate(215.23 242.59) rotate(-133.23)"/><rect class="cls-35" x="142.67" y="314.96" width="33.54" height="39.37" transform="translate(318.89 669.29) rotate(180)"/><path class="cls-36" d="M177,355.06h-35V314.22h35Zm-33.54-1.46h32.07V315.69H143.41Z"/><rect class="cls-37" x="129.35" y="310.04" width="60.96" height="8.09" transform="translate(319.66 628.17) rotate(180)"/></g></g></svg>