<svg xmlns="http://www.w3.org/2000/svg" xmlns:xlink="http://www.w3.org/1999/xlink" width="316.89" height="472.49" viewBox="0 0 316.89 472.49"><defs><style>.cls-1{fill:url(#未命名漸層_191);}.cls-10,.cls-13,.cls-2,.cls-3,.cls-4,.cls-5,.cls-8,.cls-9{fill:none;stroke-width:2px;}.cls-10,.cls-13,.cls-14,.cls-15,.cls-16,.cls-17,.cls-18,.cls-19,.cls-2,.cls-20,.cls-21,.cls-22,.cls-23,.cls-3,.cls-4,.cls-5,.cls-8,.cls-9{stroke-miterlimit:10;}.cls-2{stroke:url(#未命名漸層_42);}.cls-3{stroke:url(#未命名漸層_42-2);}.cls-4{stroke:url(#未命名漸層_42-3);}.cls-5{stroke:url(#未命名漸層_42-4);}.cls-6{fill:url(#未命名漸層_42-5);}.cls-7{fill:url(#未命名漸層_42-6);}.cls-8{stroke:url(#未命名漸層_42-7);}.cls-9{stroke:url(#未命名漸層_42-8);}.cls-10{stroke:url(#未命名漸層_42-9);}.cls-11{fill:url(#未命名漸層_42-10);}.cls-12{fill:url(#未命名漸層_42-11);}.cls-13{stroke:url(#未命名漸層_42-12);}.cls-14{fill:url(#未命名漸層_47);stroke:url(#未命名漸層_44);}.cls-15{fill:url(#未命名漸層_47-2);stroke:url(#未命名漸層_44-2);}.cls-16{fill:url(#未命名漸層_47-3);stroke:url(#未命名漸層_44-3);}.cls-17{fill:url(#未命名漸層_47-4);stroke:url(#未命名漸層_44-4);}.cls-18{fill:url(#未命名漸層_47-5);stroke:url(#未命名漸層_44-5);}.cls-19{fill:url(#未命名漸層_47-6);stroke:url(#未命名漸層_44-6);}.cls-20{fill:url(#未命名漸層_47-7);stroke:url(#未命名漸層_44-7);}.cls-21{fill:url(#未命名漸層_47-8);stroke:url(#未命名漸層_44-8);}.cls-22{fill:url(#未命名漸層_47-9);stroke:url(#未命名漸層_44-9);}.cls-23{fill:url(#未命名漸層_2);stroke:url(#未命名漸層_44-10);}</style><linearGradient id="未命名漸層_191" x1="29.8" y1="4.68" x2="290.74" y2="474.37" gradientUnits="userSpaceOnUse"><stop offset="0" stop-color="#2e3453"/><stop offset="0.16" stop-color="#313f76"/><stop offset="0.29" stop-color="#32468d"/><stop offset="0.38" stop-color="#334996"/><stop offset="0.52" stop-color="#324384"/><stop offset="0.83" stop-color="#2f3860"/><stop offset="1" stop-color="#2e3453"/></linearGradient><linearGradient id="未命名漸層_42" x1="27.78" y1="253.45" x2="259.77" y2="253.45" gradientUnits="userSpaceOnUse"><stop offset="0" stop-color="#e8c5df"/><stop offset="0.96" stop-color="#a2ddd9"/></linearGradient><linearGradient id="未命名漸層_42-2" x1="55.36" y1="222.06" x2="287.44" y2="222.06" xlink:href="#未命名漸層_42"/><linearGradient id="未命名漸層_42-3" x1="37.31" y1="34.32" x2="56.36" y2="34.32" xlink:href="#未命名漸層_42"/><linearGradient id="未命名漸層_42-4" x1="19.25" y1="56" x2="38.3" y2="56" xlink:href="#未命名漸層_42"/><linearGradient id="未命名漸層_42-5" x1="68.9" y1="34.21" x2="92.74" y2="34.21" xlink:href="#未命名漸層_42"/><linearGradient id="未命名漸層_42-6" x1="23.33" y1="87.62" x2="34.26" y2="87.62" xlink:href="#未命名漸層_42"/><linearGradient id="未命名漸層_42-7" x1="18.84" y1="42.37" x2="49.99" y2="42.37" xlink:href="#未命名漸層_42"/><linearGradient id="未命名漸層_42-8" x1="258.8" y1="441.01" x2="277.85" y2="441.01" xlink:href="#未命名漸層_42"/><linearGradient id="未命名漸層_42-9" x1="276.86" y1="419.33" x2="295.91" y2="419.33" xlink:href="#未命名漸層_42"/><linearGradient id="未命名漸層_42-10" x1="222.42" y1="441.12" x2="246.26" y2="441.12" xlink:href="#未命名漸層_42"/><linearGradient id="未命名漸層_42-11" x1="280.9" y1="387.71" x2="291.83" y2="387.71" xlink:href="#未命名漸層_42"/><linearGradient id="未命名漸層_42-12" x1="265.17" y1="432.96" x2="296.32" y2="432.96" xlink:href="#未命名漸層_42"/><linearGradient id="未命名漸層_47" x1="134.9" y1="112.13" x2="183.46" y2="112.13" gradientUnits="userSpaceOnUse"><stop offset="0" stop-color="#2e3453"/><stop offset="1" stop-color="#83a2ce"/></linearGradient><linearGradient id="未命名漸層_44" x1="134.4" y1="112.22" x2="183.96" y2="112.22" gradientUnits="userSpaceOnUse"><stop offset="0" stop-color="#fff"/><stop offset="1" stop-color="#83a2ce"/></linearGradient><linearGradient id="未命名漸層_47-2" x1="91.24" y1="236.11" x2="227.12" y2="236.11" xlink:href="#未命名漸層_47"/><linearGradient id="未命名漸層_44-2" x1="90.74" y1="236.01" x2="227.62" y2="236.01" xlink:href="#未命名漸層_44"/><linearGradient id="未命名漸層_47-3" x1="134.9" y1="360.36" x2="183.46" y2="360.36" xlink:href="#未命名漸層_47"/><linearGradient id="未命名漸層_44-3" x1="134.4" y1="360.27" x2="183.96" y2="360.27" xlink:href="#未命名漸層_44"/><linearGradient id="未命名漸層_47-4" x1="91.24" y1="236.38" x2="227.12" y2="236.38" xlink:href="#未命名漸層_47"/><linearGradient id="未命名漸層_44-4" x1="90.74" y1="236.47" x2="227.62" y2="236.47" xlink:href="#未命名漸層_44"/><linearGradient id="未命名漸層_47-5" x1="137.5" y1="98.75" x2="159.82" y2="98.75" xlink:href="#未命名漸層_47"/><linearGradient id="未命名漸層_44-5" x1="136.99" y1="98.84" x2="160.5" y2="98.84" xlink:href="#未命名漸層_44"/><linearGradient id="未命名漸層_47-6" x1="158.45" y1="119.01" x2="180.86" y2="119.01" xlink:href="#未命名漸層_47"/><linearGradient id="未命名漸層_44-6" x1="157.95" y1="119.01" x2="181.37" y2="119.01" xlink:href="#未命名漸層_44"/><linearGradient id="未命名漸層_47-7" x1="158.53" y1="373.74" x2="180.86" y2="373.74" xlink:href="#未命名漸層_47"/><linearGradient id="未命名漸層_44-7" x1="157.86" y1="373.65" x2="181.37" y2="373.65" xlink:href="#未命名漸層_44"/><linearGradient id="未命名漸層_47-8" x1="137.5" y1="353.48" x2="159.91" y2="353.48" xlink:href="#未命名漸層_47"/><linearGradient id="未命名漸層_44-8" x1="136.99" y1="353.48" x2="160.41" y2="353.48" xlink:href="#未命名漸層_44"/><linearGradient id="未命名漸層_47-9" x1="125.56" y1="236.24" x2="159.47" y2="236.24" xlink:href="#未命名漸層_47"/><linearGradient id="未命名漸層_44-9" x1="125.06" y1="236.06" x2="159.97" y2="236.06" xlink:href="#未命名漸層_44"/><linearGradient id="未命名漸層_2" x1="87.39" y1="236.24" x2="121.3" y2="236.24" gradientTransform="matrix(-1, 0, 0, 1, 281.66, 0)" gradientUnits="userSpaceOnUse"><stop offset="0" stop-color="#83a2ce"/><stop offset="1" stop-color="#2e3453"/></linearGradient><linearGradient id="未命名漸層_44-10" x1="86.89" y1="236.06" x2="121.8" y2="236.06" gradientTransform="matrix(-1, 0, 0, 1, 281.66, 0)" xlink:href="#未命名漸層_44"/></defs><g id="圖層_2" data-name="圖層 2"><g id="圖層_1-2" data-name="圖層 1"><rect class="cls-1" width="316.89" height="472.49" rx="25.28"/><path class="cls-2" d="M259.77,441.36H45.66a16.87,16.87,0,0,1-16.88-16.88v-360"/><path class="cls-3" d="M55.36,34.32H269.55a16.89,16.89,0,0,1,16.89,16.89V410.8"/><circle class="cls-4" cx="46.83" cy="34.32" r="8.53"/><circle class="cls-5" cx="28.78" cy="56" r="8.53"/><path class="cls-6" d="M81.61,39.68c-3,0-12.71-5.47-12.71-5.47s9.69-5.46,12.71-5.46,11.13,5.46,11.13,5.46S84.62,39.68,81.61,39.68Z"/><path class="cls-7" d="M23.33,88.4c0-3,5.46-12.7,5.46-12.7s5.47,9.69,5.47,12.7-5.47,11.14-5.47,11.14S23.33,91.42,23.33,88.4Z"/><circle class="cls-8" cx="34.41" cy="42.37" r="14.57"/><circle class="cls-9" cx="268.33" cy="441.01" r="8.53"/><circle class="cls-10" cx="286.38" cy="419.33" r="8.53"/><path class="cls-11" d="M233.56,435.65c3,0,12.7,5.47,12.7,5.47s-9.69,5.46-12.7,5.46-11.14-5.46-11.14-5.46S230.54,435.65,233.56,435.65Z"/><path class="cls-12" d="M291.83,386.93c0,3-5.46,12.7-5.46,12.7s-5.47-9.69-5.47-12.7,5.47-11.14,5.47-11.14S291.83,383.91,291.83,386.93Z"/><circle class="cls-13" cx="280.75" cy="432.96" r="14.57"/><path class="cls-14" d="M159.19,145.22l-.5-.47a87.18,87.18,0,0,1-11-12.47,10.44,10.44,0,0,1-.65-.94A89.31,89.31,0,0,1,136.91,113l-.16-.08v-.31l-.3-.76-.16-.41a24.28,24.28,0,1,1,45.78,0l-.11.26-.77,0,.69.26c-.11.28-.21.56-.33.83a88.69,88.69,0,0,1-10.11,18.44c-.22.35-.48.74-.76,1.1a89,89,0,0,1-11,12.46Zm-21-32.9a87.61,87.61,0,0,0,10,18.21c.21.33.4.6.61.88a85.36,85.36,0,0,0,10.34,11.79,86.84,86.84,0,0,0,10.31-11.78c.26-.35.5-.7.73-1a87.65,87.65,0,0,0,10-18.18c.12-.27.22-.53.32-.79l.18-.46a22.81,22.81,0,1,0-43,0l.14.35c.08.22.16.43.25.63h0Z"/><path class="cls-15" d="M159.17,329a68,68,0,0,1-63.24-92.79l.06-.14a255.3,255.3,0,0,1,31.19-56.65,1.65,1.65,0,0,0,.16-.22,258.18,258.18,0,0,1,31.34-35.47l.51-.47.5.47A257.48,257.48,0,0,1,222.36,236l.07.16A68,68,0,0,1,159.17,329ZM97.26,236.81a66.47,66.47,0,1,0,123.86.07h0l-.07-.18a256.27,256.27,0,0,0-61.86-91.44A255.82,255.82,0,0,0,128.57,180a1.83,1.83,0,0,1-.23.33,253.35,253.35,0,0,0-31,56.37Z"/><path class="cls-16" d="M159.17,393.45a24.3,24.3,0,0,1-24.27-24.27,24.6,24.6,0,0,1,1.39-8.14l.15-.37.31-.79v-.31l.16-.08a88.83,88.83,0,0,1,10-18.19c.22-.35.48-.73.75-1.1a89.15,89.15,0,0,1,11-12.46l.5-.47.5.47a87.18,87.18,0,0,1,11,12.47c.23.3.44.61.65.94a89.3,89.3,0,0,1,10.22,18.6c.11.26.21.54.32.82l.19.48a24.3,24.3,0,0,1-22.9,32.4Zm-21.11-32.89c-.09.2-.16.4-.24.6l-.15.38a23.1,23.1,0,0,0-1.3,7.64,22.81,22.81,0,0,0,45.62,0,23.18,23.18,0,0,0-1.3-7.64l-.14-.35c-.14-.36-.24-.62-.35-.88A87.71,87.71,0,0,0,170.12,342c-.21-.33-.4-.6-.61-.88a86,86,0,0,0-10.34-11.79,87.61,87.61,0,0,0-10.32,11.78c-.26.35-.49.7-.72,1.05a87.47,87.47,0,0,0-9.91,18.05l-.06.13h0Z"/><path class="cls-17" d="M159.17,329.25l-.5-.47A257.75,257.75,0,0,1,96,236.45l-.06-.15a67.94,67.94,0,1,1,126.5,0l-.06.15a255.67,255.67,0,0,1-31.19,56.64.85.85,0,0,0-.16.22,256.27,256.27,0,0,1-31.35,35.47ZM97.24,235.62l.07.19a256.32,256.32,0,0,0,61.86,91.43,255.82,255.82,0,0,0,30.62-34.73,2.31,2.31,0,0,1,.23-.32,253.35,253.35,0,0,0,31-56.37l.07-.16a66.47,66.47,0,1,0-123.87,0Z"/><path class="cls-18" d="M158.53,103.69c-4.71-8.66-20.85-8.43-21-8.42l0-1.46c.71,0,17.19-.25,22.32,9.18Z"/><path class="cls-19" d="M158.45,144.21V103.16l.08-.17c5.14-9.44,21.62-9.19,22.33-9.18l0,1.46c-.15,0-16.1-.22-20.92,8.26v40.68Z"/><path class="cls-20" d="M180.51,378.69c-2.5,0-17.18-.39-22-9.19l1.29-.7c4.72,8.66,20.86,8.43,21,8.42l0,1.46Z"/><path class="cls-21" d="M137.84,378.69h-.34l0-1.46c.16,0,16.1.22,20.92-8.26V328.28h1.47v41.05l-.09.17C155,378.3,140.35,378.69,137.84,378.69Z"/><path class="cls-22" d="M159.47,199.27h0l-33.91,19.64c0,20.27,15.18,54.31,33.91,54.31h0Z"/><path class="cls-23" d="M160.36,199.27h0l33.91,19.64c0,20.27-15.18,54.31-33.91,54.31h0Z"/></g></g></svg>