<svg xmlns="http://www.w3.org/2000/svg" xmlns:xlink="http://www.w3.org/1999/xlink" width="316.89" height="472.49" viewBox="0 0 316.89 472.49"><defs><style>.cls-1{fill:url(#未命名漸層_191);}.cls-10,.cls-13,.cls-2,.cls-3,.cls-4,.cls-5,.cls-8,.cls-9{fill:none;stroke-width:2px;}.cls-10,.cls-13,.cls-14,.cls-15,.cls-16,.cls-17,.cls-18,.cls-19,.cls-2,.cls-20,.cls-21,.cls-22,.cls-23,.cls-24,.cls-25,.cls-26,.cls-27,.cls-28,.cls-29,.cls-3,.cls-4,.cls-5,.cls-8,.cls-9{stroke-miterlimit:10;}.cls-2{stroke:url(#未命名漸層_42);}.cls-3{stroke:url(#未命名漸層_42-2);}.cls-4{stroke:url(#未命名漸層_42-3);}.cls-5{stroke:url(#未命名漸層_42-4);}.cls-6{fill:url(#未命名漸層_42-5);}.cls-7{fill:url(#未命名漸層_42-6);}.cls-8{stroke:url(#未命名漸層_42-7);}.cls-9{stroke:url(#未命名漸層_42-8);}.cls-10{stroke:url(#未命名漸層_42-9);}.cls-11{fill:url(#未命名漸層_42-10);}.cls-12{fill:url(#未命名漸層_42-11);}.cls-13{stroke:url(#未命名漸層_42-12);}.cls-14{fill:url(#未命名漸層_47);stroke:url(#未命名漸層_44);}.cls-15{fill:url(#未命名漸層_47-2);stroke:url(#未命名漸層_44-2);}.cls-16{fill:url(#未命名漸層_47-3);stroke:url(#未命名漸層_44-3);}.cls-17{fill:url(#未命名漸層_47-4);stroke:url(#未命名漸層_44-4);}.cls-18{fill:url(#未命名漸層_47-5);stroke:url(#未命名漸層_44-5);}.cls-19{fill:url(#未命名漸層_47-6);stroke:url(#未命名漸層_44-6);}.cls-20{fill:url(#未命名漸層_47-7);stroke:url(#未命名漸層_44-7);}.cls-21{fill:url(#未命名漸層_47-8);stroke:url(#未命名漸層_44-8);}.cls-22{fill:url(#未命名漸層_47-9);stroke:url(#未命名漸層_44-9);}.cls-23{fill:url(#未命名漸層_47-10);stroke:url(#未命名漸層_44-10);}.cls-24{fill:url(#未命名漸層_47-11);stroke:url(#未命名漸層_44-11);}.cls-25{fill:url(#未命名漸層_47-12);stroke:url(#未命名漸層_44-12);}.cls-26{fill:url(#未命名漸層_47-13);stroke:url(#未命名漸層_44-13);}.cls-27{fill:url(#未命名漸層_47-14);stroke:url(#未命名漸層_44-14);}.cls-28{fill:url(#未命名漸層_47-15);stroke:url(#未命名漸層_44-15);}.cls-29{fill:url(#未命名漸層_47-16);stroke:url(#未命名漸層_44-16);}</style><linearGradient id="未命名漸層_191" x1="29.8" y1="4.68" x2="290.74" y2="474.37" gradientUnits="userSpaceOnUse"><stop offset="0" stop-color="#2e3453"/><stop offset="0.16" stop-color="#313f76"/><stop offset="0.29" stop-color="#32468d"/><stop offset="0.38" stop-color="#334996"/><stop offset="0.52" stop-color="#324384"/><stop offset="0.83" stop-color="#2f3860"/><stop offset="1" stop-color="#2e3453"/></linearGradient><linearGradient id="未命名漸層_42" x1="29.13" y1="252.63" x2="261.12" y2="252.63" gradientUnits="userSpaceOnUse"><stop offset="0" stop-color="#e8c5df"/><stop offset="0.96" stop-color="#a2ddd9"/></linearGradient><linearGradient id="未命名漸層_42-2" x1="56.71" y1="221.25" x2="288.79" y2="221.25" xlink:href="#未命名漸層_42"/><linearGradient id="未命名漸層_42-3" x1="38.66" y1="33.51" x2="57.71" y2="33.51" xlink:href="#未命名漸層_42"/><linearGradient id="未命名漸層_42-4" x1="20.6" y1="55.19" x2="39.65" y2="55.19" xlink:href="#未命名漸層_42"/><linearGradient id="未命名漸層_42-5" x1="70.25" y1="33.4" x2="94.09" y2="33.4" xlink:href="#未命名漸層_42"/><linearGradient id="未命名漸層_42-6" x1="24.68" y1="86.8" x2="35.61" y2="86.8" xlink:href="#未命名漸層_42"/><linearGradient id="未命名漸層_42-7" x1="20.19" y1="41.55" x2="51.34" y2="41.55" xlink:href="#未命名漸層_42"/><linearGradient id="未命名漸層_42-8" x1="260.15" y1="440.19" x2="279.2" y2="440.19" xlink:href="#未命名漸層_42"/><linearGradient id="未命名漸層_42-9" x1="278.21" y1="418.51" x2="297.26" y2="418.51" xlink:href="#未命名漸層_42"/><linearGradient id="未命名漸層_42-10" x1="223.77" y1="440.3" x2="247.61" y2="440.3" xlink:href="#未命名漸層_42"/><linearGradient id="未命名漸層_42-11" x1="282.26" y1="386.9" x2="293.19" y2="386.9" xlink:href="#未命名漸層_42"/><linearGradient id="未命名漸層_42-12" x1="266.52" y1="432.15" x2="297.67" y2="432.15" xlink:href="#未命名漸層_42"/><linearGradient id="未命名漸層_47" x1="137.26" y1="293.69" x2="184.06" y2="293.69" gradientUnits="userSpaceOnUse"><stop offset="0" stop-color="#2e3453"/><stop offset="1" stop-color="#83a2ce"/></linearGradient><linearGradient id="未命名漸層_44" x1="136.76" y1="293.6" x2="184.56" y2="293.6" gradientUnits="userSpaceOnUse"><stop offset="0" stop-color="#fff"/><stop offset="1" stop-color="#83a2ce"/></linearGradient><linearGradient id="未命名漸層_47-2" x1="95.19" y1="174.21" x2="226.13" y2="174.21" xlink:href="#未命名漸層_47"/><linearGradient id="未命名漸層_44-2" x1="94.69" y1="174.31" x2="226.63" y2="174.31" xlink:href="#未命名漸層_44"/><linearGradient id="未命名漸層_47-3" x1="90.76" y1="143.92" x2="104.68" y2="143.92" xlink:href="#未命名漸層_47"/><linearGradient id="未命名漸層_44-3" x1="90.26" y1="143.92" x2="105.18" y2="143.92" xlink:href="#未命名漸層_44"/><linearGradient id="未命名漸層_47-4" x1="147.94" y1="85" x2="173.38" y2="85" xlink:href="#未命名漸層_47"/><linearGradient id="未命名漸層_44-4" x1="147.44" y1="85" x2="173.88" y2="85" xlink:href="#未命名漸層_44"/><linearGradient id="未命名漸層_47-5" x1="160.04" y1="302.91" x2="172.06" y2="302.91" xlink:href="#未命名漸層_47"/><linearGradient id="未命名漸層_44-5" x1="159.36" y1="302.82" x2="172.57" y2="302.82" xlink:href="#未命名漸層_44"/><linearGradient id="未命名漸層_47-6" x1="149.27" y1="297.42" x2="161.37" y2="297.42" xlink:href="#未命名漸層_47"/><linearGradient id="未命名漸層_44-6" x1="148.76" y1="297.42" x2="161.87" y2="297.42" xlink:href="#未命名漸層_44"/><linearGradient id="未命名漸層_47-7" x1="156.94" y1="278.54" x2="164.36" y2="278.54" xlink:href="#未命名漸層_47"/><linearGradient id="未命名漸層_44-7" x1="156.25" y1="278.64" x2="165.04" y2="278.64" xlink:href="#未命名漸層_44"/><linearGradient id="未命名漸層_47-8" x1="157.53" y1="98.2" x2="163.79" y2="98.2" gradientTransform="translate(321.32 196.4) rotate(-180)" xlink:href="#未命名漸層_47"/><linearGradient id="未命名漸層_44-8" x1="157.03" y1="98.2" x2="164.29" y2="98.2" gradientTransform="translate(321.32 196.4) rotate(-180)" xlink:href="#未命名漸層_44"/><linearGradient id="未命名漸層_47-9" x1="135.05" y1="177.13" x2="181.84" y2="177.13" xlink:href="#未命名漸層_47"/><linearGradient id="未命名漸層_44-9" x1="134.55" y1="177.22" x2="182.34" y2="177.22" xlink:href="#未命名漸層_44"/><linearGradient id="未命名漸層_47-10" x1="92.98" y1="296.61" x2="223.92" y2="296.61" xlink:href="#未命名漸層_47"/><linearGradient id="未命名漸層_44-10" x1="92.48" y1="296.51" x2="224.42" y2="296.51" xlink:href="#未命名漸層_44"/><linearGradient id="未命名漸層_47-11" x1="214.43" y1="326.9" x2="228.35" y2="326.9" xlink:href="#未命名漸層_47"/><linearGradient id="未命名漸層_44-11" x1="213.93" y1="326.9" x2="228.85" y2="326.9" xlink:href="#未命名漸層_44"/><linearGradient id="未命名漸層_47-12" x1="145.73" y1="385.82" x2="171.17" y2="385.82" xlink:href="#未命名漸層_47"/><linearGradient id="未命名漸層_44-12" x1="145.23" y1="385.82" x2="171.67" y2="385.82" xlink:href="#未命名漸層_44"/><linearGradient id="未命名漸層_47-13" x1="147.05" y1="167.91" x2="159.07" y2="167.91" xlink:href="#未命名漸層_47"/><linearGradient id="未命名漸層_44-13" x1="146.54" y1="168" x2="159.75" y2="168" xlink:href="#未命名漸層_44"/><linearGradient id="未命名漸層_47-14" x1="157.74" y1="173.4" x2="169.84" y2="173.4" xlink:href="#未命名漸層_47"/><linearGradient id="未命名漸層_44-14" x1="157.24" y1="173.4" x2="170.35" y2="173.4" xlink:href="#未命名漸層_44"/><linearGradient id="未命名漸層_47-15" x1="154.75" y1="192.28" x2="162.17" y2="192.28" xlink:href="#未命名漸層_47"/><linearGradient id="未命名漸層_44-15" x1="154.07" y1="192.18" x2="162.86" y2="192.18" xlink:href="#未命名漸層_44"/><linearGradient id="未命名漸層_47-16" x1="155.32" y1="372.62" x2="161.58" y2="372.62" xlink:href="#未命名漸層_47"/><linearGradient id="未命名漸層_44-16" x1="154.82" y1="372.62" x2="162.08" y2="372.62" xlink:href="#未命名漸層_44"/></defs><g id="圖層_2" data-name="圖層 2"><g id="圖層_1-2" data-name="圖層 1"><rect class="cls-1" width="316.89" height="472.49" rx="25.28"/><path class="cls-2" d="M261.12,440.55H47a16.88,16.88,0,0,1-16.88-16.88v-360"/><path class="cls-3" d="M56.71,33.51H270.9a16.89,16.89,0,0,1,16.89,16.88V410"/><circle class="cls-4" cx="48.18" cy="33.51" r="8.53"/><circle class="cls-5" cx="30.13" cy="55.19" r="8.53"/><path class="cls-6" d="M83,38.86c-3,0-12.71-5.46-12.71-5.46S79.94,27.93,83,27.93,94.09,33.4,94.09,33.4,86,38.86,83,38.86Z"/><path class="cls-7" d="M24.68,87.59c0-3,5.46-12.71,5.46-12.71s5.47,9.69,5.47,12.71-5.47,11.13-5.47,11.13S24.68,90.61,24.68,87.59Z"/><circle class="cls-8" cx="35.76" cy="41.55" r="14.57"/><circle class="cls-9" cx="269.68" cy="440.19" r="8.53"/><circle class="cls-10" cx="287.74" cy="418.51" r="8.53"/><path class="cls-11" d="M234.91,434.84c3,0,12.7,5.46,12.7,5.46s-9.68,5.47-12.7,5.47-11.14-5.47-11.14-5.47S231.89,434.84,234.91,434.84Z"/><path class="cls-12" d="M293.19,386.11c0,3-5.47,12.71-5.47,12.71s-5.46-9.69-5.46-12.71S287.72,375,287.72,375,293.19,383.09,293.19,386.11Z"/><circle class="cls-13" cx="282.1" cy="432.15" r="14.57"/><path class="cls-14" d="M160.65,325.58a23.42,23.42,0,0,1-23.39-23.39,23.88,23.88,0,0,1,1.34-7.84l.15-.36c.15-.39.24-.65.35-.9h0a86.27,86.27,0,0,1,9.74-17.77c.22-.33.47-.7.73-1.06a86.26,86.26,0,0,1,10.6-12l.48-.45.49.45a84.9,84.9,0,0,1,10.62,12c.21.29.42.59.62.91a86,86,0,0,1,9.84,17.91h0c.11.25.21.51.31.77l.19.49a23.42,23.42,0,0,1-22.07,31.23Zm-20.3-31.81c-.08.2-.16.4-.23.6l-.19.47a22,22,0,1,0,41.46,0l-.13-.33c-.12-.31-.2-.53-.29-.73l-.1-.11v-.15A84.58,84.58,0,0,0,171.2,276c-.2-.32-.38-.58-.58-.85a83.55,83.55,0,0,0-10-11.36,84.53,84.53,0,0,0-9.95,11.35c-.25.34-.48.68-.7,1a84.25,84.25,0,0,0-9.55,17.4v.15Z"/><path class="cls-15" d="M160.65,263.72l-.48-.46a248.16,248.16,0,0,1-60.4-89l-.06-.14a65.27,65.27,0,0,1-4.52-24H96.6a63.82,63.82,0,0,0,4.37,23.3l.07.18a246.73,246.73,0,0,0,59.62,88.11,246.82,246.82,0,0,0,29.5-33.46,2.33,2.33,0,0,1,.22-.32,243.76,243.76,0,0,0,29.89-54.31l.07-.15a64.11,64.11,0,0,0-59.67-87.4V84.71a65.54,65.54,0,0,1,61,89.43l-.06.14a245.64,245.64,0,0,1-30.06,54.58,2,2,0,0,0-.16.22,247.47,247.47,0,0,1-30.2,34.18Z"/><path class="cls-16" d="M97.72,150.88a7,7,0,1,1,7-7A7,7,0,0,1,97.72,150.88Zm0-12.5a5.55,5.55,0,1,0,5.55,5.54A5.55,5.55,0,0,0,97.72,138.38Z"/><circle class="cls-17" cx="160.66" cy="85" r="12.72"/><path class="cls-18" d="M171.88,305.75c-1.34,0-9.23-.21-11.84-5l1.24-.67c2.38,4.37,10.67,4.25,10.75,4.25l0,1.41Z"/><path class="cls-19" d="M149.45,305.75h-.18l0-1.41c.08,0,8.18.11,10.66-4.1V289.1h1.42v11.49l-.09.16C158.67,305.54,150.78,305.75,149.45,305.75Z"/><path class="cls-20" d="M163.63,279.67c-.13-.08-3.15-1.84-5.91,0l-.78-1.18c3.52-2.33,7.26-.12,7.42,0Z"/><rect class="cls-21" x="157.53" y="88.36" width="6.26" height="19.69" transform="translate(321.32 196.4) rotate(180)"/><path class="cls-22" d="M158.46,209l-.49-.45a84.9,84.9,0,0,1-10.62-12c-.21-.29-.42-.59-.62-.91a85.85,85.85,0,0,1-9.79-17.79l-.11-.11v-.15l-.27-.69-.17-.43a23.4,23.4,0,1,1,44.11,0l-.14.36c-.11.29-.2.53-.3.76v.15l-.1.11a86.38,86.38,0,0,1-9.69,17.65c-.22.33-.47.7-.74,1.06a85.54,85.54,0,0,1-10.59,12Zm-20.22-31.7a84.41,84.41,0,0,0,9.67,17.55c.2.32.38.58.58.85a83.55,83.55,0,0,0,10,11.36,84.53,84.53,0,0,0,10-11.35c.25-.34.48-.68.7-1a84.44,84.44,0,0,0,9.55-17.39l0-.12h0l.06-.14.26-.66.16-.41a22,22,0,1,0-41.46,0l.13.33.29.73Z"/><path class="cls-23" d="M158.44,386.11a65.54,65.54,0,0,1-60.95-89.43l.06-.14A245.64,245.64,0,0,1,127.61,242a2,2,0,0,0,.16-.22A247.47,247.47,0,0,1,158,207.56l.49-.46.48.46a248.25,248.25,0,0,1,60.4,89l.06.15a65.27,65.27,0,0,1,4.52,24h-1.41a63.93,63.93,0,0,0-4.36-23.29h0l-.07-.18a246.86,246.86,0,0,0-59.62-88.11A246.22,246.22,0,0,0,129,242.51a2.33,2.33,0,0,1-.22.32,244.2,244.2,0,0,0-29.9,54.31l-.06.15a64.11,64.11,0,0,0,59.67,87.4Z"/><path class="cls-24" d="M221.39,333.86a7,7,0,1,1,7-7A7,7,0,0,1,221.39,333.86Zm0-12.51a5.55,5.55,0,1,0,5.54,5.55A5.56,5.56,0,0,0,221.39,321.35Z"/><circle class="cls-25" cx="158.45" cy="385.82" r="12.72"/><path class="cls-26" d="M157.83,170.74c-2.38-4.37-10.67-4.26-10.75-4.25l0-1.42c.37,0,9.23-.13,12,5Z"/><path class="cls-27" d="M159.15,181.72h-1.41V170.23l.09-.16c2.79-5.13,11.65-5,12-5l0,1.42c-.08,0-8.18-.11-10.67,4.1Z"/><path class="cls-28" d="M158.63,193.4a8.19,8.19,0,0,1-3.88-1l.73-1.21c.13.07,3.14,1.84,5.91,0l.78,1.18A6.28,6.28,0,0,1,158.63,193.4Z"/><rect class="cls-29" x="155.32" y="362.77" width="6.26" height="19.69"/></g></g></svg>