<svg id="圖層_1" data-name="圖層 1" xmlns="http://www.w3.org/2000/svg" viewBox="0 0 2049 91.12"><defs><style>.cls-1{fill:#a2ddd9;}.cls-2{fill:#2e3453;}</style></defs><circle class="cls-1" cx="245.89" cy="31.88" r="26.39"/><circle class="cls-2" cx="435.27" cy="27.75" r="12.61"/><path class="cls-1" d="M435.27,41.11a13.36,13.36,0,1,1,13.36-13.36A13.37,13.37,0,0,1,435.27,41.11Zm0-25.21a11.86,11.86,0,1,0,11.86,11.85A11.86,11.86,0,0,0,435.27,15.9Z"/><circle class="cls-2" cx="356.64" cy="27.75" r="20.25"/><path class="cls-1" d="M356.64,48.75a21,21,0,1,1,21-21A21,21,0,0,1,356.64,48.75Zm0-40.5a19.51,19.51,0,1,0,19.5,19.5A19.53,19.53,0,0,0,356.64,8.25Z"/><circle class="cls-2" cx="1750.9" cy="32.82" r="32.07"/><path class="cls-1" d="M1750.9,65.64a32.82,32.82,0,1,1,32.82-32.82A32.85,32.85,0,0,1,1750.9,65.64Zm0-64.14a31.32,31.32,0,1,0,31.33,31.32A31.36,31.36,0,0,0,1750.9,1.5Z"/><path class="cls-1" d="M1141.21,82.83a1956.36,1956.36,0,0,1-295.1-21.92c-244.55-37-461.09-35-599.68-26.86C96.25,42.9,2.71,60.72,1.78,60.9A1.5,1.5,0,0,1,1.21,58c.93-.18,94.62-18,245-26.9C384.94,22.89,601.72,20.92,846.56,58c269.11,40.7,487.67,16.44,699-7,158.38-17.59,322.16-35.76,502-24.83a1.5,1.5,0,1,1-.18,3c-179.58-10.92-335.94,6.44-501.48,24.82C1417,68.21,1285.36,82.83,1141.21,82.83Z"/></svg>