<svg xmlns="http://www.w3.org/2000/svg" width="443.97" height="84.47" viewBox="0 0 443.97 84.47"><defs><style>.cls-1{font-size:49.66px;}.cls-1,.cls-2,.cls-3{fill:#fff;}.cls-1,.cls-2{font-family:CSong3HK-Medium-B5pc-H, CSong3HK;}.cls-2{font-size:21.04px;}</style></defs><g id="圖層_2" data-name="圖層 2"><g id="圖層_1-2" data-name="圖層 1"><text class="cls-1" transform="translate(84.54 46.15)">天黑請閉眼 </text><text class="cls-1" transform="translate(84.54 46.15)">天黑請閉眼 </text><text class="cls-2" transform="translate(91.28 80.41)">The Werewolves of Miller&apos;s Hollow</text><polygon class="cls-3" points="351.4 40.2 348.39 44.85 351.4 49.5 354.41 44.85 351.4 40.2"/><polygon class="cls-3" points="373.98 40.2 370.97 44.85 373.98 49.5 376.99 44.85 373.98 40.2"/><polygon class="cls-3" points="396.56 40.2 393.55 44.85 396.56 49.5 399.56 44.85 396.56 40.2"/><path class="cls-3" d="M12.68,33.25l0-.06v0Z"/><path class="cls-3" d="M40.24,0A40.24,40.24,0,0,0,4.56,58.85l1.29-2.22.89-1.33a5.51,5.51,0,0,0,1.08-1.5,2.66,2.66,0,0,0,.79-1l1.53-1.88c1.08-1.33,2.34-2.57,3.54-3.82a33.45,33.45,0,0,1,3.08-3c.51-.43,3.21-1.76,3-2.5l-2.65-2.07a13.34,13.34,0,0,1-2.88-3.25c-.27-.42-1.55-2.22-1.57-3a.23.23,0,0,1-.11-.07.17.17,0,0,1,.11,0,.35.35,0,0,1,.06-.23c.26-.38,1.25,0,1.6.07,2.77.44,5.66.75,8.49.93a3.48,3.48,0,0,0,3.26-1,15.75,15.75,0,0,1,4.85-3.73,10.73,10.73,0,0,1,2.87-1.08c1-.17,2.11-.15,3.13-.28a7.89,7.89,0,0,0,3.52-2c1.22-1,2.32-2.06,3.58-2.94,1.58-1.12,2.59-2.81,4.31-3.77a3,3,0,0,1,1.39-.47c1,0,1.46.85,1.83,1.62a6.26,6.26,0,0,0,.34.55,6,6,0,0,1,.57,2.09,6.3,6.3,0,0,1,0,2.29c-.18.69-.36,1.39-.55,2.08-.36.86-.73,1.72-1.1,2.57a25.93,25.93,0,0,1-1.49,2.54A30.13,30.13,0,0,1,47.59,35c1.17-.28,2.11-1.16,3.22-1.61a5.64,5.64,0,0,0,2.57-1.29c.1-.13.22-.28.39-.29s.54.26.76.34a1.57,1.57,0,0,1,.85.43c.39.5.19,1.57.06,2.13a4.13,4.13,0,0,1-.84,1.72,8,8,0,0,1-1.67,1.24c-.19.14-.44.2-.64.34A11.31,11.31,0,0,0,50.4,39.8c-.56.59-1.1,1.2-1.62,1.82a8.71,8.71,0,0,0-.64.86c-.2.31-.3.65-.47,1-.18.61-.27,1.24-.41,1.86A24.54,24.54,0,0,0,48,57.83a25.63,25.63,0,0,0,1.3,3.23c.13.28.86,1.26.81,1.53s-1.07.52-1.46.64a1,1,0,0,1-.23.06,1.5,1.5,0,0,1-.37,0,13.63,13.63,0,0,1-1.81-.43c-.32-.13-.68-.53-1-.38s.08,2.6.12,2.91A17,17,0,0,0,46,68.51a19.49,19.49,0,0,0,2.66,5.17,11.67,11.67,0,0,1-2.83.2,2.51,2.51,0,0,1-.78-.14,5.22,5.22,0,0,1-1.31-1c-.58-.49-1.52-.66-1.83.21-.52,1.41,0,3.54.2,5,0,.16.41,2.52.36,2.52A40.24,40.24,0,0,0,40.24,0Z"/><path class="cls-3" d="M35.71,30A3.37,3.37,0,0,0,33,31.82a3.75,3.75,0,0,0-.38,1,6,6,0,0,0-.08.61,3.24,3.24,0,0,1,0,.63l2.82-1.68a9.38,9.38,0,0,1,1.58-.88.84.84,0,0,0,.36-.19.55.55,0,0,0,.07-.58A1.32,1.32,0,0,0,36.19,30,2.58,2.58,0,0,0,35.71,30Z"/></g></g></svg>