<svg xmlns="http://www.w3.org/2000/svg" width="517.16" height="477.67" viewBox="0 0 517.16 477.67"><defs><style>.cls-1{fill:none;stroke-linecap:round;stroke-linejoin:round;stroke-width:0.25px;}.cls-1,.cls-4{stroke:#2e3453;}.cls-2{fill:#8d82bb;}.cls-3{fill:#2e3453;stroke:#a2ddd9;}.cls-3,.cls-4{stroke-miterlimit:10;}.cls-4{fill:#a2ddd9;}</style></defs><g id="圖層_2" data-name="圖層 2"><g id="圖層_1-2" data-name="圖層 1"><path class="cls-1" d="M247.79,385C261.54,360.49,290,342.87,314,327.39c40-25.8,79.7-52.25,120.22-77.43,63.38-39.38,98.14-103.89,76.17-170.41C505.55,64.77,496.36,50.79,482,42.61c-16.13-9.19-36.71-10-56.16-8.38C392.18,37.07,359.38,46,331.26,26,320.79,18.5,311.25,9.68,299,4.72,283.08-1.74,264.1-.83,246.91,4c-24.33,6.79-48.64,19.52-67.19,35.64-10.89,9.48-20.29,20.26-29.35,31.19C112.85,116,78.52,166.37,51.73,217.16c-38.6,73.18-70.13,170.35,2.41,230.77,28.43,23.68,76,37.65,115.14,24.63,41.2-13.69,60.17-53.95,78.13-86.84C247.53,385.49,247.66,385.26,247.79,385Z"/><path class="cls-1" d="M497.05,88.05c-3.08-14.67-8.34-30.63-22.53-40s-33.61-10.24-51.68-9c-31,2.09-60.83,9.47-87.38-7.78-10.59-6.88-20.61-14.28-32.78-19.44C288,5.54,270.45,6.13,254.49,10.25A165.82,165.82,0,0,0,192,42.3a231.47,231.47,0,0,0-29.1,29.48,778.32,778.32,0,0,0-89.95,133c-36.1,67.75-64,155-1.76,213.53C96,441.67,137,459.91,174.86,449.65c38.49-10.42,57.18-47,74.91-77.18,1.75-.75,2.62-2.57,3.46-4.09,12.27-22.15,38.08-37.83,59.63-51.9,36.74-24,73.42-48.7,110.84-72C482.34,208,510.13,150.21,497.05,88.05Z"/><path class="cls-1" d="M483.67,96.54C482.34,81.6,481.14,64.15,467,53.41c-12.57-9.57-30.5-10.45-47.19-9.66-28.24,1.34-55.31,7.31-80.16-7.28a322.34,322.34,0,0,0-33.33-17.65c-13.5-6-29.53-5.74-44.26-2.29C241.33,21.44,220.61,32,204.17,45a205,205,0,0,0-28.84,27.79c-31.26,36.62-58.92,78.17-81.26,119.57-33.6,62.3-57.84,139.94-5.93,196.29,21.43,23.26,55.52,45.59,92.3,38.1,35.65-7.25,54.19-40.15,71.68-67.51,3.39-1.27,5-4.68,6.54-7.48,10.91-19.7,33.95-33.51,53-46.16,33.42-22.17,67.13-45.16,101.45-66.54C467,205.48,488.73,153.37,483.67,96.54Z"/><path class="cls-1" d="M470.29,105c4.16-15.06,3.3-34-10.78-46.24-10.91-9.45-27.39-10.64-42.71-10.29-25.52.6-49.93,5.28-72.94-6.79C332.92,36,322,31.46,310,25.87c-12.29-5.7-26.85-5.86-40.34-3.07-18.95,3.93-37.92,13.4-53.26,24.87A181.59,181.59,0,0,0,187.8,73.75c-28.06,32.37-52.46,69.47-72.56,106.19-31.11,56.85-51.7,125.45-10.1,179,18.14,23.37,45,49.5,80.88,44.84,32.67-4.25,51.2-33.26,68.46-57.84,5-1.81,7.35-6.79,9.61-10.88,9.55-17.25,29.82-29.21,46.42-40.43,30.12-20.35,60.84-41.61,92.08-61.09C451.74,202.93,480.82,154.61,470.29,105Z"/><path class="cls-1" d="M456.91,113.53C464.08,98.39,466,78,452,64.2c-9.33-9.17-24.27-10.84-38.22-10.92-22.79-.14-44.68,3.4-65.72-6.3-11.19-5.16-22.43-8.24-34.42-14.06-11.09-5.39-24.15-6-36.41-3.84-17.15,3-34.4,11.31-48.62,21.27-10.18,7.12-20.12,15.09-28.33,24.39-24.83,28.14-46,60.75-63.86,92.79-28.63,51.41-45.83,111.67-14.28,161.8,15,23.76,35.46,60.33,69.46,51.57,28.66-7.37,48.22-26.36,65.24-48.17,6.65-2.33,9.72-8.9,12.69-14.27,8.19-14.8,25.67-24.91,39.81-34.69,26.82-18.55,54.55-38.07,82.69-55.65C436.44,200.38,463.62,157.46,456.91,113.53Z"/><path class="cls-1" d="M443.52,122c10.19-15.24,14.89-36.93,1-52.43-7.86-8.76-21.15-11-33.75-11.56-20-.85-39.54,1.69-58.49-5.81-11.49-4.54-23.05-6.18-35-12.26-9.9-5-21.46-6.07-32.48-4.61-15.36,2-30.92,9.19-44,17.67-10,6.52-20.07,13.81-28.07,22.7-21.56,24-39.6,52-55.17,79.39-26.16,46-49.39,104.23-18.45,144.56,6.52,26.42,24.26,65.22,58.05,58.31,25.82-5.28,45.22-19.47,62-38.51,8.27-2.85,12.08-11,15.76-17.66,6.84-12.35,21.52-20.64,33.2-29,23.54-16.75,48.27-34.52,73.31-50.2C421.15,197.83,446.43,160.3,443.52,122Z"/><path class="cls-1" d="M430.14,130.52C443.35,115.19,450.66,92.36,437,75c-6.48-8.24-18-11.19-29.26-12.19-17.29-1.53-34.51.17-51.27-5.31-11.84-3.87-23.67-4.12-35.52-10.47-8.72-4.68-18.76-6.17-28.55-5.38-13.56,1.09-27.47,7-39.34,14.08-9.92,5.88-20,12.52-27.81,21C207,96.51,192,120,178.76,142.72c-23.71,40.51-45.24,91-22.62,127.31,2.14,27,12.68,60.25,46.63,65,23,3.26,42.23-12.57,58.79-28.84,9.9-3.37,14.44-13.11,18.84-21.05,5.47-9.9,17.34-16.39,26.59-23.22,20.26-15,42-31,63.93-44.76C405.85,195.28,429.24,163.15,430.14,130.52Z"/><path class="cls-1" d="M416.76,139C433,123.6,442.68,99.79,429.49,80.39,424.28,72.73,414.6,69,404.71,67.57c-14.54-2.18-29.57-1.17-44-4.83-12.24-3.09-24.31-2-36.06-8.67A48.34,48.34,0,0,0,300,47.92c-11.75.15-24.05,4.82-34.7,10.48-9.82,5.22-19.94,11.25-27.55,19.3-14.86,15.7-26.82,34.56-37.79,52.61-21.28,35.05-41.08,77.77-26.8,110.07-2.24,27.52,1.81,63.12,35.22,71.78,19.79,5.13,39.25-5.68,55.56-19.18,11.54-3.89,16.82-15.22,21.92-24.44,4.12-7.45,13.15-12.19,20-17.48,17-13.21,35.69-27.44,54.55-39.31C390.55,192.73,412,166,416.76,139Z"/><path class="cls-1" d="M403.38,147.51C422.61,132,434.33,107.39,422,85.79c-4-7.05-11.76-11.47-20.29-13.46C389.9,69.57,377,70,364.86,68c-12.67-2.12-25,.13-36.61-6.88a47,47,0,0,0-20.7-6.93c-9.95-.77-20.66,2.56-30.06,6.89-9.75,4.5-19.84,10-27.3,17.61-11.41,11.65-20.49,25.79-29.08,39.21-18.93,29.56-36.94,64.55-31,92.83-6.62,28.07-8.83,65.39,23.8,78.51,16.67,6.71,35-1,52.34-9.51,12.47-6.11,19.18-17.33,25-27.83,2.77-5,8.92-8.05,13.37-11.75,13.81-11.48,29.41-23.89,45.17-33.86C375.25,190.18,394.85,168.84,403.38,147.51Z"/><path class="cls-1" d="M390,156c19.74-18.68,35.44-40.83,24.49-64.83a27.33,27.33,0,0,0-15.81-14.09c-9.07-3.26-19.74-3.23-29.61-3.84-13.11-.8-25.69,2.36-37.16-5.08-5.28-3.43-10.66-6.43-16.77-7.7-8.15-1.68-17.3.21-25.42,3.3-9.71,3.68-19.7,8.79-27,15.9-7.91,7.68-14.23,17-20.39,25.82-16.71,24-29.55,51.86-35.15,75.59-7,29.84-18.87,67,12.38,85.25,13.81,8.08,32.74,7,49.12.15,14.4-6,21.55-19.43,28.07-31.22,1.4-2.55,4.6-4,6.76-6,10.63-9.83,23.11-20.35,35.79-28.42C360,187.63,375.5,169.73,390,156Z"/><path class="cls-1" d="M302.28,218.34c5.48-9.78,16.83-16.8,26.41-23,16-10.29,31.77-20.83,47.92-30.87,25.26-15.69,39.12-41.41,30.36-67.92-1.94-5.89-5.61-11.47-11.32-14.73-6.43-3.66-14.64-4-22.39-3.34-13.42,1.14-26.5,4.68-37.7-3.3-4.18-3-8-6.49-12.85-8.46-6.36-2.58-13.92-2.21-20.78-.3a70.94,70.94,0,0,0-26.78,14.21,104.72,104.72,0,0,0-11.7,12.43,344.94,344.94,0,0,0-39.32,58.34c-15.38,29.17-27.95,67.9,1,92,11.34,9.44,30.28,15,45.9,9.82,16.42-5.46,24-21.5,31.14-34.61Z"/><circle class="cls-2" cx="15.72" cy="396.18" r="15.71"/><circle class="cls-3" cx="392.42" cy="241.71" r="9.83"/><circle class="cls-4" cx="88.93" cy="240.38" r="10.62"/><circle class="cls-4" cx="166.82" cy="376.43" r="10.62"/></g></g></svg>