<svg xmlns="http://www.w3.org/2000/svg" xmlns:xlink="http://www.w3.org/1999/xlink" width="862.15" height="867.61" viewBox="0 0 862.15 867.61"><defs><style>.cls-1{fill:none;}.cls-2{clip-path:url(#clip-path);}.cls-3{fill:#8d82bb;}.cls-4{fill:#e8c5df;}</style><clipPath id="clip-path" transform="translate(-14.36 -63.45)"><rect class="cls-1" width="413.55" height="434.9"/></clipPath></defs><g id="圖層_2" data-name="圖層 2"><g id="圖層_1-2" data-name="圖層 1"><g class="cls-2"><path class="cls-3" d="M30.2,397.58A495.77,495.77,0,0,1,41,267.76c7.18-32.91-3.52-69.31-12.22-101.86a319.38,319.38,0,0,0-11.57-34.13c-1.84-4.67-3.77-9.77-2.37-14.59,1.72-5.9,8-9.61,9.73-15.49l22,30.24A156.75,156.75,0,0,0,35,95.3a9.74,9.74,0,0,1-1.27-4.57,9.24,9.24,0,0,1,1.89-4.36Q41.37,77.7,48,69.63c1.79-2.2,3.77-4.46,6.46-5.36s3.05-1.53,4.8.7q26.92,34.52,53.86,69c3.17,4.07,6.51,8.27,11.16,10.5,5.2,2.49,11.5,2.24,16.4,5.29,4.15,2.58,6.6,7.11,8.87,11.44l26.38,50.28a53.38,53.38,0,0,0,6.33,10.12c2.59,3,5.82,5.4,8.9,7.91a125.31,125.31,0,0,1,32.45,40.26,166.76,166.76,0,0,1-40.63-11.67A179,179,0,0,0,232.05,316c3.3,2.52,6.79,5,8.82,8.66,1,1.71,1.58,3.64,2.91,5.06a12.83,12.83,0,0,0,3.52,2.42l42.39,22.75-6.4,4.8,58.28,22.15c17.18,6.54,29.73,19.23,47.29,24.65L399,409.62,477.91,434c54.81,16.92,110.32,34.16,158.93,64.61l-9.27,6.21c14.16,8.49,24.82,21.63,35,34.6,23.58,30,47.72,61.57,82,78.17,40.37,19.52,88.08,14.95,131.87,5.29a92.72,92.72,0,0,1-66,45.67L822.2,673a115.23,115.23,0,0,1-25.33,10.58c-1.16-.73-2.91-.68-2.76.76.92-.24,1.84-.5,2.76-.76a1.79,1.79,0,0,1,1,1.86c-.43,2.21-3.06,3.1-5.27,3.54a123.37,123.37,0,0,1-53.5-1.48l9.36,8.66a112.87,112.87,0,0,1-46.76-16l5.33,10A684.42,684.42,0,0,1,644.73,657c3.1,27.44,5.21,53.23,5.38,72.39,0,0-2.56-9.82-4.7-13.72.4,9.89,1.22,15,1.67,24.43a136.14,136.14,0,0,0,7.78,39.27,310.74,310.74,0,0,1,10.92,37.45c1.85,8.26,5.8,21.91,5.35,30.37,0,.87-.1,1.71-.14,2.55h0c-1,17.12-2.48,29-2.74,46.76a50.32,50.32,0,0,1-.42,5.47c-1.57,12.21-7,26-7,26s-15.47,2.09-27.43,3c-3.35.26-6.73,0-10.09.05a4.21,4.21,0,0,1-3-.79c-1-.94-2.65-2.68-2.83-4.21-.86-7.33-.38-14.62-1.24-21.94-.38-3.3-.76-6.74.13-9.86s4.92-9.13,7.15-11c2.58-2.17,3.71-5,4-8.58.62-6.51-1.48-15.26-2.32-26-.9-11.6-14.8-23.49-21.9-31.6-.72-.81-1.45-1.68-2.21-2.59,1.21,1.24,2.45,2.45,3.7,3.63-1.25-1.18-2.49-2.39-3.7-3.63-6.37-6.72-13.71-17-21.49-29.6a75.2,75.2,0,0,0,5.26,9.39,25.83,25.83,0,0,1-15.65-7.31l6.13,14.26-6.77-5.21a108.31,108.31,0,0,0,11.89,19.48c-2-1.62-4.77-3.64-6.76-5.26l.44,5.35,4.71,23.36a4.38,4.38,0,0,1,0,2.27,3.6,3.6,0,0,1-1.08,1.38c-7.28,6.73-10,18.33-11.9,29.26-.54,3.14-1.06,6.33-1.67,9.49-1.5,7.85-3.55,15.47-7.81,21.46-7.89,11.06-21.22,14.65-21.22,14.65s-26.71,3-33.55-.17a6.43,6.43,0,0,1-3.33-2.84,10,10,0,0,1-.74-4.1q-.25-6.53-.52-13.07a11.37,11.37,0,0,1,.49-4.75c1-2.3,3.28-3.16,5.31-4a40.75,40.75,0,0,0,17.89-15.08,23.91,23.91,0,0,0,4.11-9.68c.49-3.22.05-6.58.41-9.83.62-5.59,4.85-14.25,4.29-17.58v0c-.07-.31-.15-.62-.21-.92a52.47,52.47,0,0,0-3.26-10.66C518.59,808,510.87,791,507.53,772.54l5.17,3.2-.7-.58a69.36,69.36,0,0,0-13.71-8.29c-8.89-4.25-18.32-5-26.86-10.21-9.81-6-19.06-15.57-25.58-26.27a115.37,115.37,0,0,1-7.61-15.1c-5.73-10-10.31-17.2-14.75-18.26-32.34-7.71-60.2-5.54-103.81-33.67,0,0-5-.66-10.8-1.48,3.13,28.7,7.52,70.45,10.59,87a38.16,38.16,0,0,0,4.34-9.32,91.26,91.26,0,0,1-.92,25.77,11.38,11.38,0,0,0,4.25-6.05c-.37,6.78-2,11.68-3.23,18.21q1.79-2.32,3.58-4.63A38.15,38.15,0,0,1,323,789.62c-1.16,2.08-2.58,4.07-2.95,6.68-.43,3,1.41,10,1.87,13.08,1.27,8.56-2.73,10-4.89,18-2.36,8.71-2.74,19.83-3,30.57-.12,6.27-.2,12.41-.58,17.86-1,14.79-4.75,28.18-11.5,39.48-1.51,2.53-7.37,6.36-9.81,6.55l-34.59,2.69c-8.21.64-12.82-25.31-6.64-36.67,4.81-8.84,10-15.05,13.16-25.22,4.16-13.26,3.06-28.69,1.71-43.35-.28-3-.56-6.06-.87-9.09-2.11-21.17-5.05-42.39-11.68-62A81.57,81.57,0,0,0,248,735.8c-2.19-4.08-4.82-7.68-7.22-11.55a128.92,128.92,0,0,1-12.07-26.52c-.6.56-1.21,1.1-1.83,1.63,5.27,22.41,13.3,50.76,17.92,60.34.79-2.26,2.73-5.24,2.42-7.78a101.6,101.6,0,0,1,2.55,18,5.48,5.48,0,0,0,.91-3.8,94.86,94.86,0,0,1,.51,12,5.28,5.28,0,0,0,2-3.93c2.53,9.36-5.7,17.8-4.91,27.6.22,2.73,1.15,5.45.86,8.14-.26,2.43-1.47,4.37-2.53,6.31-4.17,7.68-6.36,16.89-8.1,26.36-.81,4.4-1.53,8.85-2.3,13.23-2.42,13.78-2.25,23.5-10.49,31.86-4.34,4.4-14.22,11.85-16.57,12.82a6,6,0,0,1-1.89.46c-4.35.35-22.7,1.7-30.21.5-2.07-.33-4.34-.89-5.71-3.1a13.22,13.22,0,0,1-1.39-3.95A106.88,106.88,0,0,1,167.55,879a14.15,14.15,0,0,1,.21-4.79A9.57,9.57,0,0,1,171,869.7c6.58-6,12.45-9.81,19-15.84a28.3,28.3,0,0,0,4.54-7,17.76,17.76,0,0,0,1.28-5c.94-7.5.79-12.55,3.64-20.77a21.2,21.2,0,0,0,1-4.94c.13-1.48.19-3,.24-4.48.46-12.48-5.44-23.89-10-35.11-5.66-14.08-9.44-29.3-13.19-44.43q-3.53-14.28-7.07-28.56C143.11,665.06,129.53,586.15,124.6,577c-2.42-4.47-5.06-9.17-9.48-11.69s-11.15-1.71-13.22,2.94A209.4,209.4,0,0,1,80,526.76a12.86,12.86,0,0,1-3.5,9.92,114,114,0,0,1-15.88-42L56.23,506.3a261.08,261.08,0,0,1-12-61.13l-6,14.34Q35,422.93,35.28,386.13q-2.53,5.73-5.08,11.45Z" transform="translate(-14.36 -63.45)"/></g><path class="cls-4" d="M120.91,165.24l.53,11.19a13.56,13.56,0,0,0,5.74,10.43l9.16,6.45-.66-13.71a8.44,8.44,0,0,0-3.55-6.46Z" transform="translate(-14.36 -63.45)"/></g></g></svg>