<svg id="圖層_1" data-name="圖層 1" xmlns="http://www.w3.org/2000/svg" xmlns:xlink="http://www.w3.org/1999/xlink" viewBox="0 0 2049 1152"><defs><style>.cls-1,.cls-9{fill:none;}.cls-2{clip-path:url(#clip-path);}.cls-11,.cls-3{fill:#83a2ce;}.cls-3{stroke:#a2ddd9;}.cls-3,.cls-6,.cls-9{stroke-linecap:round;}.cls-3,.cls-6{stroke-linejoin:round;}.cls-3,.cls-4,.cls-6{stroke-width:2px;}.cls-10,.cls-4{fill:#e8c5df;}.cls-10,.cls-11,.cls-12,.cls-4,.cls-6{stroke:#2e3453;}.cls-10,.cls-11,.cls-12,.cls-4,.cls-9{stroke-miterlimit:10;}.cls-5{fill:#2e3453;}.cls-12,.cls-6{fill:#a2ddd9;}.cls-7{fill:#8d82bb;}.cls-8{fill:#fff;}.cls-9{stroke:#fff;stroke-width:0.7px;}.cls-13{fill:#6f1c3e;}</style><clipPath id="clip-path"><rect class="cls-1" width="2048.88" height="1152"/></clipPath></defs><g class="cls-2"><path class="cls-3" d="M1323.63,586.5c0,171.88-139.33,311.21-311.21,311.21S701.21,758.38,701.21,586.5s139.34-311.21,311.21-311.21,311.21,139.34,311.21,311.21Z"/><path class="cls-4" d="M1241.88,586.5c0,126.73-102.73,229.46-229.46,229.46S783,713.23,783,586.5,885.69,357,1012.42,357s229.46,102.73,229.46,229.46Z"/><path class="cls-5" d="M793.06,403.12c5.24-4.47,11.71-9.25,18.36-7.47,3.69,1,8.93,2.91,12.52,7.47,0,0,9.73-7.24,15-7.9a19,19,0,0,1,14.9,4.34c-3.6-2-8.07-1.17-11.93.23a45.22,45.22,0,0,0-18.59,12.72c-2.75-4.68-5.89-9.7-11-11.55-6.41-2.33-13.37-1.23-19.29,2.16"/><path class="cls-5" d="M829,429.27c5.25-4.47,11.71-9.24,18.37-7.46,3.68,1,8.93,2.91,12.52,7.47,0,0,9.72-7.24,15-7.9a18.92,18.92,0,0,1,14.9,4.33c-3.59-2-8.07-1.16-11.92.23a45.18,45.18,0,0,0-18.59,12.73c-2.75-4.69-5.89-9.7-11-11.56-6.41-2.33-13.36-1.22-19.29,2.16"/><path class="cls-5" d="M1002.88,503.39c2.3-2,5.14-4.05,8.06-3.27a10.11,10.11,0,0,1,5.49,3.28s4.27-3.18,6.59-3.47a8.3,8.3,0,0,1,6.54,1.9c-1.58-.87-3.54-.51-5.24.1a19.79,19.79,0,0,0-8.15,5.58c-1.21-2.05-2.59-4.25-4.82-5.06a10.08,10.08,0,0,0-8.47.94"/><path class="cls-5" d="M726.43,470.76C724,453,742.14,451.27,745.74,455.83c0,0,11.81-11.27,23.9,11.93-13-9.47-19.52-8.27-24.51-2.55-2.75-4.68-10-7.6-18.7,5.55"/><path class="cls-5" d="M951.31,420.72c-2.42-17.78,15.84-16.84,19.43-12.28,0,0,11.69-13.91,23.78,9.28-13-9.47-19.52-8.26-24.51-2.54-2.75-4.68-10-7.6-18.7,5.54"/><path class="cls-5" d="M910.84,481.1c-.3-11.2,11-9.38,12.9-6.31,0,0,8.2-7.84,14.13,7.38-7.46-6.77-11.56-6.46-15-3.24-1.39-3.09-5.7-5.4-12,2.17"/><path class="cls-5" d="M682.1,393.69c5.42-1.1,11.82-1.95,15.8,1.89,2.21,2.13,5.15,5.52,5.9,10.12,0,0,9.65-1.31,13.62.28a15.23,15.23,0,0,1,8.79,8.84c-1.76-2.79-5.22-4-8.47-4.47a36.18,36.18,0,0,0-18,1.71c-.12-4.36-.37-9.1-3.24-12.39a18.43,18.43,0,0,0-14.39-6"/><path class="cls-5" d="M1006.45,452.12c2.53-2.77,5.69-5.79,9.4-5.28a12.61,12.61,0,0,1,7.26,3.17s4.74-4.57,7.55-5.29A10.34,10.34,0,0,1,1039,446c-2.07-.82-4.43-.07-6.41.94a24.57,24.57,0,0,0-9.16,8.13c-1.8-2.34-3.84-4.82-6.71-5.48a12.54,12.54,0,0,0-10.26,2.49"/><path class="cls-6" d="M1660.21,487.83c-62.45,22.64-120.33,82.46-163,87.31s-67-56.59-131-35.57S1118,670.52,1014.41,675.37,591,465.2,520.93,449c-58.33-13.46-227.62,51.8-282.7,74v-.42q-38.28,14.88-77.67,26.76c-27.33,8.23-57.06,15.29-83.93,5.68-32.71-11.7-53.09-45.24-84.79-59.42v385H2055.55V675.45S1722.66,465.2,1660.21,487.83Z"/><path class="cls-5" d="M1797.17,713.67c-10-1.74-20.29.93-30,4.13-77.65,25.7-147.34,87.79-228.78,80.24-81.81-7.58-154.45-85.49-233.61-63.5-29.23,8.13-56,29.75-86.15,26-10.19-1.26-19.75-5.41-29.66-8.08-49.73-13.44-100.84,10.87-147.88,31.87s-102.92,39-148.23,14.46c-13.63-7.37-26.26-18.54-41.73-19.25-16.93-.79-34.35,11.31-49.84,4.42-7.84-3.49-12.91-11.1-17.39-18.42-16.49-27-31-55.7-53.31-78.11s-54.81-37.83-85.47-30.12c-19.35,4.87-37.93,18.56-57.33,13.84-12.61-3.07-22-13.33-30.56-23.07l-70.4-80c-6.14-7-12.64-14.22-21.33-17.55-10.51-4-22.3-1.63-33.13,1.4-59,16.52-111.49,50.12-167,76S146.79,672.4,87.7,656.21C47.1,645.08,21.1,616.06-8.17,585.8L-8.7,714.44C-8.7,767.38,12.57,807,49.57,835c27.68,20.89,65.72,18.8,100.33,16.65C350,839.14,550.62,856.33,751.07,861c146.16,3.41,292.39.15,438.55-3.1l492.07-11c31.46-.7,334.09,8.31,363.16-3.75s-108-53-136.8-82.31c-15.51-15.81-89.06-43.44-110.88-47.21Z"/><path class="cls-4" d="M-10.22,934.5C7.89,898.84,40.75,873,75,852.32c149.47-90.2,338.22-98.92,506.8-53.57,91.75,24.68,181,65.48,249.94,130.81"/><path class="cls-4" d="M673.36,831.16c118.29,46.32,251.14,23.62,375.48-2.39s254.65-54.56,376.5-18.63c35.8,10.56,70.19,26.57,107.08,32.26,56.39,8.69,113.23-7.36,169.84-14.46a543.62,543.62,0,0,1,174.93,6.54c50.1,10.13,103,30.74,128.09,75.25,2.76,4.88,5.18,10.71,3.18,15.94-2.33,6.11-9.45,8.61-15.75,10.34-296.94,81.76-609.63,86.1-917.24,71-104.88-5.15-210-12.54-312.92-33.34-27.11-5.47-55-12.34-76.68-29.54s-35.24-47.58-25-73.26"/><polygon class="cls-7" points="2055.55 1172.7 -8.7 1172.7 -8.7 880.7 2055.55 880.7 2055.55 1172.7 2055.55 1172.7"/><path class="cls-8" d="M889.78,1044.07A735.52,735.52,0,0,1,761,1078.91a10.7,10.7,0,0,0-4.16,19.41c7.67,5.22,16.93,8.62,26,10.64,16.43,3.65,33.62,4,49.52,9.55,7.05,2.45,14.67,7.18,15.19,14.63-53.52,20.62-111.91,24.14-167.15,39.56l588-.75c-2.35-5.22-7.9-9.92-13.27-12.67-52.1-26.75-119.59-7.43-170.33-36.66l88.9-23.87c6.6-1.77,14.61-5.24,14.68-12.08.08-7.24-8.72-10.7-15.82-12.13a1455.31,1455.31,0,0,0-146.6-21.8l95.33-18.22c6.47-1.23,14.8-5.14,13.22-11.53-1.22-4.92-7.45-6.26-12.5-6.75a388.77,388.77,0,0,1-99.31-23.18c12.24-11.66,33.7-11.21,48.34-17.91,6.65-3,4.52-13-2.8-13.19l-75.68-1.64c-5.15-.12-12.13-2-11.11-7.54a6.58,6.58,0,0,1,4.35-4.89l52.16-18.4a6.4,6.4,0,0,0,4.35-6.49c-.31-3.34-3.17-4.24-5.72-4.93l-33.42-9c.16-4.71,4.27-8.14,7.34-11.72,3.76-4.41,5.92-12.41-1.94-14.18a11.87,11.87,0,0,0-3-.26c-17.91.63-18.12-.27-12.67-2.2H946.71c-2,1.95-16.64,1.57-17.06,3.6-.81,4,9.82,10.71,5.7,11.76-8.9,2.28-19.94,4.63-24.43,6.76-1.78.85-3.67,1.78-4.68,3.48-4.39,7.32,11.43,12.68,11,21.21-.26,5.78-7.47,8.1-13.21,8.91l-23.47,3.28c-8.61,1.2-19.87,5.35-16.77,15.18,1.89,6,8,9.37,14.23,8.51,8.14-1.14,24.17,5.25,19.41,14.85a9.72,9.72,0,0,1-4.44,4.34,138.54,138.54,0,0,1-48.89,13.76c-8.19.73-19.4,4-18.14,12.14,1.14,7.32,11.13,8.2,18.54,8.15a85.4,85.4,0,0,1,49.69,15.69,6.48,6.48,0,0,1,2.58,3.77c1,4.28-3.39,6.62-7,8Z"/><path class="cls-8" d="M1061.6,943.76c-9.76-.93-19.59-.24-29.36.44h-.08c-2.75.14-2.73,4.24,0,4.43,1.3.09,2.61.13,3.9.15,8.66.16,17.48-.19,25.78-2.51a1.28,1.28,0,0,0-.21-2.51Z"/><path class="cls-8" d="M1036.57,900.39a.78.78,0,0,0-.61-.38,32,32,0,0,0-15.7-.15c-2.28.44-4.7,1.16-5.26,2.17a.69.69,0,0,0-.07.66.75.75,0,0,0,.56.25c6,.76,12.33,1.51,18.1-.44a7.72,7.72,0,0,0,2.65-1.38c.21-.19.42-.46.33-.73Z"/><path class="cls-8" d="M1169,966c-2-1.13-4.92-2.74-7.26-2.8a69.25,69.25,0,0,0-32.61,6.26c-.49.23-1.06.58-1,1.13s.71.91,1.29,1.07a88.2,88.2,0,0,0,28.09,3.05c4.34-.24,8.92-.9,12.25-3.69a3.31,3.31,0,0,0,1.41-2.37c0-1.19-1.08-2.08-2.12-2.65Z"/><path class="cls-8" d="M1223.28,1060.65a3.61,3.61,0,0,0-1.75-2.08c-4.33-2.88-9.68-3.71-14.85-4.28-16.24-1.8-41.46-1.88-57.68.1h.18c-.73.08-1.46.15-2.18.25a4,4,0,0,0-2.15.76c-1.14,1-.77,3,.35,4a8.1,8.1,0,0,0,4.22,1.6,273.58,273.58,0,0,0,69.18,3.07c2.19-.19,5.11-1.29,4.68-3.45Z"/><path class="cls-8" d="M889.57,909.57a7,7,0,0,0-3.19-2.14,54.67,54.67,0,0,0-21.21-.37c-1.34.25-2.84.65-3.52,1.84a3.32,3.32,0,0,0,1,4,8.38,8.38,0,0,0,4.08,1.59,41.83,41.83,0,0,0,21.8-2c.79-.3,1.69-.79,1.71-1.62a1.85,1.85,0,0,0-.67-1.31Z"/><path class="cls-8" d="M806.31,1006.91h0l-.24,0c-16.42-1.41-32.23-2.55-48.35.89a5.06,5.06,0,0,0-3.23,1.6c-1,1.41-.26,3.51,1.13,4.55a9.65,9.65,0,0,0,4.91,1.44,145.26,145.26,0,0,0,42.54-2c2-.4,4.28-1.05,5.14-2.91a2.73,2.73,0,0,0-1.89-3.52Z"/><path class="cls-8" d="M807.55,1050.31a2.42,2.42,0,0,0-1.58-.84c-3.29-.72-5.28-.29-8.87-.37l.53,0a47.21,47.21,0,0,0-12.09,1c-1.61.35-3.46,1-3.92,2.59-.68,2.36,2.23,4.11,4.64,4.57A27.27,27.27,0,0,0,806,1053.4c1.08-.7,2.22-2,1.51-3.09Z"/><path class="cls-8" d="M688.44,1136.1c-5.06.59-10.61,1.45-13.76,5.55a3,3,0,0,0-.68,1.77c0,1.85,2,2.51,3.64,2.76,8.6,1.31,17.38.35,26-.93a362.64,362.64,0,0,0,59.69-14.09,1.29,1.29,0,0,0,.84-.9h0a1.28,1.28,0,0,0-1.34-1.6c-20.59,1.75-54.69,5.14-74.38,7.44Z"/><path class="cls-9" d="M526.9,931.42h61.37m82.16,0H902.85m105.55,0h81.91m122.65,0h142.12m153,0h89.4m58.06,0h28m-1421.3,0h28m63.48,0H454m-31.65,27.43h92.09m186.7,0H722.6m172.35,0h60.83M767.62,1141.8H789.1m172.35,0h60.83m55.14-182.95h25.78m218.82,0H1423.9m128.82,0h25.11M506.06,986.28H526.9m41.27,0h67.94m154.29,0h28.5m228.48,0h96.2m92.34,0h20m143.26,0h49.52M526.9,1013.71h44.85m561.3,0h62.22m126.68,0h25.91m-320.6,0h25.91m-298.08,0H959m-214,88.81H682.77m168,0H824.86m298.08,0H919m-298-61.39H766.41m43.51,0h48.42m380.83,0H1251m-322.46,0h223.43m-428.18,27.43H959m39.23,0h49.13m87.85,0h16.7"/><path class="cls-3" d="M686.8,1172.7c-51-39.18-102-100-153-139.13-5.36-4.11-10.83-8.29-17.21-10.52s-13-2.37-19.63-2.56q-73.31-2.13-146.3-9.66c-23.2-2.4-78.51-11.27-78.51-11.27-57.51-93.17-125-204-182.52-297.21C74.92,678.55,59.5,654,36.16,638.57c-13.47-8.9-29-14.26-44.86-17.41V1172.7Z"/><path class="cls-3" d="M2010.69,638.57c-23.34,15.42-38.75,40-53.44,63.78-11.33,18.35-106.81,201.29-106.81,201.29s-313.9,117.22-320.15,119.41-11.86,6.41-17.22,10.52c-21.79,16.75-30.52,23.58-51.62,44.17l2.92,95h591.18V621.16c-15.89,3.15-31.38,8.51-44.86,17.41Z"/><path class="cls-5" d="M1480,1063.63c-2.94-2.63-7-3.67-11-3.67a48.61,48.61,0,0,0-11.63,1.94,72.74,72.74,0,0,1,20.07-6.48c-4.32-7.69-13-11.64-21.11-15.11a48.39,48.39,0,0,1,27,7.83,56.26,56.26,0,0,0-6.71-15.09,59.38,59.38,0,0,1,19.72,20.69"/><path class="cls-5" d="M1518.68,1034a9.71,9.71,0,0,1,1.19-19.38c-2.58-6-2.7-13.4,1.2-18.62s12.35-7,17.15-2.56a36.12,36.12,0,0,1,12-22.68,18.85,18.85,0,0,1,7.36-4.27,17.6,17.6,0,0,1,10,.63,27.9,27.9,0,0,1,17.71,35.51,16.37,16.37,0,0,1-3.34,6,21.81,21.81,0,0,1-5.06,3.7,182,182,0,0,1-57.9,21.63"/><path class="cls-10" d="M562.25,1068.86c-.18-11.32,17.45-47.32,15.54-56.35-1.63-7.73-4.52-15.14-6.51-22.78-3.85-14.78-4.31-30.19-4.75-45.45l6.45-1.15a75.89,75.89,0,0,0,17.84,60,37.29,37.29,0,0,1,12.83-21.8c3.47-2.86,7.42-5.06,11-7.84a41.89,41.89,0,0,0,14.92-24.39l5.52,2.78c-7.2,10.14-11,22.7-19.63,31.62-3.51,3.6-7.74,6.53-10.72,10.58-4.55,6.17-25.48,59.35-27.86,78.86"/><path class="cls-11" d="M576.77,952.49a45.16,45.16,0,0,1-24,2.13c-4.44-.81-8.86-2.37-12.27-5.32s-5.66-7.49-5.07-12c1-7.35,9.09-11.82,16.5-12.08-7-1-12.55-6.63-15.75-12.92-6.19-12.15-4.18-28.9,6.81-37,6.72-4.93,15.5-6,23.84-6s16.73,1.18,25,0a13.12,13.12,0,0,1,16.61-16.09,30.59,30.59,0,0,1,4.1-15.51,9.21,9.21,0,0,1,3.4-3.7,10.13,10.13,0,0,1,4.77-.79,93.91,93.91,0,0,1,32.32,6c3.41,1.28,6.85,2.83,9.33,5.5,4.18,4.5,4.8,11.43,3.13,17.33s-5.28,11-8.83,16a12.43,12.43,0,0,1,9.07,22.15c10.15,6,20.06,14.46,22.2,26,2.54,13.68-7.58,27.67-20.73,32.22s-28.1,1-39.77-6.63a42.61,42.61,0,0,1-44.67,6c-2.5-1.18-5.18-3.08-5.26-5.84"/><path class="cls-12" d="M591,961.19a45.06,45.06,0,0,1-24,2.14c-4.44-.82-8.86-2.37-12.27-5.33s-5.66-7.48-5.06-12c1-7.35,9.08-11.83,16.49-12.09-7-1-12.55-6.62-15.75-12.91-6.19-12.15-4.17-28.9,6.81-37,6.72-4.93,15.51-6,23.85-6s16.72,1.18,25,0A13.12,13.12,0,0,1,622.65,862a30.49,30.49,0,0,1,4.1-15.51,9.06,9.06,0,0,1,3.39-3.7,9.9,9.9,0,0,1,4.77-.79,93.62,93.62,0,0,1,32.32,6c3.42,1.29,6.86,2.84,9.34,5.51,4.17,4.5,4.79,11.42,3.12,17.33s-5.28,11-8.82,16.05A12.43,12.43,0,0,1,679.93,909c10.15,6,20.06,14.45,22.21,26,2.53,13.68-7.59,27.67-20.74,32.21s-28.1,1-39.77-6.63a42.59,42.59,0,0,1-44.66,6c-2.51-1.17-5.19-3.07-5.26-5.83"/><path class="cls-5" d="M-8.7,685S22.42,699.66,31,731.41,77.67,894.79,77.67,894.79L44.32,974.15l147.36,52.09L219.93,1105l185.82,2.88L510.82,1184H-8.7V685Z"/><path class="cls-10" d="M297.63,894.27c-1.27,12.31,10.36,55.66,12.51,57l36.33,23.37h0c11-3.93,19.35-4.34,30.84-6.27,6.73-1.13,14.06-2.17,18.85-7,3-3.07,4.57-7.26,6-11.33a384.12,384.12,0,0,0,13.8-51.52l8.26,16.37Q418.57,935.2,413,955.51c-1.34,4.83-2.73,9.78-5.7,13.82-6.76,9.22-19.4,11.19-30.44,14.18-3.22.88-6.53,2-8.9,4.32a21.11,21.11,0,0,0-4,6.58c-11.37,25.57-26.57,97.67-34.07,124.63l-44.46-4.63c11.85-28.31,37.34-97.13,45.08-126.82l.24-.9L304.5,968.83a11.32,11.32,0,0,1-6.32-9.93q-5.06-33-8.45-66.15l7.9,1.52Z"/><path class="cls-5" d="M219.06,1058.05c7.34-8.86,19.69-14,30.77-10.88,8.66,2.43,15.31,9.19,21.44,15.78-1.44-5.64,2.78-11.72,8.34-13.47s11.79.2,16.33,3.85,7.61,8.82,10.09,14.09h0c8.37,9.55,6.07,19.74,2.15,31.81s-13.88,21.85-25.79,26.26c-8.1,3-16.95,3.65-25.55,3.22a91.31,91.31,0,0,1-18.87-2.94c-7.43-2-15-5-20.24-10.6-6.1-6.56-8.32-15.88-8.55-24.83-.3-11.5,2.53-23.44,9.88-32.29Z"/><path class="cls-5" d="M529,1023.82a63,63,0,0,0,5.81-42.41c6.39,4.52,10.32,11.87,12.23,19.46s2,15.5,2.06,23.32a71.4,71.4,0,0,0,16.56-21,48.64,48.64,0,0,1-13.7,35.08,106.44,106.44,0,0,1,18.24-2.12l-15.87,12.4-36.88-2c5.21-4.07,7.57-11,7.24-17.65s-3-12.87-6.42-18.55A21.93,21.93,0,0,1,529,1023.82Z"/><path class="cls-5" d="M598.31,1081a43.64,43.64,0,0,1,26.42-13.45c-4.41-3.15-10.11-4-15.51-3.57s-10.59,2.22-15.73,4a49.4,49.4,0,0,1,10-15.61,33.67,33.67,0,0,0-19.83,16.94,73,73,0,0,0-2.77-12.41q-2.24,6.6-4.49,13.2l9.68,23.68c1.47-4.34,5.5-7.47,9.9-8.75s9.11-1,13.59,0a15.21,15.21,0,0,0-11.25-4Z"/><path class="cls-10" d="M1723,775q-5.57,40.65-11.12,81.31c-1.11,8.12-2.3,16.45-6.28,23.61-3.81,6.84-9.9,12.07-15.85,17.16l-37.53,32A474.58,474.58,0,0,1,1655.32,778l-12.74,14.32q-4.47,34.07-8.93,68.13c-.61,4.66-1.21,9.33-1.76,14-.92-1.12-2.6-1.56-4.08-1.88a86.67,86.67,0,0,1-29.64-12.51,10.81,10.81,0,0,1-4-3.84,11.55,11.55,0,0,1-.83-5.1q-.41-39.87-.8-79.73l-19.69-15.34a837,837,0,0,1,5.22,106.65c0,2.39,0,4.89,1,7,1.18,2.3,3.46,3.78,5.68,5.1a150.32,150.32,0,0,0,44.92,17.75c.25-1.41.51-2.81.77-4.21-.48,6.17-.73,12.35-.61,18.55.36,18.26,3.92,36.29,6.91,54.32a861.56,861.56,0,0,1,10.6,100.33l42.9-1.15a472.14,472.14,0,0,1-34.09-107.18l49.53-48.11c4-3.89,8.08-7.89,10.44-12.93,2.09-4.47,2.69-9.47,3.26-14.38q6.72-57.61,13.45-115.23L1723,775Z"/><path class="cls-5" d="M1929.78,870.26l-1.21,56.46L1759,1024.9v44.21l-532.22,45.56s-9.25,1.44-24.42,11.88l-91.58,63h944.78V760.08L1929.78,870.26Z"/><path class="cls-13" d="M1313.38,800.18c.25-.92.52-1.83.78-2.74l-1.17-.07c.12.94.24,1.87.39,2.81Z"/><path class="cls-12" d="M499.06,923.44a5.87,5.87,0,0,1-2.84-3.24c-.37-1.61.52-3.21,1.27-4.68a30.41,30.41,0,0,0-2.41-30.74,16.2,16.2,0,0,1-2.84-4.74c-1.18-4.06,1.85-8.16,5.26-10.67s7.46-4.33,9.93-7.76c5.58-7.75-.66-19.45-9.57-22.89-7.67-3-16.14-1.68-24.25.23a3,3,0,0,1-3.73-3.07c.6-17.51-.69-35.72-10.15-50.32-6.75-10.41-17.09-18-28-24-21.37-11.72-45.87-18-70.22-16.84s-48.44,9.88-67.2,25.44c-7.8,6.48-14.82,14.34-18.26,23.87-2.91,8.05-2.91,17.43.94,24.94a3.05,3.05,0,0,1-2.2,4.43,37.32,37.32,0,0,0-25.95,56.79,3,3,0,0,1-3.07,4.58,47.35,47.35,0,0,0-17.48.4c-3.72.8-7.63,2.26-9.66,5.47a7,7,0,0,0-.89,4.94,3,3,0,0,1-3.23,3.6q-9.24-1-18.51-1.5a3.05,3.05,0,0,0-1.27,5.89,139.4,139.4,0,0,0,76.29,8c4.11-.74,8.79-1.54,12.1,1,1.69,1.31,2.72,3.3,4.28,4.76,3,2.84,7.58,3.24,11.75,3.16a82.19,82.19,0,0,0,28.44-5.63,3,3,0,0,1,3.45.93C346.6,935,377.43,939.66,398,926a3,3,0,0,1,3.81.35c5.54,5.49,13.6,8.15,21.46,8.44,8.7.31,17.27-2,25.58-4.54,2.25-.7,4.59-1.43,6.91-1.07a16.58,16.58,0,0,1,5.33,2.26,93,93,0,0,0,61.75,10.16,3.17,3.17,0,0,1,.53,0h0a3.05,3.05,0,0,0,2-5.34c-6.89-6.12-18.14-7.54-26.33-12.79Z"/><path class="cls-11" d="M292.94,913.15a10.2,10.2,0,0,1-4-11.34c-9.34,2.42-19.45,3.83-26.64-3.41-2.33-3-3.76-5.9-1.53-9.23a14.52,14.52,0,0,1,15.12-5.28c-16.53-4.83-16.69-24.71-9.65-37.35s20.7-13.6,33.14-12c-14.31-8.16-22.69-27.29-13.53-42.37,30.83-47.12,95.51-51.15,145.48-30.81-21.27-11.58-45.61-17.76-69.81-16.62s-48.44,9.88-67.2,25.44c-7.8,6.48-14.82,14.34-18.26,23.87-2.91,8.05-2.91,17.43.94,24.94a3.05,3.05,0,0,1-2.2,4.43,37.32,37.32,0,0,0-25.95,56.79,3,3,0,0,1-3.07,4.58,47.35,47.35,0,0,0-17.48.4c-3.72.8-7.63,2.26-9.66,5.47a7,7,0,0,0-.89,4.94,3,3,0,0,1-3.23,3.6q-9.24-1-18.51-1.5a3.05,3.05,0,0,0-1.27,5.89,139.4,139.4,0,0,0,76.29,8c4.11-.74,8.79-1.54,12.1,1,1.69,1.31,2.72,3.3,4.28,4.76,3,2.84,7.58,3.24,11.75,3.16a82.19,82.19,0,0,0,28.44-5.63,3,3,0,0,1,3.45.93,44.94,44.94,0,0,0,9,8.44,86,86,0,0,1-8.51-17c-10.91,7.63-26.15,13.8-38.67,5.87Z"/><path class="cls-11" d="M1781.55,684c-15.63-13.63-36.63-20.09-57.37-20.27a19.51,19.51,0,0,0-19.29-29.38c11.29-8.12,12.18-25.77,4.84-37.58s-20.64-18.62-34-22.63c-16.48-5-35.46-6.16-49.9,3.2-19.49,12.63-23.7,38.86-26.09,62-13.72-3.6-29.52-1.79-40.17,7.59s-14,27.14-5.17,38.22c-35.06-1.88-72.42,18.49-82.81,52-4,13-3.58,28.26,4.61,39.2,6.59,8.8,17.37,13.74,28.24,15.4s41.82-.67,52.7-2.25c0,0,17.51,32.46,81.66,26,52.12-5.21,60.8-23.45,60.8-23.45s50.06,14.55,75.57-7c11.72-9.86,55.6-58.2,6.33-101.14Z"/><path class="cls-12" d="M1804.16,667.8c-15.64-13.63-36.63-20.1-57.37-20.27a19.51,19.51,0,0,0-19.29-29.38c11.29-8.12,12.17-25.77,4.83-37.58s-20.63-18.63-33.95-22.64c-16.48-5-35.46-6.15-49.9,3.21-19.49,12.63-23.7,38.86-26.08,62-13.73-3.59-29.53-1.78-40.18,7.6s-14,27.14-5.16,38.22c-35.07-1.88-72.42,18.49-82.81,52-4,13-3.58,28.26,4.61,39.2,6.59,8.8,17.36,13.74,28.23,15.4s41.83-.67,52.71-2.25c0,0,17.5,32.46,81.65,26.05,52.12-5.22,60.81-23.45,60.81-23.45s50,14.54,75.57-6.95c11.72-9.87,55.59-58.2,6.33-101.14Z"/></g></svg>