<svg xmlns="http://www.w3.org/2000/svg" width="133.02" height="133.02" viewBox="0 0 133.02 133.02"><defs><style>.cls-1{fill:none;stroke-width:2px;}.cls-1,.cls-2{stroke:#fff;stroke-miterlimit:10;}.cls-2{fill:#8d82bb;}.cls-3{fill:#fff;}</style></defs><g id="圖層_2" data-name="圖層 2"><g id="圖層_1-2" data-name="圖層 1"><polyline class="cls-1" points="49.23 48.13 57.88 41.36 66.52 34.58 75.16 41.36 83.81 48.13"/><circle class="cls-1" cx="66.5" cy="66.52" r="65.5"/><circle class="cls-1" cx="66.52" cy="66.5" r="65.5"/><path class="cls-2" d="M109.42,16.93A65.48,65.48,0,0,1,17,109.16a65.47,65.47,0,1,0,92.47-92.23Z"/><path class="cls-3" d="M55.41,68.53V71H49V87.76H46.09V71H39.65v-2.5Z"/><path class="cls-3" d="M73.16,71a10.32,10.32,0,0,1,2.42,7.16,10.35,10.35,0,0,1-2.42,7.14,8.84,8.84,0,0,1-6.92,2.83,8.8,8.8,0,0,1-6.93-2.86,10.35,10.35,0,0,1-2.39-7.11A10.4,10.4,0,0,1,59.31,71a8.65,8.65,0,0,1,6.93-2.88A8.76,8.76,0,0,1,73.16,71Zm-11.69,1.8a8.2,8.2,0,0,0-1.62,5.36,8.13,8.13,0,0,0,1.62,5.33,6.61,6.61,0,0,0,9.51.06,8.24,8.24,0,0,0,1.64-5.39A8.4,8.4,0,0,0,71,72.73a5.78,5.78,0,0,0-4.74-2A5.76,5.76,0,0,0,61.47,72.81Z"/><path class="cls-3" d="M86.52,68.53q6.87,0,6.87,5.84c0,3.94-2.32,5.9-6.93,5.9h-5v7.49H78.55V68.53Zm-5,9.24h4.8A5.07,5.07,0,0,0,89.46,77a3.21,3.21,0,0,0,1-2.59,3,3,0,0,0-1-2.53A5,5,0,0,0,86.28,71h-4.8Z"/></g></g></svg>